<svg width="83" height="66" viewBox="0 0 83 66" fill="none" xmlns="http://www.w3.org/2000/svg">
<path d="M8.88651 31.246C10.1399 30.9821 11.1621 30.1284 12.1073 29.2592C13.6483 27.8777 14.9787 26.2168 16.0112 24.3749C16.0266 24.3438 16.078 24.2352 16.0729 24.3231C15.7955 25.1458 15.5232 25.9788 15.2767 26.817C14.7887 28.4158 14.4034 30.0508 14.2853 31.7324C13.823 35.913 15.4154 36.8857 17.3468 32.9069C17.994 31.5461 18.5283 30.1077 18.8519 28.6176C19.0779 27.1223 18.8519 25.596 18.6413 24.1162C18.6361 24.0644 18.667 24.0851 18.6772 24.1214C18.8468 24.5611 19.0368 24.9854 19.2474 25.3993C19.7457 26.3928 20.3518 27.3189 21.0504 28.1623C22.4322 29.8749 24.0709 31.3288 25.802 32.6223C27.0348 33.5226 28.0724 34.7695 28.5913 36.2803C28.6067 36.3166 28.6015 36.3373 28.5604 36.3424C28.2471 36.3787 27.9337 36.4149 27.6204 36.4459C27.3327 36.477 27.0451 36.5028 26.7523 36.5287C26.6752 36.539 26.6752 36.539 26.6495 36.4614C26.4133 35.5146 25.617 34.8006 24.677 35.0593C24.2096 35.1524 23.7883 35.4163 23.4442 35.7578C23.3928 35.8095 23.3517 35.825 23.2901 35.7992C22.1857 35.3697 21.9494 35.2093 20.8193 35.7578C20.5419 35.8923 20.2902 36.0579 20.0642 36.27C20.0179 36.3114 19.982 36.3166 19.9255 36.2959C18.8622 35.9906 17.7423 36.3114 16.6739 36.4459C14.5627 36.7201 13.3658 35.9026 11.9429 34.7281C11.8145 34.6091 11.496 34.2987 11.4755 34.6247C11.3522 36.5753 11.9069 37.6825 13.0268 38.6294C13.7665 39.2554 15.4513 39.8866 16.4427 39.7263C16.7766 39.7004 17.1157 39.6745 17.4496 39.6745C17.6961 39.6642 17.8297 39.9229 17.9684 40.0988C18.5899 40.937 19.7662 41.0508 20.6703 40.7352C21.1429 40.6214 21.6617 40.2178 22.1292 40.5127C22.4374 40.7507 22.8124 40.8025 23.1771 40.7197C24.5435 40.4765 25.7301 39.5141 26.4389 38.2568C26.5828 38.0292 26.7009 37.7756 26.7266 37.5014C26.7317 37.4342 26.7625 37.4238 26.8191 37.4238C27.4714 37.4083 28.1238 37.3876 28.771 37.3151C28.884 37.31 28.884 37.3152 28.9097 37.4342C29.0844 38.2723 29.2231 39.1157 29.3361 39.9643C29.4491 40.611 29.5775 41.3302 30.0347 41.8062C30.5843 42.3547 31.1905 41.5682 31.36 41.0146C31.7658 39.9022 31.6271 38.6863 31.4678 37.5376C31.6785 35.8612 31.8274 34.1693 31.8685 32.4774C31.8685 32.4205 31.8788 32.3895 31.9404 32.3843C32.4336 32.3326 32.8188 31.9497 33.1784 31.6185C34.0465 30.7855 34.6424 29.6576 34.9352 28.4572C35.0533 27.8674 35.2228 27.2361 35.0841 26.6359C35.0071 26.341 34.8633 26.0564 34.8119 25.7564C34.7708 25.182 35.0174 24.6284 35.1253 24.0748C35.3718 23.1642 35.3513 22.1966 35.2177 21.2705C35.115 20.5823 34.6989 20.0494 34.3496 19.4958C34.1441 18.6576 34.1801 18.0936 34.4883 17.3123C35.0739 15.8326 34.5037 14.0682 34.2468 13.4266C34.0927 13.0386 32.9524 10.317 30.5946 10.4309C30.4456 10.4464 30.3788 10.6171 30.461 10.7568C30.6306 11.0621 31.0261 11.3467 31.2007 11.6519C31.7812 12.6609 31.6065 13.3438 31.4524 14.6167C31.1956 16.7587 30.5586 18.3833 30.6254 20.5357C30.6562 21.6792 30.6768 22.0673 30.9542 22.5484C30.9798 22.5898 30.9542 22.6364 30.9233 22.6726C30.3943 23.5315 29.9987 24.8043 30.0706 25.834C30.1528 26.4031 30.2967 26.9567 30.4097 27.5207C30.4199 27.5673 30.4097 27.5983 30.384 27.6345C29.4029 29.0056 29.2333 31.4426 30.9542 32.2291C31.0415 32.2705 31.0415 32.2705 31.0364 32.3636C30.9388 33.2846 30.8514 34.2107 30.7744 35.1369C30.7744 35.1472 30.759 35.1576 30.7538 35.1679C30.7436 35.1576 30.7333 35.1524 30.7281 35.1421C30.4816 34.547 30.1991 33.9727 29.8652 33.4295C28.884 31.8048 27.5639 30.4647 26.0588 29.4092C26.0074 29.3782 26.0485 29.3316 26.0896 29.3109C26.9166 28.7262 26.5982 27.0395 26.403 26.1548C25.9766 24.2973 25.2112 23.7023 23.7318 22.7813C22.5606 22.0362 21.3124 21.4205 20.0282 20.9341C19.9512 20.8721 18.893 20.6444 19.2782 20.6185C21.5898 20.2408 24.6102 19.6458 26.4749 18.0833C27.6409 17.0019 30.1682 14.6891 30.5381 13.1472C30.7847 11.6675 28.17 11.7399 27.2865 11.952C26.1102 12.2056 25.2318 13.1369 24.2917 13.8664C24.1582 13.9854 23.999 14.0682 23.886 14.2131C24.1787 13.8302 24.4715 13.4318 24.7489 13.0334C25.5657 11.8796 26.4749 10.0687 27.0297 8.75964C27.3122 7.94732 28.8635 4.24788 27.7231 3.91157C26.7831 3.77187 25.9561 4.4445 25.2215 4.9826C23.213 6.52446 21.9853 9.60818 20.8552 11.8485C20.9683 11.0259 21.0556 10.8086 21.2148 9.47883C21.3381 8.68721 21.2765 7.87488 21.2867 7.07808C21.2662 5.33443 21.1223 3.56491 20.7165 1.873C20.4237 0.827846 19.9871 -0.739887 19.0214 0.827846C18.2252 2.12653 17.7988 3.63735 17.4444 5.12747C17.1362 6.51929 17.054 7.2333 17.2184 8.88899C17.316 10.3688 17.4239 11.2432 17.3622 12.9713C17.3622 12.9817 17.3571 12.9972 17.3519 13.0075C17.3519 12.9972 17.3417 12.9868 17.3365 12.9765C17.316 12.8678 17.3057 12.7643 17.2852 12.6557C16.9616 10.5913 15.9136 7.80245 15.0507 5.92427C14.275 4.25306 13.4737 2.47836 12.1381 1.23142C10.2529 -0.232832 10.7974 3.53904 10.8899 4.57902C11.1056 6.44685 11.8556 9.10113 12.2357 10.9431C12.4155 11.7347 12.549 12.5522 12.9035 13.2869C13.3555 14.3269 13.9308 15.2893 14.4753 16.2723C14.4908 16.2827 14.501 16.293 14.5113 16.3034C14.5113 16.3086 14.5113 16.3241 14.5113 16.3344C14.5062 16.3293 14.4959 16.3241 14.4908 16.3189C13.9463 15.667 13.3607 15.0099 12.7853 14.3735C11.8453 13.3542 10.9207 12.3246 9.87278 11.4294C9.22041 10.9017 8.47043 10.5343 7.76669 10.0997C6.74447 9.51505 5.54246 8.67168 4.47401 8.18015C3.23604 7.63688 1.84398 7.10395 2.52203 9.20461C3.159 11.1914 4.37127 13.2869 5.66061 14.8702C6.90885 16.2672 8.47556 17.2968 10.0526 18.223C10.7409 18.6317 11.4806 18.9525 12.1946 19.2888C11.2289 19.1077 10.2683 18.8283 9.31287 18.5748C8.39339 18.3678 7.4893 18.0677 6.54413 17.9953C5.5065 17.9177 4.46887 17.897 3.4261 17.8608C2.64017 17.7935 1.8491 17.778 1.06831 17.8349C0.215605 17.8659 -0.344298 18.2023 0.241296 19.1025C1.53577 20.9393 3.66753 22.683 5.72224 23.4022C8.40365 24.111 11.2751 23.754 13.8538 22.7658C13.9052 22.7554 14.0644 22.683 14.0079 22.714C12.7083 23.5056 11.3727 24.23 10.0063 24.8768C9.15876 25.2855 8.2701 25.6477 7.49444 26.2065C6.68283 26.8946 5.87635 27.5931 5.09556 28.3123C4.54592 28.8866 3.12817 30.175 4.10416 30.9459C5.43972 31.7427 7.40712 31.6134 8.86083 31.246" fill="white"/>
<path d="M37.2621 22.5122C38.1148 23.9299 38.7878 25.4925 39.2706 27.1223C39.4607 27.8415 39.661 28.5659 39.7432 29.3109C39.8254 29.6886 39.7535 30.0922 39.8459 30.4596C40.2517 31.0442 40.3442 27.4638 40.3802 27.174C40.4367 26.2272 40.4264 25.2752 40.3545 24.3283C40.1798 21.9431 39.7073 19.2785 38.0737 17.5865C37.6217 17.1468 37.0721 16.7535 36.4608 16.8363C35.454 17.0174 34.8324 18.223 35.2434 19.3147C35.644 20.572 36.5738 21.4567 37.2621 22.5071" fill="white"/>
<path d="M37.3238 25.0216C36.5841 24.2817 35.3256 24.5042 35.5105 25.8702C35.6543 26.4031 36.0807 26.6877 36.4711 26.9102C36.9283 27.1637 37.3135 27.5776 37.6782 27.9915C38.1097 28.4986 38.5104 29.0522 38.798 29.6938C38.9213 29.9421 38.9932 30.2112 39.1011 30.4647C39.1165 30.5061 39.1422 30.5423 39.1884 30.532C39.286 30.4854 39.2295 30.2888 39.2449 30.1853C38.8905 28.4003 38.5669 26.3048 37.3238 25.0268" fill="white"/>
<path d="M40.9195 33.5536C40.4778 32.8758 40.0155 32.1877 39.399 31.6703C38.7107 31.0339 37.9351 30.5165 37.0721 30.1957C36.5481 29.9991 36.0036 29.8335 35.4437 29.8076C35.2896 29.7921 35.3204 29.9577 35.3564 30.0611C35.5516 30.8062 35.8392 31.5254 36.2091 32.1877C36.2091 32.1877 36.6817 33.2277 37.8786 34.2676C37.9042 34.2883 37.9299 34.309 37.9556 34.3349C38.7826 35.0386 39.9436 35.7267 41.5257 36.0837C43.1027 35.7267 44.2636 35.0386 45.0906 34.3349C45.1163 34.3142 45.142 34.2935 45.1677 34.2676C46.3645 33.2277 46.8371 32.1877 46.8371 32.1877C47.207 31.5254 47.4946 30.8062 47.6898 30.0611C47.7258 29.9577 47.7515 29.7921 47.6025 29.8076C47.0426 29.8283 46.4981 29.9991 45.9741 30.1957C45.1112 30.5165 44.3355 31.0339 43.6472 31.6703C43.0308 32.1877 42.5684 32.8707 42.1267 33.5536C42.1935 32.9793 42.3527 32.4153 42.363 31.8307C42.5017 29.8749 42.2243 27.8932 41.7414 26.0047C41.649 25.6787 41.5822 25.4407 41.5257 25.2596C41.4692 25.4407 41.4024 25.6839 41.3099 26.0047C40.8271 27.8881 40.5497 29.8749 40.6884 31.8307C40.6987 32.4153 40.8579 32.9793 40.9247 33.5536" fill="white"/>
<path d="M24.04 41.7545C22.7199 41.7545 21.6514 42.8307 21.6514 44.1604C21.6514 45.4901 22.7199 46.5663 24.04 46.5663C25.3602 46.5663 26.4286 45.4901 26.4286 44.1604C26.4286 42.8307 25.3602 41.7545 24.04 41.7545Z" fill="white"/>
<path d="M34.3393 40.4765C33.5123 40.4765 32.8394 41.1491 32.8394 41.9821C32.8394 42.8151 33.5123 43.4878 34.3393 43.4878C35.1663 43.4878 35.8393 42.8151 35.8393 41.9821C35.8393 41.1491 35.1663 40.4765 34.3393 40.4765Z" fill="white"/>
<path d="M34.3804 31.7893C33.9181 31.7893 33.538 32.167 33.538 32.6326C33.538 33.0983 33.913 33.476 34.3804 33.476C34.8479 33.476 35.2228 33.0983 35.2228 32.6326C35.2228 32.167 34.8479 31.7893 34.3804 31.7893Z" fill="white"/>
<path d="M27.4714 41.9873C28.1084 41.9873 28.6272 41.4647 28.6272 40.8231C28.6272 40.1816 28.1084 39.659 27.4714 39.659C26.8344 39.659 26.3156 40.1816 26.3156 40.8231C26.3156 41.4647 26.8344 41.9873 27.4714 41.9873Z" fill="white"/>
<path d="M18.0351 42.6858C18.0351 43.317 18.5437 43.8293 19.1704 43.8293C19.797 43.8293 20.3056 43.317 20.3056 42.6858C20.3056 42.0546 19.797 41.5423 19.1704 41.5423C18.5437 41.5423 18.0351 42.0546 18.0351 42.6858Z" fill="white"/>
<path d="M38.8443 37.3203C38.8443 37.7187 39.1679 38.0447 39.5634 38.0447C39.959 38.0447 40.2826 37.7239 40.2826 37.3203C40.2826 36.9167 39.959 36.596 39.5634 36.596C39.1679 36.596 38.8443 36.9219 38.8443 37.3203Z" fill="white"/>
<path d="M35.8341 48.5273C35.8341 48.9257 36.1577 49.2516 36.5533 49.2516C36.9488 49.2516 37.2724 48.9257 37.2724 48.5273C37.2724 48.1289 36.9488 47.8029 36.5533 47.8029C36.1577 47.8029 35.8341 48.1237 35.8341 48.5273Z" fill="white"/>
<path d="M33.5123 50.8401C33.5123 50.4934 33.2298 50.2088 32.8856 50.2088C32.5414 50.2088 32.2589 50.4934 32.2589 50.8401C32.2589 51.1867 32.5414 51.4713 32.8856 51.4713C33.2298 51.4713 33.5123 51.1867 33.5123 50.8401Z" fill="white"/>
<path d="M28.468 28.1054C29.1255 28.1054 29.6545 27.5724 29.6545 26.9102C29.6545 26.2479 29.1203 25.715 28.468 25.715C27.8156 25.715 27.2814 26.2479 27.2814 26.9102C27.2814 27.5724 27.8104 28.1054 28.468 28.1054Z" fill="white"/>
<path d="M32.0175 48.7394C32.0175 48.1237 31.5243 47.627 30.9131 47.627C30.3018 47.627 29.8087 48.1237 29.8087 48.7394C29.8087 49.3551 30.3018 49.8518 30.9131 49.8518C31.5243 49.8518 32.0175 49.3551 32.0175 48.7394Z" fill="white"/>
<path d="M23.3877 52.8683C22.6737 52.8683 22.0983 53.4478 22.0983 54.167C22.0983 54.8862 22.6737 55.4657 23.3877 55.4657C24.1017 55.4657 24.677 54.8862 24.677 54.167C24.677 53.4478 24.1017 52.8683 23.3877 52.8683Z" fill="white"/>
<path d="M35.7108 44.6002C35.1869 44.6002 34.7605 45.0296 34.7605 45.5574C34.7605 46.0851 35.1869 46.5146 35.7108 46.5146C36.2348 46.5146 36.6611 46.0851 36.6611 45.5574C36.6611 45.0296 36.2348 44.6002 35.7108 44.6002Z" fill="white"/>
<path d="M20.8963 34.3246C21.9083 34.3246 22.725 33.5019 22.725 32.4826C22.725 31.4633 21.9031 30.6406 20.8963 30.6406C19.8895 30.6406 19.0676 31.4633 19.0676 32.4826C19.0676 33.5019 19.8895 34.3246 20.8963 34.3246Z" fill="white"/>
<path d="M29.4594 21.4671C29.4594 20.453 28.6426 19.6251 27.6307 19.6251C26.6187 19.6251 25.802 20.4478 25.802 21.4671C25.802 22.4864 26.6187 23.309 27.6307 23.309C28.6426 23.309 29.4594 22.4864 29.4594 21.4671Z" fill="white"/>
<path d="M13.1038 32.3015C13.1038 31.6082 12.5439 31.0494 11.8556 31.0494C11.1672 31.0494 10.6125 31.6082 10.6125 32.3015C10.6125 32.9948 11.1724 33.5536 11.8556 33.5536C12.5388 33.5536 13.1038 32.9948 13.1038 32.3015Z" fill="white"/>
<path d="M5.82498 32.555C5.1161 32.555 4.54078 33.1345 4.54078 33.8485C4.54078 34.5626 5.1161 35.1421 5.82498 35.1421C6.53386 35.1421 7.10918 34.5626 7.10918 33.8485C7.10918 33.1345 6.53386 32.555 5.82498 32.555Z" fill="white"/>
<path d="M5.39862 25.715C5.39862 24.6284 4.52023 23.7437 3.4415 23.7437C2.36277 23.7437 1.48438 24.6232 1.48438 25.715C1.48438 26.8067 2.36277 27.6863 3.4415 27.6863C4.52023 27.6863 5.39862 26.8067 5.39862 25.715Z" fill="white"/>
<path d="M1.90046 16.3913C2.89186 16.3913 3.69321 15.5842 3.69321 14.5908C3.69321 13.5974 2.89186 12.7902 1.90046 12.7902C0.909062 12.7902 0.107727 13.5974 0.107727 14.5908C0.107727 15.5842 0.909062 16.3913 1.90046 16.3913Z" fill="white"/>
<path d="M15.8828 3.38382C16.8126 3.38382 17.5677 2.62841 17.5677 1.69191C17.5677 0.755409 16.8126 0 15.8828 0C14.9531 0 14.1979 0.755409 14.1979 1.69191C14.1979 2.62841 14.9531 3.38382 15.8828 3.38382Z" fill="white"/>
<path d="M23.5315 4.67215C24.4202 4.67215 25.1393 3.94779 25.1393 3.05786C25.1393 2.16792 24.4202 1.44356 23.5315 1.44356C22.6428 1.44356 21.9237 2.16792 21.9237 3.05786C21.9237 3.94779 22.6428 4.67215 23.5315 4.67215Z" fill="white"/>
<path d="M29.7162 10.0894C30.6357 10.0894 31.3857 9.33914 31.3857 8.41298C31.3857 7.48683 30.6357 6.73659 29.7162 6.73659C28.7967 6.73659 28.0467 7.48683 28.0467 8.41298C28.0467 9.33914 28.7967 10.0894 29.7162 10.0894Z" fill="white"/>
<path d="M7.60745 8.01458C8.90705 8.01458 9.96009 6.9539 9.96009 5.65005C9.96009 4.34619 8.90705 3.28551 7.60745 3.28551C6.30784 3.28551 5.25479 4.34619 5.25479 5.65005C5.25479 6.9539 6.30784 8.01458 7.60745 8.01458Z" fill="white"/>
<path d="M23.7883 51.937C23.8449 51.9318 24.1068 52.1491 24.0246 51.9215C23.1 50.1209 22.0264 48.4548 20.8809 47.0423C19.5454 45.3763 18.1019 44.0724 16.6482 43.1877C15.7544 42.6082 14.876 42.3391 13.9873 41.8166C11.5936 40.4351 9.94982 37.3151 9.14335 33.2535C9.07657 32.9276 9.02521 32.6068 8.98925 32.286C8.98411 32.2342 8.99952 32.1515 8.95843 32.1256C8.92761 32.1101 8.90705 32.1566 8.90192 32.1722C8.90192 32.1722 4.24799 40.9163 12.2614 43.2239C12.3179 43.2498 12.3179 43.2549 12.3384 43.3481C12.4514 43.9741 12.7134 44.445 12.9137 45.0659C14.1877 48.6515 16.6379 50.2399 18.7183 50.7883C20.2799 51.166 21.5538 51.4661 23.1 51.7766C23.326 51.8128 23.5572 51.8542 23.7935 51.937" fill="white"/>
<path d="M81.9471 17.8401C81.1612 17.7832 80.3701 17.7987 79.5893 17.8659C78.5517 17.9022 77.5089 17.9229 76.4713 18.0005C75.5312 18.0729 74.622 18.373 73.7025 18.58C72.7471 18.8335 71.7865 19.1129 70.8208 19.294C71.5348 18.9577 72.2745 18.6369 72.9628 18.2281C74.5398 17.302 76.1066 16.2723 77.3548 14.8754C78.6441 13.2921 79.8564 11.1966 80.4985 9.20978C81.1766 7.10395 79.7845 7.64205 78.5465 8.18532C77.4832 8.67686 76.2761 9.52023 75.2539 10.1049C74.5501 10.5447 73.795 10.9069 73.1478 11.4346C72.0999 12.3246 71.1752 13.3594 70.2403 14.3786C69.665 15.0151 69.0794 15.6722 68.5349 16.3241C68.5349 16.3293 68.5195 16.3344 68.5144 16.3396C68.5144 16.3293 68.5092 16.3137 68.5144 16.3086C68.5247 16.293 68.5401 16.2879 68.5503 16.2775C69.0948 15.2944 69.6702 14.3321 70.1222 13.2921C70.4766 12.5626 70.605 11.7451 70.7848 10.9483C71.165 9.1063 71.9098 6.4572 72.1307 4.5842C72.2231 3.54421 72.7676 -0.232832 70.8824 1.23659C69.5469 2.48354 68.7455 4.25306 67.9699 5.92945C67.1069 7.80762 66.059 10.5964 65.7405 12.6609C65.72 12.7643 65.7046 12.873 65.6892 12.9765C65.6892 12.9868 65.6789 12.9972 65.6737 13.0075C65.6737 12.9972 65.6635 12.9817 65.6635 12.9713C65.607 11.238 65.7148 10.3636 65.8124 8.88899C65.9768 7.22813 65.8946 6.51929 65.5864 5.1223C65.232 3.63217 64.8005 2.11618 64.0094 0.822672C63.0437 -0.745061 62.6071 0.822672 62.3143 1.86783C61.9033 3.55974 61.7646 5.32408 61.7441 7.07291C61.7544 7.87488 61.6927 8.68203 61.816 9.47366C61.9701 10.8034 62.0574 11.0155 62.1756 11.8434C61.0455 9.60301 59.8178 6.51929 57.8093 4.97742C57.0747 4.43932 56.2477 3.7667 55.3077 3.9064C54.1673 4.24271 55.7135 7.94215 56.0012 8.75447C56.5559 10.0635 57.4651 11.8744 58.2819 13.0282C58.5593 13.4318 58.8521 13.825 59.1449 14.2079C59.0319 14.0682 58.8726 13.9802 58.7391 13.8612C57.799 13.1317 56.9206 12.2004 55.7443 11.9468C54.8608 11.7399 52.2462 11.6675 52.4927 13.1421C52.8677 14.6787 55.3899 16.9967 56.5559 18.0781C58.4206 19.6355 61.441 20.2357 63.7526 20.6134C64.1378 20.6392 63.0797 20.8669 63.0026 20.929C61.7184 21.4153 60.4702 22.031 59.299 22.7761C57.8196 23.6971 57.0542 24.2921 56.6278 26.1496C56.4326 27.0343 56.1142 28.7211 56.9412 29.3057C56.9823 29.3264 57.0234 29.3678 56.972 29.404C55.4618 30.4544 54.1416 31.7996 53.1657 33.4243C52.8318 33.9675 52.5492 34.5419 52.3027 35.1369C52.3027 35.1472 52.2873 35.1524 52.277 35.1628C52.2667 35.1524 52.2564 35.1421 52.2564 35.1317C52.1794 34.2056 52.0921 33.2794 51.9945 32.3584C51.9945 32.2601 51.9945 32.2653 52.0767 32.2239C53.7975 31.4374 53.6228 29.0005 52.6468 27.6294C52.6211 27.5983 52.6109 27.5621 52.6212 27.5155C52.7342 26.9567 52.8729 26.3979 52.9602 25.8288C53.0321 24.794 52.6314 23.5263 52.1023 22.6675C52.0766 22.6261 52.0458 22.5847 52.0715 22.5433C52.354 22.0673 52.3694 21.6792 52.4003 20.5306C52.4619 18.3782 51.8301 16.7587 51.5732 14.6115C51.4191 13.3335 51.2445 12.6557 51.8249 11.6468C51.9996 11.3467 52.3951 11.0569 52.5646 10.7568C52.6468 10.6223 52.5852 10.4516 52.4311 10.4309C50.0733 10.3119 48.9329 13.0386 48.7788 13.4266C48.522 14.0682 47.9518 15.8326 48.5374 17.3123C48.8456 18.0988 48.8816 18.6576 48.6761 19.4958C48.3268 20.0442 47.9107 20.5823 47.808 21.2653C47.6744 22.1966 47.6487 23.159 47.9004 24.0696C48.0135 24.6232 48.2549 25.182 48.2138 25.7564C48.1624 26.0564 48.0186 26.341 47.9415 26.6359C47.8028 27.2361 47.9775 27.8674 48.0905 28.4572C48.3833 29.6627 48.9792 30.7855 49.8421 31.6185C50.2017 31.9497 50.587 32.3274 51.0801 32.3843C51.1418 32.3843 51.1572 32.4205 51.152 32.4774C51.1931 34.1693 51.3421 35.8612 51.5527 37.5376C51.3986 38.6811 51.2599 39.9022 51.6606 41.0094C51.8301 41.563 52.4362 42.3495 52.9859 41.801C53.4482 41.325 53.5714 40.6058 53.6845 39.9591C53.7975 39.1105 53.9362 38.2672 54.1108 37.429C54.1365 37.3048 54.1365 37.3048 54.2495 37.31C54.8967 37.3772 55.5491 37.4031 56.2015 37.4186C56.258 37.4186 56.2888 37.429 56.294 37.4962C56.3196 37.7705 56.4378 38.024 56.5816 38.2516C57.2905 39.5089 58.4771 40.4713 59.8435 40.7145C60.2082 40.7973 60.5832 40.7455 60.8914 40.5075C61.3588 40.2126 61.8828 40.6162 62.3502 40.73C63.2543 41.0508 64.4306 40.9318 65.0522 40.0936C65.1909 39.9177 65.3244 39.659 65.571 39.6693C65.9049 39.6693 66.2439 39.6952 66.5778 39.7211C67.5692 39.8815 69.2541 39.2451 69.9938 38.6242C71.1136 37.6773 71.6684 36.5701 71.5451 34.6195C71.5245 34.2935 71.2061 34.6091 71.0776 34.723C69.6547 35.9026 68.4579 36.715 66.3467 36.4407C65.2782 36.301 64.1584 35.9854 63.0951 36.2907C63.0386 36.3114 63.0026 36.301 62.9615 36.2648C62.7303 36.0579 62.4787 35.8871 62.2064 35.7526C61.0712 35.2041 60.84 35.3645 59.7356 35.794C59.674 35.8199 59.6329 35.8043 59.5815 35.7526C59.2373 35.4059 58.8161 35.1472 58.3487 35.0541C57.4086 34.8006 56.6073 35.5094 56.3761 36.4563C56.3505 36.5339 56.3505 36.5339 56.2734 36.5235C55.9857 36.4976 55.6981 36.4718 55.4053 36.4407C55.0919 36.4097 54.7786 36.3735 54.4653 36.3373C54.4242 36.3373 54.419 36.3114 54.4344 36.2752C54.9533 34.7643 55.9909 33.5174 57.2237 32.6171C58.9548 31.3288 60.5935 29.8697 61.9752 28.1571C62.6687 27.3137 63.28 26.3876 63.7783 25.3942C63.9889 24.9802 64.1841 24.556 64.3484 24.1162C64.3639 24.08 64.3947 24.0593 64.3844 24.111C64.1789 25.5908 63.9478 27.1223 64.1738 28.6124C64.4974 30.1025 65.0316 31.5409 65.6789 32.9017C67.6103 36.8805 69.2027 35.9078 68.7404 31.7272C68.6222 30.0456 68.237 28.4106 67.749 26.8119C67.5024 25.9737 67.2302 25.1458 66.9528 24.3231C66.9477 24.2404 66.999 24.3438 67.0144 24.3749C68.0521 26.2168 69.3825 27.8777 70.9184 29.2592C71.8636 30.1284 72.8858 30.9821 74.1392 31.246C75.5929 31.6185 77.5603 31.7427 78.8958 30.9459C79.8718 30.175 78.4592 28.8866 77.9044 28.3123C77.1236 27.588 76.3172 26.8946 75.5056 26.2065C74.7299 25.6529 73.8464 25.2907 72.9937 24.8819C71.6273 24.2352 70.2917 23.5108 68.9921 22.7192C68.9356 22.6881 69.0948 22.7606 69.1462 22.7709C71.7249 23.7592 74.5963 24.1162 77.2778 23.4073C79.3325 22.6933 81.4642 20.9445 82.7587 19.1077C83.3443 18.2126 82.7844 17.8711 81.9317 17.8401" fill="white"/>
<path d="M43.19 30.4699C43.2876 30.1025 43.2106 29.699 43.2927 29.3213C43.3801 28.5762 43.5753 27.8467 43.7653 27.1275C44.2482 25.4977 44.9211 23.9351 45.7738 22.5174C46.457 21.4722 47.3868 20.5823 47.7926 19.325C48.2035 18.2333 47.582 17.0226 46.5751 16.8467C45.9639 16.7639 45.4142 17.1571 44.9622 17.5969C43.3287 19.2888 42.8561 21.9483 42.6815 24.3387C42.6044 25.2855 42.5993 26.2375 42.6558 27.1844C42.6866 27.4741 42.7842 31.0546 43.19 30.4699Z" fill="white"/>
<path d="M43.8526 30.532C43.8989 30.5423 43.9194 30.5061 43.94 30.4647C44.0478 30.2112 44.1146 29.937 44.243 29.6938C44.5358 29.0522 44.9314 28.4986 45.3629 27.9915C45.7276 27.5776 46.1128 27.1637 46.57 26.9102C46.9604 26.6877 47.3868 26.4031 47.5306 25.8702C47.7104 24.5042 46.457 24.2817 45.7173 25.0216C44.4742 26.2996 44.1506 28.3951 43.7961 30.1802C43.8115 30.2836 43.755 30.4854 43.8526 30.5268" fill="white"/>
<path d="M59.3863 48.6411C59.3709 48.3772 59.1038 48.4186 58.9343 48.4652C57.7271 48.7239 56.5405 49.1068 55.395 49.5931C51.7736 51.0988 48.3371 53.4944 45.7378 56.5005C47.4535 52.6872 49.6572 49.1533 51.6914 45.5315C51.7222 45.485 51.7633 45.3866 51.8095 45.4798C51.8866 45.604 51.9585 45.7281 52.0407 45.8471C52.4671 46.4421 53.1143 46.8043 53.7615 47.0527C54.5783 47.3838 55.1485 46.944 55.4053 46.1058C55.5337 45.428 55.133 44.7606 54.7529 44.2484C53.9721 43.2084 52.4105 42.9135 51.3626 43.6482C49.462 45.1124 48.147 48.5428 47.1248 50.7832C46.4775 52.3923 45.7892 53.9911 45.2036 55.6312C45.255 53.6082 45.1368 51.6317 44.9057 49.7639C45.2961 46.8095 45.7944 43.8707 46.2464 40.9266C46.457 39.7366 46.6573 38.5414 46.8834 37.3565C46.8834 37.3462 46.8936 37.3358 46.8988 37.3255C46.909 37.3307 46.9193 37.3358 46.9296 37.3462C47.0477 37.4859 47.1607 37.6308 47.2892 37.7653C47.9672 38.4276 48.9586 38.8467 49.8832 38.7225C50.3301 38.6397 50.587 38.1947 50.6383 37.7394C50.6846 37.3565 50.7308 36.9581 50.5973 36.596C50.2891 35.7629 49.7754 34.9817 49.0357 34.5367C48.3011 34.0917 47.3714 34.2056 46.6625 34.6609C46.005 35.1058 45.6814 35.9233 45.4142 36.6736C44.618 39.095 44.4023 41.6872 44.166 44.2277C44.1352 44.5019 44.1198 44.7865 44.0838 45.0659C43.0359 40.3937 41.6233 37.1548 41.5205 36.9219C41.4178 37.1548 40.0052 40.3937 38.9573 45.0659C38.9265 44.7916 38.9111 44.5071 38.8802 44.2277C38.6439 41.6872 38.4282 39.095 37.632 36.6736C37.3649 35.9233 37.0361 35.111 36.3838 34.6609C35.6749 34.2056 34.7451 34.0917 34.0106 34.5367C33.276 34.9817 32.7572 35.7629 32.449 36.596C32.3154 36.9581 32.3616 37.3617 32.4079 37.7394C32.4592 38.1947 32.7161 38.6397 33.163 38.7225C34.0876 38.8467 35.079 38.4327 35.7571 37.7653C35.8803 37.6308 35.9934 37.4859 36.1115 37.3462C36.1218 37.3358 36.132 37.3358 36.1423 37.3255C36.1475 37.3358 36.1577 37.3462 36.1577 37.3565C36.3837 38.5414 36.5841 39.7366 36.7947 40.9266C37.2467 43.8707 37.7501 46.8095 38.1354 49.7639C37.9094 51.6317 37.7861 53.6082 37.8375 55.6312C37.2519 53.9911 36.5635 52.3923 35.9163 50.7832C34.8889 48.5428 33.5791 45.1124 31.6784 43.6482C30.6305 42.9135 29.069 43.2084 28.2882 44.2484C27.908 44.7606 27.5074 45.428 27.6358 46.1058C27.8978 46.944 28.4628 47.3838 29.2796 47.0527C29.9268 46.8043 30.574 46.4421 31.0004 45.8471C31.0826 45.7281 31.1545 45.5988 31.2315 45.4798C31.2726 45.3815 31.3189 45.485 31.3497 45.5315C33.389 49.1533 35.5876 52.6872 37.3032 56.5005C34.704 53.4892 31.2675 51.0988 27.6461 49.5931C26.5006 49.1068 25.314 48.7291 24.1068 48.4652C23.9322 48.4238 23.6651 48.3824 23.6548 48.6411C24.3996 51.9111 26.0074 54.9017 28.1392 57.3697H28.1289C28.2111 57.4628 28.2984 57.5456 28.3806 57.6336C28.956 58.2752 29.5621 58.8909 30.2042 59.4548C30.6973 59.8998 31.211 60.3189 31.735 60.7225C36.2502 64.3184 40.4315 65.6844 41.5205 66C42.6095 65.6844 46.7909 64.3184 51.3061 60.7225C51.8301 60.3189 52.3438 59.8998 52.8369 59.4548C53.479 58.896 54.0851 58.2803 54.6605 57.6336C54.7427 57.5456 54.83 57.4577 54.9122 57.3697H54.9019C57.0388 54.9017 58.6415 51.9111 59.3863 48.6411Z" fill="white"/>
<path d="M59.001 46.5611C60.3212 46.5611 61.3896 45.4849 61.3896 44.1552C61.3896 42.8255 60.3212 41.7545 59.001 41.7545C57.6809 41.7545 56.6124 42.8307 56.6124 44.1552C56.6124 45.4798 57.6809 46.5611 59.001 46.5611Z" fill="white"/>
<path d="M50.1966 41.9873C50.1966 41.1543 49.5237 40.4817 48.6966 40.4817C47.8696 40.4817 47.1967 41.1543 47.1967 41.9873C47.1967 42.8203 47.8696 43.4929 48.6966 43.4929C49.5237 43.4929 50.1966 42.8203 50.1966 41.9873Z" fill="white"/>
<path d="M49.498 32.6326C49.498 32.167 49.123 31.7893 48.6556 31.7893C48.1881 31.7893 47.8131 32.167 47.8131 32.6326C47.8131 33.0983 48.1881 33.476 48.6556 33.476C49.123 33.476 49.498 33.0983 49.498 32.6326Z" fill="white"/>
<path d="M55.5645 39.659C54.9276 39.659 54.4088 40.1816 54.4088 40.8231C54.4088 41.4647 54.9276 41.9873 55.5645 41.9873C56.2015 41.9873 56.7203 41.4647 56.7203 40.8231C56.7203 40.1816 56.2015 39.659 55.5645 39.659Z" fill="white"/>
<path d="M65.0008 42.6858C65.0008 42.0546 64.4923 41.5423 63.8656 41.5423C63.2389 41.5423 62.7304 42.0546 62.7304 42.6858C62.7304 43.317 63.2389 43.8293 63.8656 43.8293C64.4923 43.8293 65.0008 43.317 65.0008 42.6858Z" fill="white"/>
<path d="M42.7534 37.3203C42.7534 37.7187 43.077 38.0447 43.4725 38.0447C43.8681 38.0447 44.1917 37.7239 44.1917 37.3203C44.1917 36.9167 43.8681 36.596 43.4725 36.596C43.077 36.596 42.7534 36.9219 42.7534 37.3203Z" fill="white"/>
<path d="M45.7635 48.5273C45.7635 48.9257 46.0872 49.2516 46.4827 49.2516C46.8782 49.2516 47.2018 48.9257 47.2018 48.5273C47.2018 48.1289 46.8782 47.8029 46.4827 47.8029C46.0872 47.8029 45.7635 48.1237 45.7635 48.5273Z" fill="white"/>
<path d="M49.5288 50.8401C49.5288 51.1867 49.8113 51.4713 50.1555 51.4713C50.4997 51.4713 50.7822 51.1867 50.7822 50.8401C50.7822 50.4934 50.4997 50.2088 50.1555 50.2088C49.8113 50.2088 49.5288 50.4934 49.5288 50.8401Z" fill="white"/>
<path d="M54.568 28.1054C55.2255 28.1054 55.7546 27.5724 55.7546 26.9102C55.7546 26.2479 55.2204 25.715 54.568 25.715C53.9156 25.715 53.3814 26.2479 53.3814 26.9102C53.3814 27.5724 53.9105 28.1054 54.568 28.1054Z" fill="white"/>
<path d="M51.0236 48.7394C51.0236 49.35 51.5167 49.8518 52.128 49.8518C52.7393 49.8518 53.2324 49.3551 53.2324 48.7394C53.2324 48.1237 52.7393 47.627 52.128 47.627C51.5167 47.627 51.0236 48.1237 51.0236 48.7394Z" fill="white"/>
<path d="M59.6483 52.8683C58.9343 52.8683 58.3589 53.4478 58.3589 54.167C58.3589 54.8862 58.9343 55.4657 59.6483 55.4657C60.3623 55.4657 60.9376 54.8862 60.9376 54.167C60.9376 53.4478 60.3623 52.8683 59.6483 52.8683Z" fill="white"/>
<path d="M48.2806 45.5574C48.2806 45.0296 47.8542 44.6002 47.3303 44.6002C46.8063 44.6002 46.3799 45.0296 46.3799 45.5574C46.3799 46.0851 46.8063 46.5146 47.3303 46.5146C47.8542 46.5146 48.2806 46.0851 48.2806 45.5574Z" fill="white"/>
<path d="M62.1396 30.6406C61.1277 30.6406 60.3109 31.4633 60.3109 32.4826C60.3109 33.5019 61.1277 34.3246 62.1396 34.3246C63.1516 34.3246 63.9683 33.5019 63.9683 32.4826C63.9683 31.4633 63.1516 30.6406 62.1396 30.6406Z" fill="white"/>
<path d="M55.4104 23.309C56.4224 23.309 57.2391 22.4864 57.2391 21.4671C57.2391 20.4478 56.4224 19.6251 55.4104 19.6251C54.3985 19.6251 53.5817 20.4478 53.5817 21.4671C53.5817 22.4864 54.3985 23.309 55.4104 23.309Z" fill="white"/>
<path d="M71.1804 31.0494C70.492 31.0494 69.9321 31.6082 69.9321 32.3015C69.9321 32.9948 70.492 33.5536 71.1804 33.5536C71.8687 33.5536 72.4286 32.9948 72.4286 32.3015C72.4286 31.6082 71.8687 31.0494 71.1804 31.0494Z" fill="white"/>
<path d="M77.211 32.555C76.5021 32.555 75.9268 33.1345 75.9268 33.8485C75.9268 34.5626 76.5021 35.1421 77.211 35.1421C77.9199 35.1421 78.4952 34.5626 78.4952 33.8485C78.4952 33.1345 77.9199 32.555 77.211 32.555Z" fill="white"/>
<path d="M79.5944 23.7488C78.5157 23.7488 77.6373 24.6284 77.6373 25.7201C77.6373 26.8119 78.5157 27.6914 79.5944 27.6914C80.6732 27.6914 81.5516 26.8067 81.5516 25.7201C81.5516 24.6336 80.6732 23.7488 79.5944 23.7488Z" fill="white"/>
<path d="M79.3427 14.5908C79.3427 15.5842 80.1441 16.3913 81.1355 16.3913C82.1269 16.3913 82.9282 15.5842 82.9282 14.5908C82.9282 13.5974 82.1269 12.7902 81.1355 12.7902C80.1441 12.7902 79.3427 13.5974 79.3427 14.5908Z" fill="white"/>
<path d="M67.1531 3.38382C68.0829 3.38382 68.838 2.62841 68.838 1.69191C68.838 0.755409 68.0829 0 67.1531 0C66.2234 0 65.4683 0.755409 65.4683 1.69191C65.4683 2.62841 66.2234 3.38382 67.1531 3.38382Z" fill="white"/>
<path d="M59.5045 4.67215C60.3931 4.67215 61.1123 3.94779 61.1123 3.05786C61.1123 2.16792 60.3931 1.44356 59.5045 1.44356C58.6158 1.44356 57.8966 2.16792 57.8966 3.05786C57.8966 3.94779 58.6158 4.67215 59.5045 4.67215Z" fill="white"/>
<path d="M53.3249 10.0894C54.2444 10.0894 54.9944 9.33914 54.9944 8.41298C54.9944 7.48683 54.2444 6.73659 53.3249 6.73659C52.4054 6.73659 51.6554 7.48683 51.6554 8.41298C51.6554 9.33914 52.4054 10.0894 53.3249 10.0894Z" fill="white"/>
<path d="M75.4285 8.01458C76.7281 8.01458 77.7812 6.9539 77.7812 5.65005C77.7812 4.34619 76.7281 3.28551 75.4285 3.28551C74.1289 3.28551 73.0759 4.34619 73.0759 5.65005C73.0759 6.9539 74.1289 8.01458 75.4285 8.01458Z" fill="white"/>
<path d="M74.1392 32.1722C74.1392 32.1722 74.1084 32.1101 74.0827 32.1308C74.0467 32.1515 74.0621 32.2394 74.057 32.286C74.0262 32.6016 73.9697 32.9276 73.9029 33.2535C73.0913 37.3203 71.4475 40.4403 69.0589 41.8217C68.1702 42.3443 67.2867 42.6134 66.398 43.1929C64.9495 44.0776 63.5009 45.3815 62.1653 47.0475C61.0147 48.46 59.9462 50.1261 59.0165 51.9215C58.9343 52.1491 59.1963 51.9318 59.2528 51.937C59.4891 51.849 59.7202 51.8128 59.9462 51.7766C61.4924 51.4713 62.7715 51.166 64.3279 50.7883C66.4134 50.2399 68.8586 48.6515 70.1325 45.0659C70.3328 44.445 70.5948 43.9793 70.7078 43.3481C70.7284 43.2549 70.7283 43.2549 70.7849 43.2239C78.7982 40.9163 74.1443 32.1722 74.1443 32.1722H74.1392Z" fill="white"/>
</svg>
