<svg width="87" height="100" viewBox="0 0 87 100" fill="none" xmlns="http://www.w3.org/2000/svg">
<path d="M30.4647 18.3238C30.4647 18.3238 29.889 18.38 29.7156 18.555C29.5423 18.7299 29.4866 18.6112 29.3133 18.9049C29.1399 19.1923 29.0842 19.7172 29.3133 19.7735C29.5423 19.8297 29.4866 20.0047 29.889 20.0047H30.7494C31.0961 20.0047 31.3808 20.0047 31.6098 19.8859C31.8389 19.7672 32.0679 19.4798 32.5322 19.4235C32.9965 19.3673 33.1079 19.1361 33.7393 19.0174C34.3707 18.8986 35.1754 18.4362 35.5778 18.38C35.9801 18.3238 36.9582 17.9176 37.4163 17.8551C37.8744 17.7989 39.0257 17.6239 39.7748 17.5677C40.5238 17.5114 40.9261 17.3365 41.7309 17.3365H44.2008C44.5474 17.3365 45.6369 17.2802 45.9278 17.3927C46.2126 17.5114 47.822 17.3927 48.1687 17.6802C48.5154 17.9676 49.7225 18.3175 50.4096 18.4925C51.0967 18.6674 52.8238 18.9549 53.0528 19.0174C53.2818 19.0736 54.718 19.8297 54.718 19.8297C54.718 19.8297 55.5227 20.1171 55.7517 20.1171C55.9808 20.1171 55.9251 20.0609 56.6122 20.1171C57.2993 20.1734 57.2993 20.1734 57.7017 20.1171C58.104 20.0609 57.8193 20.642 58.104 20.0609C58.3888 19.4798 58.4507 19.0174 58.0483 18.8986C57.6459 18.7799 57.3612 18.6112 56.6122 18.205C55.8632 17.7989 55.2875 17.3927 54.7737 17.3365C54.2537 17.2802 52.7619 16.6991 52.5328 16.5241C52.3038 16.3492 51.9014 16.1742 50.9791 15.943C50.0567 15.7118 49.3139 15.4806 48.5092 15.4806C47.7044 15.4806 46.844 15.1307 46.0393 15.1307C45.2345 15.1307 44.3741 15.012 43.6251 15.1307C42.8761 15.2494 42.1332 15.2494 41.3842 15.2494C40.6352 15.2494 40.2328 15.1932 39.2548 15.3057C38.2767 15.4244 37.701 15.4806 37.0696 15.7118C36.4382 15.943 34.8845 16.1742 34.4264 16.2929C33.9683 16.4117 32.5322 16.6991 32.4146 16.9303C32.297 17.1615 30.4585 18.3238 30.4585 18.3238" fill="white"/>
<path d="M32.2474 67.9881C32.1298 67.8131 31.9627 67.6382 31.616 67.6382C31.2694 67.6382 30.8113 67.5195 30.5823 67.6382C30.3532 67.7569 30.2356 67.6944 29.8332 67.8131C29.4309 67.9319 28.9728 67.6944 29.0842 68.1006C29.2018 68.5068 29.369 68.8567 29.889 69.1441C30.4089 69.4315 30.347 69.6065 30.9784 69.8377C31.6098 70.0689 32.0122 70.0127 32.6436 70.1876C33.275 70.3626 35.9801 71.6936 36.4382 71.7561C36.8963 71.8123 37.3606 71.8748 38.2767 71.9873C39.1991 72.106 40.9757 72.2185 41.6133 72.3372C42.2447 72.4559 42.8761 72.4559 43.5075 72.4559C44.1389 72.4559 45.9216 72.3997 46.4973 72.3997C47.073 72.3997 48.6825 71.9373 48.9672 71.8748C49.252 71.8123 52.7618 71.2374 52.9352 71.2374C53.1085 71.2374 54.427 70.4251 54.6623 70.4251C54.8975 70.4251 55.5227 70.0752 55.7517 70.0189C55.9808 69.9627 56.7855 69.3253 57.1879 69.1504C57.5902 68.9754 58.1659 68.7442 58.2216 68.5692C58.2773 68.3943 58.5064 67.8756 58.2773 67.8131C58.0483 67.7569 56.9526 67.5819 56.7855 67.5819C56.6184 67.5819 56.1541 67.407 55.7517 67.5819C55.3494 67.7569 54.8294 67.6382 54.427 67.9319C54.0247 68.2193 52.9352 68.688 52.4152 68.9192C51.8952 69.1504 49.9453 69.6128 49.3696 69.6752C48.7939 69.7315 47.7044 69.794 46.8378 69.9064C45.9774 70.0252 45.6864 70.0252 44.8817 70.1376C44.077 70.2564 44.1946 70.1376 43.2165 70.1939C42.2385 70.2501 42.5851 70.2501 41.2047 70.1939C39.8243 70.1376 39.4776 69.9064 38.8462 69.844C38.2148 69.7877 38.0972 69.494 37.3544 69.494C36.6115 69.494 34.7111 68.6255 34.5378 68.6817C34.3645 68.738 32.2412 67.9881 32.2412 67.9881" fill="white"/>
<path d="M86.969 43.8433C86.969 43.8433 86.8948 39.7067 86.8143 39.2818C86.74 38.8569 86.5048 37.5821 86.5048 37.3072C86.5048 37.0322 85.8919 33.4393 85.6629 32.9769C85.4339 32.5145 85.3163 31.6209 85.1677 31.1585C85.0129 30.6961 84.4372 29.4151 84.3258 29.1464C84.2082 28.8777 84.0596 28.3341 84.0596 28.3341C84.0596 28.3341 83.8677 28.1029 83.3725 27.9842C82.8773 27.8655 82.7597 27.7905 82.4935 27.9842C82.2273 28.1779 81.955 28.1779 81.8807 28.5278C81.8064 28.8777 81.534 28.7965 81.6145 29.3589C81.6888 29.9213 81.5402 30.2712 81.7321 30.6961C81.924 31.121 82.2273 31.9333 82.3078 32.1645C82.3883 32.3957 82.2335 31.9333 82.803 33.3268C83.3787 34.7202 83.6449 37.0385 83.6449 37.1947C83.6449 37.3509 83.5706 37.8133 83.7192 38.357C83.8739 38.9006 84.103 38.9756 84.103 39.7879C84.103 40.1503 84.0968 40.4003 84.0968 40.6315C83.8182 40.5627 83.5273 40.519 83.224 40.519C82.2768 40.519 81.4164 40.8814 80.7664 41.475C80.3517 38.9381 79.3179 36.976 77.2318 36.5074C77.1513 36.4574 77.0399 36.4074 76.9594 36.3074C77.3866 34.0454 78.6865 31.9583 79.2932 30.015C79.6027 29.0215 80.7664 27.1031 81.7816 27.1031C82.1716 27.1031 82.4811 26.6032 82.4811 26.1471C82.4811 25.6472 82.0107 25.491 81.3917 25.491C81.1193 25.491 80.8098 25.541 80.5003 25.541C79.1013 25.541 77.5042 25.3847 76.0742 25.291C75.9319 25.2785 75.7771 25.2223 75.6224 25.2223C75.4676 25.2223 75.2014 25.1848 75.0652 25.1848C74.1677 25.1848 74.2048 26.0721 74.2419 26.2471C74.2791 26.422 74.3348 26.9844 74.8548 27.1969C75.1395 27.3156 75.22 27.2718 75.2757 27.3343C75.3314 27.3968 75.7709 27.4905 75.8328 27.5468C76.099 27.8155 76.2971 28.3466 76.1423 28.9215C75.9814 29.5089 75.0467 32.427 75.0467 32.427L74.6814 33.1081L73.8705 35.0452C73.8705 35.0452 73.5053 35.4638 73.4248 35.6763C73.3444 35.8887 73.0596 36.2512 72.8987 36.4074C72.7377 36.5636 72.4096 36.5636 72.1682 36.5136C71.9268 36.4636 71.8463 36.095 71.8463 35.9387C71.8463 35.7825 71.9268 34.2641 71.9268 34.2641C71.8463 32.8082 71.6359 27.9592 71.6359 27.9592C71.6916 27.703 72.032 27.4343 72.2858 27.3781C72.5334 27.3218 72.8058 26.8782 72.8429 26.622C72.8801 26.372 72.8987 25.9034 72.8429 25.7347C72.7872 25.566 72.5149 25.3847 72.3663 25.3285C72.2177 25.2723 71.6544 25.0973 71.5244 25.1161C71.3883 25.1348 70.1997 25.0786 70.1254 25.0973C70.0512 25.1161 69.3764 25.0786 69.2464 25.0973C69.1102 25.1161 68.1322 25.1348 68.1322 25.1348C68.1322 25.1348 66.5413 25.2285 66.4299 25.2098C66.3123 25.191 65.3404 25.1723 65.2228 25.1723C65.1052 25.1723 64.4738 25.2285 64.1333 25.2098C63.7866 25.191 62.7715 25.2098 62.7715 25.2098L61.4282 25.266C61.4282 25.266 59.7444 25.2285 59.3421 25.2098C59.1997 25.2098 59.0635 25.2223 58.9273 25.2285C58.9026 25.216 58.8778 25.2098 58.8654 25.2098C58.8097 25.2098 58.1783 25.1848 57.5221 25.1598C57.2188 25.1473 56.9155 25.1348 56.6617 25.1286C56.5998 25.0786 56.5317 25.0473 56.4636 25.0473C55.9189 25.0473 55.3741 25.3473 54.7922 25.3473C54.328 25.3473 53.8204 25.1973 53.3561 25.1973C52.9661 25.1973 52.6195 25.2473 52.2666 25.2473C52.0314 25.2473 51.7652 25.1473 51.53 25.1473C51.1833 25.1473 50.911 25.6159 50.911 26.3658C50.911 26.6157 50.9543 26.7782 51.301 26.8657C51.7652 26.9844 51.9819 27.8217 51.8209 28.3154C51.66 28.8028 50.8491 30.8961 50.8491 30.8961C50.8491 30.8961 50.3105 31.9458 50.1496 32.152C49.9886 32.3582 49.6667 32.8519 49.5553 33.3393C49.4501 33.8267 49.1777 34.2453 49.122 34.5265C49.0663 34.8077 48.9611 35.2264 48.8496 35.4326C48.7444 35.645 48.4163 36.2699 48.1997 36.5511C47.983 36.8323 47.2835 36.5511 47.1721 36.2699C47.0668 35.9887 46.5778 35.0139 46.4169 34.5265C46.2559 34.0391 45.5007 33.0644 45.3398 32.5707C45.1788 32.0833 44.9065 31.4522 44.5846 30.9648C44.5846 30.9648 44.2627 29.7088 44.1017 29.4964C43.9408 29.2902 43.6189 28.1029 43.6189 27.6843C43.6189 27.2656 44.696 26.9844 44.9188 26.4845C44.9188 25.9846 44.6093 25.1161 44.2193 25.1161C43.6746 25.1161 43.1299 25.416 42.548 25.416C42.0837 25.416 41.5761 25.266 41.1118 25.266C40.9447 25.266 40.79 25.2785 40.629 25.2848C40.1957 25.2598 39.7624 25.2348 39.3476 25.2223C39.3291 25.2223 39.3043 25.216 39.2795 25.216C39.2733 25.216 39.2672 25.216 39.261 25.2223C38.4191 25.191 37.6639 25.216 37.181 25.4222C37.1006 25.4597 37.0325 25.491 36.9644 25.5285C36.8901 25.5347 36.8158 25.5535 36.7354 25.5535C36.2711 25.5535 34.8102 25.291 34.3459 25.291C33.9559 25.291 33.6093 25.341 33.2564 25.341C33.1141 25.341 32.9593 25.3098 32.8107 25.2785C32.7303 25.2285 32.6374 25.1973 32.5384 25.1973C31.876 25.1973 31.2199 25.2973 30.5575 25.2973C30.1304 25.2973 29.6661 25.2473 29.1957 25.2473C29.0038 25.2473 28.7685 25.2473 28.5766 25.3473C28.0319 25.3473 27.45 25.2473 26.9424 25.2473C26.4781 25.2473 25.6239 25.1473 25.6239 26.0034C25.7044 26.5033 27.1405 26.8094 27.1405 28.4153C27.1405 30.5211 26.3234 32.6832 26.051 34.6453C25.7786 36.6073 25.2339 38.3632 24.9615 40.2691C24.9615 41.475 24.4973 42.5311 24.4973 43.7371V44.2869C24.4973 48.4048 23.4078 50.3169 23.3335 51.5729C23.3335 52.4289 22.7516 53.7349 22.4421 53.7349C21.8231 53.7349 21.625 49.817 21.5074 49.2109C21.3155 47.0489 20.9627 44.5869 20.3065 42.4811C20.2693 42.3811 20.226 42.2311 20.226 42.0812V41.8812C20.226 41.0251 19.8732 40.2753 19.8732 39.4192C19.8732 39.2193 19.9103 39.0193 19.9103 38.8694C19.9103 37.9133 19.446 37.2135 19.446 36.3574C19.446 33.8454 18.5113 31.4335 18.3999 28.8215C18.3194 27.3656 17.9728 25.1036 16.1467 25.1036C15.5276 25.1036 14.9829 26.2096 14.9829 26.5595C14.9829 28.6216 15.5276 30.5274 15.8 32.5895C15.8805 33.4455 16.1528 34.1454 16.2643 35.0514C16.5366 37.5134 17.199 40.2253 17.6261 42.6873C17.7437 43.3434 17.9356 43.9933 17.9356 44.6494C17.9356 44.9993 17.7437 45.3555 17.7437 45.7054C17.7437 45.9053 17.7809 46.0053 17.7809 46.1053C17.7809 47.6112 16.7347 48.7172 16.7347 49.7233C16.7347 49.8732 16.7719 50.0232 16.7719 50.1732C16.7719 51.1292 15.8371 53.6412 15.6452 54.0411C15.5276 54.391 15.2924 54.491 15.0262 54.491C14.76 54.491 14.4815 53.485 14.4815 52.8351C14.4815 52.5852 14.562 52.3352 14.562 52.029C14.562 50.4731 13.6272 48.561 13.6272 46.9051C13.6272 46.6552 13.7077 46.399 13.7077 46.149C13.7077 45.6492 13.2434 45.343 13.2434 44.7431C13.2434 44.5431 13.2806 44.2932 13.2806 44.087C13.2806 43.4371 12.7358 43.1809 12.6987 42.4811C12.5811 40.9752 12.0797 39.7192 12.0363 38.1633C11.9559 35.6513 11.0645 33.2893 10.9469 30.7274C10.9097 29.7213 10.6374 28.7653 10.5569 27.7655C10.5569 26.9094 11.2811 26.5907 11.8259 26.4908C12.2159 26.3908 12.1849 25.7034 12.1849 25.3535C12.1849 25.2035 12.0673 25.0536 11.9497 25.0536C11.7144 25.0536 11.4854 25.1535 11.213 25.1535H10.5507C10.1607 25.1535 9.77072 25.2535 9.38692 25.2535H8.14269C7.44319 25.2535 6.77465 25.1473 6.12467 25.0536C5.38804 24.9473 4.46569 25.1473 4.46569 25.7972C4.46569 26.1471 5.23328 26.6095 5.76564 26.6845C8.25411 26.9844 7.78985 31.7834 8.29744 32.7332C8.33459 32.8331 8.33459 32.9331 8.33459 33.0831C8.4522 34.9452 8.79885 37.151 9.30645 39.0131C9.61596 40.2191 9.34359 42.2311 10.1607 43.1809C10.235 43.2809 10.5074 44.7868 10.5074 45.4429V45.6929C10.5074 46.549 10.9716 47.655 11.015 48.7047C11.0954 51.2167 11.9868 53.9786 12.5687 56.6905C12.9711 58.0465 13.3487 59.5149 13.6582 60.3647C13.9677 61.2146 14.4629 62.1456 14.6548 62.3768C14.8467 62.608 15.6081 63.3079 16.4562 62.9204C16.9885 62.6768 18.9446 54.1786 19.3284 54.1786C19.8298 56.9405 20.4179 59.6524 20.8017 62.4143C20.8388 62.8642 21.5383 62.8642 21.9283 62.8642C22.3926 62.8642 22.9683 62.9017 23.4387 62.783L25.5496 62.8142C25.5496 62.8142 25.5929 62.833 25.6053 62.833H27.8586C28.0505 62.833 28.2857 62.9829 28.4776 62.9829C28.8676 62.9829 29.2947 62.783 29.6785 62.783C29.9509 62.783 29.9632 62.783 30.2356 62.783C30.9722 62.783 31.1022 62.3831 30.8113 61.7957C30.5823 61.3333 30.0685 61.627 30.0685 60.471C30.0685 60.121 30.0623 59.7649 30.1056 59.4149C30.2851 58.109 30.638 56.2656 30.9475 54.7722C31.4427 53.0351 32.4765 52.9913 32.4765 52.9913C32.4765 52.9913 33.1264 52.9413 33.3245 52.8851C33.5288 52.8351 33.6464 52.8351 34.0117 52.6227C34.3769 52.4165 34.3335 52.5164 34.7421 52.3602C35.1445 52.204 35.6706 52.0478 35.8749 51.9416C36.0792 51.8353 36.7663 51.6291 37.6948 51.3667C38.2148 51.223 38.481 51.4104 38.6481 51.7978C38.8895 53.0038 39.0691 53.8724 39.1124 54.0161C39.6509 55.9032 40.0533 58.7463 40.2019 59.6961C40.5423 61.8644 38.5305 60.4022 38.5305 62.0081C38.5305 62.508 38.84 63.0142 39.23 63.0142C39.7748 63.0142 40.3195 62.7142 40.9014 62.7142C41.3656 62.7142 41.8732 62.8642 42.3375 62.8642C42.5975 62.8642 42.8389 62.8455 43.0741 62.8267L44.7146 62.9767C44.8012 63.0392 44.9003 63.0829 45.0055 63.0829C45.1355 63.0829 45.2655 63.0642 45.3955 63.0392H45.4202C45.8288 62.9517 46.2374 62.7892 46.6707 62.7892C47.1349 62.7892 47.6425 62.9392 48.1068 62.9392C48.4968 62.9392 48.8434 62.8892 49.1963 62.8892C49.4315 62.8892 50.36 62.9954 50.5953 62.9954C50.7005 62.9954 50.7376 62.9829 50.7376 62.9517H52.6876C52.8795 62.9517 53.1147 63.1017 53.3066 63.1017C53.6966 63.1017 54.1237 62.9017 54.5075 62.9017H55.3617C56.0984 62.9017 56.2531 62.6018 56.2531 61.9457C56.2531 61.4458 54.8913 61.7457 54.8913 60.5897C54.8913 60.2398 55.046 59.3775 55.0956 59.0338C55.2565 57.8715 55.5536 56.2781 55.8384 54.8847C56.1355 53.9224 56.5812 53.8411 56.5812 53.8411C56.5812 53.8411 57.7574 53.1101 58.0359 53.0038C58.3207 52.8976 58.8468 52.9538 59.3297 52.8476C59.8125 52.7414 59.7754 52.6914 60.1406 52.5852C60.5058 52.4789 61.1125 52.1665 61.1125 52.1665C61.1125 52.1665 62.041 51.9603 62.5672 51.7978C63.0191 51.6604 63.4771 51.2979 63.7495 51.9416C63.9352 52.8664 64.0714 53.51 64.1085 53.6412C64.6471 55.522 65.0495 58.3652 65.198 59.3212C65.1361 59.6899 65.0495 60.0648 64.7028 60.271C64.3561 60.471 64.2138 61.4333 64.7338 62.0956C65.068 62.5268 65.7056 62.4455 66.2875 62.4455C66.7518 62.4455 66.8694 62.483 67.3398 62.483C67.4203 62.483 67.4884 62.4768 67.5627 62.4705C67.8103 62.608 68.2188 62.5018 68.7698 62.4768C68.906 62.5018 69.0422 62.533 69.166 62.533C69.2526 62.533 69.3393 62.5268 69.4136 62.5018C69.4136 62.5018 71.9144 62.6143 72.1063 62.458C72.2982 62.3018 72.5644 62.0706 72.5644 62.0706C72.5644 62.0706 72.9482 61.2958 72.911 61.1021C72.8739 60.9084 72.6634 60.521 72.4715 60.4085C72.2796 60.2898 71.8401 59.8274 71.6359 59.5087C71.6359 58.3027 71.7906 57.1967 71.7906 56.0407C71.7906 55.2346 71.673 54.4348 71.673 53.6787V52.7726C71.673 51.5666 71.5987 50.4106 71.5987 49.2546C71.5987 47.6487 71.7906 46.0928 71.7906 44.4807C71.7906 42.8685 71.5306 42.5123 71.6049 40.9564C71.6482 40.0691 72.1311 39.3318 72.8987 39.388C74.3719 39.488 77.498 40.2753 77.498 42.6373C77.498 43.2872 77.7518 43.6496 77.7518 44.2557C77.7518 44.7056 77.9128 45.4804 77.9128 45.9303C77.9128 47.6862 78.1232 48.3986 78.1232 50.1107C78.1232 50.5606 78.0861 51.0168 78.0861 51.4667C78.0861 52.0165 78.2037 52.6227 78.2037 53.1226C78.2037 54.1786 77.9685 55.2346 77.8508 56.3906C77.7394 57.5091 77.6713 58.8088 77.6156 59.015C77.5599 59.215 77.0399 60.0273 76.7552 60.2023C76.4704 60.3772 75.9814 60.5522 75.7214 60.6397C75.4614 60.7272 75.1148 60.7272 74.9476 60.7584C74.7743 60.7897 74.4277 61.0771 74.2172 61.5332C74.1367 61.7145 74.2915 62.1144 74.2915 62.3081C74.2915 62.5018 74.6381 62.5393 74.7495 62.5768C74.8672 62.6143 75.1333 62.6143 75.709 62.633C76.0557 62.6455 77.888 62.7267 77.888 62.7267C77.9251 62.7267 77.9685 62.7267 78.0056 62.7267C79.0146 62.7392 80.0236 62.9267 81.0698 62.9267C81.5774 62.9267 82.2707 62.9767 82.2707 62.2768C82.2707 61.9269 82.0788 61.6207 81.8435 61.3708C81.144 61.0209 81.0264 59.4087 81.0264 58.4589C81.0264 57.4029 81.1812 56.3968 81.1812 55.3471C81.1812 53.3413 81.144 51.3792 81.144 49.3671C81.144 48.5173 81.1131 47.8799 81.0759 47.2676C81.6764 47.705 82.413 47.9612 83.2116 47.9612C83.5458 47.9612 83.8677 47.9112 84.1711 47.8299C84.1463 48.511 84.1339 48.9984 84.1339 49.0484C84.1339 49.2046 83.8677 50.6731 83.9049 50.8668C83.942 51.0605 83.063 54.1161 82.9454 54.616L82.4873 55.9282C82.4873 55.9282 82.4873 56.1219 82.413 56.4281C82.3388 56.7405 82.1035 56.8905 82.0664 57.2029C82.0292 57.5091 81.9116 58.0902 81.9488 58.3652C81.9859 58.6339 81.8745 58.6776 81.9859 58.9088C82.1035 59.14 82.2521 59.2962 82.3326 59.4899C82.4068 59.6836 82.5616 59.8773 82.7906 59.9523C83.0197 60.0273 83.1559 60.1273 83.5273 59.8961C84.2144 59.4712 83.8615 59.6461 84.363 58.99C84.8582 58.3339 85.0129 56.8655 85.242 56.5156C85.471 56.1656 85.6258 55.7782 85.7372 55.0846C85.8548 54.391 85.7743 53.9599 85.9291 53.1913C86.0838 52.4165 86.121 52.304 86.2324 50.873C86.35 49.4421 87 46.6927 87 45.6929C87 44.6931 86.9629 43.8745 86.9629 43.8745M31.5975 35.2451C31.3808 37.126 30.5204 41.9437 30.248 42.8498C29.9756 43.7558 29.7094 45.1493 29.4928 46.1303C29.2761 47.1051 28.7376 49.1297 28.6819 50.3169C28.6262 51.5041 27.1343 57.0467 27.0167 57.9028C26.961 58.3214 26.9053 58.8088 26.8186 59.29C26.4534 60.196 26.0201 61.0209 25.3639 60.8334C25.0606 60.7522 24.6273 60.5522 24.5097 60.0086C24.652 58.5401 24.7263 57.0717 25.1225 56.0719C25.5496 54.9659 25.5496 53.31 25.9396 52.5039C26.4472 51.5479 26.2491 50.2919 26.5586 49.2859C26.831 48.3298 26.9486 47.3738 26.9486 46.374V46.1241C26.9486 44.7681 27.8029 43.6621 27.8029 42.756V42.6061C27.8029 41.8 28.1928 41.1001 28.3105 40.2441C28.5023 38.8881 28.7004 37.4322 29.1647 36.1762C29.2452 35.9762 29.2452 35.7763 29.2452 35.5201C29.3195 34.0141 29.6723 32.5582 29.9075 31.0523C29.9447 30.7024 30.217 30.4462 30.217 30.0962C30.217 29.5901 30.3161 29.0715 30.477 28.5841C31.0651 27.5093 32.7117 26.8407 33.0645 28.784C33.0831 29.1214 33.0645 29.4651 32.9965 29.7901C32.7241 31.046 31.8079 33.3455 31.5913 35.2326M36.8715 47.9112C36.7477 47.9612 36.0606 48.3298 35.7387 48.486C35.4168 48.6423 35.4973 48.6423 35.0516 48.8547C34.7545 48.9922 34.5523 49.0797 34.445 49.1172C34.284 49.1671 33.2317 49.3796 32.625 49.4296C32.3279 49.4546 32.2351 49.2671 32.2351 48.9547C32.297 48.6298 32.3527 48.3111 32.4084 48.0111C32.6808 46.474 32.6808 45.4992 33.1079 44.1745C33.5412 42.8498 33.5412 41.5938 33.8074 40.544C34.0797 39.5005 34.3459 37.7508 34.5626 36.9885C34.7792 36.2199 34.7792 35.2826 35.1011 35.5451C35.423 35.8075 35.4787 35.8762 35.6397 36.6448C35.8006 37.4134 36.2339 41.1814 36.5558 42.0187C36.6858 42.3624 37.113 44.3619 37.5834 46.6302C37.5834 46.6739 37.5834 46.7114 37.5958 46.7614C37.7567 47.705 36.9892 47.8612 36.8653 47.9112M45.9588 59.2775C45.9464 59.3337 45.9402 59.3962 45.934 59.4774C45.8536 60.7834 45.0426 61.1521 44.436 61.1021C43.8665 61.0521 43.4765 60.396 43.1608 59.2775C42.9132 58.159 42.7894 56.9967 42.7523 56.7343C42.4923 55.0659 42.1704 53.3912 41.9537 52.4165C41.7371 51.4417 41.1428 49.0672 40.9261 47.8799C40.7095 46.6927 40.2266 44.7368 40.0657 43.4809C39.9048 42.2249 38.9329 38.107 38.8276 37.4134C38.7224 36.7136 38.2334 33.2956 37.9115 32.1083L37.7505 31.0585C37.6515 30.215 37.4844 29.5214 37.4348 28.9027C37.5153 27.678 39.0938 27.1469 39.7871 28.0217C40.3195 28.9715 40.6847 30.0213 40.8395 30.4649C41.0561 31.0898 43.1608 35.9762 43.1608 35.9762C43.1608 35.9762 44.2936 38.0008 44.3493 38.207C44.405 38.4195 44.8322 39.7442 44.9436 39.9504C45.0488 40.1628 45.6431 41.7437 45.7236 42.4186C45.804 43.0935 45.4821 44.8368 45.5317 45.1868C45.5874 45.5367 45.7483 48.3986 45.7483 50.0732C45.7483 51.7478 45.8536 53.0038 45.8536 53.6349C45.8536 54.2661 46.0702 55.797 46.0702 56.3531C46.0702 56.8218 45.9712 58.3152 45.965 59.2775M55.2565 42.4623C54.9841 43.3684 54.718 44.7618 54.5013 45.7429C54.2846 46.7177 53.7461 48.7422 53.6904 49.9295C53.6347 51.1167 52.1428 56.6593 52.0252 57.5154C51.9509 58.0465 51.8519 58.7901 51.6724 59.4962C51.14 61.5582 49.2087 59.9461 49.1715 58.7963C49.1715 58.7963 49.1591 58.8151 49.153 58.8338C49.0972 57.6716 49.1034 56.2094 49.1406 55.6533C49.1963 54.8847 49.252 51.6791 49.252 51.048C49.252 50.4169 49.3077 49.5858 49.3077 48.8172C49.3077 48.0486 49.3077 47.2113 49.252 46.5115C49.1963 45.8116 49.0353 44.9056 49.1406 44.5556C49.252 44.2057 49.3015 42.1811 50.2734 40.1566C51.2452 38.132 53.5109 32.7582 53.8328 32.0646C54.1547 31.3647 55.077 29.4151 55.077 29.4151C55.2008 29.0527 55.3308 28.759 55.4608 28.5216C56.3893 27.1406 57.6707 28.0279 57.875 29.9463C57.5159 31.2522 56.7979 33.2081 56.606 34.8452C56.3893 36.7261 55.5289 41.5438 55.2565 42.4498M62.4062 48.5423C62.041 48.7547 62.041 48.6485 62.041 48.6485C62.041 48.6485 61.5953 48.9109 61.391 48.9609C61.1868 49.0109 60.9082 49.0672 60.7039 49.1172C60.4996 49.1671 60.2582 49.2734 60.1344 49.3296C60.0168 49.3796 59.7692 49.4358 59.5278 49.5358C59.2864 49.642 59.243 49.692 59.1254 49.7483C59.0016 49.7983 58.1535 50.0607 57.4664 50.2732C57.0888 50.3856 57.0207 49.9982 57.0579 49.5046C57.1879 48.8672 57.3117 48.2111 57.4107 47.63C57.6769 46.0928 57.6769 45.118 58.1102 43.7933C58.5435 42.4686 58.5435 41.2126 58.8097 40.1628C59.0821 39.1131 59.3483 37.3697 59.5649 36.6073C59.7816 35.8388 59.7816 34.9015 60.1035 35.1576C60.4254 35.4201 60.4811 35.4888 60.642 36.2574C60.803 37.026 61.2363 40.7939 61.5582 41.6313C61.7005 42.0062 62.1958 44.3557 62.7157 46.8801C62.7034 46.9301 62.6972 46.9926 62.7157 47.0801C62.8767 47.7612 62.7529 48.3361 62.3938 48.5423M68.6336 56.4343C68.6336 56.678 68.6522 56.9217 68.6707 57.1717C68.5903 58.5714 67.9465 57.7028 67.7917 56.4406V56.4781C67.7793 56.4218 67.7732 56.3719 67.767 56.3406C67.5132 54.6722 67.1851 52.9976 66.9684 52.0228C66.7518 51.048 66.1575 48.6735 65.9408 47.4863C65.7242 46.299 65.2413 44.3432 65.0804 43.0872C64.9195 41.8312 63.9476 37.7134 63.8362 37.0198C63.7309 36.3199 63.2419 32.9019 62.92 31.7146L62.7591 30.6711C62.7281 30.4024 62.691 30.1775 62.6476 29.9713C62.3567 28.9215 62.7281 28.3529 62.8457 28.2404C62.9633 28.1279 63.3843 27.9717 63.5576 27.9529C63.7309 27.9342 64.5728 27.7405 64.6471 27.703C64.7214 27.6655 66.5042 27.6843 66.5042 27.6843C66.5042 27.6843 66.8694 27.6843 67.0427 27.703C67.216 27.7217 67.5627 27.703 67.637 27.703C67.7113 27.703 67.965 27.8405 68.0579 27.878C68.1508 27.9155 68.386 28.1904 68.4603 28.3029C68.5346 28.4216 68.5346 28.7653 68.5346 28.9027C68.5346 29.0402 68.5903 29.4026 68.5531 29.5526C68.5407 29.6088 68.5717 29.7213 68.5717 29.8588C68.5655 29.9088 68.5531 29.965 68.5531 30.015C68.5531 30.14 68.5593 30.265 68.5655 30.3962C68.5655 30.6274 68.5531 30.8086 68.5531 30.8086C68.5531 30.8086 68.5655 30.8086 68.5841 30.8086C68.6274 31.4459 68.7079 32.0896 68.7079 32.7269C68.7079 33.433 68.4355 34.1329 68.4355 34.789C68.4355 35.3389 68.6274 36.095 68.6274 36.7448C68.6274 37.4509 68.5531 38.1508 68.5531 38.8069C68.5531 40.1128 68.8255 41.6188 68.8255 42.8248C68.8255 44.0307 68.5903 45.1368 68.5903 46.3428C68.5903 47.1488 68.6707 47.9487 68.6707 48.8047C68.6707 49.3546 68.5903 49.8608 68.5903 50.4106C68.5903 51.4667 68.8626 52.5727 68.8626 53.6787C68.8626 54.5847 68.6274 55.5345 68.6274 56.4406M83.2116 45.6179C82.4502 45.6179 81.8312 44.993 81.8312 44.2245C81.8312 43.4559 82.4502 42.831 83.2116 42.831C83.973 42.831 84.592 43.4559 84.592 44.2245C84.592 44.993 83.973 45.6179 83.2116 45.6179Z" fill="white"/>
<path d="M27.1157 23.7851H32.5755C32.5755 23.7851 39.8738 23.6101 40.0471 23.6101C40.2204 23.6101 41.9413 23.7289 41.9413 23.7289H46.8873C47.0606 23.7289 53.5542 23.8476 54.0123 23.7851C54.4704 23.7289 66.2504 23.7851 66.6589 23.7663C70.1069 23.5726 67.9217 21.4856 67.8846 21.3294C67.8474 21.1732 67.4636 20.7482 67.3089 20.5545C67.1541 20.3608 66.8508 19.8609 66.7332 19.7797C66.6156 19.7047 66.0461 18.8486 66.0461 18.8486C66.0461 18.8486 64.9318 17.8051 63.9352 16.9928C63.6876 16.8803 60.3696 14.6308 60.1406 14.4371C59.9116 14.2434 58.6859 13.7435 58.3764 13.4686C58.0669 13.1999 54.9656 12.0001 54.7365 11.9189C54.5075 11.8439 52.44 11.2253 51.9014 11.1441C51.3629 11.0691 49.8339 10.5629 49.3325 10.4505C48.8372 10.3317 48.2987 10.2193 48.0697 10.1818C47.8406 10.1443 41.6318 9.86933 41.5204 9.91307C41.409 9.95681 39.2238 10.1068 38.7224 10.263C38.2272 10.4192 35.4664 11.0003 35.2002 11.0753C34.934 11.1503 34.1664 11.344 33.6279 11.619C33.0893 11.8876 28.5704 13.5123 28.3414 13.5123C28.1124 13.5123 27.7657 13.9372 27.4191 14.0934C27.0724 14.2496 23.5502 16.8428 22.9373 17.074C22.3245 17.3052 22.1759 17.7739 22.0583 17.9238L21.3712 18.9111C21.0246 19.5173 19.9041 20.7108 19.9041 20.7108C19.446 21.0607 19.0994 21.4044 18.437 21.5231C18.208 21.5606 17.2299 21.4668 17.0566 21.2919C16.8833 21.1169 16.8833 20.8857 16.8833 20.5358C16.8833 20.1859 17.2299 19.9547 17.2299 19.9547L17.6509 19.586C17.8799 19.3173 18.1461 19.0049 18.3813 18.7737C18.6104 18.5425 19.4956 17.7676 19.4956 17.7676C19.4956 17.7676 21.2969 15.9868 21.4517 15.8743C21.6064 15.7556 22.1821 15.1369 22.5659 14.9432C22.9497 14.7495 24.4416 13.706 24.5592 13.631C24.6768 13.556 26.9362 12.2751 27.091 12.2001C27.2457 12.1251 27.8957 11.8876 28.2424 11.7377C28.589 11.5815 29.2018 11.3503 29.3937 11.3128C29.5856 11.2753 30.0809 10.7316 30.5823 10.5379C31.0775 10.3442 31.8079 10.188 32.2289 10.0755C32.6498 9.95681 33.764 9.45691 33.764 9.45691C33.764 9.45691 36.6735 8.52586 36.9087 8.48837C37.1377 8.45088 36.983 8.36965 38.0229 8.33216C39.0567 8.29466 39.0938 8.17594 39.5952 8.13845C40.0905 8.10096 40.2452 8.10096 40.5919 8.06346C40.9385 8.02597 41.0499 7.98848 41.6628 7.98848C42.2756 7.98848 42.4304 7.86975 42.8142 7.9135C43.1979 7.95099 43.1237 7.876 43.6932 7.9135C44.2689 7.95099 45.2655 7.98848 45.3769 7.98848C45.4883 7.98848 49.7039 8.41339 49.8215 8.45088C49.9391 8.48837 50.6262 8.76331 50.9729 8.8383C51.3195 8.91328 52.6195 9.10699 53.0033 9.22571C53.3871 9.34444 54.6127 9.68812 54.7675 9.72561C54.9222 9.7631 55.6465 9.95681 55.8384 10.1505C56.0303 10.3442 57.485 10.6941 57.7512 10.8441C58.0174 11.0003 58.8654 11.344 59.0945 11.4627C59.3235 11.5815 61.391 12.7 61.391 12.7L62.3505 13.3186C62.3505 13.3186 63.8052 14.3996 64.2262 14.5933C64.6471 14.787 65.3775 15.2869 65.6066 15.5244C65.8356 15.7556 66.337 16.2055 66.6403 16.3367C67.1789 16.5679 67.637 16.9553 67.637 16.9553C68.2498 17.5739 69.0545 18.5425 69.0545 18.5425C69.0545 18.5425 69.8964 19.3923 70.014 19.586C70.1316 19.7797 70.664 20.3233 70.8187 20.517C70.9735 20.7108 71.8525 21.3669 71.933 21.5981C72.0073 21.8293 72.3168 22.3354 72.583 22.4854C72.8491 22.6416 73.2329 22.9103 73.6539 23.179C74.0748 23.4477 74.1491 23.4102 74.5329 23.6414C74.9167 23.8726 76.2971 24.1413 78.0551 24.01C78.2904 23.9913 80.0112 23.8726 80.0112 23.8726L81.045 23.8351L81.3298 23.3727L81.2121 22.1542C81.2121 22.1542 80.0608 20.5858 79.7389 20.1234C79.2808 19.4735 79.126 18.8861 78.8599 18.4237C78.5937 17.9613 74.8733 13.8185 74.4895 13.2374C74.1058 12.6562 74.18 12.5 73.3753 11.9251C72.5706 11.344 71.9949 10.6504 71.6482 10.3755C71.3016 10.1068 68.5841 8.28841 67.9712 7.86351C67.3584 7.4386 66.7827 7.05118 65.9037 6.58878C65.0247 6.12638 63.9104 5.15784 63.3348 4.92664C62.7591 4.69544 62.53 4.34551 61.4963 4.07682C60.4625 3.80813 59.7692 3.42071 59.2368 3.26449C58.6983 3.10828 58.4321 2.80209 57.0888 2.33344C55.7455 1.87104 52.9476 1.09621 51.9138 1.02122C50.88 0.94624 50.6881 0.94624 49.9577 0.827516C49.2272 0.708791 49.611 0.708791 48.1192 0.515083C46.6273 0.321374 45.6307 0.283882 45.0922 0.165158C44.5536 0.0464334 44.5969 -0.0660425 43.4827 0.0464334C42.3685 0.165158 40.2638 0.627559 39.1929 0.627559C38.122 0.627559 36.3206 0.746283 36.3206 0.746283C36.3206 0.746283 32.3341 1.71483 32.1793 1.78981C32.0246 1.86479 31.3375 2.13973 31.028 2.21472C30.7246 2.2897 29.8023 2.63963 29.8023 2.63963C29.8023 2.63963 25.6239 4.18929 25.432 4.30177C25.2401 4.4205 23.8597 5.23282 23.6306 5.3078C23.4016 5.38279 22.3307 5.77021 22.0955 6.00141C21.8664 6.23261 20.8698 6.73875 20.715 6.85122C20.5603 6.9637 15.3481 10.8379 15.2367 10.9503C15.1191 11.0691 13.8563 11.6439 13.7448 11.8814C13.6953 11.9751 13.4044 12.3938 13.0577 12.8624C12.9958 12.9187 12.9401 12.9687 12.8782 13.0249C12.5997 13.3061 12.3768 13.6185 12.2035 13.9559C12.024 14.1747 11.8816 14.3246 11.8259 14.3559C11.5968 14.4746 11.0583 14.7433 10.8292 15.1307C10.6002 15.5181 10.9035 15.5181 10.334 16.0992C9.75834 16.6804 8.03746 18.9986 7.6908 19.4673C7.567 19.636 7.19558 20.742 7.07797 20.8607C6.96036 20.9794 6.61989 21.4044 6.50228 21.673C6.38466 21.9417 6.08134 22.2167 6.0442 22.4479C6.00706 22.6791 5.73469 22.7978 5.92659 23.029C6.11848 23.2602 6.34752 23.5726 6.50228 23.6851C6.65703 23.7976 6.81179 23.9975 7.11511 24.035C7.42462 24.0725 7.38129 24.1538 7.72794 24.035C8.0746 23.9163 8.49553 23.7289 8.72457 23.5351C8.95361 23.3414 9.79548 21.5231 10.2164 20.9045C10.6374 20.2858 10.8292 19.8234 11.213 19.2048C11.3059 19.0549 11.8011 18.5425 12.5006 17.8364C12.612 17.9926 12.7358 18.1488 12.8782 18.2863C13.2372 18.6487 13.6644 18.9299 14.1286 19.1111L13.5529 19.8984L12.4016 21.6793C12.4016 21.6793 12.3459 22.2229 12.1168 22.5104C11.8878 22.7978 12.4016 23.0915 12.4016 23.0915C12.4016 23.0915 12.8039 23.4977 13.1506 23.6726C13.4972 23.8476 14.5867 23.7913 14.9334 23.8476C15.28 23.9038 15.8557 23.9038 16.0229 23.8476C16.19 23.7913 16.7285 23.8476 16.7285 23.8476H17.688C18.177 23.8163 19.2108 23.8788 19.5265 23.7601C19.8422 23.6414 21.136 23.1227 21.885 22.5978C21.885 22.5978 22.1697 22.3104 22.3183 22.1042C22.4607 21.9042 22.9497 21.6668 23.0921 21.3794C23.2345 21.0919 23.5254 20.9419 23.5811 20.7732C23.6368 20.6045 24.2435 20.1046 24.3301 20.0171C24.4168 19.9297 25.1349 19.0861 25.2525 19.0049C25.3701 18.9174 26.4039 18.28 26.9177 17.8739C27.0476 17.7676 27.4376 17.349 27.6914 17.199C27.9948 17.0178 28.7252 16.6554 28.7252 16.6554L32.0184 14.912C32.0184 14.912 33.8198 14.2934 34.2778 14.2934C34.7359 14.2934 40.4495 12.9812 40.5609 12.9374C40.6723 12.8937 43.5879 12.8624 43.8974 12.8187C44.207 12.7812 45.4326 12.8937 46.0455 12.9749C46.6583 13.0499 47.9211 13.1311 48.4225 13.2436C48.9239 13.3561 53.6347 14.5558 53.6347 14.5558C53.6347 14.5558 57.7326 16.218 58.005 16.4117C58.2712 16.6054 59.4225 17.149 59.8063 17.4552C60.1901 17.7614 61.2982 18.43 61.6077 18.6549C61.6077 18.6549 63.4833 20.0109 63.6381 20.2046C63.7928 20.3983 63.9476 20.5545 63.9847 20.7045C64.0219 20.8607 64.2942 21.4793 64.2138 21.5918C64.1395 21.7105 63.7557 21.748 63.5267 21.748C63.2976 21.748 62.7591 21.748 62.53 21.7855C62.301 21.823 61.2672 21.823 61.0382 21.7855C60.8091 21.748 60.0416 21.6293 59.3916 21.7105C59.0511 21.7543 57.8997 21.6356 57.1879 21.5731H51.1524C51.1524 21.5731 46.9554 21.6293 46.1507 21.5731C45.6802 21.5418 42.127 21.6293 42.127 21.6293C42.127 21.6293 34.9402 21.5106 34.5997 21.4543C34.2531 21.3981 31.4984 21.4543 30.5761 21.3981C29.6537 21.3419 27.5862 21.4543 26.6081 21.3981C26.6081 21.3981 26.3482 21.4293 26.1191 21.4293C25.8901 21.4293 25.6301 21.3731 25.4877 21.4606C25.3453 21.5481 25.0853 21.6605 24.9987 21.748C24.912 21.8355 24.683 21.948 24.5654 22.098C24.4477 22.2479 24.3673 22.3854 24.3054 22.5604C24.2497 22.7353 24.132 22.7916 24.2187 22.9978C24.3054 23.204 24.2497 23.4914 24.5344 23.6039C24.8192 23.7226 26.4286 23.7476 27.1219 23.7788M71.7287 17.1615C71.3573 17.1615 71.0168 17.0178 70.7507 16.7553C70.2121 16.2117 70.2121 15.3307 70.7507 14.787C71.0106 14.5246 71.3573 14.3809 71.7287 14.3809C72.1001 14.3809 72.4406 14.5246 72.7068 14.787C72.9668 15.0495 73.1091 15.3994 73.1091 15.7743C73.1091 16.1492 72.9668 16.4992 72.7068 16.7616C72.4468 17.024 72.1001 17.1678 71.7287 17.1678M43.5198 2.60838C44.2812 2.60838 44.9003 3.23325 44.9003 4.00183C44.9003 4.77042 44.2812 5.39529 43.5198 5.39529C42.7584 5.39529 42.1394 4.77042 42.1394 4.00183C42.1394 3.23325 42.7584 2.60838 43.5198 2.60838ZM14.5062 14.6745C14.7662 14.4121 15.1129 14.2684 15.4843 14.2684C15.8557 14.2684 16.1962 14.4121 16.4624 14.6745C17.0009 15.2182 17.0009 16.0992 16.4624 16.6429C16.2024 16.9053 15.8557 17.049 15.4843 17.049C15.1129 17.049 14.7724 16.9053 14.5062 16.6429C14.2463 16.3804 14.1039 16.0305 14.1039 15.6556C14.1039 15.2807 14.2463 14.937 14.5062 14.6683M36.0854 6.12638C35.5468 6.12638 35.2806 6.16387 34.934 6.2451C34.5873 6.32009 33.3617 6.4763 33.2503 6.59503C33.1326 6.71375 32.1793 7.09492 32.0246 7.25114C31.8698 7.40735 30.7618 7.75103 30.607 7.79477C30.4523 7.83226 27.809 8.8383 27.4252 8.95702C27.0415 9.07575 26.4286 9.15073 26.1996 9.30695C25.9705 9.46316 24.553 10.388 24.4354 10.5067C24.3178 10.6254 23.2097 11.1628 23.2097 11.1628C23.2097 11.1628 20.6779 13.0187 20.5665 13.0936C20.4489 13.1686 20.0279 13.4061 19.7989 13.556C19.6194 13.681 19.0561 13.9185 18.8085 14.0934C18.6351 13.7123 18.3937 13.3498 18.078 13.0374C17.9728 12.9312 17.8552 12.8312 17.7375 12.7375C18.5918 11.9189 19.1984 11.3378 19.2603 11.2753C19.4894 11.0441 18.9137 10.7754 20.257 10.3067C21.6002 9.84433 24.6273 8.02597 25.0853 7.71354C25.5434 7.40111 25.9272 7.01994 26.7691 6.745C27.611 6.4763 27.5367 6.4763 28.069 6.2826C28.6076 6.08889 28.9109 6.16387 29.7528 5.73896C30.5946 5.31405 31.6717 4.77042 32.2412 4.65794C32.8169 4.53922 34.0426 4.65794 34.5378 4.42674C35.033 4.19554 37.5277 3.42071 38.1405 3.34573C38.5615 3.28949 39.1557 3.20201 39.9295 3.13952C39.8614 3.41446 39.8243 3.70815 39.8243 4.00183C39.8243 4.55172 39.9481 5.0766 40.1647 5.54525C39.0876 5.72022 36.4939 6.12638 36.073 6.12638M63.8238 11.0441C63.4029 10.8504 62.9014 10.6192 62.5238 10.3505C62.14 10.0818 61.9482 9.92556 61.3725 9.65687C60.7968 9.38818 59.4597 8.76956 59.0759 8.57585C58.6921 8.38214 57.7759 8.11345 57.4664 7.91974C57.1631 7.72604 54.4023 6.79499 54.1732 6.75749C53.9442 6.72 53.059 6.29509 52.8733 6.33258C52.6814 6.37008 47.7416 5.55775 47.5063 5.55775C47.3144 5.55775 47.2278 5.53276 46.8997 5.47652C47.0916 5.02661 47.203 4.53297 47.203 4.00808C47.203 3.75189 47.1783 3.50194 47.1287 3.25824C47.2464 3.26449 47.3206 3.27074 47.3206 3.27074C47.3206 3.27074 51.3443 3.81438 51.6476 3.88936C51.9571 3.96434 53.7151 4.27678 54.1361 4.43299C54.557 4.58921 55.7827 4.89539 56.0117 5.01412C56.2408 5.13284 56.5874 5.28281 56.8907 5.32655C57.1941 5.36404 61.4529 7.21989 61.682 7.30113C61.911 7.37611 65.7428 9.58189 67.2408 10.7441C68.7326 11.9064 69.0793 12.2938 69.6178 12.6812C69.6302 12.6937 69.6488 12.7062 69.6612 12.7187C69.4755 12.8499 69.296 12.9937 69.1288 13.1624C68.776 13.5185 68.5098 13.931 68.3303 14.3684C68.1198 14.2059 67.9279 14.0747 67.9279 14.0747C67.9279 14.0747 64.2509 11.2503 63.83 11.0566M75.6843 21.5856C74.9724 21.3731 74.211 20.6795 73.9015 20.2483C73.7777 20.0796 73.4434 19.6672 73.0782 19.2236C73.5363 19.0424 73.9634 18.7612 74.3224 18.3987C74.5205 18.1988 74.6938 17.9738 74.8362 17.7426C75.3129 18.3113 75.8824 19.0174 75.9257 19.0923C76 19.2111 76.8047 20.4171 76.9223 20.5983C77.5909 21.6418 75.6781 21.5856 75.6781 21.5856" fill="white"/>
<path d="M63.7866 64.0202C63.7866 64.0202 57.4664 64.1639 57.2931 64.1639C57.1198 64.1639 52.2666 64.0452 52.18 64.0764C52.0933 64.1077 41.4894 64.0765 41.118 64.1077C40.7466 64.1389 39.9666 64.0765 39.5643 64.1077C39.1619 64.1389 28.9604 64.0515 28.8738 64.0764C28.7871 64.1014 26.831 63.989 26.831 63.989L23.5254 64.1639H21.9159C21.9159 64.1639 19.0684 64.0202 18.957 64.1077C18.8394 64.1952 17.979 64.5451 17.979 64.5451L17.4342 65.1825V65.4449C17.3537 65.5386 17.5395 65.6824 17.7685 65.8886C17.8304 65.9448 17.9356 66.051 18.0471 66.176L18.0594 66.201L18.4928 66.6634C18.7342 66.9321 18.957 67.1758 19.0251 67.2445C19.1799 67.4007 23.3954 71.1874 23.544 71.2687C23.6987 71.3436 24.7325 72.1185 25.0358 72.3122C25.3453 72.5059 25.8406 72.9308 26.2986 73.1995C26.7567 73.4682 29.1338 74.5117 30.248 75.2116C31.3622 75.9052 31.8203 75.9864 33.3926 76.4113C34.9649 76.8362 39.8305 77.7673 40.1338 77.8422C40.4433 77.9172 43.3898 77.9985 46.7635 77.8048C50.1372 77.611 56.4574 75.4865 56.575 75.3678C56.6926 75.2491 58.3392 74.7867 58.4135 74.6304C58.4878 74.4742 62.9324 72.1185 62.9324 72.1185C62.9324 72.1185 64.2943 71.3061 64.4676 71.1937C64.6409 71.0749 65.7923 70.1814 65.8727 70.0627C65.9594 69.9439 66.4732 69.4503 66.5351 69.3378C66.5351 69.3378 66.9375 69.0191 67.0241 68.9317C67.1108 68.8442 67.4265 68.4693 67.5132 68.3255C67.5998 68.1818 68.0889 67.6882 68.2003 67.5695C68.3117 67.4507 69.0607 67.0758 69.1474 66.9321C69.234 66.7884 70.1254 66.1198 70.1254 66.1198C70.1254 66.1198 70.6454 66.0885 70.7878 66.0885C70.9302 66.0885 71.4192 66.0573 71.5368 66.0885C71.6544 66.1198 71.8525 66.1448 71.9949 66.176C72.1373 66.2072 72.2549 66.2635 72.3415 66.4072C72.4282 66.5509 72.4839 66.7259 72.3973 66.8446C72.3106 66.9633 72.1682 67.2195 72.0816 67.282C71.9949 67.3445 72.0258 67.3695 71.7659 67.5695C71.5059 67.7694 71.0168 68.0069 70.9611 68.0943C70.9054 68.1818 70.014 68.7879 70.014 68.7879C70.014 68.7879 69.1536 69.4253 69.1226 69.544C69.0917 69.6628 68.5469 70.0939 68.5469 70.0939L67.7732 70.85C67.1417 71.2249 66.3556 71.7373 66.0027 72.0497C66.0027 72.0497 63.4709 74.0618 62.9386 74.293C62.4062 74.5242 62.0967 74.9116 61.942 74.9866C61.7872 75.0616 57.1507 77.4236 57.0022 77.3861C56.8474 77.3486 54.9718 78.2359 54.3589 78.2734C53.7461 78.3109 53.4799 78.6608 53.0961 78.6983C52.7123 78.7358 51.8705 79.2794 51.2948 79.3919C50.7191 79.5106 50.5272 79.4294 49.9948 79.4294C49.4625 79.4294 44.6279 80.1667 44.1698 80.1667C43.7117 80.1667 43.2103 80.1667 42.4427 80.1293C41.6752 80.0918 41.409 80.0543 40.7157 79.8981C40.0286 79.7418 39.9852 79.8606 39.4529 79.8606C38.9205 79.8606 38.8772 79.7418 38.0353 79.5481C37.1934 79.3544 37.3049 79.4732 36.8096 79.3544C36.3144 79.2357 35.6583 79.1232 35.4292 78.967C35.2002 78.8108 33.3617 78.1922 32.9779 78.036C32.5941 77.8797 32.5198 77.961 31.5232 77.686C30.5266 77.4173 30.6813 77.5298 30.0685 77.1861C29.4556 76.8362 29.2637 76.7237 29.0718 76.5675C28.88 76.4113 28.0381 76.1426 27.5367 75.9864C27.0415 75.8302 26.7319 75.6365 26.0448 75.2491C25.3577 74.8616 25.4691 74.9429 24.782 74.5929C24.0949 74.243 23.6678 73.9368 23.3273 73.6619C22.9807 73.3932 21.5631 72.156 21.1793 71.9623C20.7955 71.7685 20.6841 71.5374 20.4922 71.3436C20.3003 71.1499 18.7651 70.0689 18.5732 69.8752C18.3813 69.6815 17.9232 68.9879 17.9232 68.8692C17.9232 68.7504 15.6638 66.3135 15.5462 66.201C15.4286 66.0885 14.4753 64.4576 14.3577 64.3451C14.2401 64.2327 13.3611 63.0329 13.2063 62.758C13.0515 62.4893 12.8225 62.1019 12.7482 61.9457C12.6739 61.7894 11.6773 59.7024 11.6773 59.7024C11.6773 59.7024 11.3307 59.0838 11.2564 58.8901C11.1821 58.6964 10.9097 58.0777 10.8726 57.884C10.8354 57.6903 9.10837 53.0476 9.10837 53.0476C9.10837 53.0476 8.61315 50.7293 8.53267 50.5356C8.45839 50.3419 8.41506 49.4921 8.30364 49.0297C8.18602 48.5673 8.14888 48.0236 8.14888 47.8674C8.14888 47.7112 7.91984 43.3809 7.91984 43.2622C7.91984 43.1434 7.95698 42.2186 7.95698 42.0999C7.95698 41.9812 7.91984 40.4003 7.95698 39.9316C7.99412 39.4692 7.80223 38.5382 7.83937 38.232C7.91365 37.6134 7.83937 36.6073 7.80223 36.4511C7.76509 36.2949 7.68461 35.5201 7.68461 35.5201C7.68461 35.5201 7.22654 32.4645 7.14606 32.3458C7.07178 32.227 6.91702 31.221 6.87988 31.071C6.84274 30.9148 6.68799 29.9463 6.65084 29.7151C6.6137 29.4839 6.38466 28.8653 6.26705 28.7465C6.14944 28.6278 5.61708 27.8967 5.19614 27.5468C5.04757 27.4218 4.62045 27.4281 4.39141 27.2781C4.16237 27.1219 3.93333 27.3156 3.77858 27.3156C3.62382 27.3156 3.5124 27.6218 3.5124 27.6218C3.5124 27.6218 2.93671 28.7465 2.86242 28.859C2.78814 28.9777 2.70767 29.7463 2.59624 29.8275C2.59624 29.8275 1.94627 32.9581 1.8658 33.2706C1.79152 33.583 1.37058 34.5828 1.17868 35.0889C0.986786 35.5888 1.02393 36.3262 0.986786 36.9073C0.949644 37.4884 0.602991 39.3068 0.602991 39.7692C0.602991 40.2316 0.182056 41.9374 0.107773 42.3998C0.0334904 42.8622 -0.0469825 46.4615 0.0334904 47.58C0.107773 48.7047 0.343002 49.2796 0.454426 49.8982C0.57204 50.5169 0.912503 53.3038 1.14154 54.2286C1.37058 55.1596 1.82866 57.053 2.24959 57.9028C2.67053 58.7526 2.78814 59.065 3.20908 60.0711C3.63001 61.0771 5.01043 64.4826 5.31376 64.945C5.62327 65.4074 6.19277 66.4947 6.6137 66.9196C7.03464 67.3445 7.45557 68.2756 7.95698 68.8942C8.4522 69.5128 10.5259 72.2622 11.2502 73.3432C11.8135 74.1805 12.1911 74.368 12.7606 74.8054C12.8287 74.8929 12.903 74.9741 12.9834 75.0553C13.1877 75.2616 13.4106 75.4365 13.652 75.5865C14.2648 76.1614 14.3762 76.2988 14.9705 76.9049C15.6576 77.5985 17.7314 79.0295 18.6846 79.8418C19.6441 80.6541 20.0279 80.9228 20.6408 81.2353C21.2536 81.5415 22.1326 82.1226 23.3645 82.8599C24.5901 83.5973 24.782 83.6348 25.5125 83.9409C26.2429 84.2471 29.6537 85.6843 31.028 86.0655C32.4084 86.4529 32.8293 86.5654 33.7083 86.6841C34.5873 86.8028 39.9914 87.6152 39.9914 87.6152C39.9914 87.6152 41.6071 87.6651 42.4489 87.6839C42.7894 87.7901 43.1484 87.8464 43.5198 87.8464C43.9655 87.8464 44.3927 87.7651 44.7826 87.6152C45.4326 87.5839 46.095 87.5527 46.5469 87.5339C47.5806 87.4964 48.6144 87.4589 49.5739 87.3777C50.5334 87.3027 51.1833 87.0278 51.9881 86.9153C52.7928 86.8028 53.4056 86.8403 53.5604 86.7966C53.7151 86.7528 58.5435 85.2906 58.884 85.0532C59.2306 84.822 59.8063 84.747 60.4935 84.3971C61.1806 84.0472 61.5272 84.0097 61.682 83.8972C61.8367 83.7785 65.3961 82.3913 65.6685 82.2351C65.9347 82.0788 67.2779 81.0353 67.6617 80.6104C68.0455 80.1855 68.5036 79.7981 68.6955 79.6419C68.8874 79.4856 70.0388 78.7546 70.1131 78.6358C70.1873 78.5171 71.184 77.7048 71.3016 77.5111C71.4192 77.3174 74.4029 75.1491 74.5576 74.7679C74.7124 74.3805 75.1333 74.268 75.2448 74.1118C75.3624 73.9556 80.2279 67.5007 80.3765 67.2258C80.5312 66.9571 80.6426 66.8009 80.8345 66.5322C81.0264 66.2635 81.4474 65.4512 81.5216 65.3324C81.5959 65.2137 81.7507 64.7138 81.8683 64.4014C81.9859 64.089 81.8312 63.9015 81.6393 63.7453C81.4474 63.5891 80.7974 63.7828 80.5684 63.7453C80.3393 63.7078 79.8812 63.8203 79.6089 63.939C79.3427 64.0577 79.3427 64.1327 78.996 64.4014C78.6494 64.6701 78.6865 65.095 78.5751 65.2512C78.4575 65.4074 78.0799 65.9073 77.9623 66.026C77.8447 66.1448 76.9285 67.6882 76.9285 67.6882C76.9285 67.6882 76.0866 68.7692 75.8947 69.1191C75.8266 69.2503 75.3438 69.769 74.7619 70.3938C74.6072 70.1439 74.4277 69.9064 74.2172 69.6877C73.8458 69.3128 73.4063 69.0316 72.9296 68.8504C73.171 68.5755 73.4248 68.3068 73.5548 68.1943C73.7839 68.0006 74.1677 67.6507 74.4338 67.307C74.7 66.9571 75.0095 66.376 75.0838 66.1823C75.1581 65.9885 75.6905 65.5886 75.6966 65.3324C75.709 64.995 75.6471 64.7888 75.6224 64.6763C75.5976 64.5638 75.2509 64.3576 75.2509 64.3576C75.2509 64.3576 73.4991 64.1264 73.2082 64.1577C72.9234 64.1889 71.1097 64.1827 70.9116 64.1889C69.7045 64.2202 69.0174 64.5638 68.6707 64.6826C68.3241 64.8013 67.7236 65.0575 67.5813 65.2075C67.4389 65.3512 66.8632 65.7573 66.6342 65.9011C66.4051 66.0448 66.0027 66.276 65.9161 66.3072C65.8294 66.3385 64.1333 67.7257 64.0219 67.8131C63.9105 67.9006 63.2171 68.2756 62.7219 68.7005C61.8801 69.3941 60.7658 70.2876 60.4254 70.4813C60.0787 70.675 58.7416 71.5248 58.5869 71.5248C58.4321 71.5248 53.6471 73.7681 53.0714 73.9243C52.4957 74.0806 51.6167 74.4242 51.27 74.5055C50.9234 74.5804 49.9701 74.6992 49.4687 74.7367C48.9734 74.7742 48.5896 74.8554 48.2058 74.8554C47.822 74.8554 43.1113 75.2428 42.3437 75.2053C41.5761 75.1678 39.5829 74.9741 39.1991 74.8991C38.8153 74.8241 36.2897 74.3992 35.8254 74.243C35.3673 74.0868 34.3335 73.8556 34.0612 73.6994C33.795 73.5432 33.2564 73.4307 32.7179 73.237C32.1793 73.0433 29.3071 71.4936 28.9233 71.3436C28.5395 71.1874 27.5057 70.65 27.2767 70.4126C27.0476 70.1814 26.0139 69.6378 25.5496 69.3691C25.0915 69.1004 24.8625 68.7505 24.7077 68.5942C24.6025 68.488 23.7606 67.8694 23.1354 67.357H23.1602C22.8445 66.8946 22.7269 66.5134 23.1292 66.4572C23.5316 66.4009 27.4995 66.4009 27.7533 66.4009H29.8518C29.9385 66.4009 38.9329 66.4322 39.1929 66.4322C39.4529 66.4322 40.5733 66.2322 41.0004 66.2572C41.4337 66.2885 41.9785 66.226 42.6656 66.2572C43.3527 66.2885 46.3426 66.2885 46.8873 66.3135C47.4321 66.3447 50.2796 66.3447 50.2796 66.3447C50.2796 66.3447 61.4901 66.4322 61.7191 66.4322H63.0129C63.211 66.4322 63.7619 66.376 64.0776 66.2572C64.3933 66.1385 64.9133 66.1385 64.9999 65.6511C65.0866 65.1575 65.0866 65.0137 65.0866 64.8075C65.0866 64.6013 64.3995 64.0265 63.7928 64.0265M72.5953 73.3182C72.3354 73.5807 71.9887 73.7244 71.6173 73.7244C71.2459 73.7244 70.9054 73.5807 70.6392 73.3182C70.1007 72.7746 70.1007 71.8935 70.6392 71.3499C70.8992 71.0874 71.2459 70.9437 71.6173 70.9437C71.9887 70.9437 72.3292 71.0874 72.5953 71.3499C72.8553 71.6123 72.9977 71.9623 72.9977 72.3372C72.9977 72.7121 72.8553 73.0558 72.5953 73.3245M44.8941 84.1471C44.8941 84.9157 44.2751 85.5406 43.5137 85.5406C42.7523 85.5406 42.1332 84.9157 42.1332 84.1471C42.1332 83.3786 42.7523 82.7537 43.5137 82.7537C44.2751 82.7537 44.8941 83.3786 44.8941 84.1471ZM15.5895 71.05C15.9548 71.05 16.3014 71.1937 16.5676 71.4561C16.8276 71.7186 16.97 72.0685 16.97 72.4434C16.97 72.8183 16.8276 73.162 16.5676 73.4307C16.3076 73.6931 15.9609 73.8369 15.5895 73.8369C15.2181 73.8369 14.8777 73.6931 14.6115 73.4307C14.0729 72.8871 14.0729 72.006 14.6115 71.4624C14.8715 71.1999 15.2181 71.0562 15.5895 71.0562M3.3205 40.2441C3.3205 40.2441 3.43812 38.8881 3.47526 38.7756C3.5124 38.6569 4.26761 33.5518 4.43474 33.3205C4.73806 32.8956 5.08472 33.3955 5.12186 33.5143C5.159 33.633 5.19614 34.3641 5.3509 34.714C5.50565 35.0639 5.42518 36.0825 5.42518 36.4136C5.42518 36.9948 5.3509 38.8881 5.3509 38.8881C5.3509 38.9818 5.41899 40.0566 5.37566 40.8689C4.89901 40.644 4.37284 40.5128 3.81572 40.5128C3.63001 40.5128 3.4505 40.5315 3.27717 40.5565C3.30193 40.369 3.3205 40.2441 3.3205 40.2441ZM2.44149 44.2307C2.44149 43.4621 3.06051 42.8373 3.82191 42.8373C4.58331 42.8373 5.20233 43.4621 5.20233 44.2307C5.20233 44.9993 4.58331 45.6242 3.82191 45.6242C3.06051 45.6242 2.44149 44.9993 2.44149 44.2307ZM11.7887 69.794C11.213 69.3316 11.1759 68.7504 10.9469 68.363C10.7178 67.9756 8.26649 64.3014 8.26649 64.3014C8.26649 64.3014 7.8827 63.3703 7.57938 62.833C7.27606 62.2893 7.19558 61.7519 7.19558 61.7519L3.71049 52.1977L3.48145 50.1857C3.48145 50.1857 3.41954 49.1671 3.34526 47.9049C3.50002 47.9237 3.66096 47.9424 3.82191 47.9424C4.46569 47.9424 5.06615 47.7737 5.59232 47.48C5.67279 48.1799 5.75326 48.8672 5.77183 49.0234C5.80897 49.3734 5.80897 50.067 5.77183 50.7231C5.73469 51.3792 6.42181 52.8476 6.45895 53.1975C6.49609 53.5475 6.72513 54.0848 6.84274 54.5098C6.96036 54.9347 6.96036 55.2034 6.9975 55.5533C7.03464 55.9032 7.22654 56.5218 7.30082 56.678C7.3751 56.8343 8.10555 58.4589 8.14269 58.6526C8.17983 58.8463 8.71838 60.0086 8.75552 60.2023C8.79266 60.396 9.17646 61.3645 9.25074 61.5582C9.32502 61.7519 11.244 64.3014 11.3183 64.6888C11.3926 65.0762 12.0487 65.7698 12.2406 66.0823C12.4325 66.3947 12.8163 67.0883 13.0453 67.357C13.2744 67.6257 13.8501 68.3255 13.8501 68.3255C13.8501 68.3255 14.0729 68.6005 14.3515 68.9442C13.8377 69.1254 13.3734 69.4191 12.9773 69.819C12.7792 70.0189 12.612 70.2376 12.4697 70.4688C12.2035 70.1814 11.9559 69.9377 11.7825 69.8002M38.3448 84.997C37.5029 84.9595 36.9272 84.5346 36.4692 84.4158C36.0111 84.2971 35.0145 84.1471 34.5564 84.0284C34.0983 83.9097 32.297 83.3723 31.876 83.2536C31.4551 83.1349 28.9666 82.2101 28.2362 81.8976C27.5057 81.5852 26.8929 81.2415 26.3977 81.0853C25.9025 80.9291 24.6335 80.273 24.1011 79.923C23.5625 79.5731 22.7207 79.1107 22.2626 78.7983C21.8045 78.4921 20.7274 77.8672 20.4241 77.5611C20.1146 77.2549 19.6565 77.1361 19.4646 77.0174C19.3903 76.9737 18.6166 76.3113 17.6756 75.4928C17.8613 75.3615 18.0347 75.2178 18.1956 75.0553C18.6166 74.6304 18.9261 74.1118 19.0994 73.5557C20.4303 74.5992 21.7921 75.6365 22.2193 75.8614C23.0983 76.3238 23.2902 76.555 24.0578 77.0612C24.8254 77.5611 25.7044 77.9922 26.3172 78.2609C26.93 78.5296 27.4252 78.9982 27.6171 79.2294C27.809 79.4606 29.6475 80.1168 30.378 80.4292C31.1084 80.7416 31.3746 80.8166 32.1422 81.0103C32.9098 81.204 33.3307 81.3977 33.5969 81.4727C33.8631 81.5477 35.1321 81.8601 35.324 81.8601C35.454 81.8601 38.3696 82.2413 40.2452 82.4725C39.9914 82.9786 39.849 83.541 39.849 84.1471C39.849 84.4346 39.8862 84.7095 39.9419 84.9782C39.4157 84.9907 38.8524 85.0219 38.351 84.997M64.7461 79.2357C64.2076 79.5856 63.6319 79.8543 63.1367 80.1667C62.6415 80.4792 59.3421 82.2538 58.2712 82.485C57.2002 82.7162 57.3117 82.8349 56.9279 82.8724C56.5441 82.9099 51.7962 84.3034 51.4495 84.3034C51.1029 84.3034 50.7995 84.4971 50.3786 84.4971C49.9577 84.4971 49.4563 84.6908 48.9982 84.6533C48.7877 84.6345 47.983 84.697 47.1411 84.7845C47.1783 84.5783 47.1968 84.3658 47.1968 84.1471C47.1968 83.5473 47.0545 82.9849 46.8007 82.485C47.3949 82.41 47.9149 82.3475 48.0387 82.3288C48.3482 82.2913 48.7692 82.2538 48.7692 82.2538C48.7692 82.2538 50.9543 81.8664 51.4124 81.7914C51.8705 81.7164 52.409 81.5602 52.7557 81.4852C53.1023 81.4102 53.6347 81.329 54.0989 81.1728C54.557 81.0166 55.0956 80.8604 55.3246 80.7479C55.5536 80.6292 58.6178 79.7418 59.0016 79.5481C59.3854 79.3544 59.4597 79.3544 59.8806 79.0045C60.3015 78.6546 60.6482 78.6171 60.9949 78.4609C61.3415 78.3046 61.7253 77.961 62.1834 77.7673C62.6415 77.5736 63.2543 77.3798 63.6381 77.1486C64.0219 76.9174 64.4799 76.5675 64.8637 76.2988C65.2475 76.0301 65.4023 75.9864 65.8975 75.6052C66.3927 75.2178 66.8199 74.9491 67.3894 74.4055C67.7546 74.0618 67.996 73.9056 68.2188 73.7556C68.3984 74.193 68.6646 74.6054 69.0174 74.9616C69.2031 75.1491 69.4012 75.3053 69.6116 75.449C67.6432 77.0049 65.068 79.0295 64.7461 79.242" fill="white"/>
<path d="M24.9863 97.4068C25.302 97.0694 25.5496 96.7632 25.7291 96.4945C25.9086 96.2258 26.0386 95.9571 26.1129 95.7009C26.1872 95.4447 26.2243 95.176 26.2243 94.8948C26.2243 94.5449 26.1439 94.2262 25.9829 93.9325C25.822 93.6389 25.5929 93.4139 25.2896 93.2389C24.9863 93.064 24.6211 92.9827 24.194 92.9827C23.8411 92.9827 23.5192 93.0515 23.2221 93.1827C22.9311 93.3139 22.6712 93.4951 22.4421 93.7263C22.2131 93.9575 22.0088 94.22 21.8293 94.5137L22.8507 95.301C23.0859 94.9761 23.3087 94.7449 23.5254 94.6074C23.7421 94.4699 23.9463 94.4012 24.1506 94.4012C24.3363 94.4012 24.4911 94.4637 24.6149 94.5824C24.7387 94.7011 24.8006 94.8698 24.8006 95.076C24.8006 95.2135 24.7696 95.3635 24.7139 95.5072C24.6582 95.6572 24.553 95.8259 24.4044 96.0258C24.2559 96.2196 24.0392 96.4695 23.7668 96.7694L21.9964 98.669V99.8813H26.2801V98.4816H24.0206L24.9863 97.4193V97.4068Z" fill="white"/>
<path d="M30.7432 93.4077C30.378 93.1202 29.9447 92.9765 29.4433 92.9765C28.9419 92.9765 28.5209 93.1202 28.1495 93.4077C27.7781 93.6951 27.4933 94.095 27.2953 94.6199C27.0972 95.1448 26.9919 95.7696 26.9919 96.5007C26.9919 97.2318 27.091 97.8567 27.2953 98.3753C27.4933 98.894 27.7781 99.2939 28.1495 99.5751C28.5209 99.8563 28.9542 99.9937 29.4433 99.9937C29.9323 99.9937 30.378 99.8563 30.7432 99.5751C31.1084 99.2939 31.3932 98.9002 31.5975 98.3753C31.7955 97.8567 31.9008 97.2318 31.9008 96.5007C31.9008 95.7696 31.8017 95.1448 31.5975 94.6199C31.3994 94.095 31.1146 93.6951 30.7432 93.4077ZM30.3408 97.5318C30.2728 97.8505 30.1737 98.1004 30.0313 98.2941C29.889 98.4878 29.6971 98.5753 29.4433 98.5753C29.1895 98.5753 28.9976 98.4816 28.8552 98.2941C28.7128 98.1066 28.6076 97.8505 28.5457 97.5318C28.4838 97.2131 28.4528 96.8694 28.4528 96.5007C28.4528 96.1571 28.4838 95.8259 28.5395 95.5072C28.6014 95.1885 28.7004 94.9261 28.849 94.7199C28.9976 94.5137 29.1957 94.4137 29.4433 94.4137C29.6909 94.4137 29.889 94.5137 30.0313 94.7199C30.1737 94.9261 30.2789 95.1885 30.3408 95.5072C30.4027 95.8259 30.4337 96.1571 30.4337 96.5007C30.4337 96.8694 30.4027 97.2131 30.3347 97.5318H30.3408Z" fill="white"/>
<path d="M33.6898 93.6076C33.5412 93.7513 33.3555 93.8638 33.145 93.945C32.9346 94.0263 32.6993 94.0638 32.4517 94.0638V95.4385C32.7674 95.4385 33.046 95.401 33.2812 95.326C33.4298 95.2822 33.5536 95.2198 33.6712 95.1573V99.8688H35.1073V93.1015H34.0055C33.9436 93.2952 33.8383 93.4639 33.6898 93.6076Z" fill="white"/>
<path d="M40.4619 95.2385H39.4652L38.9205 96.8694H37.7691L39.0505 93.1015H37.6267L36.1411 97.413V98.2816H39.0072V99.8688H40.4619V98.2816H41.3471V96.8694H40.4619V95.2385Z" fill="white"/>
<path d="M44.925 96.382H41.8423V97.7067H44.925V96.382Z" fill="white"/>
<path d="M48.3297 97.4068C48.6454 97.0694 48.893 96.7632 49.0725 96.4945C49.252 96.2196 49.382 95.9571 49.4563 95.7009C49.5306 95.4447 49.5677 95.176 49.5677 94.8948C49.5677 94.5449 49.4872 94.2262 49.3263 93.9325C49.1653 93.6389 48.9363 93.4139 48.633 93.2389C48.3296 93.064 47.9644 92.9827 47.5373 92.9827C47.1845 92.9827 46.8626 93.0515 46.5654 93.1827C46.2745 93.3139 46.0145 93.4951 45.7855 93.7263C45.5564 93.9575 45.3521 94.22 45.1726 94.5137L46.194 95.301C46.4292 94.9761 46.6583 94.7449 46.8688 94.6074C47.0792 94.4699 47.2897 94.4012 47.494 94.4012C47.6797 94.4012 47.8344 94.4637 47.9582 94.5824C48.082 94.7011 48.1439 94.8698 48.1439 95.076C48.1439 95.2135 48.113 95.3635 48.0573 95.5072C48.0016 95.6509 47.8963 95.8259 47.7478 96.0258C47.5992 96.2258 47.3825 96.4695 47.1102 96.7694L45.3398 98.669V99.8813H49.6234V98.4816H47.364L48.3297 97.4193V97.4068Z" fill="white"/>
<path d="M54.0866 93.4077C53.7213 93.1202 53.288 92.9765 52.7866 92.9765C52.2852 92.9765 51.8643 93.1202 51.4929 93.4077C51.1214 93.6951 50.8367 94.095 50.6386 94.6199C50.4405 95.1448 50.3353 95.7696 50.3353 96.5007C50.3353 97.2318 50.4343 97.8567 50.6386 98.3753C50.8429 98.894 51.1214 99.2939 51.4929 99.5751C51.8643 99.8563 52.2976 99.9937 52.7866 99.9937C53.2756 99.9937 53.7151 99.8563 54.0866 99.5751C54.458 99.2939 54.7365 98.9002 54.9408 98.3753C55.1451 97.8505 55.2441 97.2318 55.2441 96.5007C55.2441 95.7696 55.1451 95.1448 54.9408 94.6199C54.7365 94.095 54.458 93.6951 54.0866 93.4077ZM53.6842 97.5318C53.6161 97.8505 53.5171 98.1004 53.3747 98.2941C53.2323 98.4816 53.0404 98.5753 52.7866 98.5753C52.5328 98.5753 52.3409 98.4816 52.1924 98.2941C52.0438 98.1066 51.9447 97.8505 51.8828 97.5318C51.8209 97.2131 51.79 96.8694 51.79 96.5007C51.79 96.1571 51.8209 95.8259 51.8766 95.5072C51.9385 95.1885 52.0376 94.9261 52.1862 94.7199C52.3347 94.5137 52.5328 94.4137 52.7804 94.4137C53.028 94.4137 53.2261 94.5137 53.3685 94.7199C53.5109 94.9261 53.6161 95.1885 53.678 95.5072C53.7399 95.8259 53.7709 96.1571 53.7709 96.5007C53.7709 96.8694 53.7399 97.2131 53.6718 97.5318H53.6842Z" fill="white"/>
<path d="M58.8654 97.4068C59.1811 97.0694 59.4287 96.7632 59.6082 96.4945C59.7878 96.2196 59.9178 95.9571 59.992 95.7009C60.0663 95.4447 60.1035 95.176 60.1035 94.8948C60.1035 94.5449 60.023 94.2262 59.862 93.9325C59.7011 93.6389 59.4721 93.4139 59.1687 93.2389C58.8654 93.064 58.5002 92.9827 58.0731 92.9827C57.7202 92.9827 57.3983 93.0515 57.1012 93.1827C56.8103 93.3139 56.5503 93.4951 56.3212 93.7263C56.0922 93.9575 55.8879 94.22 55.7084 94.5137L56.7298 95.301C56.965 94.9761 57.1941 94.7449 57.4045 94.6074C57.615 94.4699 57.8255 94.4012 58.0297 94.4012C58.2154 94.4012 58.3702 94.4637 58.494 94.5824C58.6178 94.7011 58.6797 94.8698 58.6797 95.076C58.6797 95.2135 58.6488 95.3635 58.593 95.5072C58.5373 95.6509 58.4321 95.8259 58.2835 96.0258C58.135 96.2258 57.9183 96.4695 57.6459 96.7694L55.8755 98.669V99.8813H60.1592V98.4816H57.8997L58.8654 97.4193V97.4068Z" fill="white"/>
<path d="M65.3156 96.4695C65.1361 96.1383 64.8947 95.8821 64.5914 95.7072C64.2881 95.5259 63.96 95.4385 63.5947 95.4385C63.1986 95.4385 62.8705 95.5135 62.5981 95.6697C62.5424 95.7009 62.4991 95.7509 62.4434 95.7884V94.5199H65.198V93.1077H61.0629V97.0506L62.2143 97.3193C62.3505 97.1381 62.4991 97.0131 62.66 96.9381C62.821 96.8632 62.9943 96.8257 63.1738 96.8257C63.4524 96.8257 63.6752 96.9069 63.8424 97.0756C64.0157 97.2443 64.0962 97.4568 64.0962 97.713C64.0962 97.9942 64.0157 98.2129 63.8485 98.3816C63.6876 98.5503 63.4462 98.6378 63.1429 98.6378C62.9448 98.6378 62.7591 98.594 62.5796 98.5066C62.4 98.4191 62.2453 98.2816 62.1153 98.1067L60.902 98.869C61.131 99.2189 61.4467 99.5001 61.8429 99.7001C62.2391 99.9 62.691 100 63.1986 100C63.6567 100 64.0652 99.9125 64.4181 99.7251C64.7709 99.5438 65.0556 99.2751 65.2599 98.9315C65.4642 98.5815 65.5694 98.1629 65.5694 97.663C65.5694 97.2068 65.4766 96.8132 65.2971 96.482L65.3156 96.4695Z" fill="white"/>
</svg>
