<svg width="138" height="71" viewBox="0 0 138 71" fill="none" xmlns="http://www.w3.org/2000/svg">
<path d="M43.3659 66.6812C42.6659 67.4727 41.5069 67.9689 40.6117 68.3633C30.7161 72.7254 16.9237 69.2323 16.0881 53.7051C15.7594 47.5937 17.2017 43.8819 18.1074 38.29C19.6973 28.4734 13.1096 26.3213 8.12457 21.0995C3.5204 16.2767 0.480766 9.63816 0 2.05304C1.92008 4.77329 4.17111 6.9151 6.70166 8.6878C11.191 11.8332 16.4795 13.5882 20.0446 18.4876L21.7552 21.6639C24.095 11.0006 34.516 9.3466 40.3873 2.70904L42.4699 0C42.897 8.1944 40.2017 15.0637 35.5454 20.55C32.3626 24.3 26.343 28.6986 24.8806 33.8924C23.6746 38.177 24.6868 44.9743 25.9673 49.1682C28.8281 58.5382 35.1705 65.8299 43.3659 66.6812Z" fill="white"/>
<path d="M106.253 48.188C105.912 48.2777 106.015 48.1413 105.92 47.9506C105.519 47.1489 103.84 41.2962 103.751 40.387C103.655 39.4086 104.204 37.463 104.316 36.3258C104.525 34.1989 104.58 31.4525 104.027 29.4088C103.967 29.1845 103.585 27.9174 103.277 28.2043C102.912 28.5444 102.409 32.3991 102.374 33.1458C102.048 40.1842 105.318 51.6988 109.681 56.317C113.333 60.182 119.767 61.8855 124.035 58.7999C127.583 56.2347 128.699 50.7933 129.198 46.0266L138 46.9778C136.965 54.676 133.94 62.6957 128.315 66.5915C121.408 71.3741 111.814 69.1707 106.028 62.7639C99.3889 55.4124 95.229 39.3451 97.7215 28.622C100.002 18.8081 107.903 20.0183 109.067 29.8172C109.801 35.9968 108.216 42.5858 106.253 48.1889V48.188Z" fill="white"/>
<path d="M27.8665 37.1677L36.6605 37.7284C36.1954 45.2818 38.2399 52.4043 44.8253 53.7378C51.3682 55.0629 56.4054 51.4848 60.0294 44.8856C62.5294 40.3337 65.9283 30.4283 64.2974 25.0308C64.2497 24.8738 64.2542 24.5019 64.0075 24.6561C63.0542 25.2532 62.346 30.3339 62.2857 31.6515C62.1418 34.8175 62.7977 35.61 61.7214 38.7891C61.4762 39.5151 59.7059 43.8773 59.3839 44.0791C59.1357 44.2342 59.1432 43.8595 59.0955 43.7034C57.1911 37.4574 56.2064 18.5194 64.1551 18.4119C71.945 18.3063 69.8952 35.0203 68.2159 40.7645C63.9866 55.2274 53.444 66.2411 40.57 61.6865C31.829 58.5943 27.9195 47.8721 27.8665 37.1687V37.1677Z" fill="white"/>
<path d="M66.4672 47.4413C66.6059 47.3152 66.7415 47.5124 66.8317 47.6357C67.1679 48.0955 67.6144 49.3075 67.9833 49.928C70.5452 54.2368 74.1438 57.257 78.3828 58.3737C85.6725 60.295 93.5325 58.2831 98.73 51.3671L101.162 57.0617C97.4427 61.7874 92.3742 65.0524 87.0843 65.9056C78.4991 67.2896 69.9601 64.5216 64.1536 56.2226C63.8957 55.8544 63.0944 54.6872 62.9558 54.3471C62.8984 54.2051 62.8544 54.1238 62.9558 53.9845C63.9225 52.5538 64.8282 51.0615 65.6332 49.4804C65.8329 49.0888 66.3934 47.5096 66.4672 47.4423V47.4413Z" fill="white"/>
<path d="M82.6813 38.8918C88.9462 38.376 89.2861 50.6298 82.9325 50.6298C77.138 50.6298 76.6378 39.389 82.6813 38.8918Z" fill="white"/>
<path d="M116.351 43.1895C122.973 41.7887 124.041 53.692 118.066 54.676C111.957 55.6834 110.862 44.3501 116.351 43.1895Z" fill="white"/>
<path d="M46.7581 37.2173C53.245 36.0258 54.1186 47.9142 48.1936 48.7281C41.9728 49.5832 41.2989 38.22 46.7581 37.2173Z" fill="white"/>
</svg>
