<svg width="100" height="100" viewBox="0 0 100 100" fill="none" xmlns="http://www.w3.org/2000/svg">
<path d="M55.9193 89.9125L52.6976 99.4206C52.5275 99.9245 51.7487 100.04 51.2777 99.9888C50.8703 99.9428 50.0869 99.6364 50.0846 99.0246L50.0395 86.8032C50.3473 86.0824 50.9861 85.7071 51.795 85.7622C60.2728 85.3627 68.2958 81.9883 74.5263 76.2988L76.6174 74.219C80.6954 69.7737 83.6232 64.4917 85.0651 58.6358C85.1866 58.1434 85.4435 57.7899 85.9249 57.6303L87.5624 57.0874C88.0542 56.9244 88.4847 57.2286 88.7728 57.5155C89.0992 57.8415 89.2878 58.257 89.1663 58.8091C87.9095 64.533 85.3313 69.8242 81.7138 74.4463C81.5113 74.7045 81.3226 75.1969 81.4441 75.4965L83.9727 81.7117C84.233 82.3521 84.1092 82.9582 83.6834 83.3817C83.1534 83.9074 82.4891 83.8752 81.8295 83.6089L75.8443 81.1917C75.4254 81.023 74.9741 81.2009 74.6339 81.4626C69.4715 85.4442 63.4679 88.0715 57.0129 89.2169C56.6217 89.287 56.0663 89.4717 55.917 89.9113L55.9193 89.9125Z" fill="white"/>
<path d="M25.3409 81.4362C24.7866 81.0127 24.2566 81.124 23.7254 81.3398L17.8201 83.7352C17.2843 83.9533 16.7219 83.7581 16.362 83.4127C16.0322 83.0947 15.7313 82.5117 15.9465 81.9803L18.5295 75.6239C18.6753 75.2635 18.5827 74.809 18.3362 74.4957C14.3044 69.3686 11.6035 63.4059 10.4544 56.9853C10.3618 56.4676 10.0817 55.9351 9.58298 55.7698L0.80082 52.8728C0.233781 52.6857 0.00465122 52.051 2.23337e-05 51.4989C-0.00344933 51.0628 0.398107 50.21 1.00333 50.2077L12.8915 50.1652C13.6587 50.4866 14.0198 51.1787 13.9388 52.0223C14.3924 60.3264 17.7761 68.1519 23.4419 74.2626C24.1408 75.0167 24.7229 75.6882 25.5445 76.3332C29.9744 80.3975 35.3589 83.2772 41.2156 84.7406C41.9296 84.9185 42.3509 85.2893 42.5198 86.0124C42.6298 86.4841 42.926 86.9478 42.9144 87.4482C42.8936 88.2976 42.1715 89.0551 41.2342 88.8531C35.4272 87.6009 30.0693 85.0505 25.3409 81.4362Z" fill="white"/>
<path d="M63.425 69.271C65.8818 69.17 67.7276 67.3978 67.8306 64.9003L74.0379 65.8197C73.2279 70.6426 70.0571 73.8655 65.0544 74.3373L61.5434 74.3407C57.544 74.0079 54.1499 71.8558 52.4465 68.2323C50.6227 64.3528 50.5972 59.1534 52.3678 55.2269C54.3304 50.8757 58.3853 48.9153 63.1265 48.8901C65.0463 48.8797 66.8828 49.1793 68.6013 50.0229C71.1784 51.2154 73.2441 53.8978 73.7567 56.7959L67.6362 57.9701C67.3619 56.6731 66.8041 55.5104 65.7256 54.6978C63.8602 53.6097 61.5122 53.7302 59.7462 54.9583L58.8286 55.896C57.735 57.3767 57.3705 59.1477 57.2929 60.9543C57.2084 62.9192 57.4596 65.0438 58.4559 66.7161C59.5229 68.5089 61.2796 69.3594 63.425 69.271Z" fill="white"/>
<path d="M35.3555 65.6727L35.4087 70.5439L35.4469 72.4457C35.5939 72.9404 35.6297 73.4122 35.5649 73.9344L29.2164 73.9321L29.3263 72.9152L29.4421 71.7272L29.4397 51.577L29.331 50.2731L29.2199 49.356L40.9529 49.4215C42.4944 49.4295 43.9062 49.8197 45.2624 50.4338C46.4995 50.9939 47.438 51.8444 48.1324 53.0014C49.4111 55.1316 49.4921 58.3087 48.623 60.7041C47.5109 63.772 44.6931 65.3077 41.4471 65.6498L35.3532 65.6727H35.3555ZM42.9769 57.4673C43.191 55.7445 41.925 54.4774 40.2644 54.4625L35.3532 54.4177V60.6249L40.6347 60.6042C42.1842 60.3379 43.191 59.057 42.9769 57.4673Z" fill="white"/>
<path d="M65.5532 25.3608L35.0488 34.691C34.5142 34.854 34.1531 34.8127 33.8511 34.3673C33.6567 34.0815 33.6601 33.3906 34.1323 33.2425L39.8605 31.4531C39.0042 25.7143 43.1193 20.43 48.9632 19.809C53.1466 19.3648 57.4167 21.6351 59.2047 25.5318L65.3507 23.6781C65.7649 23.553 66.1677 24.0225 66.2278 24.3152C66.3239 24.7811 66.1352 25.1829 65.5532 25.3608Z" fill="white"/>
<path d="M51.0786 40.0155C46.8548 40.4758 42.8357 38.2892 40.8395 34.466L60.1513 28.5504C60.9 34.2411 56.8624 39.3865 51.0786 40.0155Z" fill="white"/>
<path d="M57.345 46.4924L43.4225 46.5015C43.9548 43.0881 46.9439 40.6169 50.3461 40.5963C53.7391 40.5756 56.7629 42.9481 57.345 46.4924Z" fill="white"/>
<path d="M95.7115 45.9185L99.2214 47.0926C99.8995 47.3188 100.1 48.1807 99.9562 48.7489C99.7873 49.4203 99.3348 50.0447 98.5201 50.0459L86.1471 50.0665C86.1471 41.2746 83.0099 32.9498 77.1833 26.3616L73.8285 23.0423C69.615 19.2879 64.0488 16.4529 58.5427 15.1433C58.0926 15.0366 57.6968 14.8185 57.5464 14.3835L57.0256 12.8661C56.8208 12.2693 57.0569 11.7976 57.4353 11.4303C57.8738 11.0056 58.3634 10.9815 58.9998 11.1261C64.816 12.4449 70.1832 15.009 74.8677 18.6544C75.4544 18.9597 76.1823 18.6348 76.7007 18.4271L82.4104 16.1465C82.8791 15.9594 83.4184 16.2877 83.7262 16.5964C84.034 16.9052 84.2747 17.4469 84.0791 17.9267L81.5159 24.2268C81.3886 24.539 81.3527 25.0245 81.5992 25.3367C85.6935 30.5269 88.4303 36.5619 89.584 43.0754C89.7171 43.8249 90.1962 44.1406 90.8767 44.361L95.7069 45.9196L95.7115 45.9185Z" fill="white"/>
<path d="M10.8328 41.0393C12.1856 35.3418 14.669 30.1183 18.2506 25.5421C18.504 25.2173 18.7007 24.7444 18.548 24.3691L15.9604 18.007C15.7429 17.471 15.994 16.8535 16.3655 16.4965C16.7589 16.1189 17.3908 16.0237 17.9497 16.2498L23.8666 18.6452C24.1744 18.7691 24.8745 18.8632 25.1893 18.6188C30.4361 14.5488 36.5358 11.8515 43.0973 10.7095C43.684 10.6073 44.052 10.255 44.2267 9.73044L47.1753 0.844408C47.3825 0.220021 48.0189 -0.0313405 48.6103 0.00309261C49.1137 0.0329346 49.9017 0.381857 49.9041 1.082L49.948 12.6354C49.9503 13.1198 49.8138 13.5112 49.5291 13.7913C49.1947 14.1184 48.7735 14.1275 48.321 14.1631L46.6962 14.2882C38.9429 14.8851 31.7183 18.1264 25.9229 23.2615L23.0276 26.1344C19.1162 30.512 16.3284 35.6884 14.9236 41.371C14.772 41.9851 14.5243 42.466 13.889 42.6726L12.4135 43.1512C11.9136 43.313 11.3501 42.9561 11.0804 42.6473C10.6499 42.1538 10.6719 41.7199 10.8328 41.0416V41.0393Z" fill="white"/>
</svg>
