<svg width="306" height="87" viewBox="0 0 306 87" fill="none" xmlns="http://www.w3.org/2000/svg">
<path d="M60.2704 61.9193L58.2812 61.9116L49.7567 50.6835L49.7181 61.9269H47.5938V47.127L49.8263 47.1422L58.119 58.03L58.1421 47.1308H60.2704V61.9193Z" fill="#0069A7"/>
<path d="M119.431 61.915L117.45 61.9227L108.899 50.6334L108.887 61.9303L106.763 61.9265V47.1304L108.976 47.1342L117.261 57.9799L117.307 47.1304H119.431V61.915Z" fill="#0069A7"/>
<path d="M185.541 61.9001L183.564 61.9154L175.031 50.6873L174.993 61.9268H172.876V47.1307L175.086 47.123L183.401 58.0375L183.421 47.1307H185.541V61.9001Z" fill="#0069A7"/>
<path d="M14.3684 59.7929C16.3653 60.1677 18.4201 59.4717 19.7797 57.9458L21.2436 59.4182C18.9724 61.7816 15.5001 62.5579 12.4371 61.4068C9.24675 60.206 7.3271 57.0892 7.62451 53.7238C7.93737 50.1672 10.6913 47.3946 14.2757 46.9548C16.8944 46.6336 19.5016 47.4979 21.2938 49.3947L19.8067 50.9168C18.4394 49.4062 16.4387 48.6834 14.3993 48.9894C12.5801 52.3509 12.5298 56.3167 14.3722 59.7968L14.3684 59.7929ZM12.105 58.8063C11.1007 55.7851 11.1394 52.9513 12.1088 49.9684C10.4712 51.0353 9.80294 52.9169 9.85702 54.7411C9.99607 56.3396 10.672 57.9382 12.105 58.8101V58.8063Z" fill="#0069A7"/>
<path d="M163.194 55.4142L157.427 55.418V59.9651L166.295 59.9612L166.299 61.9269H155.171V47.127H166.214L166.21 49.0812L157.427 49.0773V53.502H163.201L163.194 55.4142Z" fill="#0069A7"/>
<path d="M37.6202 57.5936L30.942 57.586L29.1769 61.9303L26.8362 61.915L33.0278 47.1418L35.6852 47.1304L41.7994 61.915L39.3468 61.9265L37.6241 57.5936H37.6202ZM36.8709 55.7274L34.2831 49.3332L31.6836 55.7503L36.8748 55.7274H36.8709Z" fill="#0069A7"/>
<path d="M97.4852 47.1422L99.7486 47.127L99.7254 56.0414C99.7254 56.9707 99.5052 57.8311 99.1499 58.6725C97.9023 61.6286 94.6424 62.6344 91.5679 61.9575C88.6401 61.315 86.9831 58.6992 87.0102 55.7354V47.127H89.2697V55.7354C89.2929 58.248 90.8572 60.1295 93.4141 60.0989C95.9711 60.0683 97.4465 58.2174 97.4852 55.7278V47.1384V47.1422Z" fill="#0069A7"/>
<path d="M71.3556 58.9167C73.816 60.7906 77.2883 60.37 79.3161 58.1137L80.8109 59.5975C78.5436 61.9532 75.106 62.764 72.0238 61.6817C68.9415 60.5994 66.7786 57.475 66.9601 54.0905C67.1648 50.2968 70.1119 47.3024 73.9357 46.9315C76.5004 46.6829 79.0573 47.5319 80.8495 49.4325L79.3432 50.9775C77.5085 48.9507 74.5421 48.335 72.1165 49.6046C70.3668 50.5225 69.3394 52.316 69.2621 54.2702C69.1926 56.0677 69.8801 57.7809 71.3594 58.9091L71.3556 58.9167Z" fill="#0069A7"/>
<path d="M138.732 58.4387C141.092 60.8213 144.993 60.5727 147.21 58.129L148.724 59.5898C146.503 61.8921 143.186 62.7257 140.146 61.7544C136.766 60.6721 134.638 57.498 134.87 53.9987C135.129 50.0865 138.292 47.0844 142.255 46.9009C144.688 46.7861 147.06 47.6351 148.748 49.4364L147.237 50.9852C145.063 48.5032 140.999 48.2241 138.748 50.5531C136.666 52.7061 136.565 56.2551 138.728 58.4387H138.732Z" fill="#0069A7"/>
<path d="M199.226 61.9193L196.97 61.9269V49.1041L191.702 49.1003V47.127H204.487L204.49 49.0965L199.226 49.1041V61.9193Z" fill="#0069A7"/>
<path d="M240.389 61.9038L237.901 61.9306L234.811 55.8729L230.605 55.8615V61.9268H228.346V47.1191L235.657 47.1497C237.249 47.1574 238.631 47.9261 239.512 49.1919C240.277 50.4769 240.366 52.0639 239.697 53.4063C239.172 54.4618 238.241 55.1501 237.071 55.567L240.393 61.9038H240.389ZM237.299 53.0888C238.071 52.1481 238.033 50.8363 237.268 49.9453C236.712 49.3908 235.997 49.1307 235.198 49.081H230.605V54.0143L235.198 54.0067C236.005 53.957 236.735 53.7046 237.307 53.0927L237.299 53.0888Z" fill="#0069A7"/>
<path d="M218.661 55.4142L212.895 55.4218L212.891 59.9651L221.755 59.9612L221.763 61.9269H210.635V47.127H221.666L221.674 49.0812L212.895 49.0773V53.4982L218.665 53.502L218.661 55.4142Z" fill="#0069A7"/>
<path d="M130.691 36.2695L128.651 36.2657L123.058 29.0607L123.016 36.2695H120.849V25.332L123.039 25.3397L128.516 32.3496L128.535 25.332H130.691V36.2695Z" fill="#0069A7"/>
<path d="M149.238 34.4606C148.103 35.6614 146.561 36.2618 144.943 36.2657H140.582V25.332H144.939C147.593 25.3397 150.03 27.0874 150.559 29.642C150.934 31.4547 150.49 33.145 149.242 34.4644L149.238 34.4606ZM148.265 30.3227C148.018 28.6133 146.635 27.3627 144.939 27.3665H142.877V34.2426L145.028 34.235C147.071 34.1164 148.558 32.3725 148.265 30.3227Z" fill="#0069A7"/>
<path d="M166.565 33.4165L162.022 33.3897L160.86 36.2694H158.461L163.011 25.3281H165.684L170.165 36.2503L167.669 36.2656L166.569 33.4088L166.565 33.4165ZM165.835 31.5464L164.301 27.6456L162.71 31.5655L165.835 31.5426V31.5464Z" fill="#0069A7"/>
<path d="M108.833 25.3396L111.135 25.3281L111.088 32.0818C111.077 33.6957 110.173 35.1565 108.725 35.864C107.152 36.6365 105.26 36.6365 103.688 35.8525C102.282 35.1527 101.378 33.7224 101.367 32.1545L101.312 25.3319H103.611L103.653 31.8944C103.661 33.3247 104.808 34.3152 106.202 34.3305C107.597 34.3458 108.775 33.3974 108.786 31.9633L108.837 25.3396H108.833Z" fill="#0069A7"/>
<path d="M181.32 33.2676C182.938 34.8814 185.491 34.564 186.874 32.9272L188.392 34.4225C186.179 36.8547 182.297 37.1492 179.786 34.935C177.276 32.7207 177.353 28.5331 180.08 26.4259C182.641 24.4488 186.326 24.8427 188.461 27.1946L186.889 28.732C185.611 27.1755 183.371 26.7204 181.706 27.9518C180.041 29.1832 179.794 31.7493 181.32 33.2676Z" fill="#0069A7"/>
<path d="M89.9528 29.8791L89.9567 31.7874L85.7968 31.7912V36.2695H83.5025L83.4987 25.332H92.054L92.0579 27.313H85.8007V29.8791H89.9528Z" fill="#0069A7"/>
<path d="M217.604 21.9209H212.876V24.1925H217.604V21.9209Z" fill="#0069A7"/>
<path d="M240.389 36.2583L238.361 36.2698L232.768 29.0649L232.722 36.2698L230.555 36.2622V25.3324L232.726 25.3247L238.187 32.2887L238.237 25.3324H240.389V36.2583Z" fill="#0069A7"/>
<path d="M221.033 30.8049C221.033 33.9714 218.438 36.5375 215.24 36.5375C212.042 36.5375 209.446 33.9714 209.446 30.8049C209.446 27.6384 212.042 25.0723 215.24 25.0723C218.438 25.0723 221.033 27.6384 221.033 30.8049ZM218.797 30.801C218.797 28.8583 217.206 27.2827 215.24 27.2827C213.274 27.2827 211.682 28.8583 211.682 30.801C211.682 32.7438 213.274 34.3194 215.24 34.3194C217.206 34.3194 218.797 32.7438 218.797 30.801Z" fill="#0069A7"/>
<path d="M199.941 25.332H197.615V36.2695H199.941V25.332Z" fill="#0069A7"/>
<path d="M298.264 53.689C298.264 60.565 292.312 66.3435 285.421 66.3435H261.903C254.962 66.3397 249.075 60.4924 249.075 53.6278V30.4526C249.075 23.5919 254.962 17.7407 261.903 17.7407H285.421C292.323 17.7407 298.264 23.5192 298.264 30.3647V53.6928V53.689ZM284.992 62.3357C290.226 62.3357 294.235 58.1481 294.235 53.0618V31.0186C294.235 25.875 290.172 21.7333 284.938 21.7333H262.381C257.229 21.7333 253.127 25.8329 253.127 30.9192V53.1612C253.127 58.2437 257.229 62.3433 262.381 62.3433H284.996L284.992 62.3357Z" fill="#0069A7"/>
<path d="M277.661 41.9411L273.687 45.8534L270.199 42.4039L277.198 35.4819L290.207 48.3468L287.155 51.3336L277.661 41.9411Z" fill="#0069A7"/>
<path d="M269.16 50.3508L262.262 57.1466L258.766 53.6932L268.596 43.9834L278.403 53.6703L275.467 56.5691L269.16 50.3508Z" fill="#0069A7"/>
<path d="M262.358 37.2217C265.231 37.2217 267.56 34.9171 267.56 32.0742C267.56 29.2314 265.231 26.9268 262.358 26.9268C259.484 26.9268 257.155 29.2314 257.155 32.0742C257.155 34.9171 259.484 37.2217 262.358 37.2217Z" fill="#F2C300"/>
</svg>
