<svg width="85" height="84" viewBox="0 0 85 84" fill="none" xmlns="http://www.w3.org/2000/svg">
<path d="M68.1882 21.4387C72.9432 27.2354 75.559 34.5325 75.559 41.997C75.559 49.4614 73.1063 56.3865 68.4705 62.2019L68.0376 62.7412L74.731 69.3564L75.283 68.6992C81.5498 61.1975 85 51.7181 85 41.997C85 32.2758 81.4369 22.505 74.9694 14.9414L74.4173 14.2966L67.7428 20.8993L68.1882 21.4449V21.4387Z" fill="white"/>
<path d="M10.1749 69.251L16.8683 62.6358L16.4417 62.0965C11.8624 56.3059 9.44096 49.356 9.44096 42.0032C9.44096 34.6503 11.9439 27.4586 16.6801 21.6061L17.1192 21.0605L10.4321 14.4516L9.88007 15.1026C3.51292 22.6476 0 32.1952 0 42.0032C0 51.8111 3.41882 61.1045 9.62288 68.5876L10.1749 69.251Z" fill="white"/>
<path d="M22.0749 16.3239C27.9528 11.7485 35.0163 9.33058 42.5 9.33058C49.9838 9.33058 56.9092 11.7051 62.7557 16.1937L63.3015 16.6153L69.9949 10.0002L69.3236 9.45458C61.7646 3.36025 52.2358 0 42.5 0C32.7642 0 23.0849 3.40365 15.5008 9.59097L14.8358 10.1365L21.5292 16.7517L22.0749 16.3239Z" fill="white"/>
<path d="M69.6938 74.2478L70.3524 73.7023L63.6654 67.0933L63.1133 67.5273C58.4211 71.2348 52.9572 73.5535 47.117 74.3532V44.5635H55.8993C57.0096 44.5635 57.913 43.6708 57.913 42.5734V39.0582C57.913 37.9608 57.0096 37.0681 55.8993 37.0681H48.4469C51.0126 35.2392 52.6875 32.2695 52.6875 28.9092C52.6875 23.3543 48.1144 18.8409 42.5 18.8409C36.8857 18.8409 32.3126 23.3605 32.3126 28.9092C32.3126 32.2633 33.9875 35.2392 36.5532 37.0681H29.1008C27.9904 37.0681 27.0871 37.9608 27.0871 39.0582V42.5734C27.0871 43.6708 27.9904 44.5635 29.1008 44.5635H37.8831V74.3532C31.9927 73.5473 26.4912 71.2038 21.7738 67.4405L21.2218 67.0004L14.541 73.6031L15.1997 74.1486C22.8465 80.4972 32.5384 84 42.5063 84C52.4742 84 62.0783 80.5344 69.7 74.2478H69.6938ZM38.8868 28.9092C38.8868 26.9439 40.5052 25.3382 42.5 25.3382C44.4949 25.3382 46.1133 26.9377 46.1133 28.9092C46.1133 30.8808 44.4949 32.4803 42.5 32.4803C40.5052 32.4803 38.8868 30.8808 38.8868 28.9092Z" fill="white"/>
</svg>
