<svg width="159" height="42" viewBox="0 0 159 42" fill="none" xmlns="http://www.w3.org/2000/svg">
<path d="M46.8158 15.29V1.82604H50.0498V15.29H46.8158ZM42.3718 3.41004V0.308038H54.5818V3.41004H42.3718ZM54.7315 7.81004C54.7315 6.68071 54.9148 5.64671 55.2815 4.70804C55.6628 3.75471 56.1981 2.93337 56.8875 2.24404C57.5768 1.54004 58.3908 0.997372 59.3295 0.616038C60.2681 0.234705 61.3095 0.0440387 62.4535 0.0440387C63.5681 0.0440387 64.5948 0.234705 65.5335 0.616038C66.4868 0.997372 67.3081 1.54004 67.9975 2.24404C68.6868 2.93337 69.2148 3.75471 69.5815 4.70804C69.9628 5.64671 70.1535 6.68071 70.1535 7.81004C70.1535 8.93937 69.9628 9.98071 69.5815 10.934C69.2148 11.8727 68.6868 12.694 67.9975 13.398C67.3081 14.0874 66.4868 14.6227 65.5335 15.004C64.5948 15.3707 63.5681 15.554 62.4535 15.554C61.3095 15.554 60.2681 15.3707 59.3295 15.004C58.3908 14.6227 57.5768 14.0874 56.8875 13.398C56.1981 12.694 55.6628 11.8727 55.2815 10.934C54.9148 9.98071 54.7315 8.93937 54.7315 7.81004ZM58.0095 7.81004C58.0095 8.73404 58.2001 9.54071 58.5815 10.23C58.9628 10.9194 59.4835 11.4547 60.1435 11.836C60.8181 12.2174 61.5881 12.408 62.4535 12.408C63.3041 12.408 64.0595 12.2174 64.7195 11.836C65.3941 11.4547 65.9221 10.9194 66.3035 10.23C66.6848 9.54071 66.8755 8.72671 66.8755 7.78804C66.8755 6.86404 66.6848 6.05737 66.3035 5.36804C65.9221 4.67871 65.3941 4.15071 64.7195 3.78404C64.0595 3.40271 63.3041 3.21204 62.4535 3.21204C61.5881 3.21204 60.8181 3.40271 60.1435 3.78404C59.4835 4.16537 58.9628 4.70071 58.5815 5.39004C58.2001 6.06471 58.0095 6.87137 58.0095 7.81004ZM77.8382 15.554C76.5182 15.554 75.4035 15.312 74.4942 14.828C73.5995 14.344 72.9175 13.6254 72.4482 12.672C71.9788 11.704 71.7442 10.5014 71.7442 9.06404V0.308038H74.9562V9.13004C74.9562 10.1714 75.1982 10.9854 75.6822 11.572C76.1808 12.144 76.8995 12.43 77.8382 12.43C78.7768 12.43 79.4882 12.144 79.9722 11.572C80.4562 10.9854 80.6982 10.1714 80.6982 9.13004V0.308038H83.9322V9.06404C83.9322 10.5014 83.6975 11.704 83.2282 12.672C82.7588 13.6254 82.0695 14.344 81.1602 14.828C80.2655 15.312 79.1582 15.554 77.8382 15.554ZM86.5055 15.29V0.308038H92.0275C93.0982 0.308038 94.0515 0.520705 94.8875 0.946039C95.7382 1.37137 96.4055 1.9727 96.8895 2.75004C97.3882 3.52737 97.6375 4.45137 97.6375 5.52204C97.6375 6.60737 97.3882 7.53871 96.8895 8.31604C96.4055 9.09337 95.7382 9.69471 94.8875 10.12C94.0515 10.5307 93.0982 10.736 92.0275 10.736H89.0135V7.63404H91.7855C92.5922 7.63404 93.2155 7.45804 93.6555 7.10604C94.1102 6.73937 94.3375 6.21137 94.3375 5.52204C94.3375 4.83271 94.1102 4.31204 93.6555 3.96004C93.2155 3.59337 92.5922 3.41004 91.7855 3.41004H88.9915L89.7175 2.68404V15.29H86.5055ZM94.2715 15.29L91.0815 9.19604H94.6015L97.7915 15.29H94.2715ZM104.459 15.664C103.593 15.664 102.779 15.5394 102.017 15.29C101.269 15.026 100.594 14.6374 99.9927 14.124C99.406 13.596 98.9074 12.9214 98.4967 12.1L101.005 10.538C101.43 11.242 101.951 11.7774 102.567 12.144C103.183 12.5107 103.872 12.694 104.635 12.694C105.295 12.694 105.793 12.5547 106.131 12.276C106.468 11.9974 106.637 11.6307 106.637 11.176C106.637 10.8827 106.556 10.6334 106.395 10.428C106.248 10.208 105.977 10.0027 105.581 9.81204C105.185 9.62137 104.613 9.43804 103.865 9.26204C102.647 8.96871 101.679 8.60204 100.961 8.16204C100.257 7.72204 99.758 7.20137 99.4647 6.60004C99.1714 5.98404 99.0247 5.30204 99.0247 4.55404C99.0247 3.67404 99.2374 2.8967 99.6627 2.22204C100.103 1.5327 100.726 0.990038 101.533 0.594038C102.339 0.198038 103.3 3.79086e-05 104.415 3.79086e-05C105.676 3.79086e-05 106.739 0.249372 107.605 0.748039C108.485 1.24671 109.189 1.89937 109.717 2.70604L107.209 4.44404C106.827 3.94537 106.365 3.58604 105.823 3.36604C105.295 3.14604 104.767 3.03604 104.239 3.03604C103.608 3.03604 103.117 3.1607 102.765 3.41004C102.427 3.6447 102.259 3.98204 102.259 4.42204C102.259 4.83271 102.435 5.17737 102.787 5.45604C103.139 5.72004 103.828 5.96937 104.855 6.20404C106.087 6.49737 107.077 6.85671 107.825 7.28204C108.573 7.70737 109.115 8.22804 109.453 8.84404C109.79 9.46004 109.959 10.2007 109.959 11.066C109.959 11.946 109.731 12.7307 109.277 13.42C108.837 14.1094 108.206 14.6594 107.385 15.07C106.563 15.466 105.588 15.664 104.459 15.664ZM7.61203 41.554C6.05736 41.554 4.70803 41.224 3.56403 40.564C2.43469 39.904 1.55469 38.9947 0.924025 37.836C0.308025 36.6627 2.49371e-05 35.3207 2.49371e-05 33.81C2.49371e-05 32.6807 0.183358 31.6467 0.550025 30.708C0.931358 29.7547 1.45936 28.9334 2.13403 28.244C2.80869 27.54 3.60803 27.0047 4.53203 26.638C5.47069 26.2567 6.49736 26.066 7.61203 26.066C9.37203 26.066 10.8167 26.4474 11.946 27.21C13.0754 27.9727 13.9407 29.058 14.542 30.466L11.616 31.588C11.132 30.752 10.56 30.1434 9.90003 29.762C9.25469 29.366 8.49203 29.168 7.61203 29.168C6.77603 29.168 6.02803 29.366 5.36803 29.762C4.72269 30.1434 4.20936 30.6787 3.82803 31.368C3.46136 32.0574 3.27802 32.8714 3.27802 33.81C3.27802 34.734 3.46136 35.548 3.82803 36.252C4.20936 36.9414 4.72269 37.4767 5.36803 37.858C6.02803 38.2394 6.77603 38.43 7.61203 38.43C8.49203 38.43 9.25469 38.2394 9.90003 37.858C10.56 37.4767 11.132 36.868 11.616 36.032L14.542 37.154C13.9407 38.562 13.0754 39.6474 11.946 40.41C10.8167 41.1727 9.37203 41.554 7.61203 41.554ZM15.3184 33.81C15.3184 32.6807 15.5017 31.6467 15.8684 30.708C16.2497 29.7547 16.7851 28.9334 17.4744 28.244C18.1637 27.54 18.9777 26.9974 19.9164 26.616C20.8551 26.2347 21.8964 26.044 23.0404 26.044C24.1551 26.044 25.1817 26.2347 26.1204 26.616C27.0737 26.9974 27.8951 27.54 28.5844 28.244C29.2737 28.9334 29.8017 29.7547 30.1684 30.708C30.5497 31.6467 30.7404 32.6807 30.7404 33.81C30.7404 34.9394 30.5497 35.9807 30.1684 36.934C29.8017 37.8727 29.2737 38.694 28.5844 39.398C27.8951 40.0874 27.0737 40.6227 26.1204 41.004C25.1817 41.3707 24.1551 41.554 23.0404 41.554C21.8964 41.554 20.8551 41.3707 19.9164 41.004C18.9777 40.6227 18.1637 40.0874 17.4744 39.398C16.7851 38.694 16.2497 37.8727 15.8684 36.934C15.5017 35.9807 15.3184 34.9394 15.3184 33.81ZM18.5964 33.81C18.5964 34.734 18.7871 35.5407 19.1684 36.23C19.5497 36.9194 20.0704 37.4547 20.7304 37.836C21.4051 38.2174 22.1751 38.408 23.0404 38.408C23.8911 38.408 24.6464 38.2174 25.3064 37.836C25.9811 37.4547 26.5091 36.9194 26.8904 36.23C27.2717 35.5407 27.4624 34.7267 27.4624 33.788C27.4624 32.864 27.2717 32.0574 26.8904 31.368C26.5091 30.6787 25.9811 30.1507 25.3064 29.784C24.6464 29.4027 23.8911 29.212 23.0404 29.212C22.1751 29.212 21.4051 29.4027 20.7304 29.784C20.0704 30.1654 19.5497 30.7007 19.1684 31.39C18.7871 32.0647 18.5964 32.8714 18.5964 33.81ZM31.4531 41.29L34.0931 26.308H36.9752L40.5612 36.56H40.4072L43.9932 26.308H46.8752L49.5372 41.29H46.3032L45.2692 34.602C45.1372 33.7074 45.0125 32.82 44.8952 31.94C44.7925 31.0454 44.7045 30.1507 44.6312 29.256H45.5332C45.2985 30.224 45.0638 31.1334 44.8292 31.984C44.6092 32.8347 44.3452 33.6927 44.0372 34.558L41.7492 41.114H39.2192L36.9312 34.558C36.6232 33.678 36.3518 32.82 36.1172 31.984C35.8972 31.1334 35.6698 30.224 35.4352 29.256H36.3372C36.2638 30.1507 36.1758 31.0454 36.0732 31.94C35.9705 32.82 35.8458 33.7074 35.6992 34.602L34.6652 41.29H31.4531ZM57.3313 41.554C56.0113 41.554 54.8967 41.312 53.9873 40.828C53.0927 40.344 52.4107 39.6254 51.9413 38.672C51.472 37.704 51.2373 36.5014 51.2373 35.064V26.308H54.4493V35.13C54.4493 36.1714 54.6913 36.9854 55.1753 37.572C55.674 38.144 56.3927 38.43 57.3313 38.43C58.27 38.43 58.9813 38.144 59.4653 37.572C59.9493 36.9854 60.1913 36.1714 60.1913 35.13V26.308H63.4253V35.064C63.4253 36.5014 63.1907 37.704 62.7213 38.672C62.252 39.6254 61.5627 40.344 60.6533 40.828C59.7587 41.312 58.6513 41.554 57.3313 41.554ZM76.0307 41.29L67.8247 30.18L69.2107 29.806V41.29H65.9986V26.308H68.9246L76.9547 37.22L75.7227 37.44V26.308H78.9346V41.29H76.0307ZM84.7868 41.29H81.5748V26.308H84.7868V41.29ZM90.7406 41.29V27.826H93.9746V41.29H90.7406ZM86.2966 29.41V26.308H98.5066V29.41H86.2966ZM100.253 35.526H107.293V38.496H100.253V35.526ZM96.9753 41.29L102.299 26.308H105.841L110.901 41.29H107.645L103.553 28.508H104.609L100.209 41.29H96.9753ZM112.255 41.29V26.308H117.777C118.847 26.308 119.801 26.5207 120.637 26.946C121.487 27.3714 122.155 27.9727 122.639 28.75C123.137 29.5274 123.387 30.4514 123.387 31.522C123.387 32.6074 123.137 33.5387 122.639 34.316C122.155 35.0934 121.487 35.6947 120.637 36.12C119.801 36.5307 118.847 36.736 117.777 36.736H114.763V33.634H117.535C118.341 33.634 118.965 33.458 119.405 33.106C119.859 32.7394 120.087 32.2114 120.087 31.522C120.087 30.8327 119.859 30.312 119.405 29.96C118.965 29.5934 118.341 29.41 117.535 29.41H114.741L115.467 28.684V41.29H112.255ZM120.021 41.29L116.831 35.196H120.351L123.541 41.29H120.021ZM128.658 41.29H125.446V26.308H128.658V41.29ZM130.432 33.81C130.432 32.6807 130.615 31.6467 130.982 30.708C131.363 29.7547 131.898 28.9334 132.588 28.244C133.277 27.54 134.091 26.9974 135.03 26.616C135.968 26.2347 137.01 26.044 138.154 26.044C139.268 26.044 140.295 26.2347 141.234 26.616C142.187 26.9974 143.008 27.54 143.698 28.244C144.387 28.9334 144.915 29.7547 145.282 30.708C145.663 31.6467 145.854 32.6807 145.854 33.81C145.854 34.9394 145.663 35.9807 145.282 36.934C144.915 37.8727 144.387 38.694 143.698 39.398C143.008 40.0874 142.187 40.6227 141.234 41.004C140.295 41.3707 139.268 41.554 138.154 41.554C137.01 41.554 135.968 41.3707 135.03 41.004C134.091 40.6227 133.277 40.0874 132.588 39.398C131.898 38.694 131.363 37.8727 130.982 36.934C130.615 35.9807 130.432 34.9394 130.432 33.81ZM133.71 33.81C133.71 34.734 133.9 35.5407 134.282 36.23C134.663 36.9194 135.184 37.4547 135.844 37.836C136.518 38.2174 137.288 38.408 138.154 38.408C139.004 38.408 139.76 38.2174 140.42 37.836C141.094 37.4547 141.622 36.9194 142.004 36.23C142.385 35.5407 142.576 34.7267 142.576 33.788C142.576 32.864 142.385 32.0574 142.004 31.368C141.622 30.6787 141.094 30.1507 140.42 29.784C139.76 29.4027 139.004 29.212 138.154 29.212C137.288 29.212 136.518 29.4027 135.844 29.784C135.184 30.1654 134.663 30.7007 134.282 31.39C133.9 32.0647 133.71 32.8714 133.71 33.81ZM152.809 41.664C151.944 41.664 151.13 41.5394 150.367 41.29C149.619 41.026 148.945 40.6374 148.343 40.124C147.757 39.596 147.258 38.9214 146.847 38.1L149.355 36.538C149.781 37.242 150.301 37.7774 150.917 38.144C151.533 38.5107 152.223 38.694 152.985 38.694C153.645 38.694 154.144 38.5547 154.481 38.276C154.819 37.9974 154.987 37.6307 154.987 37.176C154.987 36.8827 154.907 36.6334 154.745 36.428C154.599 36.208 154.327 36.0027 153.931 35.812C153.535 35.6214 152.963 35.438 152.215 35.262C150.998 34.9687 150.03 34.602 149.311 34.162C148.607 33.722 148.109 33.2014 147.815 32.6C147.522 31.984 147.375 31.302 147.375 30.554C147.375 29.674 147.588 28.8967 148.013 28.222C148.453 27.5327 149.077 26.99 149.883 26.594C150.69 26.198 151.651 26 152.765 26C154.027 26 155.09 26.2494 155.955 26.748C156.835 27.2467 157.539 27.8994 158.067 28.706L155.559 30.444C155.178 29.9454 154.716 29.586 154.173 29.366C153.645 29.146 153.117 29.036 152.589 29.036C151.959 29.036 151.467 29.1607 151.115 29.41C150.778 29.6447 150.609 29.982 150.609 30.422C150.609 30.8327 150.785 31.1774 151.137 31.456C151.489 31.72 152.179 31.9694 153.205 32.204C154.437 32.4974 155.427 32.8567 156.175 33.282C156.923 33.7074 157.466 34.228 157.803 34.844C158.141 35.46 158.309 36.2007 158.309 37.066C158.309 37.946 158.082 38.7307 157.627 39.42C157.187 40.1094 156.557 40.6594 155.735 41.07C154.914 41.466 153.939 41.664 152.809 41.664Z" fill="white"/>
</svg>
