<svg width="137" height="50" viewBox="0 0 137 50" fill="none" xmlns="http://www.w3.org/2000/svg">
<g clip-path="url(#clip0_81_3553)">
<path d="M112.389 39.5331C112.195 39.1044 111.842 38.8335 111.418 38.7428L109.859 38.7469L109.877 41.2082L109.919 41.9101L109.98 42.4782L107.369 42.4679C107.433 42.1936 107.475 42.0099 107.44 41.7861L107.503 41.2605L107.486 33.6749L107.426 32.7946C107.421 32.72 107.35 32.6293 107.41 32.5466C107.486 32.4405 107.577 32.5352 107.688 32.5363L112.776 32.5707C113.247 32.5742 113.71 32.7567 114.1 32.9661C114.953 33.4235 115.343 34.3044 115.34 35.2468C115.336 36.5529 114.848 37.4551 113.533 37.7977C113.929 37.9446 114.249 38.1948 114.479 38.5632L115.29 40.3342L116.233 42.4593L113.424 42.4782C113.174 41.4636 112.83 40.5041 112.389 39.5336L112.389 39.5331ZM112.539 36.3916C112.952 35.9354 112.965 35.2823 112.586 34.8255C112.403 34.6505 112.169 34.6149 111.918 34.5633L109.863 34.5558V36.6815L111.804 36.6734C112.07 36.616 112.323 36.5879 112.539 36.3916Z" fill="#1C3665"/>
<path d="M72.055 39.5309C71.8691 39.1263 71.5067 38.7647 71.0861 38.7601L69.5275 38.7435L69.5453 41.2089L69.5873 41.9096L69.6489 42.4777L67.0374 42.4674C67.1018 42.1931 67.1432 42.0095 67.1081 41.7856L67.1714 41.26L67.1547 33.6744L67.0949 32.7941C67.0897 32.7195 67.0189 32.6288 67.0782 32.5462C67.1547 32.44 67.2456 32.5347 67.3567 32.5358L72.4445 32.5703C72.9157 32.5737 73.3783 32.7562 73.7689 32.9657C74.6216 33.423 75.0111 34.304 75.0082 35.2463C75.0048 36.5524 74.5169 37.4546 73.2017 37.7972C73.5975 37.9441 73.9174 38.1943 74.1475 38.5627L74.9588 40.3337L75.9012 42.4588L73.0935 42.4777C72.8392 41.4614 72.502 40.5059 72.055 39.5309ZM72.2069 36.3917C72.62 35.9355 72.6332 35.2824 72.254 34.8256C72.0711 34.6506 71.8369 34.615 71.5861 34.5633L69.5309 34.5559V36.6815L71.4716 36.6735C71.7374 36.6161 71.9911 36.588 72.2069 36.3917Z" fill="#1C3665"/>
<path d="M118.947 41.6811L118.287 41.0188C117.046 39.5267 116.886 36.8788 117.642 35.078C118.32 33.4648 119.627 32.5914 121.368 32.3635L122.637 32.3618C124.396 32.5277 125.877 33.5985 126.468 35.2754C127.012 36.8163 126.968 38.5052 126.323 40.0042C125.662 41.5388 124.24 42.5178 122.581 42.6573C121.358 42.826 119.879 42.4748 118.946 41.6822L118.947 41.6811ZM124.318 37.5405C124.324 36.6665 124.192 35.8022 123.629 35.1216C122.83 34.1552 121.227 34.1598 120.415 35.0912C119.844 35.7466 119.696 36.5747 119.69 37.4263C119.684 38.3021 119.821 39.1681 120.372 39.8424C120.838 40.4122 121.452 40.6412 122.184 40.5941C123.764 40.4931 124.308 39.0556 124.318 37.54V37.5405Z" fill="#1C3665"/>
<path d="M105.263 38.4461C104.905 38.484 104.576 38.4622 104.23 38.3968L100.888 38.4025V40.3537L105.59 40.3526C105.693 40.3032 105.783 40.2826 105.894 40.3032V42.5195C105.685 42.5999 105.51 42.4811 105.31 42.4811L98.4221 42.4748C98.3847 42.3319 98.4705 42.2154 98.4705 42.0633V33.0178C98.4705 32.8273 98.3427 32.6878 98.4371 32.4881C98.5004 32.4657 98.6252 32.5449 98.7202 32.5449L104.914 32.5415C105.212 32.5415 105.474 32.425 105.783 32.5053L105.769 34.7102L105.38 34.6677C105.14 34.6419 104.913 34.6918 104.68 34.6126L100.889 34.6143V36.3365L104.68 36.3377C104.876 36.2786 105.055 36.2568 105.262 36.2866L105.264 38.4467L105.263 38.4461Z" fill="#1C3665"/>
<path d="M135.772 41.1651C134.819 42.8615 131.776 42.9929 129.99 42.3112C129.393 42.0908 128.925 41.6805 128.547 41.1646C128.241 40.6452 128.082 40.0719 128.003 39.4584L130.517 39.2082C130.513 40.0828 131.215 40.6561 132.074 40.6458C132.43 40.6412 132.753 40.6458 133.071 40.4977C133.491 40.302 133.674 39.9508 133.638 39.4825C133.601 39.0142 133.288 38.7537 132.851 38.6475L130.454 38.065C129.065 37.727 128.172 36.4811 128.297 35.047C128.477 32.9672 130.449 32.2482 132.418 32.3147C134.285 32.3779 135.73 33.2444 136.041 35.1193L134.198 35.3115C133.955 35.3368 133.726 35.4125 133.476 35.3368C133.418 34.7279 132.953 34.3394 132.359 34.3124C131.943 34.2935 131.534 34.2826 131.17 34.5253C130.806 34.7681 130.657 35.2915 130.914 35.6559C131.114 35.9394 131.492 36.0484 131.819 36.127L134.185 36.6975C134.952 36.9741 135.65 37.4762 135.967 38.2337C136.372 39.2036 136.273 40.2739 135.772 41.1651H135.772Z" fill="#1C3665"/>
<path d="M86.2518 32.5432C86.3358 32.7716 86.2305 32.9667 86.2288 33.1865L86.1856 38.8835C86.1799 39.6582 85.9279 40.3991 85.5061 41.0171C85.0188 41.7311 84.3157 42.2125 83.4895 42.4518C82.218 42.8209 80.8924 42.8013 79.6456 42.3795C78.6307 42.0364 77.8626 41.2995 77.5358 40.2889C77.4138 39.9124 77.2625 39.54 77.2602 39.1251L77.232 33.5888L77.1814 33.0649C77.1641 32.8841 77.1509 32.7309 77.1169 32.5484L79.7043 32.5472C79.7791 32.7137 79.6577 32.8577 79.6577 33.0132L79.6715 38.9661C79.6726 39.3925 79.8861 39.8395 80.1674 40.1248C80.7986 40.7641 82.184 40.791 82.9199 40.3801C83.4337 40.0932 83.7732 39.5147 83.7749 38.8823L83.7893 33.3162L83.6915 32.5576L86.2512 32.5438L86.2518 32.5432Z" fill="#1C3665"/>
<path d="M94.4878 38.8288L96.9957 39.2002C96.8588 39.7987 96.6942 40.3565 96.3922 40.8552C95.1943 42.9218 92.0857 43.1232 90.103 42.108C89.4276 41.762 88.9178 41.2627 88.5283 40.6262C87.472 38.8994 87.4443 36.1454 88.5277 34.3962C89.5208 32.7922 91.2486 32.2304 93.081 32.3411C94.9498 32.4536 96.5101 33.6674 96.8743 35.5376L94.398 36.0071C94.3065 35.4917 94.0816 35.0906 93.7076 34.7675C93.2525 34.4105 92.6616 34.3365 92.0822 34.4381C91.3654 34.5632 90.8372 35.0607 90.5466 35.727C90.1209 36.7032 90.1295 38.2469 90.5495 39.2415C90.8763 40.0156 91.5811 40.5803 92.4182 40.5832C93.5051 40.6836 94.3975 39.9967 94.4878 38.8294V38.8288Z" fill="#1C3665"/>
<path d="M61.0981 40.5861C62.2183 40.6819 63.1118 39.8842 63.1412 38.8162L65.6336 39.1996C65.4823 40.1373 65.0979 40.9872 64.4282 41.6311C63.6958 42.2962 62.7631 42.5918 61.7914 42.6807H60.8139C58.2553 42.4368 56.768 40.9183 56.4458 38.3743C56.375 37.8177 56.3958 37.2541 56.4406 36.6969C56.5183 35.7316 56.848 34.8272 57.4055 34.0605C58.417 32.6694 60.1488 32.2401 61.8271 32.3532C63.6457 32.4754 65.1917 33.7018 65.5329 35.548L63.0646 36.0197C62.9795 35.5887 62.7902 35.2191 62.5324 34.8834C62.0888 34.5178 61.5486 34.3491 60.9819 34.4019C59.2178 34.5661 58.7691 36.3927 58.9146 38.022C59.0326 39.3436 59.6712 40.508 61.0987 40.5855L61.0981 40.5861Z" fill="#1C3665"/>
<path d="M127.723 27.0492C127.163 28.3829 125.794 29.1812 124.388 29.1915L120.355 29.2213L120.433 28.438L120.446 21.5393L120.39 20.9523C120.379 20.8312 120.353 20.7371 120.33 20.6045L124.456 20.6349C125.06 20.6395 125.626 20.8099 126.164 21.0533C128.27 22.0076 128.581 25.0067 127.722 27.0492H127.723ZM125.807 26.1539C126.115 25.304 126.101 24.407 125.823 23.5829C125.565 22.927 125.04 22.4817 124.331 22.4719L122.521 22.4467V27.3832L124.174 27.3665C124.923 27.3591 125.541 26.8868 125.807 26.1534L125.807 26.1539Z" fill="#1C3665"/>
<path d="M87.4398 29.2233L87.0652 27.9717L86.5014 26.5829C86.3529 26.2179 85.9709 25.97 85.5693 25.9648L84.3726 25.9487L84.3841 28.4193C84.3852 28.6856 84.4876 28.9392 84.4197 29.2204H82.2559C82.2282 28.9719 82.2334 28.7636 82.3042 28.5209V21.3112C82.234 21.0633 82.2265 20.8682 82.257 20.603L86.8713 20.6415C87.4616 20.6466 88.0122 20.8934 88.4322 21.2727C89.3091 22.0636 89.339 23.8753 88.4702 24.6908C88.2182 24.9278 87.93 25.046 87.5847 25.1734C88.0594 25.3548 88.3592 25.7284 88.5588 26.1984L89.5156 28.4543L89.8493 29.2199L87.4386 29.2239L87.4398 29.2233ZM86.9191 23.4633C87.0295 22.929 86.7781 22.4957 86.2695 22.3872L84.3749 22.3907V24.1743L86.1993 24.1536C86.5762 24.149 86.846 23.8173 86.9191 23.4644V23.4633Z" fill="#1C3665"/>
<path d="M106.94 26.7614C106.452 28.2093 105.196 29.1889 103.673 29.3622C102.011 29.5516 100.409 28.9731 99.5521 27.5074C98.8363 26.2828 98.7523 24.5657 99.1637 23.1976C99.5377 21.954 100.453 21.0013 101.716 20.6312C103.169 20.2059 104.813 20.4315 105.959 21.4731C106.795 22.2329 107.146 23.3227 107.25 24.428C107.326 25.2326 107.196 25.9993 106.94 26.762L106.94 26.7614ZM104.465 26.9812C105.417 25.8696 105.311 23.2263 104.074 22.4934C103.345 22.0619 102.455 22.1382 101.825 22.7018C100.816 23.6056 100.737 26.3098 102.008 27.2521C102.742 27.7961 103.855 27.6934 104.465 26.9812Z" fill="#1C3665"/>
<path d="M131.561 25.718L131.554 27.3834L135.461 27.3846C135.623 27.3392 135.755 27.3042 135.931 27.3323L135.911 29.2072C135.91 29.2956 135.688 29.2939 135.625 29.2193H129.433C129.403 29.1148 129.479 29.0213 129.479 28.9128L129.481 21.0231C129.481 20.8733 129.396 20.7545 129.432 20.6128L135.287 20.6076C135.467 20.6076 135.619 20.4911 135.815 20.5674L135.796 22.4348C135.795 22.5261 135.569 22.5221 135.513 22.448H131.554V23.8833L135.058 23.885C135.159 23.8546 135.24 23.8213 135.35 23.8259V25.776C135.24 25.7811 135.159 25.7473 135.058 25.7174L131.56 25.7186L131.561 25.718Z" fill="#1C3665"/>
<path d="M76.6151 25.7179L76.6077 27.3833L80.4579 27.3845C80.6167 27.3386 80.7565 27.3053 80.9239 27.3311L80.9222 29.2743L80.6179 29.2244L74.4915 29.2186C74.4593 28.9736 74.4679 28.7624 74.5376 28.5202V21.3673C74.4616 21.1062 74.4633 20.8755 74.4904 20.611L80.2836 20.6064C80.4614 20.6064 80.6207 20.4899 80.8089 20.5662V22.5031C80.6978 22.5099 80.6173 22.4755 80.5149 22.4457L76.6094 22.4474V23.8827L80.0552 23.8844C80.1564 23.854 80.2375 23.8207 80.348 23.8253V25.7753C80.2375 25.7805 80.1564 25.7466 80.0552 25.7168L76.6151 25.7179Z" fill="#1C3665"/>
<path d="M113.844 29.0379C112.607 29.548 111.257 29.4889 110.014 29.0752C108.915 28.709 108.365 27.656 108.266 26.5937L110.438 26.3946C110.468 27.2296 111.061 27.6187 111.879 27.621C112.23 27.6221 112.564 27.6026 112.843 27.3679C113.106 27.1464 113.216 26.8215 113.117 26.4749C113.036 26.1908 112.785 25.9779 112.442 25.8953L110.42 25.4063C109.202 25.1119 108.42 24.0858 108.514 22.8319C108.646 21.0879 110.192 20.4015 111.874 20.4285C112.32 20.4354 112.693 20.4641 113.125 20.5691C114.228 20.8377 115.067 21.706 115.216 22.8463L113.027 23.0902C112.924 22.4658 112.436 22.0543 111.819 22.1742C111.451 22.1025 111.072 22.2156 110.833 22.4927C110.665 22.689 110.62 22.9278 110.707 23.1711C110.778 23.3725 110.961 23.555 111.234 23.6176L113.091 24.0434C114.305 24.3217 115.361 25.1785 115.355 26.3957L115.353 26.8256C115.348 27.7862 114.795 28.6459 113.845 29.0379H113.844Z" fill="#1C3665"/>
<path d="M70.7565 20.6122L72.9106 20.6099C72.8812 20.9921 72.8778 21.1809 72.8766 21.4724L72.8605 26.2706C72.601 28.4072 71.1034 29.3971 69.0149 29.4012C66.7244 29.4052 65.3257 28.4313 65.1106 26.0985L65.0945 21.1338C65.0939 20.9571 64.984 20.7981 65.0548 20.6104L67.2975 20.6122C67.2376 20.848 67.2532 21.065 67.2342 21.3002L67.1818 21.9378L67.1795 25.714L67.2365 26.1713C67.2733 27.089 68.0184 27.6445 68.9021 27.6238C69.4251 27.6118 69.9636 27.563 70.3491 27.1556C70.6086 26.8812 70.7789 26.4508 70.7801 26.0439L70.7916 21.3651C70.7875 21.1596 70.7726 20.918 70.7571 20.6127L70.7565 20.6122Z" fill="#1C3665"/>
<path d="M59.0625 26.3514L59.0902 27.7631L59.1327 28.912C59.1356 28.986 59.2311 29.203 59.1011 29.2041L56.9343 29.2231L56.9867 28.8076V21.0229L56.9366 20.6028L61.1574 20.6395C61.9261 20.6464 62.674 20.9351 63.2045 21.459C64.0336 22.2774 64.0946 23.9118 63.5054 24.9809C63.0325 25.8383 61.9284 26.3181 60.9917 26.3295L59.0631 26.3525L59.0625 26.3514ZM61.7379 23.6444C61.826 23.024 61.4796 22.4099 60.8335 22.4036L59.0602 22.387V24.574L60.8099 24.5488C61.3404 24.5413 61.6637 24.1706 61.7385 23.6444H61.7379Z" fill="#1C3665"/>
<path d="M95.3821 28.3585L95.4431 29.2182L93.1935 29.2216C93.1124 28.9737 93.228 28.7602 93.228 28.5232L93.2372 22.447L91.365 22.4785L90.4744 22.5411L90.4727 20.5675C90.6619 20.4894 90.819 20.6088 90.9991 20.6088H97.6001C97.7802 20.6088 97.9378 20.4889 98.1265 20.5681V22.4934C97.7485 22.5497 97.401 22.4602 97.0385 22.4579L95.3597 22.4487L95.3815 28.3585H95.3821Z" fill="#1C3665"/>
<path d="M27.8023 44.956L27.0129 47.2963L26.2005 49.7101C26.1159 49.962 25.7287 50.0199 25.4945 49.9941C25.292 49.9712 24.9025 49.8179 24.9013 49.5121L24.8789 43.4014C25.0319 43.041 25.3495 42.8533 25.7517 42.8809C29.9667 42.6811 33.9556 40.9939 37.0533 38.1492L38.093 37.1093C40.1205 34.8867 41.5761 32.2457 42.293 29.3177C42.3534 29.0715 42.4812 28.8948 42.7205 28.815L43.5346 28.5436C43.7791 28.4621 43.9932 28.6142 44.1364 28.7576C44.2987 28.9206 44.3925 29.1284 44.3321 29.4044C43.7072 32.2663 42.4253 34.9119 40.6268 37.223C40.5261 37.3521 40.4323 37.5983 40.4927 37.7481L41.7499 40.8556C41.8793 41.1759 41.8178 41.4789 41.6061 41.6906C41.3425 41.9535 41.0123 41.9374 40.6843 41.8043L37.7086 40.5957C37.5004 40.5113 37.276 40.6003 37.1068 40.7311C34.5402 42.7219 31.5553 44.0355 28.346 44.6082C28.1515 44.6432 27.8753 44.7356 27.8011 44.9554L27.8023 44.956Z" fill="#1C3665"/>
<path d="M12.599 40.7179C12.3234 40.5062 12.0599 40.5618 11.7958 40.6697L8.85982 41.8674C8.59344 41.9764 8.31382 41.8789 8.13488 41.7061C7.97091 41.5472 7.82132 41.2556 7.92833 40.9899L9.21251 37.8118C9.28501 37.6316 9.23898 37.4043 9.11643 37.2477C7.11191 34.6841 5.76904 31.7028 5.19772 28.4925C5.15169 28.2337 5.01246 27.9674 4.76448 27.8848L2.38886 27.0963L0.398153 26.4363C0.116232 26.3428 0.0023125 26.0254 1.11039e-05 25.7494C-0.00171495 25.5313 0.197931 25.1049 0.498839 25.1038L6.40941 25.0825C6.79087 25.2432 6.97037 25.5893 6.9301 26.0111C7.15564 30.1631 8.83796 34.0758 11.6549 37.1312C12.0024 37.5082 12.2918 37.8439 12.7003 38.1664C14.9027 40.1986 17.5798 41.6384 20.4917 42.3701C20.8467 42.4591 21.0561 42.6444 21.1401 43.006C21.1947 43.2419 21.342 43.4737 21.3363 43.7239C21.3259 44.1486 20.9669 44.5273 20.5009 44.4263C17.6138 43.8002 14.9493 42.5251 12.5984 40.7179H12.599Z" fill="#1C3665"/>
<path d="M31.5337 34.6354C32.7552 34.5849 33.6728 33.6988 33.724 32.45L36.8102 32.9097C36.4075 35.3212 34.831 36.9326 32.3438 37.1685L30.5982 37.1702C28.6098 37.0038 26.9223 35.9277 26.0753 34.116C25.1686 32.1763 25.1559 29.5766 26.0362 27.6134C27.012 25.4378 29.028 24.4576 31.3852 24.445C32.3397 24.4398 33.2528 24.5896 34.1072 25.0114C35.3885 25.6076 36.4155 26.9488 36.6704 28.3978L33.6274 28.9849C33.491 28.3364 33.2137 27.7551 32.6775 27.3488C31.75 26.8048 30.5826 26.865 29.7046 27.4791L29.2484 27.9479C28.7047 28.6882 28.5235 29.5737 28.4849 30.477C28.4429 31.4595 28.5678 32.5218 29.0631 33.3579C29.5936 34.2543 30.4664 34.6796 31.5331 34.6354H31.5337Z" fill="#1C3665"/>
<path d="M17.5781 32.8363L17.6046 35.2718L17.6236 36.2228C17.6966 36.4701 17.7145 36.706 17.6822 36.9671L14.5259 36.9659L14.5805 36.4575L14.6381 35.8635L14.6369 25.7884L14.5828 25.1365L14.5276 24.678L20.3611 24.7107C21.1274 24.7147 21.8294 24.9098 22.5037 25.2169C23.1187 25.4969 23.5853 25.9222 23.9305 26.5006C24.5663 27.5658 24.6066 29.1543 24.1745 30.3519C23.6216 31.8859 22.2206 32.6538 20.6068 32.8248L17.577 32.8363H17.5781ZM21.3674 28.7336C21.4738 27.8722 20.8444 27.2386 20.0187 27.2312L17.577 27.2088V30.3123L20.2029 30.302C20.9732 30.1689 21.4738 29.529 21.3674 28.7342V28.7336Z" fill="#1C3665"/>
<path d="M32.5917 12.6804L17.4255 17.3455C17.1597 17.427 16.9802 17.4063 16.83 17.1836C16.7333 17.0407 16.7351 16.6953 16.9698 16.6212L19.8178 15.7265C19.392 12.8571 21.438 10.215 24.3435 9.90452C26.4234 9.68242 28.5464 10.8176 29.4353 12.7659L32.491 11.8391C32.697 11.7765 32.8972 12.0112 32.9271 12.1576C32.9749 12.3906 32.8817 12.5909 32.5923 12.6798L32.5917 12.6804Z" fill="#1C3665"/>
<path d="M25.3954 20.0076C23.2954 20.2378 21.2972 19.1445 20.3047 17.2329L29.9061 14.2751C30.2784 17.1205 28.271 19.6932 25.3954 20.0076Z" fill="#1C3665"/>
<path d="M28.5107 23.2462L21.5886 23.2508C21.8533 21.5441 23.3394 20.3085 25.0309 20.2982C26.7179 20.2878 28.2207 21.474 28.5101 23.2462H28.5107Z" fill="#1C3665"/>
<path d="M47.586 22.9595L49.331 23.5465C49.6682 23.6596 49.7677 24.0906 49.6964 24.3747C49.6124 24.7104 49.3874 25.0226 48.9824 25.0231L42.8307 25.0335C42.8307 20.6375 41.271 16.4752 38.3741 13.1811L36.7061 11.5214C34.6113 9.64427 31.8439 8.22678 29.1063 7.57198C28.8825 7.51861 28.6858 7.40957 28.611 7.19207L28.3521 6.4334C28.2502 6.13498 28.3676 5.89912 28.5557 5.71547C28.7738 5.50314 29.0172 5.49109 29.3336 5.56339C32.2253 6.22278 34.8938 7.50484 37.2228 9.32748C37.5145 9.48014 37.8764 9.31773 38.1342 9.21386L40.9729 8.07355C41.206 7.98001 41.4741 8.14414 41.6271 8.29851C41.7801 8.45289 41.8998 8.72376 41.8026 8.96364L40.5282 12.1137C40.4649 12.2698 40.4471 12.5125 40.5696 12.6686C42.6052 15.2637 43.9659 18.2812 44.5395 21.538C44.6057 21.9127 44.8439 22.0705 45.1822 22.1807L47.5837 22.96L47.586 22.9595Z" fill="#1C3665"/>
<path d="M5.38586 20.5198C6.05844 17.671 7.29314 15.0593 9.07385 12.7712C9.19985 12.6088 9.29766 12.3724 9.22171 12.1847L7.93523 9.0037C7.82707 8.73569 7.95192 8.42695 8.1366 8.24847C8.33222 8.05966 8.64636 8.01203 8.92426 8.12508L11.866 9.32277C12.0191 9.38475 12.3672 9.43181 12.5236 9.30958C15.1323 7.27459 18.165 5.92597 21.4272 5.35496C21.7189 5.30388 21.9018 5.1277 21.9887 4.86544L23.4547 0.422446C23.5577 0.110254 23.8741 -0.015426 24.1681 0.00179044C24.4184 0.0167114 24.8102 0.191171 24.8114 0.541239L24.8333 6.31793C24.8344 6.56011 24.7665 6.7558 24.625 6.89583C24.4587 7.05939 24.2493 7.06398 24.0243 7.08177L23.2165 7.14432C19.3617 7.44274 15.7698 9.06338 12.8884 11.6309L11.4489 13.0674C9.50421 15.2561 8.11819 17.8443 7.41972 20.6856C7.34435 20.9927 7.22122 21.2331 6.90536 21.3364L6.17178 21.5757C5.92323 21.6566 5.64304 21.4782 5.50898 21.3238C5.29495 21.077 5.30588 20.8601 5.38586 20.5209V20.5198Z" fill="#1C3665"/>
<path d="M102.661 17.1097H100.16C99.944 16.6035 99.6689 16.1949 99.3721 15.7479L96.9228 12.0613L96.4222 11.1947C96.3348 11.4438 96.4458 11.6601 96.447 11.8948L96.4671 16.4147C96.4683 16.6494 96.4769 16.8216 96.4993 17.1114H94.1139C94.1439 16.7723 94.1502 16.6535 94.1502 16.4113L94.149 8.28398C94.149 8.02171 94.1335 7.83979 94.1128 7.52588L96.5736 7.52703C96.798 8.01425 97.0436 8.43892 97.3422 8.8854L99.6425 12.3212L100.354 13.4994C100.348 13.2159 100.302 8.16461 100.302 8.16461C100.301 7.9494 100.286 7.78011 100.268 7.52588H102.655C102.641 7.88398 102.619 8.09058 102.619 8.39187C102.619 8.39187 102.604 15.8489 102.661 17.1097H102.661Z" fill="#0DAFDA"/>
<path d="M63.5549 16.6522C62.9997 16.903 62.4209 17.0826 61.8001 17.0872L57.207 17.1182C57.2588 16.8261 57.3077 16.5903 57.2692 16.3068L57.3284 15.7237L57.3267 8.86695L57.2675 8.39121C57.306 8.10197 57.2634 7.88103 57.1973 7.52637L61.7989 7.55219C62.6878 7.55736 63.8955 7.9694 64.5629 8.59034C65.3615 9.33352 65.7717 10.3619 65.8799 11.4552L65.8845 12.9616C65.8862 13.4718 65.7263 13.9309 65.5559 14.4107C65.2073 15.3914 64.514 16.2195 63.5555 16.6528L63.5549 16.6522ZM63.2908 13.7237C63.636 12.8044 63.6199 11.8563 63.3541 10.9324C63.1297 10.2328 62.552 9.72606 61.7857 9.62505L59.6356 9.58775V15.0494L61.7281 15.0138C62.487 14.9139 63.0135 14.4273 63.2908 13.7237Z" fill="#0DAFDA"/>
<path d="M136.369 14.9949C135.625 16.4164 134.269 17.2009 132.719 17.3099L131.945 17.3076C130.042 17.2107 128.472 16.0038 127.947 14.1536C127.429 12.3269 127.634 10.114 128.967 8.67245C129.843 7.72497 131.074 7.3376 132.36 7.33473C133.769 7.33129 135.113 7.8386 135.98 8.96513C136.538 9.6888 136.872 10.5295 136.939 11.4477L137 12.2862L136.953 12.9823C136.906 13.6853 136.703 14.3596 136.37 14.9955L136.369 14.9949ZM134.252 14.0532C134.504 13.5131 134.552 12.9519 134.557 12.3459C134.563 11.6394 134.496 10.9645 134.135 10.3499C133.813 9.80128 133.294 9.3525 132.657 9.34389L132.112 9.33643C130.599 9.49884 130.092 10.8905 130.104 12.3482C130.115 13.776 130.638 15.1378 132.104 15.3082C133.051 15.4184 133.837 14.9427 134.252 14.0543L134.252 14.0532Z" fill="#0DAFDA"/>
<path d="M73.2881 16.9805C72.6294 16.7487 72.0926 16.3206 71.7393 15.7082C71.4867 15.2365 71.3394 14.7281 71.3066 14.1995L73.7162 13.97C73.7277 14.6776 74.2024 15.2193 74.8997 15.3151H75.788C76.2604 15.3151 76.662 14.9318 76.7259 14.4865C76.7961 13.9958 76.5751 13.5918 76.1033 13.4747L74.0419 12.9628C73.3324 12.7866 72.6846 12.5312 72.203 11.9832C71.313 10.9709 71.3325 9.19354 72.3895 8.25295C72.6219 8.04578 72.8348 7.85812 73.1409 7.73015C74.3882 7.20734 75.7714 7.15053 77.0601 7.59127C78.1441 7.96199 78.9128 8.88939 79.0324 10.0262L76.578 10.2822C76.5136 9.58034 75.9497 9.15624 75.2829 9.26069C74.8606 9.19584 74.4354 9.28766 74.1598 9.61477C73.9999 9.80473 73.921 10.0377 73.9837 10.277C74.127 10.8262 74.7346 10.9496 75.3105 11.0633C76.6741 11.3324 78.3006 11.5952 78.9208 12.9111C79.5019 14.1438 79.2258 15.8207 78.0308 16.6356C76.7794 17.489 74.7374 17.4919 73.2899 16.9823L73.2881 16.9805Z" fill="#0DAFDA"/>
<path d="M126.91 7.52694L126.469 8.66036L123.88 15.9905L123.554 17.1108H120.568L120.073 15.5332L117.835 9.2285L117.194 7.52752L119.905 7.53325L120.338 9.3054L122.056 15.0121L123.857 9.0374C124.011 8.5255 124.139 8.06237 124.204 7.52637L126.911 7.52809L126.91 7.52694Z" fill="#0DAFDA"/>
<path d="M109.344 16.3242C109.351 16.5996 109.367 16.8567 109.393 17.1115H106.882C106.903 16.925 106.926 16.8045 106.926 16.6432L106.93 9.59368L104.682 9.58794C104.406 9.59196 104.117 9.61549 103.878 9.64131V7.47835C104.108 7.44909 104.279 7.52541 104.522 7.52771H111.809C112.075 7.52599 112.216 7.52599 112.453 7.47835V9.64131C112.213 9.61721 112.008 9.59368 111.699 9.59139L109.345 9.59368L109.344 16.3247V16.3242Z" fill="#0DAFDA"/>
<path d="M85.5896 16.2156C85.5896 16.5501 85.5913 16.7814 85.6264 17.112L83.0972 17.1102C83.1438 16.8514 83.1777 16.3148 83.1777 16.3148L83.2266 9.5924L80.9206 9.60158C80.6537 9.60273 80.4212 9.61249 80.1174 9.63602V7.48511C80.3936 7.50347 80.5392 7.52241 80.7607 7.52241H88.0486C88.2701 7.52241 88.4393 7.527 88.6919 7.48511V9.63602C88.4324 9.61306 88.2258 9.60617 87.9957 9.60503L85.5815 9.5924L85.5896 16.2161V16.2156Z" fill="#0DAFDA"/>
<path d="M92.3724 7.5271H89.8408V17.1109H92.3724V7.5271Z" fill="#0DAFDA"/>
<path d="M69.8763 7.5271H67.3447V17.1109H69.8763V7.5271Z" fill="#0DAFDA"/>
<path d="M116.083 16.3356C116.099 16.5887 116.095 16.8045 116.153 17.1018L113.617 17.1138C113.637 16.8791 113.658 16.7316 113.658 16.5267V8.11075C113.658 7.90645 113.64 7.7251 113.604 7.52539L116.147 7.52711C116.102 7.78479 116.026 8.91361 116.026 8.91361L116.083 16.335V16.3356Z" fill="#0DAFDA"/>
</g>
<defs>
<clipPath id="clip0_81_3553">
<rect width="137" height="50" fill="white"/>
</clipPath>
</defs>
</svg>
