<svg width="165" height="50" viewBox="0 0 165 50" fill="none" xmlns="http://www.w3.org/2000/svg">
<path d="M38.8729 19.316C41.2743 19.316 43.2211 17.3875 43.2211 15.0086C43.2211 12.6297 41.2743 10.7012 38.8729 10.7012C36.4714 10.7012 34.5246 12.6297 34.5246 15.0086C34.5246 17.3875 36.4714 19.316 38.8729 19.316Z" fill="#2EACC9"/>
<path d="M24.7666 19.4694L20.6201 24.1741C19.3126 25.6592 18.088 27.1279 16.9076 28.7117C15.4674 30.69 14.0991 32.7916 13.5379 35.181C13.115 36.9784 13.4191 38.8006 14.4888 40.3076L15.7881 42.138C16.9905 43.8286 17.3803 46.8673 15.6747 46.8619C15.1246 46.8619 14.616 46.6783 14.1101 46.4536C13.4716 46.1686 12.9408 45.7494 12.3548 45.374L10.7791 44.3711C9.00444 43.4806 7.81026 44.7876 6.68242 45.9878L5.12058 47.651C4.75846 48.0373 4.28852 48.2894 3.76883 48.399C3.01418 48.558 2.3535 48.1606 2.12683 47.4236C1.90016 46.6865 1.98862 45.9028 2.19594 45.1438L3.21597 42.4175C3.91258 40.557 4.70317 38.828 3.63891 36.9319C2.3231 34.5754 -0.405281 32.3669 0.0508312 29.8817C0.169697 29.235 0.670037 28.8541 1.32518 28.8788C1.79788 28.8952 2.24293 29.0158 2.67969 29.2131L4.95472 30.2406L6.2733 30.7174C7.64993 31.2161 9.23941 30.0762 10.2097 29.024L17.4328 21.2176C19.0085 19.516 20.4349 17.7377 21.8779 15.9156L24.9739 11.7315C25.8198 10.4875 26.5551 9.30926 27.1964 8.02416C28.1971 6.02666 28.5426 4.10039 27.0112 2.33031C26.1542 1.3384 25.0679 0.634207 23.7438 0.431443C22.9863 0.272519 22.2538 0.32184 21.4715 0.362941C24.9877 -0.607042 28.5233 0.354721 30.6407 3.39893C31.5917 4.76349 31.9787 6.34176 31.7188 8.00224C31.3207 10.6491 29.7396 13.1179 28.1169 15.3264L24.7638 19.4612L24.7666 19.4694Z" fill="#0066B2"/>
<path d="M28.1197 15.3347C30.2288 17.5075 32.3878 19.5763 34.707 21.5108L36.2855 22.7191C37.3746 23.3411 38.6628 23.5795 39.9122 23.459C41.5625 23.3 42.9115 22.3684 43.6938 20.9463L46.0352 16.702L47.5169 14.3592C47.926 13.7125 48.5618 13.2769 49.3413 13.159C49.9273 13.0714 50.4526 13.3454 50.7069 13.8906C50.9308 14.3756 50.9916 14.9428 50.8976 15.5045C50.624 17.1294 50.0821 18.6474 49.3634 20.1298L48.0531 22.5794L46.7539 25.1688C45.9854 26.9964 45.8168 28.9144 46.2259 30.8571C46.917 34.137 48.7774 37.2579 50.5908 40.0637C50.9612 40.6364 51.069 41.3297 50.9114 41.9626C50.787 42.4586 50.4222 42.8449 49.9301 42.9518C49.532 43.0395 49.1063 43.0011 48.7525 42.8093L46.9115 41.8174C46.0131 41.3324 45.04 41.2091 44.1112 41.6722C42.3725 42.538 41.1009 44.5355 40.0283 46.1659L38.4361 48.5908C37.9744 49.295 37.2834 49.7992 36.4596 49.9581C35.3207 50.1801 34.309 49.5005 34.1293 48.3744C34.0353 47.7935 34.1293 47.2427 34.3173 46.6728L35.9814 41.6968L37.2861 37.3949C37.8197 35.6358 37.1535 33.4629 36.0228 32.1011L34.3726 30.1146L30.1376 25.3797L24.7583 19.4667" fill="#2EACC9"/>
<path d="M21.8779 15.9183C20.4432 14.0139 19.1191 12.0575 18.2538 9.90111C17.4522 7.89264 17.1979 5.31424 18.2124 3.39071C18.9007 2.0837 20.1308 1.20688 21.6097 0.987676C23.5254 0.705449 25.3719 1.48911 26.5385 3.00162C27.705 4.51414 27.2931 6.1116 26.4694 7.6981C26.5744 6.81854 26.4196 5.99104 25.8225 5.36082C25.2254 4.73061 24.28 4.53332 23.4812 4.89501C22.6823 5.2567 22.2483 6.11434 22.3782 7.03774C22.6823 8.7174 23.9207 10.3806 24.9739 11.7342" fill="#2EACC9"/>
<path d="M5.52417 27.1498C7.82642 27.1498 9.69276 25.2999 9.69276 23.0178C9.69276 20.7358 7.82642 18.8858 5.52417 18.8858C3.22193 18.8858 1.35559 20.7358 1.35559 23.0178C1.35559 25.2999 3.22193 27.1498 5.52417 27.1498Z" fill="#0066B2"/>
<path d="M142.485 39.0116C142.584 39.1294 142.62 39.1924 142.609 39.3568L140.011 39.3513L137.357 35.9783H135.685V39.3568H133.343V29.0185L138.485 29.0295C139.032 29.0295 139.53 29.1501 140.027 29.3364C141.418 29.8926 142.244 31.2325 142.145 32.7204C142.109 34.2904 141.282 35.2138 139.762 35.7536L142.482 39.0088L142.485 39.0116ZM139.779 32.123C139.577 31.4325 139.01 31.0188 138.316 31.0161L135.687 31.0106V34H138.405C138.88 34 139.306 33.7671 139.538 33.4629C139.839 33.0684 139.92 32.6108 139.779 32.1258V32.123Z" fill="#0066B2"/>
<path d="M81.8662 39.0143C81.963 39.1321 82.0072 39.1924 81.9934 39.3568L79.3894 39.3513L76.7384 35.9756H75.0688V39.3541H72.7274V29.0131L77.9243 29.0322C78.7066 29.0322 79.417 29.2706 80.0584 29.6789C81.1116 30.3913 81.6313 31.5805 81.5207 32.8382C81.482 33.5725 81.2581 34.263 80.7439 34.7919C80.3072 35.2412 79.7819 35.5125 79.1434 35.7564L81.8635 39.0116L81.8662 39.0143ZM79.1406 32.0792C78.9333 31.4161 78.3721 31.0188 77.6976 31.0161L75.0688 31.0078V33.9972L77.9188 33.9808C78.386 33.9808 78.7813 33.663 78.9748 33.3752C79.2484 32.9615 79.2844 32.534 79.1434 32.0765L79.1406 32.0792Z" fill="#0066B2"/>
<path d="M153.031 35.1453L147.911 35.1508L147.914 37.2168H153.561V39.3541H145.614V29.0185H153.351L153.349 31.1421H147.911V33.1122H153.031V35.1453Z" fill="#0066B2"/>
<path d="M127.497 37.5785L122.187 37.584L121.426 39.3541H118.9L123.58 29.0185H126.123L130.8 39.3513L128.262 39.3568L127.497 37.5812V37.5785ZM126.593 35.4988L124.854 31.4188L123.085 35.518L126.59 35.5015L126.593 35.4988Z" fill="#0066B2"/>
<path d="M164.997 36.2003C165.083 38.5841 163.01 39.6281 160.751 39.6856C159.657 39.713 158.606 39.5212 157.642 39.0225C156.984 38.6745 156.436 38.2169 156.036 37.5621L157.426 36.1181C158.532 37.4059 160.329 37.8991 161.893 37.3593C162.338 37.1565 162.651 36.8387 162.681 36.4195C162.767 35.244 161.44 35.0714 160.32 34.9645C158.391 34.7782 156.602 34.2055 156.453 32.1285C156.367 30.9119 156.926 29.868 158.012 29.2679C158.968 28.7391 160.038 28.6103 161.152 28.6678C162.463 28.7336 163.665 29.235 164.472 30.2653L163.007 31.5394C162.526 31.0709 161.935 30.8379 161.285 30.7229C160.146 30.4982 158.67 30.8708 158.75 31.8874C158.781 32.271 159.027 32.5779 159.43 32.7259C160.472 33.1149 161.733 32.8711 163.22 33.5424C164.326 34.0411 164.953 35.0056 164.997 36.1975V36.2003Z" fill="#0066B2"/>
<path d="M103.765 29.0487L106.093 29.0377L106.082 35.1453C106.079 37.0497 105.07 38.7896 103.187 39.3513C102.051 39.6911 100.86 39.6966 99.7237 39.3705C97.6588 38.7787 96.5973 36.9976 96.589 34.8823V29.0377H98.911L98.922 35.1399C99.005 35.9235 99.2593 36.6387 99.9089 37.0853C100.559 37.5319 101.399 37.6141 102.17 37.436C103.281 37.1785 103.715 36.2003 103.768 35.0768V29.0487H103.765Z" fill="#0066B2"/>
<path d="M88.5642 37.2607C89.927 37.732 91.3921 37.4086 92.4563 36.4797L93.9076 38.0882C92.354 39.65 89.9021 39.9158 87.8648 39.3541C86.4052 38.9513 85.2663 37.9566 84.7328 36.551C84.2297 35.2193 84.1772 33.7835 84.5946 32.4272C85.2055 30.4297 86.9 29.0651 88.9926 28.8487C90.7397 28.5911 92.4508 29.1117 93.7224 30.3858L92.2683 31.8408C91.5579 31.1832 90.5959 30.9202 89.5952 30.9832C88.4066 31.0572 87.4059 31.6983 86.936 32.7889C86.2228 34.4466 86.7618 36.6387 88.5642 37.2607Z" fill="#0066B2"/>
<path d="M56.8851 35.8824C57.8471 37.8553 60.7303 37.932 62.3336 36.4825L63.8014 38.0854C63.0302 38.8417 62.1235 39.2883 61.0979 39.502C58.3889 39.9541 55.5555 39.165 54.5825 36.466C54.1125 35.1618 54.0766 33.7479 54.4802 32.4327C55.1049 30.3886 56.8298 29.0679 58.9445 28.8322C60.6916 28.6349 62.3833 29.1336 63.6107 30.4023L62.1429 31.86C61.9272 31.6463 61.7171 31.4956 61.4573 31.3586C60.6252 30.964 59.6937 30.8736 58.7925 31.1037C56.7358 31.6298 55.9978 34.0575 56.8879 35.8851L56.8851 35.8824Z" fill="#0066B2"/>
<path d="M117.274 37.2333L117.272 39.3541H109.736V29.0158L112.061 29.0185V37.2333H117.274Z" fill="#0066B2"/>
<path d="M68.9514 29.0213H66.6127V39.3568H68.9514V29.0213Z" fill="#0066B2"/>
<path d="M84.5559 25.2126L84.5476 18.557L81.5926 22.6123C81.5013 22.6452 81.2913 22.6835 81.2304 22.6013L78.3224 18.5625L78.3168 25.2153H76.8905V16.4553L78.5435 16.4608L81.4405 20.5326L84.3209 16.4608H85.9795V25.2126H84.5531H84.5559Z" fill="#2EACC9"/>
<path d="M107.685 25.1715L106.593 25.1934L101.642 19.1132L101.612 25.1989L100.169 25.1962V16.4416H101.269L106.242 22.6041L106.259 16.4389H107.685V25.1715Z" fill="#2EACC9"/>
<path d="M123.602 22.2341C123.113 23.933 121.683 25.0482 119.914 25.1633L116.022 25.1989V16.4307L119.762 16.4526C121.617 16.4636 123.126 17.6856 123.605 19.4475C123.853 20.3627 123.864 21.2751 123.605 22.2287L123.602 22.2341ZM122.189 21.9382C122.444 21.171 122.427 20.4257 122.184 19.6886C121.827 18.6173 120.893 17.8309 119.74 17.8226L117.432 17.8035V23.8261L119.632 23.8152C120.818 23.8097 121.813 23.0726 122.189 21.9382Z" fill="#2EACC9"/>
<path d="M144.84 22.3821C144.312 24.0042 142.913 25.0509 141.202 25.1633L137.293 25.2016V16.4334L141.05 16.4581C142.869 16.469 144.354 17.6445 144.859 19.3598C145.152 20.3545 145.161 21.3546 144.84 22.3821ZM143.126 22.6452C143.707 21.7327 143.795 20.6887 143.469 19.6941C143.11 18.62 142.184 17.8336 141.028 17.8226L138.72 17.8035V23.8261L140.923 23.8152C141.813 23.8097 142.609 23.3822 143.126 22.6452Z" fill="#2EACC9"/>
<path d="M154.291 21.4806L149.434 21.4834L149.437 23.796L154.546 23.8015V25.1962H148V16.4389H154.49L154.476 17.8254L149.44 17.8226L149.434 20.1681H154.291V21.4806Z" fill="#2EACC9"/>
<path d="M74.0764 20.8449C74.0764 23.3713 72.0087 25.4181 69.46 25.4181C66.9113 25.4181 64.8436 23.3713 64.8436 20.8449C64.8436 18.3186 66.9113 16.2718 69.46 16.2718C72.0087 16.2718 74.0764 18.3186 74.0764 20.8449ZM72.3349 22.1821C72.65 21.2724 72.6196 20.2969 72.2658 19.4037C71.8069 18.2528 70.7482 17.5815 69.4959 17.5733C68.498 17.5651 67.5222 17.9268 66.9555 18.7707C65.7835 20.5189 66.328 23.3 68.4234 23.9275C69.988 24.3961 71.7654 23.8289 72.3349 22.1821Z" fill="#2EACC9"/>
<path d="M132.489 23.3713L127.729 23.3576L126.891 25.1934L125.36 25.2016L129.324 16.4416L130.886 16.4471L134.842 25.1879L133.316 25.2016L132.489 23.374V23.3713ZM131.942 22.0615L130.106 17.9788L128.254 22.0725L131.942 22.0588V22.0615Z" fill="#2EACC9"/>
<path d="M162.797 24.9934C161.791 25.4263 160.716 25.4647 159.648 25.3249C158.427 25.1633 157.423 24.4755 156.859 23.3959L157.94 22.6808C158.728 24.0837 160.688 24.4728 162.125 23.8426C162.606 23.6316 162.872 23.2233 162.899 22.763C162.968 21.6067 161.517 21.3902 160.4 21.2313C158.786 21.0011 157.216 20.4969 157.227 18.7241C157.244 16.4499 159.977 15.869 162.037 16.3457C162.836 16.5321 163.502 16.9842 163.95 17.6802L162.863 18.409C161.86 17.0362 159.051 17.1431 158.687 18.4611C158.382 19.5571 159.74 19.8338 160.829 19.9818C162.551 20.2147 164.287 20.7161 164.334 22.6041C164.362 23.6617 163.823 24.555 162.797 24.9989V24.9934Z" fill="#2EACC9"/>
<path d="M95.4169 16.4608L96.8239 16.4526L96.8156 21.8067C96.8156 23.2699 96.0002 24.6344 94.5931 25.1194C93.5676 25.4702 92.4453 25.4565 91.4335 25.04C90.1951 24.5276 89.3631 23.3576 89.352 22.004L89.3161 16.4581H90.7341L90.7563 21.8067C90.7563 22.4753 91.0327 23.1329 91.5579 23.5466C92.3983 24.2097 93.6588 24.2481 94.524 23.6124C95.0658 23.2151 95.381 22.552 95.3865 21.8725L95.4141 16.4608H95.4169Z" fill="#2EACC9"/>
<path d="M58.7731 23.9357C59.9756 24.2152 61.1726 23.9165 62.0406 23.0836L63.0274 24.0727C61.7116 25.3633 59.7738 25.6346 58.0848 25.1578C55.5665 24.4454 54.5603 21.7875 55.2542 19.3954C55.7628 17.6445 57.2555 16.4663 59.0883 16.3238C60.5202 16.1512 61.9051 16.5869 62.9417 17.6171L61.9853 18.5351C61.2002 17.7925 60.1691 17.5212 59.1049 17.6747C58.0461 17.8281 57.1698 18.4501 56.7524 19.4365C56.0061 21.2011 56.7027 23.4507 58.7731 23.933V23.9357Z" fill="#2EACC9"/>
<path d="M112.575 16.4389H111.149V25.1962H112.575V16.4389Z" fill="#2EACC9"/>
</svg>
