<svg width="72" height="83" viewBox="0 0 72 83" fill="none" xmlns="http://www.w3.org/2000/svg">
<path d="M25.2093 15.0287C25.2093 15.0287 24.7329 15.0748 24.5895 15.2183C24.446 15.3618 24.3999 15.2645 24.2565 15.5053C24.1131 15.7411 24.067 16.1716 24.2565 16.2177C24.446 16.2638 24.3999 16.4073 24.7329 16.4073H25.4449C25.7318 16.4073 25.9674 16.4073 26.1569 16.31C26.3464 16.2126 26.536 15.9768 26.9201 15.9307C27.3043 15.8846 27.3965 15.695 27.919 15.5976C28.4415 15.5002 29.1074 15.121 29.4403 15.0748C29.7733 15.0287 30.5826 14.6956 30.9617 14.6443C31.3407 14.5982 32.2935 14.4547 32.9133 14.4086C33.5331 14.3625 33.8661 14.219 34.532 14.219H36.5758C36.8627 14.219 37.7642 14.1728 38.0049 14.2651C38.2406 14.3625 39.5724 14.2651 39.8592 14.5008C40.1461 14.7366 41.145 15.0236 41.7135 15.1671C42.2821 15.3106 43.7113 15.5463 43.9008 15.5976C44.0903 15.6437 45.2787 16.2638 45.2787 16.2638C45.2787 16.2638 45.9446 16.4996 46.1341 16.4996C46.3237 16.4996 46.2776 16.4535 46.8462 16.4996C47.4147 16.5457 47.4147 16.5457 47.7477 16.4996C48.0806 16.4535 47.845 16.9301 48.0806 16.4535C48.3163 15.9768 48.3675 15.5976 48.0345 15.5002C47.7016 15.4028 47.466 15.2645 46.8462 14.9313C46.2263 14.5982 45.75 14.2651 45.3248 14.219C44.8945 14.1728 43.66 13.6962 43.4705 13.5527C43.281 13.4092 42.948 13.2657 42.1848 13.0761C41.4216 12.8865 40.8069 12.6968 40.141 12.6968C39.4751 12.6968 38.7631 12.4098 38.0971 12.4098C37.4312 12.4098 36.7192 12.3125 36.0994 12.4098C35.4796 12.5072 34.8649 12.5072 34.2451 12.5072C33.6253 12.5072 33.2924 12.4611 32.483 12.5533C31.6737 12.6507 31.1973 12.6968 30.6748 12.8865C30.1524 13.0761 28.8666 13.2657 28.4876 13.3631C28.1085 13.4605 26.9201 13.6962 26.8228 13.8858C26.7255 14.0755 25.2042 15.0287 25.2042 15.0287" fill="#6C822F"/>
<path d="M26.6845 55.7622C26.5872 55.6187 26.4489 55.4752 26.162 55.4752C25.8752 55.4752 25.4961 55.3778 25.3066 55.4752C25.1171 55.5726 25.0197 55.5213 24.6868 55.6187C24.3538 55.7161 23.9748 55.5213 24.067 55.8545C24.1643 56.1876 24.3026 56.4746 24.7329 56.7103C25.1632 56.9461 25.1119 57.0896 25.6344 57.2792C26.1569 57.4688 26.4899 57.4227 27.0123 57.5662C27.5348 57.7097 29.7733 58.8013 30.1524 58.8526C30.5314 58.8987 30.9156 58.95 31.6737 59.0422C32.4369 59.1396 33.9071 59.2318 34.4347 59.3292C34.9571 59.4266 35.4796 59.4266 36.0021 59.4266C36.5246 59.4266 37.9998 59.3805 38.4762 59.3805C38.9526 59.3805 40.2844 59.0012 40.52 58.95C40.7557 58.8987 43.66 58.4272 43.8035 58.4272C43.9469 58.4272 45.038 57.761 45.2326 57.761C45.4273 57.761 45.9446 57.474 46.1341 57.4278C46.3237 57.3817 46.9896 56.859 47.3225 56.7155C47.6555 56.572 48.1319 56.3823 48.178 56.2388C48.2241 56.0953 48.4136 55.67 48.2241 55.6187C48.0345 55.5726 47.1279 55.4291 46.9896 55.4291C46.8513 55.4291 46.4671 55.2856 46.1341 55.4291C45.8012 55.5726 45.3709 55.4752 45.038 55.7161C44.705 55.9518 43.8035 56.3362 43.3732 56.5258C42.9429 56.7155 41.3294 57.0947 40.853 57.146C40.3766 57.1921 39.4751 57.2433 38.7579 57.3356C38.0459 57.433 37.8052 57.433 37.1393 57.5252C36.4734 57.6226 36.5707 57.5252 35.7614 57.5713C34.952 57.6175 35.2389 57.6175 34.0966 57.5713C32.9543 57.5252 32.6674 57.3356 32.145 57.2843C31.6225 57.2382 31.5252 56.9973 30.9105 56.9973C30.2958 56.9973 28.7232 56.285 28.5798 56.3311C28.4364 56.3772 26.6794 55.7622 26.6794 55.7622" fill="#6C822F"/>
<path d="M71.9662 35.9592C71.9662 35.9592 71.9048 32.5665 71.8382 32.218C71.7767 31.8695 71.5821 30.824 71.5821 30.5985C71.5821 30.373 71.075 27.4261 70.8854 27.0468C70.6959 26.6676 70.5986 25.9347 70.4756 25.5555C70.3476 25.1762 69.8712 24.1256 69.779 23.9052C69.6817 23.6848 69.5587 23.239 69.5587 23.239C69.5587 23.239 69.3999 23.0493 68.9902 22.952C68.5804 22.8546 68.483 22.7931 68.2628 22.952C68.0425 23.1108 67.8171 23.1108 67.7557 23.3978C67.6942 23.6848 67.4688 23.6182 67.5354 24.0795C67.5969 24.5407 67.4739 24.8277 67.6327 25.1762C67.7915 25.5247 68.0425 26.191 68.1091 26.3806C68.1757 26.5702 68.0476 26.191 68.5189 27.3338C68.9953 28.4767 69.2155 30.3781 69.2155 30.5062C69.2155 30.6343 69.1541 31.0136 69.277 31.4595C69.4051 31.9053 69.5946 31.9668 69.5946 32.6331C69.5946 32.9303 69.5895 33.1353 69.5895 33.325C69.359 33.2686 69.1182 33.2327 68.8672 33.2327C68.0835 33.2327 67.3715 33.53 66.8336 34.0168C66.4904 31.9361 65.635 30.3268 63.9088 29.9425C63.8422 29.9015 63.75 29.8605 63.6834 29.7785C64.0368 27.9232 65.1125 26.2115 65.6145 24.6176C65.8706 23.8027 66.8336 22.2293 67.6737 22.2293C67.9964 22.2293 68.2525 21.8193 68.2525 21.4452C68.2525 21.0352 67.8632 20.9071 67.351 20.9071C67.1256 20.9071 66.8695 20.9481 66.6134 20.9481C65.4557 20.9481 64.1341 20.82 62.9509 20.7431C62.8331 20.7328 62.705 20.6867 62.5769 20.6867C62.4489 20.6867 62.2286 20.656 62.1159 20.656C61.3732 20.656 61.4039 21.3837 61.4347 21.5272C61.4654 21.6707 61.5115 22.132 61.9418 22.3062C62.1774 22.4036 62.244 22.3677 62.2901 22.419C62.3362 22.4702 62.6999 22.5471 62.7511 22.5932C62.9714 22.8136 63.1353 23.2492 63.0072 23.7207C62.874 24.2025 62.1006 26.5958 62.1006 26.5958L61.7983 27.1545L61.1273 28.7432C61.1273 28.7432 60.8251 29.0866 60.7585 29.2608C60.6919 29.4351 60.4563 29.7323 60.3231 29.8605C60.1899 29.9886 59.9184 29.9886 59.7187 29.9476C59.5189 29.9066 59.4523 29.6042 59.4523 29.4761C59.4523 29.348 59.5189 28.1026 59.5189 28.1026C59.4523 26.9085 59.2781 22.9315 59.2781 22.9315C59.3242 22.7213 59.606 22.501 59.816 22.4548C60.0209 22.4087 60.2463 22.0448 60.277 21.8347C60.3077 21.6297 60.3231 21.2453 60.277 21.107C60.2309 20.9686 60.0055 20.82 59.8826 20.7738C59.7596 20.7277 59.2935 20.5842 59.1859 20.5996C59.0732 20.615 58.0898 20.5688 58.0283 20.5842C57.9668 20.5996 57.4085 20.5688 57.3009 20.5842C57.1882 20.5996 56.3789 20.615 56.3789 20.615C56.3789 20.615 55.0624 20.6918 54.9702 20.6765C54.8729 20.6611 54.0687 20.6457 53.9714 20.6457C53.874 20.6457 53.3516 20.6918 53.0698 20.6765C52.783 20.6611 51.9429 20.6765 51.9429 20.6765L50.8314 20.7226C50.8314 20.7226 49.4381 20.6918 49.1051 20.6765C48.9873 20.6765 48.8746 20.6867 48.7619 20.6918C48.7414 20.6816 48.7209 20.6765 48.7107 20.6765C48.6646 20.6765 48.1421 20.656 47.5991 20.6355C47.3481 20.6252 47.0972 20.615 46.8871 20.6098C46.8359 20.5688 46.7796 20.5432 46.7232 20.5432C46.2724 20.5432 45.8217 20.7892 45.3402 20.7892C44.956 20.7892 44.536 20.6662 44.1518 20.6662C43.8291 20.6662 43.5422 20.7072 43.2503 20.7072C43.0556 20.7072 42.8353 20.6252 42.6407 20.6252C42.3538 20.6252 42.1285 21.0096 42.1285 21.6246C42.1285 21.8296 42.1643 21.9628 42.4512 22.0346C42.8353 22.132 43.0146 22.8187 42.8814 23.2236C42.7483 23.6233 42.0772 25.3402 42.0772 25.3402C42.0772 25.3402 41.6316 26.2012 41.4984 26.3703C41.3652 26.5395 41.0989 26.9443 41.0067 27.3441C40.9196 27.7438 40.6942 28.0872 40.6481 28.3178C40.602 28.5485 40.5149 28.8918 40.4227 29.061C40.3356 29.2352 40.0641 29.7477 39.8849 29.9783C39.7056 30.209 39.1267 29.9783 39.0345 29.7477C38.9475 29.5171 38.5428 28.7176 38.4096 28.3178C38.2764 27.9181 37.6515 27.1186 37.5183 26.7137C37.3851 26.314 37.1598 25.7963 36.8934 25.3966C36.8934 25.3966 36.627 24.3665 36.4938 24.1922C36.3607 24.0231 36.0943 23.0493 36.0943 22.706C36.0943 22.3626 36.9856 22.132 37.17 21.722C37.17 21.312 36.9139 20.5996 36.5912 20.5996C36.1404 20.5996 35.6896 20.8456 35.2081 20.8456C34.824 20.8456 34.4039 20.7226 34.0197 20.7226C33.8814 20.7226 33.7534 20.7328 33.6202 20.738C33.2616 20.7175 32.9031 20.697 32.5599 20.6867C32.5445 20.6867 32.524 20.6816 32.5035 20.6816C32.4984 20.6816 32.4933 20.6816 32.4882 20.6867C31.7915 20.6611 31.1666 20.6816 30.767 20.8507C30.7004 20.8815 30.6441 20.9071 30.5878 20.9378C30.5263 20.943 30.4648 20.9583 30.3982 20.9583C30.0141 20.9583 28.8052 20.7431 28.421 20.7431C28.0983 20.7431 27.8114 20.7841 27.5195 20.7841C27.4016 20.7841 27.2736 20.7585 27.1506 20.7328C27.0841 20.6918 27.0072 20.6662 26.9253 20.6662C26.3772 20.6662 25.8342 20.7482 25.2861 20.7482C24.9327 20.7482 24.5485 20.7072 24.1592 20.7072C24.0004 20.7072 23.8057 20.7072 23.6469 20.7892C23.1962 20.7892 22.7147 20.7072 22.2946 20.7072C21.9105 20.7072 21.2036 20.6252 21.2036 21.3273C21.2702 21.7373 22.4586 21.9885 22.4586 23.3056C22.4586 25.0327 21.7824 26.806 21.557 28.4152C21.3316 30.0245 20.8809 31.4646 20.6555 33.0277C20.6555 34.0168 20.2713 34.883 20.2713 35.8721V36.3231C20.2713 39.7005 19.3698 41.2687 19.3083 42.2988C19.3083 43.001 18.8268 44.0721 18.5707 44.0721C18.0584 44.0721 17.8945 40.8587 17.7972 40.3616C17.6384 38.5883 17.3464 36.5691 16.8035 34.842C16.7727 34.76 16.7369 34.637 16.7369 34.514V34.35C16.7369 33.6478 16.4449 33.0328 16.4449 32.3307C16.4449 32.1667 16.4756 32.0027 16.4756 31.8797C16.4756 31.0956 16.0915 30.5216 16.0915 29.8195C16.0915 27.7592 15.318 25.781 15.2258 23.6387C15.1592 22.4446 14.8723 20.5893 13.3612 20.5893C12.849 20.5893 12.3982 21.4965 12.3982 21.7835C12.3982 23.4747 12.849 25.0378 13.0744 26.7291C13.141 27.4312 13.3664 28.0052 13.4586 28.7483C13.6839 30.7676 14.232 32.9918 14.5855 35.0111C14.6828 35.5492 14.8416 36.0822 14.8416 36.6203C14.8416 36.9073 14.6828 37.1995 14.6828 37.4865C14.6828 37.6505 14.7135 37.7325 14.7135 37.8145C14.7135 39.0496 13.8479 39.9567 13.8479 40.7818C13.8479 40.9048 13.8786 41.0278 13.8786 41.1508C13.8786 41.935 13.1051 43.9952 12.9463 44.3232C12.849 44.6102 12.6544 44.6922 12.4341 44.6922C12.2138 44.6922 11.9833 43.8671 11.9833 43.3341C11.9833 43.1291 12.0499 42.9241 12.0499 42.673C12.0499 41.3968 11.2764 39.8286 11.2764 38.4705C11.2764 38.2655 11.343 38.0553 11.343 37.8503C11.343 37.4403 10.9588 37.1892 10.9588 36.6972C10.9588 36.5332 10.9896 36.3282 10.9896 36.1591C10.9896 35.6261 10.5388 35.416 10.5081 34.842C10.4108 33.6068 9.99584 32.5767 9.95998 31.3006C9.89339 29.2403 9.15577 27.3031 9.05845 25.2018C9.02771 24.3767 8.80233 23.5926 8.73574 22.7726C8.73574 22.0705 9.33506 21.8091 9.78582 21.7271C10.1085 21.6451 10.0829 21.0813 10.0829 20.7943C10.0829 20.6713 9.9856 20.5483 9.88827 20.5483C9.69362 20.5483 9.50409 20.6303 9.27871 20.6303H8.73062C8.40791 20.6303 8.0852 20.7123 7.76761 20.7123H6.73801C6.15919 20.7123 5.60597 20.6252 5.06812 20.5483C4.45856 20.4612 3.69533 20.6252 3.69533 21.1582C3.69533 21.4452 4.3305 21.8245 4.77103 21.886C6.83022 22.132 6.44604 26.068 6.86607 26.847C6.89681 26.929 6.89681 27.011 6.89681 27.134C6.99413 28.6612 7.28099 30.4703 7.70102 31.9976C7.95714 32.9867 7.73175 34.637 8.40791 35.416C8.46937 35.498 8.69476 36.7331 8.69476 37.2712V37.4762C8.69476 38.1783 9.07894 39.0855 9.11479 39.9465C9.18138 42.0067 9.91901 44.272 10.4005 46.4962C10.7335 47.6083 11.0459 48.8127 11.302 49.5097C11.5582 50.2067 11.968 50.9703 12.1267 51.16C12.2855 51.3496 12.9156 51.9236 13.6174 51.6058C14.0579 51.406 15.6765 44.436 15.9941 44.436C16.409 46.7012 16.8957 48.9255 17.2133 51.1907C17.244 51.5597 17.8228 51.5597 18.1455 51.5597C18.5297 51.5597 19.0061 51.5905 19.3954 51.4931L21.1421 51.5187C21.1421 51.5187 21.178 51.5341 21.1882 51.5341H23.0528C23.2115 51.5341 23.4062 51.6571 23.565 51.6571C23.8877 51.6571 24.2411 51.4931 24.5587 51.4931C24.7841 51.4931 24.7944 51.4931 25.0197 51.4931C25.6293 51.4931 25.7369 51.1651 25.4961 50.6833C25.3066 50.3041 24.8814 50.545 24.8814 49.5968C24.8814 49.3098 24.8763 49.0177 24.9122 48.7307C25.0607 47.6596 25.3527 46.1477 25.6088 44.9228C26.0186 43.4981 26.874 43.4622 26.874 43.4622C26.874 43.4622 27.4119 43.4212 27.5758 43.3751C27.7448 43.3341 27.8422 43.3341 28.1444 43.1598C28.4466 42.9907 28.4108 43.0727 28.7488 42.9446C29.0818 42.8165 29.5172 42.6883 29.6862 42.6012C29.8553 42.5141 30.4238 42.345 31.1922 42.1297C31.6225 42.0118 31.8427 42.1656 31.981 42.4833C32.1808 43.4725 32.3294 44.1848 32.3652 44.3027C32.8109 45.8505 33.1438 48.1823 33.2668 48.9613C33.5485 50.7397 31.8837 49.5405 31.8837 50.8576C31.8837 51.2676 32.1398 51.6827 32.4625 51.6827C32.9133 51.6827 33.3641 51.4367 33.8456 51.4367C34.2298 51.4367 34.6498 51.5597 35.034 51.5597C35.2491 51.5597 35.4489 51.5443 35.6435 51.529L37.001 51.652C37.0727 51.7032 37.1546 51.7391 37.2417 51.7391C37.3493 51.7391 37.4569 51.7237 37.5644 51.7032H37.5849C37.923 51.6315 38.2611 51.4982 38.6196 51.4982C39.0038 51.4982 39.4238 51.6212 39.808 51.6212C40.1307 51.6212 40.4176 51.5802 40.7096 51.5802C40.9042 51.5802 41.6726 51.6673 41.8672 51.6673C41.9543 51.6673 41.985 51.6571 41.985 51.6315H43.5986C43.7574 51.6315 43.952 51.7545 44.1108 51.7545C44.4335 51.7545 44.787 51.5905 45.1045 51.5905H45.8114C46.421 51.5905 46.5491 51.3445 46.5491 50.8063C46.5491 50.3963 45.4221 50.6423 45.4221 49.6942C45.4221 49.4072 45.5502 48.7 45.5912 48.4181C45.7244 47.4648 45.9702 46.158 46.2059 45.0151C46.4517 44.2258 46.8205 44.1592 46.8205 44.1592C46.8205 44.1592 47.7938 43.5596 48.0243 43.4725C48.2599 43.3853 48.6953 43.4315 49.0949 43.3443C49.4944 43.2572 49.4637 43.2162 49.7659 43.1291C50.0681 43.042 50.5701 42.7857 50.5701 42.7857C50.5701 42.7857 51.3385 42.6166 51.7739 42.4833C52.1478 42.3706 52.5269 42.0733 52.7522 42.6012C52.9059 43.3597 53.0186 43.8876 53.0493 43.9952C53.495 45.5378 53.8279 47.8697 53.9509 48.6538C53.8997 48.9562 53.8279 49.2637 53.5411 49.4328C53.2542 49.5968 53.1364 50.3861 53.5667 50.9293C53.8433 51.283 54.3709 51.2163 54.8524 51.2163C55.2366 51.2163 55.3339 51.2471 55.7232 51.2471C55.7898 51.2471 55.8462 51.242 55.9076 51.2368C56.1125 51.3496 56.4506 51.2625 56.9065 51.242C57.0192 51.2625 57.1319 51.2881 57.2343 51.2881C57.306 51.2881 57.3777 51.283 57.4392 51.2625C57.4392 51.2625 59.5086 51.3547 59.6674 51.2266C59.8262 51.0985 60.0465 50.9088 60.0465 50.9088C60.0465 50.9088 60.3641 50.2733 60.3333 50.1145C60.3026 49.9556 60.1285 49.6378 59.9697 49.5456C59.8109 49.4482 59.4472 49.069 59.2781 48.8076C59.2781 47.8185 59.4062 46.9113 59.4062 45.9632C59.4062 45.3021 59.3089 44.6461 59.3089 44.026V43.2828C59.3089 42.2937 59.2474 41.3456 59.2474 40.3975C59.2474 39.0803 59.4062 37.8042 59.4062 36.482C59.4062 35.1597 59.1911 34.8676 59.2525 33.5915C59.2884 32.8637 59.6879 32.259 60.3231 32.3051C61.5422 32.3871 64.129 33.0328 64.129 34.9701C64.129 35.5031 64.339 35.8003 64.339 36.2975C64.339 36.6665 64.4722 37.302 64.4722 37.671C64.4722 39.1111 64.6464 39.6953 64.6464 41.0996C64.6464 41.4686 64.6156 41.8427 64.6156 42.2117C64.6156 42.6627 64.713 43.1598 64.713 43.5698C64.713 44.436 64.5183 45.3021 64.421 46.2502C64.3288 47.1676 64.2725 48.2336 64.2263 48.4027C64.1802 48.5667 63.75 49.233 63.5143 49.3765C63.2787 49.52 62.874 49.6635 62.6589 49.7352C62.4438 49.807 62.1569 49.807 62.0186 49.8326C61.8752 49.8582 61.5883 50.094 61.4142 50.4681C61.3476 50.6167 61.4756 50.9447 61.4756 51.1036C61.4756 51.2625 61.7625 51.2932 61.8547 51.324C61.952 51.3547 62.1723 51.3547 62.6487 51.3701C62.9355 51.3803 64.4517 51.447 64.4517 51.447C64.4825 51.447 64.5183 51.447 64.5491 51.447C65.384 51.4572 66.2189 51.611 67.0846 51.611C67.5047 51.611 68.0784 51.652 68.0784 51.078C68.0784 50.791 67.9196 50.5398 67.7249 50.3348C67.1461 50.0478 67.0488 48.7256 67.0488 47.9466C67.0488 47.0805 67.1768 46.2553 67.1768 45.3943C67.1768 43.7492 67.1461 42.14 67.1461 40.4897C67.1461 39.7927 67.1205 39.27 67.0898 38.7677C67.5866 39.1265 68.1962 39.3366 68.857 39.3366C69.1336 39.3366 69.3999 39.2956 69.6509 39.229C69.6304 39.7876 69.6202 40.1873 69.6202 40.2283C69.6202 40.3565 69.3999 41.5608 69.4307 41.7197C69.4614 41.8786 68.734 44.3847 68.6367 44.7947L68.2576 45.871C68.2576 45.871 68.2577 46.0298 68.1962 46.281C68.1347 46.5372 67.9401 46.6602 67.9093 46.9165C67.8786 47.1676 67.7813 47.6442 67.812 47.8697C67.8427 48.0901 67.7505 48.126 67.8427 48.3156C67.9401 48.5052 68.063 48.6333 68.1296 48.7922C68.1911 48.9511 68.3191 49.11 68.5086 49.1715C68.6982 49.233 68.8109 49.315 69.1182 49.1253C69.6868 48.7768 69.3948 48.9203 69.8097 48.3822C70.2195 47.8441 70.3476 46.6397 70.5371 46.3527C70.7266 46.0657 70.8547 45.748 70.9469 45.1791C71.0442 44.6102 70.9776 44.2566 71.1057 43.6262C71.2337 42.9907 71.2645 42.8985 71.3567 41.7248C71.454 40.5512 71.9919 38.2962 71.9919 37.4762C71.9919 36.6562 71.9611 35.9848 71.9611 35.9848M26.1467 28.9072C25.9674 30.4498 25.2554 34.4012 25.03 35.1443C24.8046 35.8875 24.5843 37.0303 24.4051 37.835C24.2258 38.6345 23.7801 40.295 23.734 41.2687C23.6879 42.2425 22.4534 46.7883 22.3561 47.4905C22.31 47.8338 22.2639 48.2336 22.1922 48.6282C21.89 49.3713 21.5314 50.0478 20.9884 49.8941C20.7374 49.8275 20.3789 49.6635 20.2816 49.2176C20.3994 48.0132 20.4608 46.8088 20.7887 45.9888C21.1421 45.0817 21.1421 43.7236 21.4648 43.0625C21.8849 42.2783 21.7209 41.2482 21.9771 40.4231C22.2024 39.639 22.2998 38.8548 22.2998 38.0348V37.8298C22.2998 36.7177 23.0067 35.8106 23.0067 35.0675V34.9445C23.0067 34.2833 23.3294 33.7093 23.4267 33.0072C23.5855 31.8951 23.7494 30.701 24.1336 29.6708C24.2002 29.5068 24.2002 29.3428 24.2002 29.1327C24.2616 27.8976 24.5536 26.7035 24.7483 25.4683C24.779 25.1813 25.0044 24.9712 25.0044 24.6842C25.0044 24.2691 25.0863 23.8437 25.2195 23.444C25.7061 22.5625 27.0687 22.0141 27.3607 23.608C27.376 23.8847 27.3607 24.1666 27.3043 24.4331C27.0789 25.4632 26.3208 27.3492 26.1415 28.897M30.5109 39.2956C30.4085 39.3366 29.8399 39.639 29.5735 39.7671C29.3072 39.8952 29.3738 39.8952 29.0049 40.0695C28.7591 40.1822 28.5917 40.254 28.503 40.2847C28.3698 40.3257 27.499 40.5 26.997 40.541C26.7511 40.5615 26.6743 40.4077 26.6743 40.1515C26.7255 39.885 26.7716 39.6236 26.8177 39.3776C27.0431 38.1168 27.0431 37.3173 27.3965 36.2308C27.7551 35.1443 27.7551 34.1142 27.9753 33.2532C28.2007 32.3973 28.421 30.9623 28.6003 30.3371C28.7796 29.7067 28.7796 28.938 29.0459 29.1532C29.3123 29.3685 29.3584 29.4248 29.4916 30.0552C29.6248 30.6856 29.9833 33.776 30.2497 34.4627C30.3573 34.7446 30.7107 36.3846 31.1 38.245C31.1 38.2808 31.1 38.3116 31.1102 38.3526C31.2434 39.1265 30.6082 39.2546 30.5058 39.2956M38.0306 48.618C38.0203 48.6641 38.0152 48.7153 38.0101 48.782C37.9435 49.8531 37.2724 50.1555 36.7705 50.1145C36.2992 50.0735 35.9765 49.5353 35.7153 48.618C35.5104 47.7006 35.4079 46.7473 35.3772 46.5321C35.162 45.1637 34.8957 43.7902 34.7164 42.9907C34.5371 42.1912 34.0454 40.2437 33.8661 39.27C33.6868 38.2962 33.2873 36.6921 33.1541 35.662C33.0209 34.6318 32.2167 31.2545 32.1296 30.6856C32.0425 30.1116 31.6378 27.3082 31.3715 26.3345L31.2383 25.4735C31.1563 24.7816 31.018 24.2127 30.9771 23.7053C31.0436 22.7008 32.3499 22.2652 32.9236 22.9827C33.3641 23.7617 33.6663 24.6227 33.7944 24.9866C33.9736 25.4991 35.7153 29.5068 35.7153 29.5068C35.7153 29.5068 36.6526 31.1673 36.6987 31.3365C36.7448 31.5107 37.0983 32.5972 37.1905 32.7663C37.2776 32.9406 37.7693 34.2372 37.8359 34.7907C37.9025 35.3442 37.6361 36.7741 37.6771 37.0611C37.7232 37.3481 37.8564 39.6953 37.8564 41.0688C37.8564 42.4423 37.9435 43.4725 37.9435 43.9901C37.9435 44.5077 38.1228 45.7633 38.1228 46.2195C38.1228 46.6038 38.0408 47.8287 38.0357 48.618M45.7244 34.8266C45.499 35.5697 45.2787 36.7126 45.0994 37.5172C44.9201 38.3167 44.4745 39.9772 44.4284 40.951C44.3823 41.9247 43.1478 46.4706 43.0505 47.1727C42.989 47.6083 42.9071 48.2182 42.7585 48.7973C42.318 50.4886 40.7198 49.1663 40.6891 48.2233C40.6891 48.2233 40.6788 48.2387 40.6737 48.2541C40.6276 47.3008 40.6327 46.1016 40.6635 45.6455C40.7096 45.0151 40.7557 42.386 40.7557 41.8683C40.7557 41.3507 40.8018 40.6691 40.8018 40.0387C40.8018 39.4083 40.8018 38.7216 40.7557 38.1476C40.7096 37.5736 40.5764 36.8305 40.6635 36.5435C40.7557 36.2565 40.7966 34.596 41.6008 32.9355C42.4051 31.275 44.2799 26.8675 44.5462 26.2986C44.8126 25.7246 45.5758 24.1256 45.5758 24.1256C45.6783 23.8283 45.7858 23.5875 45.8934 23.3927C46.6617 22.2601 47.7221 22.9878 47.8911 24.5612C47.594 25.6323 46.9998 27.2365 46.841 28.5792C46.6617 30.1218 45.9497 34.0732 45.7244 34.8163M51.6407 39.8132C51.3385 39.9875 51.3385 39.9003 51.3385 39.9003C51.3385 39.9003 50.9697 40.1156 50.8006 40.1566C50.6316 40.1976 50.4011 40.2437 50.232 40.2847C50.063 40.3257 49.8632 40.4128 49.7608 40.459C49.6635 40.5 49.4586 40.5461 49.2588 40.6281C49.059 40.7152 49.0232 40.7562 48.9258 40.8023C48.8234 40.8433 48.1216 41.0586 47.553 41.2328C47.2406 41.3251 47.1842 41.0073 47.215 40.6025C47.3225 40.0797 47.425 39.5416 47.5069 39.065C47.7272 37.8042 47.7272 37.0047 48.0858 35.9182C48.4443 34.8317 48.4443 33.8016 48.6646 32.9406C48.89 32.0796 49.1102 30.6497 49.2895 30.0245C49.4688 29.3941 49.4688 28.6253 49.7352 28.8355C50.0015 29.0507 50.0476 29.1071 50.1808 29.7375C50.314 30.3678 50.6726 33.4582 50.9389 34.145C51.0567 34.4525 51.4665 36.3795 51.8968 38.45C51.8866 38.491 51.8814 38.5422 51.8968 38.614C52.03 39.1726 51.9275 39.6441 51.6304 39.8132M56.7938 46.2861C56.7938 46.486 56.8092 46.6858 56.8245 46.8908C56.7579 48.0388 56.2252 47.3265 56.0971 46.2912V46.322C56.0869 46.2758 56.0818 46.2348 56.0767 46.2092C55.8666 44.8408 55.5952 43.4673 55.4159 42.6678C55.2366 41.8683 54.7448 39.9208 54.5656 38.9471C54.3863 37.9733 53.9867 36.3692 53.8536 35.3391C53.7204 34.309 52.9162 30.9316 52.824 30.3627C52.7369 29.7887 52.3322 26.9853 52.0658 26.0116L51.9327 25.1557C51.9071 24.9353 51.8763 24.7508 51.8405 24.5817C51.5997 23.7207 51.9071 23.2543 52.0044 23.1621C52.1017 23.0698 52.45 22.9417 52.5934 22.9263C52.7369 22.911 53.4335 22.7521 53.495 22.7213C53.5565 22.6906 55.0317 22.706 55.0317 22.706C55.0317 22.706 55.3339 22.706 55.4773 22.7213C55.6208 22.7367 55.9076 22.7213 55.9691 22.7213C56.0306 22.7213 56.2406 22.8341 56.3174 22.8648C56.3942 22.8956 56.5889 23.1211 56.6504 23.2133C56.7118 23.3107 56.7118 23.5926 56.7118 23.7053C56.7118 23.8181 56.7579 24.1153 56.7272 24.2383C56.717 24.2845 56.7426 24.3767 56.7426 24.4895C56.7374 24.5305 56.7272 24.5766 56.7272 24.6176C56.7272 24.7201 56.7323 24.8226 56.7374 24.9302C56.7374 25.1198 56.7272 25.2685 56.7272 25.2685C56.7272 25.2685 56.7374 25.2685 56.7528 25.2685C56.7887 25.7912 56.8553 26.3191 56.8553 26.8418C56.8553 27.421 56.6299 27.995 56.6299 28.5331C56.6299 28.9841 56.7887 29.6042 56.7887 30.1372C56.7887 30.7163 56.7272 31.2903 56.7272 31.8285C56.7272 32.8996 56.9526 34.1347 56.9526 35.1238C56.9526 36.113 56.7579 37.0201 56.7579 38.0092C56.7579 38.6703 56.8245 39.3263 56.8245 40.0285C56.8245 40.4795 56.7579 40.8946 56.7579 41.3456C56.7579 42.2117 56.9833 43.1188 56.9833 44.026C56.9833 44.7691 56.7887 45.5481 56.7887 46.2912M68.857 37.4147C68.2269 37.4147 67.7147 36.9022 67.7147 36.2718C67.7147 35.6415 68.2269 35.129 68.857 35.129C69.487 35.129 69.9993 35.6415 69.9993 36.2718C69.9993 36.9022 69.487 37.4147 68.857 37.4147Z" fill="#6C822F"/>
<path d="M22.4381 19.508H26.956C26.956 19.508 32.9953 19.3645 33.1387 19.3645C33.2821 19.3645 34.7061 19.4618 34.7061 19.4618H38.7989C38.9423 19.4618 44.3157 19.5592 44.6948 19.508C45.0738 19.4618 54.8217 19.508 55.1598 19.4926C58.0129 19.3337 56.2047 17.622 56.174 17.4938C56.1432 17.3657 55.8257 17.0172 55.6976 16.8583C55.5695 16.6995 55.3185 16.2895 55.2212 16.2228C55.1239 16.1613 54.6526 15.4592 54.6526 15.4592C54.6526 15.4592 53.7306 14.6033 52.9059 13.9371C52.701 13.8448 49.9554 11.9998 49.7659 11.841C49.5764 11.6821 48.5621 11.2721 48.306 11.0466C48.0499 10.8262 45.4836 9.84221 45.2941 9.77558C45.1045 9.71408 43.3937 9.20671 42.948 9.14008C42.5024 9.07858 41.2372 8.66346 40.8222 8.57121C40.4125 8.47383 39.9668 8.38158 39.7773 8.35083C39.5878 8.32008 34.45 8.09458 34.3578 8.13046C34.2656 8.16633 32.4574 8.28933 32.0425 8.41746C31.6327 8.54558 29.3481 9.02221 29.1279 9.08371C28.9076 9.14521 28.2725 9.30408 27.8268 9.52958C27.3812 9.74996 23.6418 11.0825 23.4523 11.0825C23.2628 11.0825 22.9759 11.431 22.6891 11.5591C22.4022 11.6872 19.4876 13.8141 18.9805 14.0037C18.4734 14.1933 18.3504 14.5777 18.2531 14.7007L17.6845 15.5105C17.3977 16.0076 16.4705 16.9865 16.4705 16.9865C16.0915 17.2735 15.8046 17.5553 15.2565 17.6527C15.067 17.6835 14.2577 17.6066 14.1142 17.4631C13.9708 17.3196 13.9708 17.13 13.9708 16.843C13.9708 16.556 14.2577 16.3663 14.2577 16.3663L14.606 16.064C14.7955 15.8436 15.0158 15.5873 15.2104 15.3977C15.3999 15.2081 16.1324 14.5726 16.1324 14.5726C16.1324 14.5726 17.623 13.112 17.7511 13.0197C17.8792 12.9223 18.3555 12.415 18.6731 12.2561C18.9907 12.0972 20.2252 11.2413 20.3225 11.1798C20.4199 11.1183 22.2895 10.0677 22.4176 10.0062C22.5456 9.94471 23.0835 9.74996 23.3703 9.62696C23.6572 9.49883 24.1643 9.30921 24.3231 9.27846C24.4819 9.24771 24.8917 8.80183 25.3066 8.64296C25.7164 8.48408 26.3208 8.35596 26.6691 8.26371C27.0175 8.16633 27.9395 7.75633 27.9395 7.75633C27.9395 7.75633 30.347 6.99271 30.5417 6.96196C30.7312 6.93121 30.6031 6.86458 31.4637 6.83383C32.3191 6.80308 32.3499 6.70571 32.7648 6.67496C33.1746 6.64421 33.3026 6.64421 33.5895 6.61346C33.8763 6.58271 33.9685 6.55196 34.4756 6.55196C34.9827 6.55196 35.1108 6.45458 35.4284 6.49046C35.746 6.52121 35.6845 6.45971 36.1558 6.49046C36.6322 6.52121 37.4569 6.55196 37.5491 6.55196C37.6413 6.55196 41.1296 6.90046 41.2269 6.93121C41.3242 6.96196 41.8928 7.18746 42.1797 7.24896C42.4665 7.31046 43.5422 7.46933 43.8598 7.56671C44.1774 7.66408 45.1916 7.94596 45.3197 7.97671C45.4478 8.00746 46.0471 8.16633 46.2059 8.32521C46.3647 8.48408 47.5684 8.77108 47.7887 8.89408C48.0089 9.02221 48.7107 9.30408 48.9002 9.40146C49.0898 9.49883 50.8006 10.4162 50.8006 10.4162L51.5946 10.9236C51.5946 10.9236 52.7983 11.8102 53.1467 11.9691C53.495 12.128 54.0994 12.538 54.289 12.7327C54.4785 12.9223 54.8934 13.2913 55.1444 13.399C55.59 13.5886 55.9691 13.9063 55.9691 13.9063C56.4762 14.4137 57.1421 15.2081 57.1421 15.2081C57.1421 15.2081 57.8388 15.9051 57.9361 16.064C58.0334 16.2228 58.4739 16.6687 58.602 16.8276C58.73 16.9865 59.4574 17.5246 59.524 17.7142C59.5855 17.9038 59.8416 18.319 60.0619 18.442C60.2821 18.5701 60.5997 18.7905 60.948 19.0108C61.2963 19.2312 61.3578 19.2005 61.6754 19.3901C61.993 19.5797 63.1353 19.8001 64.59 19.6925C64.7847 19.6771 66.2087 19.5797 66.2087 19.5797L67.0641 19.549L67.2998 19.1697L67.2024 18.1703C67.2024 18.1703 66.2497 16.884 65.9833 16.5047C65.6043 15.9717 65.4762 15.49 65.2559 15.1107C65.0357 14.7315 61.9571 11.3336 61.6395 10.857C61.322 10.3803 61.3834 10.2522 60.7175 9.78071C60.0516 9.30408 59.5752 8.73521 59.2884 8.50971C59.0015 8.28933 56.7528 6.79796 56.2457 6.44946C55.7386 6.10096 55.2622 5.78321 54.5348 5.40396C53.8075 5.02471 52.8854 4.23033 52.409 4.04071C51.9327 3.85108 51.7431 3.56408 50.8877 3.34371C50.0323 3.12333 49.4586 2.80558 49.018 2.67746C48.5724 2.54933 48.3521 2.29821 47.2406 1.91383C46.129 1.53458 43.8137 0.899083 42.9583 0.837583C42.1028 0.776083 41.944 0.776083 41.3396 0.678708C40.7352 0.581334 41.0528 0.581334 39.8183 0.422459C38.5838 0.263584 37.7591 0.232834 37.3134 0.135459C36.8678 0.0380835 36.9036 -0.0541665 35.9816 0.0380835C35.0596 0.135459 33.318 0.514709 32.4318 0.514709C31.5456 0.514709 30.055 0.612083 30.055 0.612083C30.055 0.612083 26.7562 1.40646 26.6282 1.46796C26.5001 1.52946 25.9315 1.75496 25.6754 1.81646C25.4244 1.87796 24.6612 2.16496 24.6612 2.16496C24.6612 2.16496 21.2036 3.43596 21.0448 3.52821C20.886 3.62558 19.7437 4.29183 19.5542 4.35333C19.3647 4.41483 18.4785 4.73258 18.2838 4.92221C18.0943 5.11183 17.2696 5.52696 17.1415 5.61921C17.0135 5.71146 12.7005 8.88896 12.6082 8.98121C12.5109 9.07858 11.466 9.55008 11.3738 9.74483C11.3328 9.82171 11.092 10.1651 10.8052 10.5495C10.754 10.5956 10.7078 10.6366 10.6566 10.6827C10.4261 10.9133 10.2417 11.1696 10.0983 11.4463C9.94974 11.6257 9.83193 11.7487 9.78582 11.7743C9.5963 11.8717 9.15065 12.0921 8.96112 12.4098C8.7716 12.7276 9.02259 12.7276 8.55133 13.2042C8.07495 13.6808 6.65094 15.5822 6.36408 15.9666C6.26163 16.105 5.95429 17.0121 5.85697 17.1095C5.75964 17.2068 5.47791 17.5553 5.38059 17.7757C5.28326 17.9961 5.03227 18.2216 5.00153 18.4112C4.9708 18.6008 4.74541 18.6982 4.90421 18.8878C5.063 19.0775 5.25253 19.3337 5.38059 19.426C5.50865 19.5182 5.63671 19.6822 5.8877 19.713C6.14382 19.7437 6.10796 19.8103 6.39482 19.713C6.68167 19.6156 7.02999 19.4618 7.21952 19.303C7.40905 19.1441 8.10569 17.6527 8.45401 17.1453C8.80233 16.638 8.96112 16.2587 9.27871 15.7513C9.35555 15.6283 9.76533 15.2081 10.3442 14.629C10.4364 14.7571 10.5388 14.8852 10.6566 14.998C10.9537 15.2952 11.3072 15.5258 11.6913 15.6745L11.215 16.3202L10.2622 17.7808C10.2622 17.7808 10.2161 18.2267 10.0266 18.4625C9.83705 18.6982 10.2622 18.9391 10.2622 18.9391C10.2622 18.9391 10.5952 19.2722 10.882 19.4157C11.1689 19.5592 12.0704 19.5131 12.3573 19.5592C12.6441 19.6053 13.1205 19.6053 13.2588 19.5592C13.3971 19.5131 13.8427 19.5592 13.8427 19.5592H14.6367C15.0414 19.5336 15.8968 19.5848 16.158 19.4875C16.4193 19.3901 17.4899 18.9647 18.1097 18.5342C18.1097 18.5342 18.3453 18.2985 18.4682 18.1293C18.5861 17.9653 18.9907 17.7706 19.1085 17.5348C19.2263 17.2991 19.4671 17.1761 19.5132 17.0377C19.5593 16.8993 20.0613 16.4893 20.133 16.4176C20.2047 16.3458 20.7989 15.654 20.8962 15.5873C20.9936 15.5156 21.849 14.9928 22.2742 14.6597C22.3817 14.5726 22.7044 14.2292 22.9145 14.1062C23.1654 13.9576 23.7699 13.6603 23.7699 13.6603L26.495 12.2305C26.495 12.2305 27.9856 11.7231 28.3647 11.7231C28.7437 11.7231 33.4717 10.6468 33.5639 10.611C33.6561 10.5751 36.0687 10.5495 36.3248 10.5136C36.5809 10.4828 37.5952 10.5751 38.1023 10.6417C38.6094 10.7032 39.6544 10.7698 40.0693 10.8621C40.4842 10.9543 44.3823 11.9383 44.3823 11.9383C44.3823 11.9383 47.7733 13.3016 47.9987 13.4605C48.2189 13.6193 49.1717 14.0652 49.4893 14.3163C49.8069 14.5675 50.7238 15.1158 50.9799 15.3003C50.9799 15.3003 52.532 16.4125 52.66 16.5713C52.7881 16.7302 52.9162 16.8583 52.9469 16.9813C52.9776 17.1095 53.203 17.6168 53.1364 17.7091C53.075 17.8065 52.7574 17.8372 52.5678 17.8372C52.3783 17.8372 51.9327 17.8372 51.7431 17.868C51.5536 17.8987 50.6982 17.8987 50.5086 17.868C50.3191 17.8372 49.6839 17.7398 49.1461 17.8065C48.8644 17.8423 47.9116 17.745 47.3225 17.6937H42.3282C42.3282 17.6937 38.8553 17.7398 38.1894 17.6937C37.8 17.6681 34.8598 17.7398 34.8598 17.7398C34.8598 17.7398 28.9127 17.6425 28.631 17.5963C28.3442 17.5502 26.0647 17.5963 25.3015 17.5502C24.5382 17.5041 22.8274 17.5963 22.018 17.5502C22.018 17.5502 21.8029 17.5758 21.6134 17.5758C21.4238 17.5758 21.2087 17.5297 21.0909 17.6015C20.9731 17.6732 20.7579 17.7655 20.6862 17.8372C20.6145 17.909 20.425 18.0012 20.3277 18.1242C20.2303 18.2472 20.1637 18.36 20.1125 18.5035C20.0664 18.647 19.9691 18.6931 20.0408 18.8622C20.1125 19.0313 20.0664 19.2671 20.302 19.3593C20.5377 19.4567 21.8695 19.4772 22.4432 19.5028M59.355 14.0755C59.0476 14.0755 58.7659 13.9576 58.5456 13.7423C58.1 13.2965 58.1 12.5738 58.5456 12.128C58.7608 11.9127 59.0476 11.7948 59.355 11.7948C59.6623 11.7948 59.944 11.9127 60.1643 12.128C60.3795 12.3432 60.4973 12.6302 60.4973 12.9377C60.4973 13.2452 60.3795 13.5322 60.1643 13.7475C59.9492 13.9627 59.6623 14.0806 59.355 14.0806M36.0123 2.13933C36.6424 2.13933 37.1546 2.65183 37.1546 3.28221C37.1546 3.91258 36.6424 4.42508 36.0123 4.42508C35.3823 4.42508 34.8701 3.91258 34.8701 3.28221C34.8701 2.65183 35.3823 2.13933 36.0123 2.13933ZM12.0038 12.0357C12.2189 11.8205 12.5058 11.7026 12.8131 11.7026C13.1205 11.7026 13.4022 11.8205 13.6225 12.0357C14.0681 12.4816 14.0681 13.2042 13.6225 13.6501C13.4073 13.8653 13.1205 13.9832 12.8131 13.9832C12.5058 13.9832 12.2241 13.8653 12.0038 13.6501C11.7887 13.4348 11.6709 13.1478 11.6709 12.8403C11.6709 12.5328 11.7887 12.251 12.0038 12.0306M29.8604 5.02471C29.4147 5.02471 29.1945 5.05546 28.9076 5.12208C28.6208 5.18358 27.6065 5.31171 27.5143 5.40908C27.417 5.50646 26.6282 5.81908 26.5001 5.94721C26.3721 6.07533 25.4551 6.35721 25.3271 6.39308C25.199 6.42383 23.0118 7.24896 22.6942 7.34633C22.3766 7.44371 21.8695 7.50521 21.68 7.63333C21.4904 7.76146 20.3174 8.51996 20.2201 8.61733C20.1228 8.71471 19.2059 9.15546 19.2059 9.15546C19.2059 9.15546 17.1108 10.6776 17.0186 10.7391C16.9213 10.8006 16.573 10.9953 16.3834 11.1183C16.2349 11.2208 15.7688 11.4156 15.5639 11.5591C15.4204 11.2465 15.2207 10.9492 14.9594 10.693C14.8723 10.6058 14.775 10.5238 14.6777 10.447C15.3846 9.77558 15.8866 9.29896 15.9378 9.24771C16.1273 9.05808 15.6509 8.83771 16.7625 8.45333C17.874 8.07408 20.3789 6.58271 20.7579 6.32646C21.137 6.07021 21.4546 5.75758 22.1512 5.53208C22.8479 5.31171 22.7864 5.31171 23.2269 5.15283C23.6726 4.99396 23.9236 5.05546 24.6202 4.70696C25.3168 4.35846 26.2081 3.91258 26.6794 3.82033C27.1558 3.72296 28.17 3.82033 28.5798 3.63071C28.9896 3.44108 31.0539 2.80558 31.561 2.74408C31.9093 2.69796 32.4011 2.62621 33.0414 2.57496C32.985 2.80046 32.9543 3.04133 32.9543 3.28221C32.9543 3.73321 33.0567 4.16371 33.236 4.54808C32.3447 4.69158 30.1985 5.02471 29.8501 5.02471M52.8137 9.05808C52.4654 8.89921 52.0505 8.70958 51.738 8.48921C51.4204 8.26883 51.2616 8.14071 50.7853 7.92033C50.3089 7.69996 49.2024 7.19258 48.8849 7.03371C48.5673 6.87483 47.8092 6.65446 47.553 6.49558C47.302 6.33671 45.0175 5.57308 44.8279 5.54233C44.6384 5.51158 43.9059 5.16308 43.7522 5.19383C43.5934 5.22458 39.5058 4.55833 39.3111 4.55833C39.1524 4.55833 39.0806 4.53783 38.8092 4.49171C38.9679 4.12271 39.0602 3.71783 39.0602 3.28733C39.0602 3.07721 39.0397 2.87221 38.9987 2.67233C39.096 2.67746 39.1575 2.68258 39.1575 2.68258C39.1575 2.68258 42.487 3.12846 42.738 3.18996C42.9941 3.25146 44.4489 3.50771 44.7972 3.63583C45.1455 3.76396 46.1598 4.01508 46.3493 4.11246C46.5388 4.20983 46.8257 4.33283 47.0767 4.36871C47.3277 4.39946 50.8518 5.92158 51.0414 5.98821C51.2309 6.04971 54.4016 7.85883 55.6413 8.81208C56.8757 9.76533 57.1626 10.0831 57.6082 10.4008C57.6185 10.4111 57.6339 10.4213 57.6441 10.4316C57.4904 10.5392 57.3419 10.6571 57.2036 10.7955C56.9116 11.0876 56.6913 11.4258 56.5428 11.7846C56.3686 11.6513 56.2098 11.5437 56.2098 11.5437C56.2098 11.5437 53.1672 9.22721 52.8188 9.06833M62.6282 17.704C62.0391 17.5297 61.409 16.9608 61.1529 16.6072C61.0505 16.4688 60.7739 16.1306 60.4716 15.7667C60.8507 15.6181 61.2042 15.3875 61.5012 15.0902C61.6652 14.9262 61.8086 14.7417 61.9264 14.5521C62.3208 15.0185 62.7921 15.5976 62.8279 15.6591C62.8894 15.7565 63.5553 16.7456 63.6526 16.8942C64.2059 17.7501 62.623 17.704 62.623 17.704" fill="#6C822F"/>
<path d="M52.783 52.5078C52.783 52.5078 47.553 52.6257 47.4096 52.6257C47.2662 52.6257 43.2503 52.5283 43.1785 52.554C43.1068 52.5796 34.3322 52.554 34.0249 52.5796C33.7175 52.6052 33.0721 52.554 32.7392 52.5796C32.4062 52.6052 23.9645 52.5335 23.8928 52.554C23.8211 52.5745 22.2024 52.4822 22.2024 52.4822L19.4671 52.6257H18.1353C18.1353 52.6257 15.779 52.5078 15.6868 52.5796C15.5895 52.6513 14.8775 52.9383 14.8775 52.9383L14.4267 53.4611V53.6763C14.3601 53.7532 14.5138 53.8711 14.7033 54.0402C14.7545 54.0863 14.8416 54.1735 14.9338 54.276L14.944 54.2965L15.3026 54.6757C15.5024 54.8961 15.6868 55.096 15.7431 55.1523C15.8712 55.2805 19.3595 58.3862 19.4825 58.4528C19.6105 58.5143 20.466 59.1498 20.717 59.3087C20.9731 59.4676 21.3829 59.8161 21.7619 60.0365C22.141 60.2568 24.108 61.1127 25.03 61.6867C25.952 62.2556 26.3311 62.3222 27.6322 62.6707C28.9332 63.0192 32.9594 63.7828 33.2104 63.8443C33.4665 63.9058 35.9048 63.9725 38.6965 63.8136C41.4882 63.6547 46.7181 61.9122 46.8154 61.8148C46.9127 61.7175 48.2753 61.3382 48.3368 61.2101C48.3982 61.082 52.0761 59.1498 52.0761 59.1498C52.0761 59.1498 53.203 58.4836 53.3464 58.3913C53.4899 58.294 54.4426 57.5611 54.5092 57.4637C54.5809 57.3663 55.0061 56.9615 55.0573 56.8692C55.0573 56.8692 55.3903 56.6078 55.462 56.5361C55.5337 56.4643 55.7949 56.1568 55.8666 56.039C55.9384 55.9211 56.343 55.5162 56.4352 55.4188C56.5274 55.3215 57.1472 55.014 57.2189 54.8961C57.2907 54.7782 58.0283 54.2298 58.0283 54.2298C58.0283 54.2298 58.4586 54.2042 58.5764 54.2042C58.6942 54.2042 59.0989 54.1786 59.1962 54.2042C59.2935 54.2298 59.4574 54.2503 59.5752 54.276C59.6931 54.3016 59.7904 54.3477 59.8621 54.4656C59.9338 54.5835 59.9799 54.727 59.9082 54.8243C59.8365 54.9217 59.7187 55.1318 59.6469 55.1831C59.5752 55.2343 59.6009 55.2548 59.3857 55.4188C59.1706 55.5828 58.7659 55.7776 58.7198 55.8493C58.6737 55.9211 57.9361 56.4182 57.9361 56.4182C57.9361 56.4182 57.2241 56.941 57.1985 57.0383C57.1728 57.1357 56.7221 57.4893 56.7221 57.4893L56.0818 58.1095C55.5593 58.417 54.9088 58.8372 54.6168 59.0935C54.6168 59.0935 52.5217 60.7437 52.0812 60.9333C51.6407 61.123 51.3846 61.4407 51.2565 61.5022C51.1285 61.5637 47.2918 63.501 47.1689 63.4702C47.0408 63.4395 45.4887 64.1672 44.9816 64.198C44.4745 64.2287 44.2542 64.5157 43.9366 64.5465C43.6191 64.5772 42.9224 65.0231 42.446 65.1153C41.9697 65.2127 41.8109 65.1461 41.3703 65.1461C40.9298 65.1461 36.9292 65.7508 36.5502 65.7508C36.1711 65.7508 35.7562 65.7508 35.1211 65.7201C34.4859 65.6893 34.2656 65.6586 33.6919 65.5305C33.1233 65.4023 33.0875 65.4997 32.647 65.4997C32.2064 65.4997 32.1706 65.4023 31.4739 65.2435C30.7773 65.0846 30.8695 65.182 30.4597 65.0846C30.0499 64.9872 29.5069 64.895 29.3174 64.7668C29.1279 64.6387 27.6065 64.1313 27.289 64.0032C26.9714 63.8751 26.9099 63.9417 26.0852 63.7162C25.2605 63.4958 25.3886 63.5881 24.8814 63.3062C24.3743 63.0192 24.2155 62.927 24.0567 62.7988C23.8979 62.6707 23.2013 62.4503 22.7864 62.3222C22.3766 62.1941 22.1205 62.0352 21.5519 61.7175C20.9833 61.3997 21.0755 61.4663 20.5069 61.1793C19.9384 60.8923 19.5849 60.6412 19.3032 60.4157C19.0163 60.1953 17.8433 59.1806 17.5257 59.0217C17.2081 58.8628 17.1159 58.6732 16.9571 58.5143C16.7983 58.3555 15.528 57.4688 15.3692 57.31C15.2104 57.1511 14.8314 56.5822 14.8314 56.4848C14.8314 56.3875 12.9617 54.3887 12.8644 54.2965C12.767 54.2042 11.9782 52.8666 11.8809 52.7743C11.7835 52.6821 11.0562 51.6981 10.9281 51.4726C10.8001 51.2522 10.6105 50.9345 10.5491 50.8063C10.4876 50.6782 9.66289 48.9665 9.66289 48.9665C9.66289 48.9665 9.37603 48.4591 9.31457 48.3002C9.2531 48.1413 9.02771 47.634 8.99698 47.4751C8.96624 47.3162 7.5371 43.5083 7.5371 43.5083C7.5371 43.5083 7.12732 41.607 7.06072 41.4481C6.99926 41.2892 6.9634 40.5922 6.8712 40.213C6.77387 39.8337 6.74314 39.3878 6.74314 39.2597C6.74314 39.1316 6.55361 35.58 6.55361 35.4826C6.55361 35.3852 6.58434 34.6267 6.58434 34.5293C6.58434 34.432 6.55361 33.1353 6.58434 32.751C6.61508 32.3717 6.45628 31.6081 6.48702 31.357C6.54849 30.8496 6.48702 30.0245 6.45628 29.8963C6.42555 29.7682 6.35896 29.1327 6.35896 29.1327C6.35896 29.1327 5.9799 26.6266 5.91331 26.5292C5.85185 26.4318 5.72379 25.6067 5.69305 25.4837C5.66232 25.3556 5.53426 24.5612 5.50352 24.3716C5.47279 24.182 5.28326 23.6746 5.18594 23.5772C5.08861 23.4798 4.64809 22.8802 4.29977 22.5932C4.17683 22.4907 3.82339 22.4958 3.63386 22.3728C3.44433 22.2447 3.2548 22.4036 3.12675 22.4036C2.99869 22.4036 2.90648 22.6547 2.90648 22.6547C2.90648 22.6547 2.4301 23.5772 2.36864 23.6695C2.30717 23.7668 2.24058 24.3972 2.14837 24.4638C2.14837 24.4638 1.61052 27.0315 1.54393 27.2877C1.48247 27.544 1.13414 28.364 0.975351 28.7791C0.816558 29.1891 0.847292 29.7938 0.816558 30.2705C0.785824 30.7471 0.498971 32.2385 0.498971 32.6177C0.498971 32.997 0.15065 34.3961 0.0891815 34.7753C0.0277131 35.1546 -0.0388777 38.1066 0.0277131 39.024C0.0891815 39.9465 0.283831 40.418 0.376034 40.9253C0.473359 41.4327 0.755089 43.7185 0.944617 44.477C1.13414 45.2406 1.5132 46.7935 1.86152 47.4905C2.20984 48.1875 2.30717 48.4437 2.65549 49.2688C3.00381 50.094 4.1461 52.8871 4.39709 53.2663C4.65321 53.6456 5.12447 54.5373 5.47279 54.8858C5.82111 55.2343 6.16943 55.998 6.58434 56.5053C6.99413 57.0127 8.71013 59.2677 9.30944 60.1543C9.77558 60.8411 10.088 60.9948 10.5593 61.3536C10.6156 61.4253 10.6771 61.492 10.7437 61.5586C10.9127 61.7277 11.0971 61.8712 11.2969 61.9942C11.804 62.4657 11.8962 62.5785 12.388 63.0756C12.9566 63.6445 14.6726 64.8181 15.4614 65.4843C16.2554 66.1506 16.573 66.371 17.0801 66.6272C17.5872 66.8783 18.3146 67.355 19.3339 67.9597C20.3481 68.5645 20.5069 68.5952 21.1114 68.8463C21.7158 69.0975 24.5382 70.2762 25.6754 70.5888C26.8177 70.9066 27.166 70.9988 27.8934 71.0962C28.6208 71.1936 33.0926 71.8598 33.0926 71.8598C33.0926 71.8598 34.4295 71.9008 35.1262 71.9162C35.4079 72.0033 35.705 72.0495 36.0123 72.0495C36.3812 72.0495 36.7346 71.9828 37.0573 71.8598C37.5952 71.8342 38.1432 71.8086 38.5172 71.7932C39.3726 71.7625 40.2281 71.7317 41.022 71.6651C41.816 71.6036 42.3538 71.3781 43.0197 71.2858C43.6857 71.1936 44.1928 71.2243 44.3208 71.1885C44.4489 71.1526 48.4443 69.9533 48.7261 69.7586C49.0129 69.569 49.4893 69.5075 50.0579 69.2205C50.6265 68.9335 50.9133 68.9027 51.0414 68.8105C51.1694 68.7131 54.1148 67.5753 54.3402 67.4472C54.5604 67.3191 55.672 66.4632 55.9896 66.1147C56.3072 65.7662 56.6862 65.4485 56.845 65.3203C57.0038 65.1922 57.9566 64.5926 58.018 64.4952C58.0795 64.3978 58.9042 63.7316 59.0015 63.5727C59.0989 63.4138 61.5678 61.6355 61.6959 61.3228C61.824 61.0051 62.1723 60.9128 62.2645 60.7847C62.3618 60.6566 66.388 55.3625 66.5109 55.137C66.639 54.9166 66.7312 54.7885 66.89 54.5681C67.0488 54.3477 67.3971 53.6815 67.4586 53.5841C67.52 53.4867 67.6481 53.0767 67.7454 52.8205C67.8427 52.5642 67.7147 52.4105 67.5559 52.2823C67.3971 52.1542 66.8592 52.3131 66.6697 52.2823C66.4802 52.2516 66.1011 52.3438 65.8757 52.4412C65.6555 52.5386 65.6555 52.6001 65.3686 52.8205C65.0818 53.0408 65.1125 53.3893 65.0203 53.5175C64.923 53.6456 64.6105 54.0556 64.5132 54.153C64.4159 54.2503 63.6578 55.5162 63.6578 55.5162C63.6578 55.5162 62.9611 56.4028 62.8023 56.6898C62.746 56.7975 62.3464 57.2228 61.8649 57.7353C61.7369 57.5303 61.5883 57.3356 61.4142 57.1562C61.1068 56.8487 60.7431 56.6181 60.3487 56.4695C60.5485 56.244 60.7585 56.0236 60.8661 55.9313C61.0556 55.7725 61.3732 55.4855 61.5935 55.2036C61.8137 54.9166 62.0698 54.44 62.1313 54.2811C62.1928 54.1222 62.6333 53.7942 62.6384 53.5841C62.6487 53.3073 62.5974 53.1382 62.5769 53.046C62.5565 52.9537 62.2696 52.7846 62.2696 52.7846C62.2696 52.7846 60.82 52.595 60.5792 52.6206C60.3436 52.6462 58.8427 52.6411 58.6788 52.6462C57.68 52.6718 57.1114 52.9537 56.8245 53.0511C56.5377 53.1485 56.0408 53.3586 55.923 53.4816C55.8052 53.5995 55.3288 53.9326 55.1393 54.0505C54.9497 54.1683 54.6168 54.358 54.5451 54.3836C54.4734 54.4092 53.0698 55.547 52.9776 55.6187C52.8854 55.6905 52.3117 55.998 51.9019 56.3465C51.2053 56.9153 50.2833 57.6482 50.0015 57.8071C49.7147 57.966 48.6082 58.663 48.4802 58.663C48.3521 58.663 44.3925 60.5028 43.9162 60.631C43.4398 60.7591 42.7124 61.041 42.4256 61.1076C42.1387 61.1691 41.3499 61.2665 40.9349 61.2972C40.5252 61.328 40.2076 61.3946 39.89 61.3946C39.5724 61.3946 35.6743 61.7123 35.0391 61.6816C34.4039 61.6508 32.7545 61.492 32.4369 61.4305C32.1194 61.369 30.0294 61.0205 29.6452 60.8923C29.2662 60.7642 28.4108 60.5746 28.1854 60.4465C27.9651 60.3183 27.5195 60.2261 27.0738 60.0672C26.6282 59.9083 24.2514 58.6373 23.9338 58.5143C23.6162 58.3862 22.7608 57.9455 22.5713 57.7507C22.3817 57.5611 21.5263 57.1152 21.1421 56.8948C20.7631 56.6745 20.5735 56.3875 20.4455 56.2593C20.3584 56.1722 19.6617 55.6648 19.1444 55.2446H19.1649C18.9036 54.8653 18.8063 54.5527 19.1393 54.5066C19.4722 54.4605 22.7557 54.4605 22.9657 54.4605H24.7022C24.7739 54.4605 32.2167 54.4861 32.4318 54.4861C32.647 54.4861 33.5741 54.3221 33.9275 54.3426C34.2861 54.3682 34.7369 54.317 35.3055 54.3426C35.874 54.3682 38.3481 54.3682 38.7989 54.3887C39.2497 54.4143 41.606 54.4143 41.606 54.4143C41.606 54.4143 50.8826 54.4861 51.0721 54.4861H52.1427C52.3066 54.4861 52.7625 54.44 53.0237 54.3426C53.285 54.2452 53.7153 54.2452 53.787 53.8455C53.8587 53.4406 53.8587 53.3227 53.8587 53.1536C53.8587 52.9845 53.2901 52.513 52.7881 52.513M60.0721 60.1338C59.857 60.3491 59.5701 60.467 59.2628 60.467C58.9554 60.467 58.6737 60.3491 58.4534 60.1338C58.0078 59.688 58.0078 58.9653 58.4534 58.5195C58.6686 58.3042 58.9554 58.1863 59.2628 58.1863C59.5701 58.1863 59.8518 58.3042 60.0721 58.5195C60.2872 58.7347 60.4051 59.0217 60.4051 59.3292C60.4051 59.6367 60.2872 59.9186 60.0721 60.139M37.1495 69.0155C37.1495 69.6458 36.6373 70.1583 36.0072 70.1583C35.3772 70.1583 34.8649 69.6458 34.8649 69.0155C34.8649 68.3851 35.3772 67.8726 36.0072 67.8726C36.6373 67.8726 37.1495 68.3851 37.1495 69.0155ZM12.9002 58.2735C13.2024 58.2735 13.4893 58.3913 13.7096 58.6066C13.9247 58.8218 14.0425 59.1088 14.0425 59.4163C14.0425 59.7238 13.9247 60.0057 13.7096 60.2261C13.4944 60.4413 13.2076 60.5592 12.9002 60.5592C12.5929 60.5592 12.3112 60.4413 12.0909 60.2261C11.6452 59.7802 11.6452 59.0576 12.0909 58.6117C12.306 58.3965 12.5929 58.2786 12.9002 58.2786M2.74769 33.0072C2.74769 33.0072 2.84502 31.8951 2.87575 31.8028C2.90648 31.7055 3.53141 27.5183 3.66972 27.3287C3.92071 26.9802 4.20757 27.3902 4.2383 27.4876C4.26903 27.585 4.29977 28.1846 4.42783 28.4716C4.55589 28.7586 4.4893 29.594 4.4893 29.8656C4.4893 30.3422 4.42783 31.8951 4.42783 31.8951C4.42783 31.972 4.48417 32.8535 4.44832 33.5197C4.05389 33.3352 3.61849 33.2276 3.15748 33.2276C3.00381 33.2276 2.85526 33.243 2.71183 33.2635C2.73232 33.1097 2.74769 33.0072 2.74769 33.0072ZM2.02031 36.277C2.02031 35.6466 2.53255 35.1341 3.1626 35.1341C3.79265 35.1341 4.30489 35.6466 4.30489 36.277C4.30489 36.9073 3.79265 37.4198 3.1626 37.4198C2.53255 37.4198 2.02031 36.9073 2.02031 36.277ZM9.75509 57.2433C9.27871 56.8641 9.24798 56.3875 9.05845 56.0697C8.86892 55.752 6.84046 52.7385 6.84046 52.7385C6.84046 52.7385 6.52288 51.9748 6.27188 51.5341C6.02088 51.0882 5.95429 50.6475 5.95429 50.6475L3.0704 42.8113L2.88087 41.1611C2.88087 41.1611 2.82965 40.3257 2.76818 39.2905C2.89624 39.3058 3.02942 39.3212 3.1626 39.3212C3.69533 39.3212 4.1922 39.1828 4.6276 38.942C4.69419 39.516 4.76078 40.0797 4.77615 40.2078C4.80688 40.4948 4.80688 41.0637 4.77615 41.6018C4.74541 42.14 5.314 43.3443 5.34473 43.6313C5.37546 43.9183 5.56499 44.3591 5.66232 44.7076C5.75964 45.0561 5.75964 45.2765 5.79038 45.5635C5.82111 45.8505 5.9799 46.3578 6.04137 46.486C6.10284 46.6141 6.70728 47.9466 6.73802 48.1055C6.76875 48.2643 7.2144 49.2176 7.24513 49.3765C7.27586 49.5353 7.59345 50.3297 7.65492 50.4886C7.71639 50.6475 9.30432 52.7385 9.36579 53.0562C9.42726 53.374 9.97023 53.9428 10.129 54.1991C10.2878 54.4553 10.6054 55.0242 10.7949 55.2446C10.9845 55.465 11.4608 56.039 11.4608 56.039C11.4608 56.039 11.6452 56.2645 11.8758 56.5463C11.4506 56.695 11.0664 56.9358 10.7386 57.2638C10.5747 57.4278 10.4364 57.6072 10.3186 57.7968C10.0983 57.5611 9.89339 57.3612 9.74997 57.2485M31.73 69.7125C31.0334 69.6817 30.557 69.3332 30.178 69.2358C29.7989 69.1385 28.9742 69.0155 28.5952 68.9181C28.2161 68.8207 26.7255 68.38 26.3772 68.2826C26.0289 68.1852 23.9697 67.4267 23.3652 67.1705C22.7608 66.9142 22.2537 66.6323 21.8439 66.5042C21.4341 66.3761 20.384 65.838 19.9435 65.551C19.4978 65.264 18.8012 64.8847 18.4221 64.6285C18.0431 64.3773 17.1518 63.8648 16.9008 63.6137C16.6447 63.3626 16.2656 63.2652 16.1068 63.1678C16.0454 63.132 15.4051 62.5887 14.6265 61.9173C14.7801 61.8097 14.9236 61.6918 15.0567 61.5586C15.4051 61.2101 15.6612 60.7847 15.8046 60.3286C16.9059 61.1845 18.0328 62.0352 18.3863 62.2197C19.1137 62.599 19.2724 62.7886 19.9076 63.2037C20.5428 63.6137 21.2702 63.9673 21.7773 64.1877C22.2844 64.4081 22.6942 64.7925 22.853 64.9821C23.0118 65.1717 24.5331 65.7098 25.1376 65.9661C25.742 66.2223 25.9623 66.2838 26.5974 66.4427C27.2326 66.6016 27.5809 66.7605 27.8012 66.822C28.0215 66.8835 29.0715 67.1397 29.2303 67.1397C29.3379 67.1397 31.7505 67.4523 33.3026 67.642C33.0926 68.0571 32.9748 68.5183 32.9748 69.0155C32.9748 69.2512 33.0055 69.4767 33.0516 69.6971C32.6162 69.7073 32.1501 69.733 31.7352 69.7125M53.5769 64.9872C53.1313 65.2742 52.6549 65.4946 52.2451 65.7508C51.8353 66.0071 49.1051 67.4626 48.2189 67.6522C47.3328 67.8418 47.425 67.9392 47.1074 67.97C46.7898 68.0007 42.861 69.1436 42.5741 69.1436C42.2872 69.1436 42.0363 69.3025 41.6879 69.3025C41.3396 69.3025 40.9247 69.4613 40.5456 69.4306C40.3715 69.4152 39.7056 69.4665 39.0089 69.5382C39.0397 69.3691 39.055 69.1948 39.055 69.0155C39.055 68.5235 38.9372 68.0622 38.7272 67.6522C39.219 67.5907 39.6492 67.5395 39.7517 67.5241C40.0078 67.4933 40.3561 67.4626 40.3561 67.4626C40.3561 67.4626 42.1643 67.1448 42.5434 67.0833C42.9224 67.0218 43.3681 66.8937 43.6549 66.8322C43.9418 66.7707 44.3823 66.7041 44.7665 66.576C45.1455 66.4478 45.5912 66.3197 45.7807 66.2275C45.9702 66.1301 48.5058 65.4023 48.8234 65.2435C49.141 65.0846 49.2024 65.0846 49.5508 64.7976C49.8991 64.5106 50.1859 64.4798 50.4728 64.3517C50.7596 64.2236 51.0772 63.9417 51.4563 63.7828C51.8353 63.624 52.3425 63.4651 52.66 63.2755C52.9776 63.0858 53.3567 62.7988 53.6743 62.5785C53.9919 62.3581 54.1199 62.3222 54.5297 62.0096C54.9395 61.6918 55.2929 61.4715 55.7642 61.0256C56.0664 60.7437 56.2662 60.6156 56.4506 60.4926C56.5991 60.8513 56.8194 61.1896 57.1114 61.4817C57.265 61.6355 57.429 61.7636 57.6031 61.8815C55.9742 63.1576 53.8433 64.8181 53.5769 64.9923" fill="#6C822F"/>
<path d="M20.676 79.8907C20.9372 79.614 21.1421 79.3628 21.2907 79.1425C21.4392 78.9221 21.5468 78.7017 21.6082 78.4916C21.6697 78.2815 21.7005 78.0611 21.7005 77.8305C21.7005 77.5435 21.6339 77.2821 21.5007 77.0412C21.3675 76.8003 21.178 76.6158 20.927 76.4723C20.676 76.3288 20.3738 76.2622 20.0203 76.2622C19.7283 76.2622 19.462 76.3186 19.2161 76.4262C18.9754 76.5338 18.7602 76.6824 18.5707 76.8721C18.3812 77.0617 18.2121 77.277 18.0636 77.5178L18.9088 78.1636C19.1034 77.8971 19.2878 77.7075 19.4671 77.5947C19.6464 77.482 19.8154 77.4256 19.9845 77.4256C20.1381 77.4256 20.2662 77.4768 20.3686 77.5742C20.4711 77.6716 20.5223 77.81 20.5223 77.9791C20.5223 78.0918 20.4967 78.2148 20.4506 78.3327C20.4045 78.4557 20.3174 78.5941 20.1945 78.7581C20.0715 78.917 19.8923 79.122 19.6669 79.368L18.2019 80.926V81.9202H21.7466V80.7722H19.8769L20.676 79.901V79.8907Z" fill="#6C822F"/>
<path d="M25.4398 76.6107C25.1376 76.375 24.779 76.2571 24.3641 76.2571C23.9492 76.2571 23.6008 76.375 23.2935 76.6107C22.9862 76.8465 22.7505 77.1745 22.5866 77.605C22.4227 78.0355 22.3356 78.548 22.3356 79.1476C22.3356 79.7472 22.4176 80.2597 22.5866 80.6851C22.7505 81.1105 22.9862 81.4385 23.2935 81.6691C23.6008 81.8997 23.9594 82.0125 24.3641 82.0125C24.7687 82.0125 25.1376 81.8997 25.4398 81.6691C25.742 81.4385 25.9776 81.1156 26.1467 80.6851C26.3106 80.2597 26.3977 79.7472 26.3977 79.1476C26.3977 78.548 26.3157 78.0355 26.1467 77.605C25.9827 77.1745 25.7471 76.8465 25.4398 76.6107ZM25.1068 79.9932C25.0505 80.2546 24.9685 80.4596 24.8507 80.6185C24.7329 80.7773 24.5741 80.8491 24.3641 80.8491C24.1541 80.8491 23.9953 80.7722 23.8775 80.6185C23.7596 80.4647 23.6726 80.2546 23.6213 79.9932C23.5701 79.7318 23.5445 79.45 23.5445 79.1476C23.5445 78.8657 23.5701 78.5941 23.6162 78.3327C23.6674 78.0713 23.7494 77.8561 23.8723 77.687C23.9953 77.5178 24.1592 77.4358 24.3641 77.4358C24.569 77.4358 24.7329 77.5178 24.8507 77.687C24.9685 77.8561 25.0556 78.0713 25.1068 78.3327C25.158 78.5941 25.1837 78.8657 25.1837 79.1476C25.1837 79.45 25.158 79.7318 25.1017 79.9932H25.1068Z" fill="#6C822F"/>
<path d="M27.878 76.7747C27.7551 76.8926 27.6014 76.9848 27.4273 77.0515C27.2531 77.1181 27.0584 77.1488 26.8536 77.1488V78.2763C27.1148 78.2763 27.3453 78.2456 27.5399 78.1841C27.6629 78.1482 27.7653 78.097 27.8627 78.0457V81.91H29.051V76.3596H28.1393C28.088 76.5185 28.001 76.6568 27.878 76.7747Z" fill="#6C822F"/>
<path d="M33.4819 78.1123H32.6572L32.2064 79.45H31.2537L32.314 76.3596H31.1359L29.9065 79.8958V80.6082H32.2781V81.91H33.4819V80.6082H34.2144V79.45H33.4819V78.1123Z" fill="#6C822F"/>
<path d="M37.1751 79.0502H34.6242V80.1367H37.1751V79.0502Z" fill="#6C822F"/>
<path d="M39.9924 79.8907C40.2537 79.614 40.4586 79.3628 40.6071 79.1425C40.7557 78.917 40.8632 78.7017 40.9247 78.4916C40.9862 78.2815 41.0169 78.0611 41.0169 77.8305C41.0169 77.5435 40.9503 77.2821 40.8171 77.0412C40.6839 76.8003 40.4944 76.6158 40.2434 76.4723C39.9924 76.3288 39.6902 76.2622 39.3368 76.2622C39.0448 76.2622 38.7784 76.3186 38.5326 76.4262C38.2918 76.5338 38.0767 76.6824 37.8871 76.8721C37.6976 77.0617 37.5286 77.277 37.38 77.5178L38.2252 78.1636C38.4199 77.8971 38.6094 77.7075 38.7835 77.5947C38.9577 77.482 39.1319 77.4256 39.3009 77.4256C39.4546 77.4256 39.5826 77.4768 39.6851 77.5742C39.7875 77.6716 39.8388 77.81 39.8388 77.9791C39.8388 78.0918 39.8131 78.2148 39.767 78.3327C39.7209 78.4506 39.6339 78.5941 39.5109 78.7581C39.388 78.9221 39.2087 79.122 38.9833 79.368L37.5183 80.926V81.9202H41.063V80.7722H39.1933L39.9924 79.901V79.8907Z" fill="#6C822F"/>
<path d="M44.7562 76.6107C44.454 76.375 44.0954 76.2571 43.6805 76.2571C43.2656 76.2571 42.9173 76.375 42.61 76.6107C42.3026 76.8465 42.067 77.1745 41.9031 77.605C41.7392 78.0355 41.6521 78.548 41.6521 79.1476C41.6521 79.7472 41.734 80.2597 41.9031 80.6851C42.0721 81.1105 42.3026 81.4385 42.61 81.6691C42.9173 81.8997 43.2759 82.0125 43.6805 82.0125C44.0852 82.0125 44.4489 81.8997 44.7562 81.6691C45.0636 81.4385 45.2941 81.1156 45.4631 80.6851C45.6322 80.2546 45.7141 79.7472 45.7141 79.1476C45.7141 78.548 45.6322 78.0355 45.4631 77.605C45.2941 77.1745 45.0636 76.8465 44.7562 76.6107ZM44.4233 79.9932C44.3669 80.2546 44.285 80.4596 44.1672 80.6185C44.0493 80.7722 43.8905 80.8491 43.6805 80.8491C43.4705 80.8491 43.3117 80.7722 43.1888 80.6185C43.0658 80.4647 42.9839 80.2546 42.9327 79.9932C42.8814 79.7318 42.8558 79.45 42.8558 79.1476C42.8558 78.8657 42.8814 78.5941 42.9275 78.3327C42.9788 78.0713 43.0607 77.8561 43.1837 77.687C43.3066 77.5178 43.4705 77.4358 43.6754 77.4358C43.8803 77.4358 44.0442 77.5178 44.162 77.687C44.2798 77.8561 44.3669 78.0713 44.4182 78.3327C44.4694 78.5941 44.495 78.8657 44.495 79.1476C44.495 79.45 44.4694 79.7318 44.413 79.9932H44.4233Z" fill="#6C822F"/>
<path d="M48.7107 79.8907C48.9719 79.614 49.1768 79.3628 49.3254 79.1425C49.4739 78.917 49.5815 78.7017 49.643 78.4916C49.7044 78.2815 49.7352 78.0611 49.7352 77.8305C49.7352 77.5435 49.6686 77.2821 49.5354 77.0412C49.4022 76.8003 49.2127 76.6158 48.9617 76.4723C48.7107 76.3288 48.4085 76.2622 48.055 76.2622C47.7631 76.2622 47.4967 76.3186 47.2508 76.4262C47.0101 76.5338 46.7949 76.6824 46.6054 76.8721C46.4159 77.0617 46.2468 77.277 46.0983 77.5178L46.9435 78.1636C47.1381 77.8971 47.3277 77.7075 47.5018 77.5947C47.676 77.482 47.8501 77.4256 48.0192 77.4256C48.1728 77.4256 48.3009 77.4768 48.4034 77.5742C48.5058 77.6716 48.557 77.81 48.557 77.9791C48.557 78.0918 48.5314 78.2148 48.4853 78.3327C48.4392 78.4506 48.3521 78.5941 48.2292 78.7581C48.1063 78.9221 47.927 79.122 47.7016 79.368L46.2366 80.926V81.9202H49.7813V80.7722H47.9116L48.7107 79.901V79.8907Z" fill="#6C822F"/>
<path d="M54.0482 79.122C53.8997 78.8503 53.6999 78.6402 53.4489 78.4967C53.1979 78.3481 52.9264 78.2763 52.6242 78.2763C52.2964 78.2763 52.0249 78.3378 51.7995 78.466C51.7534 78.4916 51.7175 78.5326 51.6714 78.5633V77.523H53.9509V76.3647H50.5291V79.5986L51.4819 79.819C51.5946 79.6703 51.7175 79.5678 51.8507 79.5063C51.9839 79.4448 52.1273 79.4141 52.2759 79.4141C52.5064 79.4141 52.6908 79.4807 52.8291 79.6191C52.9725 79.7575 53.0391 79.9317 53.0391 80.1418C53.0391 80.3725 52.9725 80.5518 52.8342 80.6902C52.701 80.8286 52.5013 80.9003 52.2503 80.9003C52.0863 80.9003 51.9327 80.8645 51.7841 80.7927C51.6356 80.721 51.5075 80.6082 51.3999 80.4647L50.396 81.09C50.5855 81.377 50.8467 81.6076 51.1746 81.7716C51.5024 81.9356 51.8763 82.0176 52.2964 82.0176C52.6754 82.0176 53.0135 81.9458 53.3055 81.7921C53.5974 81.6435 53.8331 81.4231 54.0021 81.1412C54.1711 80.8542 54.2582 80.5108 54.2582 80.1008C54.2582 79.7267 54.1814 79.4038 54.0328 79.1322L54.0482 79.122Z" fill="#6C822F"/>
</svg>
