<svg width="80" height="80" viewBox="0 0 80 80" fill="none" xmlns="http://www.w3.org/2000/svg">
<path d="M40 80C62.0914 80 80 62.0914 80 40C80 17.9086 62.0914 0 40 0C17.9086 0 0 17.9086 0 40C0 62.0914 17.9086 80 40 80Z" fill="#AAAAAA"/>
<path d="M72.52 26.265C70.745 22.065 68.2 18.29 64.955 15.045C61.71 11.8 57.94 9.255 53.735 7.48C49.385 5.64 44.765 4.71 40 4.71C35.235 4.71 30.615 5.64 26.265 7.48C22.065 9.255 18.29 11.8 15.045 15.045C11.805 18.285 9.255 22.06 7.48 26.265C5.64 30.615 4.71 35.235 4.71 40C4.71 44.765 5.64 49.385 7.48 53.735C9.255 57.935 11.8 61.71 15.045 64.955C18.285 68.195 22.06 70.745 26.265 72.52C30.615 74.36 35.235 75.29 40 75.29C44.765 75.29 49.385 74.36 53.735 72.52C57.935 70.745 61.71 68.2 64.955 64.955C68.195 61.715 70.745 57.94 72.52 53.735C74.36 49.385 75.29 44.765 75.29 40C75.29 35.235 74.36 30.615 72.52 26.265ZM8.905 26.87C10.605 22.855 13.04 19.245 16.14 16.145C19.24 13.045 22.85 10.61 26.865 8.91C31.02 7.15 35.44 6.26 39.995 6.26C44.55 6.26 48.97 7.15 53.125 8.91C57.14 10.61 60.75 13.045 63.85 16.145C66.95 19.245 69.385 22.855 71.085 26.87C71.455 27.745 71.79 28.635 72.08 29.535C70.045 29.09 68.01 28.87 65.925 29.23C64.835 29.42 63.77 29.725 62.715 30.04C62.885 29.69 63.035 29.335 63.165 28.97C64.18 26.115 63.405 22.765 61.155 20.705C59.005 18.735 55.74 18.375 53.185 19.775C50.765 21.095 49.785 23.835 49.99 26.485C50.09 27.77 50.455 29.065 51.275 30.09C52.115 31.14 53.395 31.945 54.66 32.36C56.135 32.845 57.74 32.77 59.22 32.34C59.425 32.28 59.635 32.22 59.84 32.155C58.77 33.255 57.46 34.115 56.05 34.575C54.885 34.955 53.67 35.025 52.46 34.875C51.44 34.75 50.44 34.475 49.425 34.305C48.47 34.145 47.47 34.065 46.53 34.38C45.365 34.765 44.38 35.655 43.845 36.755C43.255 37.965 43.125 39.32 43.035 40.65C42.51 40.795 41.985 40.92 41.445 41.01C40.49 41.175 39.535 41.145 38.575 41.205C37.46 41.275 36.355 41.46 35.265 41.7C35.08 41.74 34.895 41.785 34.715 41.825C35.405 40.615 35.83 39.265 35.89 37.835C35.98 35.81 35.25 33.84 33.86 32.37C32.54 30.975 30.605 30.035 28.66 30.155C26.76 30.27 24.995 31.355 23.825 32.82C22.605 34.345 22 36.18 22.315 38.125C22.575 39.72 23.335 41.29 24.545 42.38C25.905 43.605 27.715 44.14 29.53 44.025C30.23 43.98 30.925 43.875 31.615 43.74C30.945 44.315 30.21 44.805 29.435 45.19C26.84 45.08 24.275 44.685 21.72 44.15C19.33 43.65 16.85 42.99 14.39 43.235C11.455 43.53 9.055 45.185 7.03 47.22C6.52 44.87 6.26 42.46 6.26 40.005C6.26 35.445 7.15 31.03 8.91 26.875L8.905 26.87ZM62.165 28.32C61.93 29.09 61.575 29.835 61.13 30.53C60.81 30.63 60.49 30.73 60.17 30.83C59.38 31.075 58.59 31.36 57.765 31.475C56.425 31.665 55.065 31.43 53.89 30.75C52.87 30.165 51.97 29.365 51.545 28.245C50.755 26.175 50.98 23.265 52.605 21.64C54.465 19.785 57.615 19.595 59.755 21.065C62.045 22.635 62.96 25.715 62.16 28.32H62.165ZM44.1 43.075C44.1 42.57 44.11 42.055 44.125 41.535C47.26 40.53 50.155 38.785 53.085 37.34C54.825 36.48 56.61 35.69 58.505 35.23C60.37 34.78 62.28 34.83 64.185 34.975C65.11 35.045 66.105 35.22 66.85 35.815C67.635 36.44 68.185 37.405 68.45 38.36C68.715 39.32 68.73 40.32 68.705 41.305C68.675 42.545 68.615 43.78 68.57 45.02C68.535 46.02 68.505 47.025 68.5 48.025C62.01 48.125 55.515 47.92 49.025 47.895C47.395 47.89 45.765 47.895 44.14 47.92C44.17 46.305 44.09 44.69 44.1 43.07V43.075ZM44.2 40.28C44.255 39.645 44.345 39.02 44.49 38.415C44.78 37.205 45.46 36.085 46.635 35.575C47.49 35.205 48.45 35.3 49.36 35.465C50.47 35.67 51.565 35.95 52.695 36.06C52.795 36.07 52.895 36.08 52.995 36.085C50.895 37.095 48.86 38.255 46.755 39.23C45.92 39.615 45.07 39.975 44.2 40.28ZM33.04 42.245C31.73 42.575 30.405 42.87 29.07 42.875C27.43 42.88 25.9 42.25 24.83 40.995C23.86 39.855 23.29 38.2 23.39 36.71C23.505 34.96 24.64 33.29 26.055 32.305C27.56 31.255 29.385 31 31.075 31.77C32.735 32.525 34.045 34.035 34.525 35.8C35.16 38.15 34.45 40.43 33.045 42.245H33.04ZM35.125 46.245C35.995 46.245 36.88 46.265 37.735 46.425C38.445 46.56 39.195 46.775 39.73 47.28C41.03 48.51 41.02 50.69 40.995 52.345C40.96 54.675 40.925 57.005 40.87 59.335C34.435 59.285 28.005 59.36 21.57 59.36C19.885 59.36 18.205 59.355 16.52 59.34C16.445 57.455 16.405 55.565 16.415 53.68C16.42 52.71 16.435 51.74 16.5 50.775C16.55 50.02 16.665 49.225 17.025 48.555C17.37 47.915 17.915 47.465 18.545 47.125C19.475 46.625 20.415 46.5 21.46 46.645C22.615 46.805 23.73 47.15 24.89 47.255C25.97 47.355 27.09 47.21 28.135 46.92C28.655 46.775 29.17 46.585 29.665 46.36C29.74 46.36 29.815 46.365 29.895 46.37C31.64 46.41 33.38 46.255 35.12 46.245H35.125ZM71.095 53.13C69.395 57.145 66.96 60.755 63.86 63.855C60.76 66.955 57.15 69.39 53.135 71.09C48.98 72.85 44.56 73.74 40.005 73.74C35.45 73.74 31.03 72.85 26.875 71.09C22.86 69.39 19.25 66.955 16.15 63.855C13.05 60.755 10.615 57.145 8.915 53.13C8.285 51.635 7.765 50.105 7.355 48.55C9.125 46.66 11.21 44.945 13.815 44.47C15.995 44.07 18.325 44.61 20.515 45.07C22.44 45.475 24.365 45.85 26.305 46.09C26.2 46.1 26.1 46.11 25.995 46.115C24.885 46.175 23.83 45.93 22.755 45.705C21.665 45.48 20.545 45.295 19.44 45.54C18.575 45.73 17.72 46.19 17.04 46.75C15.76 47.8 15.42 49.42 15.33 50.995C15.215 53.02 15.245 55.05 15.295 57.075C15.315 58.025 15.35 58.97 15.39 59.92C15.405 60.235 15.645 60.5 15.97 60.5C22.59 60.56 29.215 60.48 35.835 60.48C37.705 60.48 39.575 60.485 41.44 60.5C41.76 60.5 42.015 60.23 42.02 59.92C42.08 57.53 42.085 55.135 42.15 52.745C42.195 51.02 42.17 49.15 41.375 47.575C40.56 45.965 38.95 45.39 37.255 45.185C35.46 44.97 33.655 45.145 31.855 45.2C31.79 45.2 31.725 45.2 31.655 45.2C32.43 44.64 33.13 43.98 33.735 43.25C34.475 43.07 35.21 42.885 35.95 42.73C37.075 42.495 38.21 42.345 39.355 42.325C40.33 42.31 41.285 42.225 42.24 42.03C42.485 41.98 42.73 41.92 42.975 41.86C42.92 43.245 42.945 44.63 42.97 46.02C42.985 46.85 42.99 47.675 42.96 48.505C42.95 48.815 43.235 49.09 43.54 49.085C50.225 48.96 56.905 49.18 63.59 49.205C65.415 49.215 67.245 49.205 69.07 49.17C69.385 49.165 69.65 48.91 69.65 48.59C69.65 46.18 69.8 43.77 69.86 41.36C69.91 39.32 69.665 37.34 68.35 35.7C66.99 34.005 64.96 33.81 62.925 33.745C61.98 33.715 61.04 33.665 60.095 33.765C59.97 33.78 59.845 33.795 59.72 33.81C60.53 33.145 61.25 32.37 61.85 31.51C62.54 31.295 63.23 31.08 63.925 30.88C64.98 30.58 66.055 30.305 67.155 30.21C68.265 30.11 69.38 30.185 70.475 30.37C71.15 30.485 71.82 30.63 72.485 30.795C73.325 33.765 73.75 36.84 73.75 39.985C73.75 44.545 72.86 48.96 71.1 53.115L71.095 53.13Z" fill="white"/>
</svg>
