<svg width="120" height="120" viewBox="0 0 120 120" fill="none" xmlns="http://www.w3.org/2000/svg">
<path d="M38.0614 85.0948C37.9239 85.2322 37.7671 85.1853 37.6814 85.098L35.3659 82.734L50.4989 67.5962C50.6396 67.4329 50.8126 67.4313 50.9549 67.5752L58.9296 75.5435L76.2745 58.2002L74.4086 56.3068C74.3326 56.2291 74.3811 56.0448 74.415 55.9818C74.4603 55.8993 74.5573 55.8783 74.6932 55.8475L82.4189 54.1142C82.5515 54.0851 82.6792 54.1223 82.7585 54.1853C82.8328 54.2435 82.8652 54.381 82.8328 54.533L81.1173 62.4883C81.0833 62.6419 80.7826 62.6791 80.6823 62.5821L78.8034 60.7323L59.1107 80.4267C59.0024 80.5269 58.8714 80.556 58.7695 80.4541L50.7398 72.4244L38.063 85.0948H38.0614Z" fill="#C12033"/>
<path d="M68.2755 104.205C67.8874 104.205 67.6821 103.952 67.6821 103.597L67.6853 76.698C67.6853 76.1919 67.8858 75.8329 68.2286 75.5063L78.4315 65.803C78.5738 65.6672 78.7856 65.6446 78.9327 65.6963C79.0443 65.7351 79.185 65.8887 79.185 66.1006V103.584C79.1866 103.95 78.9813 104.202 78.611 104.202H68.2755V104.205Z" fill="#C12033"/>
<path d="M53.3735 103.547L53.3767 80.4574C53.3767 80.2602 53.5142 80.1017 53.6257 80.0726C53.7794 80.0338 54.0009 80.0839 54.1383 80.2246L58.7126 84.8701C58.8404 84.9994 58.9778 84.9978 59.1039 84.8701L64.0874 79.8592C64.2232 79.7234 64.4447 79.6926 64.5967 79.7266C64.7487 79.7605 64.878 79.9384 64.878 80.1939V103.599C64.878 103.989 64.6145 104.207 64.2539 104.207L53.9524 104.204C53.5772 104.204 53.3735 103.965 53.3735 103.547Z" fill="#C12033"/>
<path d="M39.4745 104.209C39.1123 104.209 38.8358 104.019 38.8358 103.673V89.1113C38.8358 88.6505 38.9975 88.2786 39.3225 87.9681L49.603 78.1921C49.7356 78.066 49.9378 78.0288 50.0364 78.0741C50.1706 78.1355 50.3323 78.2843 50.3323 78.5025V103.594C50.3339 103.969 50.1059 104.204 49.7389 104.204L39.4745 104.207V104.209Z" fill="#C12033"/>
<path d="M18.5238 33.7519C17.109 34.0996 15.7135 34.098 14.3391 33.7633C11.3995 33.047 10.397 30.2577 10.4213 27.3974C10.3792 25.2371 10.9597 23.0995 12.9664 21.9467C11.5451 20.797 10.8045 19.1833 10.7528 17.3901C10.7253 16.4216 10.7754 15.529 11.0567 14.6138C11.5742 12.9209 12.8758 11.6775 14.6205 11.3007C15.7669 11.0533 16.9246 11.0501 18.0726 11.2813C19.8966 11.6484 21.237 12.95 21.7237 14.7464C22.322 17.3271 21.9889 20.2699 19.7963 21.9548C20.8328 22.5239 21.4618 23.3663 21.8611 24.3947C22.3381 25.6753 22.4416 27.0287 22.3252 28.408C22.1441 30.8625 21.0494 33.1359 18.5238 33.7552V33.7519ZM17.9255 17.5793C18.0128 16.1968 17.8366 14.402 16.4897 14.3212C15.1428 14.2403 14.7272 15.7894 14.7789 17.2301C14.8275 18.5883 15.0765 20.3847 16.4121 20.3507C17.5924 20.3216 17.8479 18.7953 17.9239 17.5793H17.9255ZM16.4121 30.8237C17.1736 30.814 17.6943 30.3725 17.8916 29.653C18.312 28.1218 18.3023 26.4644 17.8721 24.9315C17.67 24.212 17.0896 23.8239 16.3732 23.8288C15.6569 23.8336 15.0991 24.2346 14.9002 24.9509C14.4798 26.4612 14.4685 28.1153 14.8743 29.6271C15.0765 30.3806 15.6181 30.8334 16.4104 30.8237H16.4121Z" fill="#C12033"/>
<path d="M58.4977 18.3556C58.4945 18.9555 58.2923 19.5053 57.8461 19.8012C57.3998 20.0971 56.8678 20.0825 56.3455 20.076C56.0755 20.131 55.8459 20.0938 55.6632 19.8868L54.3454 19.903L54.0042 17.9368H52.5538L52.211 19.8933L50.717 19.8998L52.4471 11.3785H54.0932L55.7424 19.4939C55.8556 19.308 55.8087 19.1382 55.8265 18.9765C56.1256 18.9668 56.4232 18.9733 56.6722 18.7986C56.884 18.6499 56.9454 18.3475 56.9454 18.0775L56.9422 11.3737H58.5349L58.4945 18.354L58.4977 18.3556ZM53.8377 16.8389L53.2782 13.694L52.7204 16.8745C53.1375 16.8987 53.4383 16.9521 53.8377 16.8373V16.8389Z" fill="#C12033"/>
<path d="M49.168 15.3255C49.7501 15.539 50.2271 15.9319 50.371 16.5883C50.5343 17.3321 50.5149 18.0856 50.2044 18.789C49.8908 19.4196 49.2682 19.8643 48.5406 19.8724L45.6107 19.9047L45.614 11.3705L48.3692 11.4125C49.0403 11.4222 49.6482 11.765 49.9781 12.3374C50.2707 12.9923 50.2675 13.7231 50.0993 14.4071C49.9457 14.8275 49.7145 15.0814 49.168 15.3255ZM48.2528 12.5751C47.9035 12.4846 47.5575 12.4749 47.184 12.4862L47.1889 14.834C47.6335 14.8598 48.1655 14.9019 48.5196 14.5995C48.9546 14.226 49.0742 12.7885 48.2544 12.5751H48.2528ZM48.8559 16.6676C48.6554 16.0014 47.9504 15.8866 47.1824 15.9788L47.1937 18.7615C47.5705 18.8116 47.9149 18.8036 48.2674 18.7259C48.9772 18.5707 49.0952 17.4631 48.8559 16.6676Z" fill="#C12033"/>
<path d="M72.101 17.6878C72.101 18.8843 71.2667 19.8545 70.1073 19.8691L67.4248 19.9046L67.428 11.3737L70.1655 11.4141C71.3168 11.4303 72.0412 12.2727 72.1075 13.4288L72.1026 17.6878H72.101ZM70.518 17.7347V13.3576C70.518 12.7836 70.0459 12.478 69.5495 12.5071C69.4201 12.5152 69.0223 12.4408 69.0223 12.6349L69.0126 18.7792C69.446 18.8245 69.8292 18.8213 70.1607 18.6208C70.4129 18.4688 70.518 18.0872 70.518 17.7363V17.7347Z" fill="#C12033"/>
<path d="M91.2167 19.9079H90.1931L88.1558 15.1185L88.0992 19.9063H86.7571L86.7539 11.3769L87.8502 11.3721L89.8811 15.9949L89.9296 11.3769H91.2199L91.2167 19.9079Z" fill="#C12033"/>
<path d="M63.6138 19.4066C62.8264 20.2361 60.8117 20.2054 60.0517 19.4195C59.5828 18.9344 59.3807 18.2327 59.3807 17.5423V13.6616C59.3807 12.9696 59.5941 12.2824 60.0857 11.8215C60.8796 11.0761 62.8409 11.0858 63.5993 11.8506C64.0035 12.2597 64.2655 12.8709 64.2655 13.4708V17.8091C64.2655 18.3895 64.0164 18.9846 63.6138 19.4082V19.4066ZM62.6825 17.9611L62.6712 13.2105C62.6712 12.7254 62.2847 12.4489 61.8611 12.4343C61.3469 12.4149 60.9798 12.748 60.9798 13.2897L60.975 17.9158C60.975 18.4882 61.3113 18.8487 61.819 18.8471C62.2799 18.8455 62.6825 18.5496 62.6809 17.9611H62.6825Z" fill="#C12033"/>
<path d="M39.7009 19.9029H38.1163L37.1154 16.0627C36.8826 15.9883 36.6918 15.9851 36.4347 16.0627L36.4315 19.9013H34.8663V11.3784L37.0233 11.3817C37.4776 11.3817 37.911 11.4382 38.3298 11.5902C38.9296 11.794 39.35 12.271 39.4697 12.9016C39.6637 13.9316 39.5522 15.3108 38.5238 15.7053L39.6993 19.9045L39.7009 19.9029ZM37.7848 14.6721C38.1794 14.1741 38.1681 13.2411 37.7816 12.7625C37.4647 12.3696 36.826 12.431 36.4315 12.5103L36.4444 15.002C36.8891 15.0133 37.4631 15.078 37.7848 14.6737V14.6721Z" fill="#C12033"/>
<path d="M80.2633 16.7063L81.767 16.6917L81.725 18.1906C81.7104 18.6951 81.4598 19.1964 81.0734 19.5262C80.2617 20.2231 78.3618 20.2053 77.626 19.3095C77.2897 18.9005 77.0698 18.3491 77.0682 17.7961L77.0634 13.5484C77.0634 13.0277 77.2509 12.5119 77.5209 12.0915C78.0319 11.296 79.2042 11.1925 80.1857 11.3413C81.0087 11.4658 81.5568 12.0754 81.7056 12.8919L81.7719 14.4894H80.2665C80.2536 13.9607 80.3183 13.4255 80.1808 12.8951C80.0789 12.4974 79.6472 12.3971 79.2818 12.4553C78.9374 12.5103 78.648 12.8402 78.648 13.2832L78.6544 17.9998C78.6544 18.4105 78.918 18.7404 79.2123 18.8115C79.6068 18.9085 80.0595 18.7986 80.1727 18.383C80.3183 17.8511 80.2584 17.3256 80.26 16.7095L80.2633 16.7063Z" fill="#C12033"/>
<path d="M43.2643 17.9401L41.8204 17.9288L41.4679 19.9031L39.9771 19.895L41.7072 11.377H43.3516L45.0736 19.8934L43.6022 19.9031L43.2643 17.9401ZM43.0945 16.8471L42.5415 13.8218L41.9772 16.8665C42.4267 16.915 42.7129 16.936 43.0945 16.8471Z" fill="#C12033"/>
<path d="M99.534 16.0046L97.9316 16.0289L97.93 18.8149L99.9981 18.8213L99.9965 19.9031L96.3632 19.9015V11.3786L99.9464 11.377V12.4862L97.9333 12.4894L97.93 14.9164L99.5276 14.9197L99.534 16.0046Z" fill="#C12033"/>
<path d="M85.7154 16.0192L84.1453 16.0208L84.1259 18.8068L86.1827 18.823L86.1811 19.9031H82.5559V11.377H86.1374L86.1245 12.4943L84.1389 12.504L84.1275 14.9132L85.717 14.9213L85.7154 16.0192Z" fill="#C12033"/>
<path d="M76.1304 16.0175L74.5426 16.032V18.8132L76.5767 18.8196L76.5783 19.8981L72.9741 19.9014V11.3785L76.5573 11.3752L76.554 12.4877L74.5506 12.4942L74.5409 14.9147L76.1272 14.9212L76.1304 16.0175Z" fill="#C12033"/>
<path d="M33.094 19.8966H31.5385V12.5509L30.0833 12.5331C30.1124 12.1337 30.1124 11.7699 30.0833 11.377H34.491L34.4829 12.5363L33.094 12.5541V19.8966Z" fill="#C12033"/>
<path d="M94.6073 19.8787L93.0373 19.9062L93.0357 12.5556L91.6111 12.5361L91.6128 11.3784H95.9785L95.9801 12.5361L94.6057 12.5572L94.6073 19.8787Z" fill="#C12033"/>
<path d="M61.5923 42.3023L60.4103 47.7013L59.479 47.7045L58.3326 42.3654C58.2064 42.8666 58.242 43.3841 58.2323 43.9306L58.1709 47.7094H56.9565L57.1085 39.1687H58.7028L59.9349 44.9412L61.2026 39.1719L62.7678 39.1687L62.9117 47.7094L61.7346 47.7126L61.5939 42.3023H61.5923Z" fill="#C12033"/>
<path d="M55.2265 47.4103C54.583 47.8647 53.8133 47.8679 53.0954 47.7822C52.3241 47.6901 51.7032 47.2502 51.4477 46.5161C51.3297 46.1766 51.2181 45.8031 51.2197 45.4247L51.2311 41.3597C51.2327 40.6952 51.4736 40.0468 51.9474 39.6118C52.7138 38.9068 54.5717 38.9004 55.351 39.5779C55.8183 39.9837 56.1061 40.6289 56.1045 41.2821L56.0997 45.6414C56.0997 46.3173 55.7779 47.0174 55.2233 47.4087L55.2265 47.4103ZM53.7357 46.6487C54.2127 46.6261 54.528 46.272 54.5264 45.7804L54.5232 41.0719C54.5232 40.5319 54.1157 40.2279 53.6306 40.2489C53.1455 40.2699 52.827 40.569 52.827 41.0768L52.8238 45.7788C52.8238 46.3253 53.1924 46.6762 53.7341 46.6504L53.7357 46.6487Z" fill="#C12033"/>
<path d="M50.387 47.6851L49.3425 47.7142L47.2809 42.8408L47.2421 47.7142L45.9243 47.711L45.9259 39.1622L46.9963 39.1703L49.0401 43.8433L49.0757 39.1768L50.3854 39.1671L50.387 47.6851Z" fill="#C12033"/>
<path d="M44.2714 47.3294C43.6263 47.863 42.7677 47.876 41.9996 47.7773C40.7045 47.6092 40.1547 46.521 40.1579 45.2468L40.1693 41.4438C40.1709 40.7647 40.3811 40.0872 40.8678 39.6279C41.6568 38.8858 43.6166 38.8825 44.3895 39.6684C44.86 40.1454 45.0605 40.8374 45.0605 41.5198L45.0573 45.4037C45.0573 46.1086 44.8406 46.8573 44.2714 47.3278V47.3294ZM42.6092 46.6487C43.1234 46.6487 43.4662 46.3108 43.4662 45.7562L43.463 41.0945C43.463 40.5367 43.0539 40.2084 42.5316 40.2505C42.0967 40.2844 41.77 40.5787 41.77 41.0573L41.7668 45.8063C41.7668 46.3399 42.1241 46.6487 42.6076 46.6503L42.6092 46.6487Z" fill="#C12033"/>
<path d="M76.3128 46.7506C75.7484 47.8485 74.2981 48.0183 73.15 47.6771C72.1491 47.3796 71.7352 46.3043 71.7368 45.2468L71.7465 41.4454C71.7481 40.7614 71.9583 40.0839 72.4499 39.6247C73.2422 38.8858 75.2084 38.8874 75.9716 39.6732C76.4389 40.1551 76.6378 40.8407 76.6394 41.5214L76.6458 45.2468C76.6458 45.7804 76.5488 46.2881 76.3111 46.749L76.3128 46.7506ZM74.2301 46.6471C74.7168 46.6342 75.037 46.3043 75.037 45.8047L75.0418 41.1204C75.0418 40.5884 74.7071 40.2505 74.1962 40.2456C73.6852 40.2408 73.3424 40.5625 73.3441 41.0945L73.3473 45.8176C73.3473 46.348 73.7127 46.66 74.2285 46.6471H74.2301Z" fill="#C12033"/>
<path d="M37.1491 46.6454C37.6067 46.6681 37.9479 46.4336 37.9592 46.0019L37.9964 44.5111H39.5244C39.5745 46.0116 39.4193 47.5202 37.8476 47.7676C37.0828 47.8872 36.2356 47.8517 35.6033 47.3569C34.9711 46.8621 34.7803 46.0924 34.7787 45.3228L34.7722 41.6782C34.7706 40.4784 35.2347 39.4064 36.4296 39.1639C37.0101 39.0474 37.6116 39.0555 38.1823 39.2172C39.463 39.5778 39.5648 40.9667 39.5212 42.2862L37.9948 42.2926C37.9851 41.7445 38.0546 41.2271 37.922 40.7161C37.8137 40.3006 37.3739 40.21 37.0004 40.2698C36.6269 40.3297 36.3778 40.687 36.3746 41.1462L36.3504 45.1676C36.3455 45.9809 36.4506 46.6115 37.1491 46.6454Z" fill="#C12033"/>
<path d="M69.5317 46.0311L69.5721 44.5176L71.0823 44.5079C71.1664 45.9842 71.0031 47.517 69.4363 47.766C68.6893 47.8841 67.8679 47.8566 67.2324 47.3941C66.6455 46.9673 66.3722 46.217 66.3706 45.4813L66.3593 41.502C66.3593 41.0412 66.4854 40.5949 66.6649 40.1907C67.1516 39.0944 68.5696 38.9117 69.716 39.2027C71.0354 39.5374 71.1567 40.9619 71.0872 42.2943L69.5753 42.2878C69.564 41.7494 69.6352 41.2304 69.5042 40.7194C69.3991 40.3071 68.9625 40.2085 68.5858 40.2683C68.209 40.3281 67.9536 40.6871 67.9536 41.1447L67.96 45.7821C67.96 46.0375 68.0991 46.3076 68.222 46.4466C68.3869 46.6309 68.6456 46.652 68.8962 46.639C69.2358 46.6196 69.522 46.4094 69.5317 46.0327V46.0311Z" fill="#C12033"/>
<path d="M33.8603 43.8319L32.2676 43.8368L32.2708 46.6163L34.3373 46.6276L34.334 47.7077L30.704 47.7142L30.7024 39.1768H34.2758V40.3005L32.2708 40.3054V42.7195L33.8619 42.7243L33.8603 43.8319Z" fill="#C12033"/>
<path d="M65.47 39.1558H63.9209V47.7142H65.47V39.1558Z" fill="#C12033"/>
<path d="M65.6445 29.2521C65.6413 29.0274 65.5993 28.8155 65.5362 28.6312L64.4318 33.7957L63.4956 33.8022L62.3686 28.5504C62.2328 29.0047 62.2635 29.417 62.2571 29.8585L62.1924 33.799H60.9748L61.13 25.2761L62.7276 25.289L63.9565 30.9467L65.2177 25.2809L66.7813 25.2728L66.9365 33.8006H65.7238L65.6478 29.2521H65.6445Z" fill="#C12033"/>
<path d="M48.0781 33.799L46.487 33.8071L45.4861 29.9604C45.2614 29.8908 45.0722 29.8908 44.807 29.9636L44.8038 33.8022H43.2354V25.2777L45.803 25.3052C46.3383 25.3117 46.8266 25.4831 47.2518 25.7887C47.9795 26.3853 48.0263 27.5641 47.8129 28.5051C47.6965 29.0209 47.3877 29.3896 46.8961 29.6289L48.0781 33.799ZM45.8548 26.4613C45.5233 26.3627 45.1999 26.3352 44.807 26.3805L44.8151 28.8948C45.2905 28.9498 45.8273 28.9385 46.1442 28.6038C46.5727 28.1526 46.5792 26.6796 45.8532 26.4613H45.8548Z" fill="#C12033"/>
<path d="M88.8169 32.7108C88.2947 33.9025 86.9235 34.0998 85.706 33.8039C84.5951 33.5338 84.1747 32.4295 84.1731 31.2766V27.784C84.1731 26.5454 84.6275 25.4799 85.8515 25.2519C86.3576 25.1581 86.875 25.1581 87.3811 25.247C88.5679 25.454 89.0854 26.5115 89.0854 27.708V31.351C89.0854 31.8328 89.0013 32.2839 88.8153 32.7092L88.8169 32.7108ZM86.6519 32.748C87.1806 32.7383 87.483 32.3729 87.483 31.8749V27.1906C87.483 26.657 87.1159 26.332 86.6131 26.3384C86.191 26.3449 85.7965 26.6166 85.7965 27.1016V31.9654C85.7965 32.4489 86.1781 32.7561 86.6535 32.748H86.6519Z" fill="#C12033"/>
<path d="M79.1619 33.7666L78.1319 33.8071L76.0751 28.9482L76.0363 33.8038H74.712L74.7088 25.2712L75.7938 25.2761L77.8343 29.9507L77.8699 25.2745L79.1602 25.2793L79.1619 33.7666Z" fill="#C12033"/>
<path d="M40.8988 32.1416L40.9456 30.6006H42.4688C42.5189 31.9767 42.4009 33.4691 41.0346 33.807C39.8542 34.0997 38.4782 33.8717 37.9963 32.7172C37.8169 32.2871 37.7215 31.8376 37.7215 31.3558V27.7872C37.7215 27.3215 37.8039 26.8801 37.9559 26.4613C38.3893 25.268 39.6586 25.0368 40.8923 25.2502C42.375 25.5057 42.5383 26.9835 42.4672 28.3887H40.944C40.9343 27.8518 41.0006 27.3377 40.8729 26.8219C40.7694 26.4031 40.3328 26.298 39.9383 26.3643C39.5712 26.4257 39.3206 26.796 39.3206 27.2568L39.3303 31.8813C39.3303 32.1254 39.4548 32.3841 39.5599 32.5119C39.7281 32.7172 40.0159 32.7593 40.2811 32.7366C40.6126 32.7091 40.8858 32.5038 40.8971 32.1416H40.8988Z" fill="#C12033"/>
<path d="M55.296 32.7448C55.7358 32.7497 56.0382 32.5087 56.0479 32.1174L56.0883 30.5991H57.605C57.6147 31.2411 57.6293 31.8345 57.4854 32.4311C57.2687 33.3301 56.5653 33.8524 55.6453 33.8993C54.9419 33.9349 54.2143 33.8961 53.6564 33.4191C53.1374 32.976 52.8884 32.284 52.8868 31.5903L52.8787 27.632C52.8787 27.0839 53.0064 26.5632 53.2765 26.104C53.7987 25.2115 54.9937 25.0708 56.0333 25.2487C57.508 25.4993 57.6859 26.9497 57.6066 28.3888H56.0883C56.0754 27.8471 56.1514 27.3248 56.0172 26.809C55.9088 26.3951 55.4577 26.2964 55.0761 26.3676C54.6945 26.4387 54.4714 26.809 54.4698 27.2634L54.4455 31.2006C54.4407 32.0592 54.5296 32.74 55.296 32.748V32.7448Z" fill="#C12033"/>
<path d="M51.9521 29.9313L50.3659 29.9442L50.3675 32.706L52.421 32.7189L52.4194 33.8022H48.7975L48.7942 25.2761L52.3677 25.2794L52.358 26.4128L50.3885 26.4047L50.3643 28.8108L51.9553 28.8237L51.9521 29.9313Z" fill="#C12033"/>
<path d="M73.6823 29.9216L72.067 29.9394L72.0686 32.7141L74.1011 32.7222V33.8023H70.5082L70.5099 25.281H74.0833L74.0639 26.4145L72.0718 26.4129L72.0686 28.8156L73.6855 28.8286L73.6823 29.9216Z" fill="#C12033"/>
<path d="M35.1279 25.2859L33.3962 30.5749L33.3946 33.8023L31.8763 33.8007L31.8908 30.5652L30.1445 25.2745L31.6256 25.2762L32.6702 28.4939L33.6678 25.2762L35.1279 25.2859Z" fill="#C12033"/>
<path d="M82.5432 33.7974L80.978 33.8022V26.45L79.5228 26.4306L79.5244 25.2777L83.9305 25.2761L83.9241 26.4387L82.5448 26.4516L82.5432 33.7974Z" fill="#C12033"/>
<path d="M69.4847 25.2631H67.9389V33.8037H69.4847V25.2631Z" fill="#C12033"/>
<path d="M59.9765 25.2716L58.4033 25.2738L58.4152 33.8032L59.9884 33.801L59.9765 25.2716Z" fill="#C12033"/>
<path d="M54.1334 38.4444L53.2603 38.4816L53.8812 36.3634L55.3575 36.3747L54.1334 38.4444Z" fill="#C12033"/>
</svg>
