<svg width="120" height="120" viewBox="0 0 120 120" fill="none" xmlns="http://www.w3.org/2000/svg">
<path d="M14.3875 33.8054C11.2296 33.102 10.7833 30.1091 10.7623 27.2018H14.9308C14.9357 28.7767 14.9324 30.7785 16.5332 30.8464C17.6473 30.9369 18.1954 30.1123 18.3151 29.0112C18.4994 27.3101 18.5722 24.6648 18.1 23.132C17.9044 22.4981 17.3886 22.0745 16.724 22.0599C16.1209 21.992 15.5485 22.2329 15.1992 22.7293C14.9114 23.1239 14.7756 23.5701 14.6705 24.0536H10.9919L11.2959 11.3849H21.5603V15.0586H14.8031L14.5735 19.848C15.5598 19.1316 16.6739 18.8665 17.8494 18.8729C19.4324 18.8099 20.7922 19.6151 21.5053 21.0299C22.0583 22.0874 22.3202 23.2338 22.4124 24.453C22.5725 26.5647 22.4738 29.8697 21.46 31.629C20.8035 32.7657 19.7703 33.5467 18.4784 33.8248C17.1218 34.1175 15.7377 34.1061 14.3891 33.8054H14.3875Z" fill="#AAAAAA"/>
<path d="M36.6494 27.2373L36.6332 31.831C36.63 32.9289 35.7908 33.7584 34.7285 33.7714L31.9926 33.8053V25.2776L34.4698 25.3018C35.0114 25.3067 35.5062 25.449 35.9477 25.7627C36.3438 26.1152 36.651 26.6326 36.6478 27.2389L36.6494 27.2373ZM35.0842 31.54V27.4136C35.0842 27.0498 34.9791 26.6633 34.6379 26.5194C34.2968 26.3755 33.954 26.3739 33.5627 26.4466V32.6767C33.996 32.7301 34.4293 32.7382 34.7576 32.5053C35.0276 32.3129 35.0858 31.9022 35.0858 31.54H35.0842Z" fill="#AAAAAA"/>
<path d="M69.8388 33.7795L68.2623 33.7989L67.263 29.9861C67.0868 29.8762 66.799 29.8907 66.5904 29.9619L66.5856 33.8037L65.0155 33.7989L65.0187 25.2711L67.4571 25.297C67.8209 25.3002 68.1685 25.3698 68.5 25.5007C69.0724 25.7093 69.4863 26.1621 69.6076 26.7684C69.8275 27.8631 69.6885 29.1679 68.6763 29.632L69.8388 33.7795ZM67.9567 28.5487C68.3318 28.0377 68.3157 27.0934 67.9131 26.6423C67.5897 26.2817 67.0173 26.3739 66.5936 26.3787V28.8931C67.0351 28.9335 67.6366 28.9852 67.9567 28.5487Z" fill="#AAAAAA"/>
<path d="M59.3935 33.7891L58.3554 33.8052L56.2938 28.9479L56.2583 33.8036L54.9324 33.8052L54.9291 25.2726L56.0141 25.2743L58.0498 29.8922L58.0983 25.2694L59.3951 25.2726L59.3935 33.7891Z" fill="#AAAAAA"/>
<path d="M75.2558 32.8093C74.7174 33.9056 73.3656 34.0851 72.2046 33.8054C71.0437 33.5256 70.6556 32.4277 70.6604 31.2781L70.6766 27.4831C70.6798 26.7895 70.9224 26.1006 71.4463 25.6608C72.2386 24.9963 74.1805 24.9833 74.9373 25.8112C75.3819 26.2963 75.5646 26.9625 75.5646 27.6319L75.5695 31.3573C75.5695 31.8731 75.4741 32.3631 75.2542 32.8109L75.2558 32.8093ZM73.157 32.7479C73.6243 32.7333 73.959 32.4067 73.9606 31.9394L73.9671 27.2018C73.9671 26.6698 73.6097 26.3367 73.1133 26.3383C72.6169 26.34 72.2661 26.6844 72.2661 27.2147L72.2742 31.9135C72.2742 32.4213 72.6186 32.7657 73.157 32.7479Z" fill="#AAAAAA"/>
<path d="M47.9842 30.4906L47.0771 30.4825V29.4639H49.4022V33.8021L48.3803 33.8054L48.238 33.0713C47.9583 33.6922 47.3924 33.9541 46.7197 33.9234C46.094 33.8943 45.486 33.7261 45.1109 33.199C44.7357 32.6719 44.5724 32.0203 44.5724 31.3557L44.5676 27.8647C44.5676 27.3392 44.6533 26.8444 44.8457 26.3707C45.3114 25.2275 46.592 25.0335 47.7934 25.2566C49.1419 25.5056 49.4346 26.7474 49.3505 28.1202H47.8548C47.8419 27.64 47.9502 27.1048 47.6883 26.6585C47.4425 26.2413 46.6987 26.2429 46.3963 26.5922C46.1877 26.8331 46.1538 27.1694 46.1522 27.475L46.1473 31.4333C46.1473 31.768 46.1974 32.127 46.3608 32.4116C46.5564 32.7511 46.9833 32.7932 47.36 32.6994C48.0278 32.5344 48.0213 31.3897 47.9825 30.4906H47.9842Z" fill="#AAAAAA"/>
<path d="M53.6596 29.9312L52.0734 29.9441L52.075 32.7075L54.1285 32.7188L54.1269 33.8021H50.5017V25.276L54.0832 25.2776L54.0703 26.3901L52.0863 26.403L52.0734 28.8106L53.6628 28.8219L53.6596 29.9312Z" fill="#AAAAAA"/>
<path d="M63.7432 29.9312L62.1505 29.9376L62.1521 32.7155L64.1862 32.7204L64.1878 33.8005L60.5917 33.8021V25.276L64.1652 25.2776L64.1668 26.3868L62.1537 26.3901L62.1505 28.8171L63.7432 28.8219V29.9312Z" fill="#AAAAAA"/>
<path d="M40.9345 29.9247L39.3224 29.9377L39.3256 32.714L41.3629 32.722V33.8005L37.7556 33.8038V25.2744H41.3274V26.3901H39.3288L39.324 28.8155L40.9345 28.8284V29.9247Z" fill="#AAAAAA"/>
<path d="M72.0087 17.505C72.0087 18.1874 71.8308 18.7889 71.4185 19.2626C71.0337 19.6556 70.5114 19.869 69.9519 19.8739L67.3373 19.9013V11.3768L69.9535 11.4076C70.4564 11.414 70.9318 11.5789 71.3215 11.8846C71.7969 12.3147 72.0054 12.9275 72.0054 13.5856L72.0087 17.5067V17.505ZM70.4208 17.6586L70.4111 13.3592C70.4111 12.9145 70.1298 12.5443 69.6981 12.5297L68.8945 12.5022V18.7808C69.3116 18.818 69.732 18.8293 70.0732 18.6078C70.3384 18.4364 70.4225 18.0241 70.4208 17.657V17.6586Z" fill="#AAAAAA"/>
<path d="M60.9324 17.7654C60.9308 18.9344 60.0609 19.8642 58.8692 19.8755L56.2724 19.8998V11.3752L58.9808 11.4108C60.0981 11.4254 60.8516 12.2096 60.9389 13.3366L60.9324 17.7654ZM59.364 17.6215L59.3575 13.4174C59.3575 13.1458 59.2621 12.8871 59.0988 12.7335C58.853 12.5006 58.2273 12.4263 57.8473 12.5605V18.776C58.2839 18.831 58.7091 18.8277 59.0293 18.5965C59.3123 18.3928 59.3656 17.9901 59.3656 17.6215H59.364Z" fill="#AAAAAA"/>
<path d="M37.204 16.5849V15.5679H39.5356V19.8996L38.5104 19.9061L38.3779 19.1866C38.0464 19.822 37.4724 20.05 36.7868 20.0177C35.9912 19.9805 35.3024 19.628 34.9936 18.8696C34.8157 18.4331 34.7009 17.9577 34.7009 17.4597V13.8183C34.7042 12.6735 35.1876 11.5789 36.3308 11.3557C36.8789 11.2474 37.4562 11.2522 38.0027 11.3703C39.306 11.6549 39.5679 12.9436 39.4709 14.208L37.9817 14.1983C37.972 13.7068 38.0674 13.2071 37.8232 12.7657C37.5791 12.3243 36.8353 12.3291 36.5232 12.6913C36.3195 12.9274 36.2774 13.2766 36.2791 13.5855L36.3049 17.9124C36.3082 18.4363 36.6267 18.8017 37.0552 18.8422C37.5758 18.8907 37.9494 18.6061 38.048 18.0693C38.1369 17.5906 38.1418 17.1088 38.1175 16.5946L37.204 16.5865V16.5849Z" fill="#AAAAAA"/>
<path d="M45.3679 11.3768L45.3647 17.3029C45.3647 18.522 45.017 19.6523 43.8269 19.9126C42.6369 20.1729 41.2075 19.9611 40.7984 18.7371C40.6723 18.3603 40.5818 17.9739 40.5801 17.5583L40.564 11.3735H42.092L42.0887 17.3012C42.0887 18.0855 42.2278 18.7646 42.8843 18.8244C43.1786 18.8519 43.4761 18.7533 43.6329 18.4768C43.8075 18.1679 43.8447 17.809 43.8447 17.4435L43.8528 11.3784H45.3679V11.3768Z" fill="#AAAAAA"/>
<path d="M64.7617 17.94L63.3145 17.9303L62.9604 19.903L61.4712 19.8949L63.2046 11.3768H64.8409L66.5678 19.9013H65.098L64.7617 17.94ZM64.5935 16.8469L64.0276 13.8119L63.4827 16.8809C63.9354 16.9003 64.2151 16.9407 64.5935 16.8469Z" fill="#AAAAAA"/>
<path d="M49.3539 17.9546L47.8987 17.9352L47.5494 19.903H46.0554L47.7903 11.3785L49.4267 11.3752L51.1568 19.8949L49.6902 19.9062L49.3539 17.9562V17.9546ZM49.1777 16.8389L48.6182 13.6939L48.0588 16.8745C48.4775 16.9003 48.7815 16.9537 49.1777 16.8389Z" fill="#AAAAAA"/>
<path d="M55.5254 18.8213L55.5238 19.9014H51.9229V11.3801L53.4961 11.3752L53.4929 18.8083L55.5254 18.8213Z" fill="#AAAAAA"/>
<path d="M33.5874 11.3712L32.0141 11.3754L32.0364 19.9047L33.6097 19.9006L33.5874 11.3712Z" fill="#AAAAAA"/>
<path d="M52.7509 24.5532L51.8842 24.5807L52.5084 22.469L54.004 22.4576L52.7509 24.5532Z" fill="#AAAAAA"/>
<path d="M62.5723 107.792L57.01 107.803L56.9939 102.123L51.0484 102.108L51.0549 96.5573L56.9906 96.5492L57.002 90.9853C48.0765 89.8389 41.0622 82.4948 40.4122 73.4722C40.0128 68.2592 41.772 63.1287 45.2517 59.282C51.9571 51.7826 63.3614 50.806 71.2391 57.0085L77.6115 50.6038L71.6935 50.5731L71.6854 45.3536L86.6453 45.3633V60.32L81.4307 60.3152L81.3806 54.7739L75.0761 61.0444C80.5058 68.712 79.5243 79.3061 72.662 85.837C69.9229 88.4629 66.4578 90.2464 62.5804 90.8899L62.5691 96.5379L68.5 96.5654L68.4968 102.113L62.5756 102.124L62.5707 107.793L62.5723 107.792ZM73.5028 72.0412C73.5028 64.288 67.2178 58.0013 59.4629 58.0013C51.7081 58.0013 45.4231 64.2864 45.4231 72.0412C45.4231 79.7961 51.7081 86.0811 59.4629 86.0811C67.2178 86.0811 73.5028 79.7961 73.5028 72.0412Z" fill="#AAAAAA"/>
<path d="M68.2621 73.6177H50.7991V78.1128H68.2621V73.6177Z" fill="#AAAAAA"/>
<path d="M68.2604 66.2461H50.7974V70.7477H68.2604V66.2461Z" fill="#AAAAAA"/>
</svg>
