<svg width="120" height="120" viewBox="0 0 120 120" fill="none" xmlns="http://www.w3.org/2000/svg">
<path d="M76.7478 99.0052C72.0166 101.164 67.0801 101.869 61.9706 100.761C55.1083 99.2736 48.1813 95.1698 42.6773 90.7847C39.6681 96.1998 34.6378 100.703 28.301 101.232C28.1442 101.264 28.0245 101.206 27.9582 101.138C27.892 101.07 27.7949 100.858 27.8693 100.73C29.4717 98.0237 30.7814 95.1876 31.6044 92.1348C32.7298 87.9582 32.5795 84.5869 31.2908 80.4751C30.4694 77.8524 29.3213 75.4156 27.9211 73.0646C27.824 72.9029 27.8337 72.7364 27.9324 72.6022C28.0068 72.5019 28.1377 72.4275 28.3366 72.4518C34.675 73.0064 39.6681 77.4902 42.6789 82.9021C46.1391 80.1274 49.8112 77.7602 53.7727 75.8328C56.1011 74.6993 58.4634 73.8068 60.96 73.1584C68.3866 71.2294 75.396 73.1681 81.5954 77.4433C85.2691 79.9754 88.4609 83.101 91.1596 86.634C91.2792 86.7908 91.234 86.9574 91.124 87.1013C87.4083 91.9683 82.3521 96.4472 76.7494 99.0052H76.7478ZM78.0252 84.4802C78.0252 82.3297 76.2821 80.5882 74.1332 80.5882C71.9843 80.5882 70.2412 82.3313 70.2412 84.4802C70.2412 86.6291 71.9843 88.3722 74.1332 88.3722C76.2821 88.3722 78.0252 86.6291 78.0252 84.4802Z" fill="#AAAAAA"/>
<path d="M90.7177 52.7735C86.2113 56.879 80.7962 55.8667 76.6229 51.8325C76.4224 51.6385 76.2251 51.6077 76.0165 51.8066C75.2177 52.5666 74.3802 53.2214 73.4132 53.7728C68.619 56.5281 63.3154 54.9677 59.2116 51.5447C55.1838 54.9014 49.9789 56.4909 45.217 53.8925C44.1563 53.312 43.2395 52.6054 42.3712 51.7791C42.1723 51.5899 41.9831 51.6579 41.8085 51.8276C39.0484 54.5101 35.1888 56.2435 31.3922 54.9871C29.9968 54.5247 28.7922 53.7566 27.7072 52.7816L27.7039 49.9019C27.7039 49.7741 27.7654 49.6625 27.8398 49.6076C27.9271 49.5429 28.0791 49.5041 28.2133 49.572C31.7285 51.3474 35.6852 51.6336 39.2246 49.7822C40.3145 49.2114 41.2588 48.4935 42.14 47.6543C42.3356 47.4667 42.4957 47.5185 42.6881 47.664C44.5573 49.0756 46.6577 50.1201 48.957 50.6246C52.7358 51.4541 56.1395 50.3417 58.898 47.7238C59.0952 47.5363 59.3362 47.5492 59.5334 47.7352C62.4019 50.4468 65.8961 51.5059 69.7913 50.5503C71.9531 50.0199 73.929 49.0206 75.6964 47.6899C75.9114 47.5282 76.0731 47.457 76.2898 47.6656C77.1128 48.4515 77.9956 49.129 79.0046 49.682C82.5797 51.6433 86.6382 51.3846 90.2181 49.5639C90.3313 49.5057 90.4622 49.5429 90.5431 49.5882C90.632 49.6383 90.7242 49.7596 90.7226 49.9067L90.7177 52.7735Z" fill="#AAAAAA"/>
<path d="M90.7167 62.4557C86.1359 66.6015 80.7661 65.5279 76.5459 61.4499C76.3955 61.306 76.1998 61.3206 76.0511 61.4629C74.971 62.4945 73.7971 63.3417 72.4275 63.9627C67.8386 66 62.9797 64.3734 59.2123 61.23C55.5208 64.3006 50.7686 65.9547 46.2185 64.0613C44.7633 63.4372 43.5166 62.5592 42.3767 61.4726C42.2376 61.34 42.0307 61.2963 41.8803 61.4418C37.6892 65.5149 32.274 66.6096 27.711 62.4621L27.6997 59.605C27.6997 59.4756 27.7563 59.3495 27.8242 59.2978C27.8857 59.2509 28.0522 59.1814 28.1638 59.238C31.7598 61.036 35.7666 61.3432 39.3562 59.3883C40.3668 58.8386 41.2691 58.1756 42.0824 57.3817C42.3249 57.144 42.4947 57.2038 42.7421 57.3898C44.6307 58.8143 46.7699 59.8524 49.0967 60.3407C52.7364 61.1055 56.2112 60.0028 58.8468 57.4512C59.0603 57.2443 59.3125 57.2103 59.5421 57.4286C62.354 60.0933 65.8142 61.1686 69.648 60.2696C71.8648 59.7505 73.8779 58.7448 75.6905 57.3833C75.8441 57.2685 76.0349 57.1133 76.2176 57.2879C77.2266 58.25 78.3196 59.0585 79.5889 59.6632C83.0249 61.2979 86.8021 60.9519 90.1621 59.2832C90.306 59.2121 90.437 59.2105 90.5583 59.2784C90.6795 59.3463 90.7345 59.5031 90.7329 59.6842L90.7167 62.4589V62.4557Z" fill="#AAAAAA"/>
<path d="M28.0509 28.3902L28.0428 33.6614L24.1751 33.6663V28.387L17.4697 28.3886L17.4794 24.9995L23.2696 11.3848L28.0428 11.3816V25.1547L30.2726 25.166V28.3853L28.0542 28.3886L28.0509 28.3902ZM24.1881 25.1515L24.1363 15.9689L20.8151 25.1612L24.1881 25.1515Z" fill="#AAAAAA"/>
<path d="M11.335 15.8395L8.1286 17.0053L8.12375 13.8442C9.13434 13.4173 10.0916 12.9355 11.0326 12.3582C11.5015 12.0688 11.9074 11.7567 12.3052 11.3816L15.6053 11.3897V33.6663H11.3366V15.8395H11.335Z" fill="#AAAAAA"/>
<path d="M51.0193 17.2673C51.0226 17.8009 50.9385 18.2731 50.7671 18.7226C50.4502 19.4453 49.7678 19.8625 48.9723 19.8722L46.3334 19.9029V11.3784L48.83 11.4011C49.3652 11.4059 49.8762 11.5498 50.2949 11.8764C50.7687 12.2774 50.9935 12.8676 50.9967 13.5047L51.0177 17.2673H51.0193ZM49.425 17.6214L49.4218 13.4562C49.4218 13.1279 49.307 12.7561 49.0046 12.6235C48.6489 12.4666 48.2414 12.4521 47.8938 12.5475V18.7792C48.3029 18.8196 48.7621 18.8471 49.1016 18.5948C49.3684 18.3959 49.4266 17.9788 49.425 17.6214Z" fill="#AAAAAA"/>
<path d="M54.5671 17.9415L53.0924 17.9269L52.748 19.9044L51.2621 19.8996L53.0003 11.3718H54.6334L56.357 19.8963L54.8986 19.9044L54.5671 17.9415ZM54.386 16.8355L53.8217 13.6097L53.2654 16.8743C53.6778 16.8985 53.985 16.9551 54.386 16.8338V16.8355Z" fill="#AAAAAA"/>
<path d="M41.8062 11.3848L43.2258 11.3832L41.4876 19.8996L39.9742 19.9045L38.2457 11.3832L39.6233 11.3687L40.7487 17.0312L41.8062 11.3848Z" fill="#AAAAAA"/>
<path d="M45.3666 11.3784H43.8111V19.9013H45.3666V11.3784Z" fill="#AAAAAA"/>
<path d="M59.3885 33.8054L59.2608 28.2948L58.0626 33.794L57.1475 33.8005L55.9639 28.4209L55.8119 33.807L54.6315 33.8037L54.7592 25.2728L56.3568 25.2695L57.5905 31.0695L58.8566 25.2873L60.4153 25.2695L60.5657 33.7973L59.3885 33.8054Z" fill="#AAAAAA"/>
<path d="M52.5943 29.2262C53.2573 29.4187 53.6857 29.8148 53.8507 30.4276C54.0091 31.0857 54.0075 31.7503 53.8167 32.4035C53.558 33.1975 52.8757 33.7699 52.0219 33.7763L49.1244 33.8006V25.2793L51.3929 25.2874C51.8489 25.2874 52.2839 25.3569 52.6946 25.5429C53.1829 25.7563 53.516 26.1638 53.634 26.6844C53.7423 27.2212 53.7504 27.7726 53.5968 28.2917C53.4432 28.7687 53.1279 29.0646 52.5959 29.2246L52.5943 29.2262ZM52.051 28.4695C52.4359 28.0572 52.4763 27.1582 52.1383 26.7329C51.8004 26.3077 51.1714 26.3982 50.6879 26.3982V28.7298C51.1229 28.7509 51.6856 28.8624 52.051 28.4695ZM52.3679 32.0559C52.5054 31.5385 52.5054 31.0275 52.3502 30.5505C52.1335 29.8843 51.4447 29.8035 50.6815 29.8811V32.6816C51.4431 32.7512 52.1335 32.7334 52.3679 32.0559Z" fill="#AAAAAA"/>
<path d="M71.4671 33.7972L69.8906 33.8021L68.8961 29.9829C68.6746 29.8891 68.4579 29.8875 68.2041 29.9521V33.8021L66.6373 33.7988V25.2727L68.7797 25.2873C69.2648 25.2905 69.7337 25.3422 70.1784 25.5233C70.7572 25.7513 71.1453 26.2332 71.2472 26.8492C71.4218 27.897 71.3118 29.2132 70.2948 29.6029L71.4671 33.7956V33.7972ZM69.585 28.547C69.9488 28.049 69.9358 27.1435 69.5736 26.6827C69.2583 26.2817 68.6681 26.3641 68.2089 26.3771V28.9011C68.6698 28.9286 69.2616 28.99 69.585 28.5486V28.547Z" fill="#AAAAAA"/>
<path d="M79.1717 33.7682C78.8434 33.8345 78.4974 33.8037 78.1336 33.7908L76.0752 28.8899L76.051 33.7957L74.7348 33.8021L74.7397 25.2711H75.7955L77.8426 29.9441L77.8797 25.2695H79.162L79.1701 33.7682H79.1717Z" fill="#AAAAAA"/>
<path d="M48.2382 25.2759V31.1971C48.2382 32.3872 47.9115 33.5142 46.7635 33.7988C46.1491 33.9524 45.5136 33.9524 44.8976 33.7923C43.7657 33.498 43.452 32.3824 43.4488 31.2085L43.4342 25.2711L44.9574 25.2678L44.9622 31.2699C44.9622 31.6337 44.993 31.9927 45.1385 32.3144C45.3067 32.6831 45.7351 32.8076 46.1248 32.688C46.4078 32.6006 46.6891 32.2401 46.6924 31.8261L46.7279 25.2743H48.2365L48.2382 25.2759Z" fill="#AAAAAA"/>
<path d="M64.3398 31.8472L62.8878 31.8407L62.5272 33.8037L61.0526 33.7924L62.7762 25.2759L64.4093 25.2727L66.1378 33.7924L64.6777 33.8053L64.3382 31.8456L64.3398 31.8472ZM64.1684 30.7428L63.5992 27.572L63.0479 30.7994C63.4828 30.8026 63.8159 30.8835 64.1684 30.7428Z" fill="#AAAAAA"/>
<path d="M82.9652 31.8473L81.5084 31.8376L81.1543 33.8055L79.6699 33.799L81.4065 25.2712L83.0315 25.2745L84.7649 33.7941L83.3048 33.8071L82.9652 31.8473ZM82.789 30.743L82.2231 27.5705L81.6717 30.7979C82.1083 30.8028 82.443 30.8804 82.7874 30.743H82.789Z" fill="#AAAAAA"/>
<path d="M40.7114 33.9169C39.1107 33.8798 38.4655 32.7964 38.4348 31.2991L39.7817 31.0275C39.8254 31.5239 39.8529 32.0526 40.1843 32.4552C40.3767 32.6881 40.7163 32.7527 40.9928 32.6719C41.2515 32.5975 41.431 32.3016 41.4407 31.9702C41.4569 31.4026 41.1901 30.9208 40.7713 30.5521L39.2902 29.2505C38.6612 28.6975 38.4057 27.9925 38.4299 27.163C38.459 26.1233 39.1446 25.3326 40.2021 25.2178C40.8602 25.1467 41.5878 25.1855 42.0923 25.6673C42.5968 26.1492 42.7504 26.859 42.7666 27.5106L41.4423 27.7645C41.431 27.4007 41.4051 27.0272 41.224 26.6908C41.0639 26.3933 40.7325 26.3141 40.4188 26.3933C40.1568 26.4612 39.9386 26.6989 39.903 27.0369C39.8577 27.4767 40.0275 27.8858 40.3557 28.1784L41.95 29.6046C42.807 30.3726 43.1708 31.5271 42.7892 32.6347C42.4901 33.503 41.6428 33.938 40.7098 33.9153L40.7114 33.9169Z" fill="#AAAAAA"/>
<path d="M73.7356 25.2793H72.2076V33.8022H73.7356V25.2793Z" fill="#AAAAAA"/>
</svg>
