<svg width="120" height="120" viewBox="0 0 120 120" fill="none" xmlns="http://www.w3.org/2000/svg">
<path d="M25.5475 33.8005C24.2814 34.1417 23.0137 34.1385 21.7719 33.8652C20.3684 33.5564 19.2155 32.7237 18.5057 31.4754C17.9527 30.5036 17.6115 29.4235 17.6099 28.2674L17.5938 17.2366C17.5921 16.1128 17.8266 15.0731 18.2713 14.0836C18.9213 12.6348 20.1243 11.6323 21.6814 11.2911C22.9426 11.013 24.2361 11.0114 25.4909 11.3089C28.3707 11.9929 29.5025 14.7109 29.5025 17.5503V27.6982C29.5025 30.4276 28.2817 33.0648 25.5475 33.8005ZM25.1707 27.6966V17.5503C25.1707 16.9019 25.0656 16.3182 24.8781 15.7361C24.6776 15.1168 24.1521 14.8306 23.5166 14.8355C22.8812 14.8403 22.333 15.1734 22.1584 15.8153C22.0129 16.3554 21.9175 16.8809 21.9175 17.4727L21.9223 27.8518C21.9223 29.1308 22.3961 30.3516 23.6282 30.3015C24.8603 30.2514 25.1707 28.94 25.1707 27.6966Z" fill="#AAAAAA"/>
<path d="M90.3438 74.4828L79.9097 84.9331C79.8175 85.0253 79.5831 85.0043 79.5831 84.8701L79.5798 64.0746C79.6801 63.942 79.8111 63.9452 79.9307 64.06L90.3422 74.4844L90.3438 74.4828Z" fill="#AAAAAA"/>
<path d="M70.7459 77.851H48.7588V84.8717H70.7459V77.851Z" fill="#AAAAAA"/>
<path d="M70.7459 64.1085H48.7588V71.1341H70.7459V64.1085Z" fill="#AAAAAA"/>
<path d="M39.9239 84.8183C39.9094 85.0026 39.7072 85.0446 39.6054 84.9428L29.1519 74.4844L39.6102 64.0099C39.6717 63.9484 39.7849 63.9759 39.822 63.9937C39.8592 64.0115 39.9223 64.0438 39.9223 64.1554V84.8199L39.9239 84.8183Z" fill="#AAAAAA"/>
<path d="M70.0235 54.6574H49.4527C49.3428 54.6574 49.2781 54.6008 49.2539 54.562C49.2312 54.5265 49.207 54.4149 49.2652 54.3567L59.7462 43.8854L70.2094 54.3373C70.266 54.3939 70.2531 54.4877 70.2417 54.5184C70.224 54.5637 70.2126 54.6574 70.0218 54.6574H70.0235Z" fill="#AAAAAA"/>
<path d="M70.2385 94.5992L59.7526 105.079L49.2878 94.6283C49.2215 94.562 49.236 94.4779 49.2457 94.4375C49.2603 94.3728 49.3185 94.3049 49.4592 94.3049H70.0638C70.2029 94.2984 70.3694 94.4682 70.2385 94.5992Z" fill="#AAAAAA"/>
<path d="M11.1226 15.8573L7.89844 17.0005L7.89197 13.8458C9.06263 13.3607 10.1638 12.7883 11.2277 12.0898C11.5349 11.8667 11.805 11.6516 12.0588 11.3816H15.3978V33.6646H11.1258L11.1226 15.8557V15.8573Z" fill="#AAAAAA"/>
<path d="M52.7055 17.5099C52.7088 18.8504 51.9262 19.8529 50.6908 19.869L48.0212 19.9046V11.3752L50.7523 11.4141C51.9084 11.4302 52.6457 12.2743 52.6958 13.4401L52.7055 17.5099ZM51.1144 17.7363V13.4288C51.1128 13.1167 50.9819 12.7545 50.7021 12.63C50.3529 12.4731 49.9422 12.4651 49.5945 12.5475V18.7808C49.9939 18.8245 50.4046 18.8358 50.7523 18.624C51.0126 18.4655 51.1144 18.0936 51.1144 17.7379V17.7363Z" fill="#AAAAAA"/>
<path d="M80.7467 27.2245L80.7321 31.8457C80.7289 32.9533 79.8752 33.7601 78.7983 33.7731L76.0964 33.8038V25.2728L78.5557 25.2987C79.002 25.3035 79.4079 25.4103 79.8105 25.6011C80.3505 25.9342 80.7499 26.5146 80.7483 27.2261L80.7467 27.2245ZM79.1831 31.629L79.1766 27.2503C79.1766 26.9189 78.9778 26.5825 78.6802 26.4871C78.352 26.382 78.0254 26.382 77.6632 26.4386V32.68C78.069 32.7253 78.4668 32.7366 78.8064 32.5394C79.0764 32.3841 79.1847 31.9896 79.1831 31.6274V31.629Z" fill="#AAAAAA"/>
<path d="M91.3683 31.671C91.3683 32.3857 91.0449 32.9985 90.5323 33.4027C90.0747 33.6809 89.5638 33.7989 89.0237 33.7989L86.7115 33.8037V25.276L89.1741 25.3003C89.7594 25.3067 90.2995 25.4603 90.7457 25.8322C91.1403 26.2268 91.3764 26.7636 91.3747 27.3473L91.3683 31.6694V31.671ZM89.7982 31.616L89.7918 27.2729C89.7918 26.8638 89.5702 26.5275 89.1692 26.4547C88.8846 26.403 88.6082 26.3707 88.2783 26.4483V32.6767C88.6971 32.7317 89.0949 32.7349 89.4247 32.5361C89.7109 32.3647 89.7998 31.9815 89.7998 31.616H89.7982Z" fill="#AAAAAA"/>
<path d="M42.9294 31.5804C42.9294 32.245 42.6804 32.819 42.2633 33.2572C41.8639 33.5855 41.3853 33.7746 40.8614 33.7795L38.2629 33.8054V25.276L40.593 25.2938C41.1492 25.2986 41.6682 25.4005 42.1355 25.7045C42.6254 26.0764 42.923 26.6633 42.923 27.3133L42.9278 31.5804H42.9294ZM41.3497 31.6322L41.3416 27.2454C41.3416 26.8897 41.1362 26.5663 40.8064 26.4758C40.4992 26.3917 40.1984 26.3707 39.8346 26.4483V32.6719C40.2825 32.7366 40.7061 32.7333 41.0328 32.494C41.2688 32.321 41.3497 31.9637 41.3497 31.6306V31.6322Z" fill="#AAAAAA"/>
<path d="M90.6228 17.5067C90.6228 18.1437 90.4562 18.7064 90.1086 19.1705C89.7237 19.6248 89.1707 19.8674 88.566 19.8739L85.9449 19.903V11.3768L88.566 11.4076C89.2322 11.4156 89.8418 11.6824 90.2314 12.216C90.4982 12.6413 90.6228 13.1393 90.6228 13.66V17.5067ZM89.0381 17.6603L89.0333 13.4352C89.0333 13.1021 88.8975 12.7399 88.5919 12.6154C88.2426 12.4731 87.8562 12.4634 87.5101 12.5346V18.7792C87.9419 18.8261 88.3574 18.8325 88.6954 18.6062C88.9638 18.4267 89.0398 18.0305 89.0381 17.6603Z" fill="#AAAAAA"/>
<path d="M82.6756 19.8916L81.6327 19.8933L79.5711 14.9907L79.5436 19.8997L78.2128 19.9013L78.2161 11.3704L79.3027 11.3752L81.3351 15.9964L81.382 11.3768H82.6788L82.6756 19.8916Z" fill="#AAAAAA"/>
<path d="M43.0814 19.8787L41.5162 19.9078L40.5137 16.0627C40.2922 15.9867 40.103 15.9835 39.8346 16.0659L39.8378 19.9029H38.2629V11.38H40.3617C40.8614 11.3784 41.3351 11.4431 41.796 11.6113C42.9569 12.0624 43.1154 13.4659 42.8179 14.6527C42.6934 15.1443 42.3813 15.4951 41.9221 15.728L43.083 19.8803L43.0814 19.8787ZM41.2203 14.6236C41.5663 14.1191 41.555 13.2314 41.1864 12.769C40.8743 12.3745 40.2308 12.4294 39.8314 12.5151L39.8459 14.9971C40.3229 15.0279 40.9163 15.0683 41.2203 14.6252V14.6236Z" fill="#AAAAAA"/>
<path d="M76.6717 19.4276C75.8729 20.2231 73.9116 20.2021 73.1516 19.4324C72.7199 18.9959 72.4822 18.3539 72.4822 17.7185V13.4837C72.4822 12.8127 72.7668 12.1433 73.2712 11.7342C74.0603 11.0955 75.9473 11.0955 76.6959 11.8651C77.1681 12.3502 77.3653 13.0487 77.3637 13.7376L77.3573 17.6182C77.3573 18.2779 77.1519 18.949 76.6733 19.426L76.6717 19.4276ZM75.7759 17.8818L75.7678 13.2897C75.7678 12.748 75.4008 12.423 74.8963 12.4311C74.3918 12.4392 74.0668 12.7561 74.0668 13.2719L74.0555 17.8915C74.0555 18.4801 74.3966 18.8633 74.9367 18.8471C75.4185 18.8325 75.7791 18.4881 75.7775 17.8818H75.7759Z" fill="#AAAAAA"/>
<path d="M65.8335 31.5142C65.8319 32.0737 65.688 32.5668 65.4487 33.0131C64.9668 33.9138 63.6264 34.0463 62.5786 33.8119C61.3303 33.5322 61.0538 32.3114 61.0522 31.0437L61.0474 25.2728H62.5705L62.6045 31.8004C62.6077 32.3534 62.978 32.7334 63.4501 32.7415C63.9223 32.7496 64.2974 32.3566 64.299 31.8069L64.3233 25.2874L65.8513 25.2744L65.8335 31.5158V31.5142Z" fill="#AAAAAA"/>
<path d="M58.8324 30.5117L57.9107 30.4858L57.9043 29.4672L60.2505 29.4736L60.2456 33.8038L59.2043 33.7941C59.1703 33.5224 59.2011 33.3284 59.0798 33.0794C58.7354 33.7617 58.1662 33.9428 57.5114 33.9234C56.6625 33.8992 55.9462 33.4901 55.6583 32.6703C55.5161 32.2645 55.4045 31.8295 55.4045 31.3784V27.6837C55.4061 27.2778 55.5015 26.88 55.6244 26.5114C56.0658 25.1903 57.5679 24.9704 58.834 25.31C60.0305 25.6302 60.2618 26.9011 60.1842 28.1251L58.6901 28.0992C58.6723 27.6077 58.7758 27.1048 58.5365 26.6747C58.2972 26.2446 57.5712 26.2333 57.2462 26.5728C57.0408 26.7863 56.9939 27.1048 56.9939 27.3942L56.9907 31.5045C56.9907 31.823 57.0441 32.1642 57.2074 32.4278C57.3998 32.7398 57.7959 32.7786 58.1177 32.714C58.4621 32.6461 58.7402 32.3518 58.7596 31.9556L58.8324 30.5052V30.5117Z" fill="#AAAAAA"/>
<path d="M58.3116 11.3785L58.2954 17.3838C58.2922 18.4801 57.9462 19.5747 56.9032 19.8723C56.2823 20.0501 55.6178 20.0501 54.9904 19.8981C53.8407 19.6184 53.5077 18.493 53.5077 17.3046L53.5028 11.3785H55.0227L55.0276 17.4614C55.0276 18.1955 55.2216 18.7824 55.8458 18.8293C56.1546 18.8536 56.465 18.7226 56.6041 18.4089C56.7351 18.1179 56.782 17.7945 56.782 17.4582V11.3752L58.3148 11.3785H58.3116Z" fill="#AAAAAA"/>
<path d="M62.2115 18.391C62.378 17.8364 62.2858 17.2931 62.2972 16.7126L63.8219 16.6948C63.8607 17.8137 63.7993 19.2415 62.855 19.7055C61.9835 20.1324 60.8516 20.1421 60.0173 19.6134C59.4044 19.2237 59.1182 18.4702 59.1134 17.7604L59.0859 13.8943C59.0827 13.4351 59.1635 12.992 59.3074 12.5765C59.7311 11.3589 61.0699 11.1147 62.3101 11.3605C63.7556 11.6467 63.8898 13.1198 63.8155 14.4877L62.2939 14.478C62.2939 13.9444 62.3618 13.4173 62.2325 12.9031C62.1241 12.4778 61.6795 12.3857 61.2817 12.46C60.9195 12.5263 60.6802 12.9063 60.6802 13.3639L60.6834 17.9156C60.6834 18.3376 60.905 18.7111 61.2154 18.7984C61.6083 18.9084 62.0805 18.8308 62.2115 18.3926V18.391Z" fill="#AAAAAA"/>
<path d="M67.6447 18.2181L67.6835 16.6982L69.1873 16.6901C69.2067 17.2883 69.2212 17.8931 69.087 18.4897C68.8784 19.4146 68.1524 19.9579 67.2097 19.9951C66.5322 20.021 65.8321 19.9854 65.284 19.5375C64.7746 19.122 64.4997 18.459 64.4949 17.7831L64.4642 14.048C64.4593 13.5419 64.5272 13.06 64.6841 12.596C65.098 11.3703 66.4094 11.123 67.6689 11.3542C69.1323 11.6242 69.2778 13.1102 69.1856 14.4894L67.6867 14.4846C67.6512 13.9591 67.753 13.419 67.6059 12.8935C67.4895 12.4731 67.0238 12.3809 66.639 12.4666C66.2945 12.5442 66.0633 12.9016 66.0633 13.3349L66.0682 17.9432C66.0682 18.4105 66.3301 18.7711 66.7085 18.8293C67.1515 18.8972 67.6301 18.7339 67.6431 18.2197L67.6447 18.2181Z" fill="#AAAAAA"/>
<path d="M104.967 17.9336L103.52 17.9303L103.165 19.903L101.678 19.8949L103.408 11.3752H105.048L106.771 19.8998H105.305L104.968 17.9336H104.967ZM104.802 16.8405L104.231 13.8136L103.686 16.8809C104.136 16.8987 104.422 16.9488 104.8 16.8389L104.802 16.8405Z" fill="#AAAAAA"/>
<path d="M69.6317 31.8813C69.1208 31.8004 68.647 31.8344 68.1506 31.8651L67.8078 33.8055L66.317 33.7974L68.0585 25.2712L69.6883 25.2745L71.4136 33.7941L69.9519 33.8055L69.6317 31.8813ZM69.4393 30.7446L68.875 27.5738L68.3269 30.7996C68.757 30.8012 69.0933 30.8788 69.4393 30.7446Z" fill="#AAAAAA"/>
<path d="M84.3816 31.8845L82.9199 31.8424L82.5545 33.8054L81.0798 33.7941L82.8035 25.2793L84.4366 25.2744L86.1651 33.7941L84.7034 33.8054L84.3816 31.8845ZM84.1941 30.7429L83.6314 27.5737L83.0768 30.7995C83.5069 30.8027 83.8416 30.882 84.1941 30.7429Z" fill="#AAAAAA"/>
<path d="M98.5329 33.9153C96.9305 33.8829 96.2741 32.7996 96.253 31.2926L97.6145 31.0064C97.6242 31.7728 97.8021 32.612 98.4634 32.6945C98.7334 32.7285 99.0617 32.6347 99.17 32.3372C99.4028 31.7017 99.1231 31.0258 98.6299 30.5925L97.0275 29.1777C96.4293 28.6489 96.2288 27.9439 96.2466 27.1629C96.2708 26.0941 96.9855 25.3051 98.0656 25.2064C98.7108 25.1482 99.4158 25.1951 99.9122 25.6673C100.409 26.1394 100.569 26.8557 100.585 27.5074L99.2573 27.7612C99.2379 27.399 99.225 27.0255 99.0439 26.694C98.9032 26.4353 98.6396 26.3399 98.3745 26.369C98.1432 26.3949 97.8781 26.5178 97.7827 26.7894C97.6032 27.302 97.7794 27.8259 98.1739 28.18L99.8071 29.6466C100.646 30.4001 100.979 31.5513 100.607 32.6347C100.31 33.5046 99.4643 33.9347 98.5297 33.9169L98.5329 33.9153Z" fill="#AAAAAA"/>
<path d="M50.1784 33.9138C49.4314 33.9057 48.7717 33.7149 48.3432 33.1473C47.9454 32.6186 47.8112 31.9589 47.8096 31.2927L49.163 30.9936C49.1662 31.7972 49.3893 32.6445 50.0264 32.6995C50.3142 32.7237 50.615 32.6283 50.7282 32.3179C50.9368 31.7471 50.7282 31.0825 50.269 30.6767L48.5906 29.1875C48.0069 28.67 47.7999 28.0039 47.7967 27.2423C47.7918 26.1072 48.5518 25.2664 49.7014 25.1969C50.3239 25.1597 50.9982 25.213 51.4736 25.6739C51.949 26.1347 52.1187 26.8494 52.1398 27.5075L50.8106 27.7629C50.7912 27.3894 50.7751 26.9997 50.5713 26.6553C50.4242 26.4079 50.1412 26.3303 49.8744 26.3756C49.6529 26.4128 49.4071 26.5599 49.3214 26.83C49.1581 27.3441 49.3473 27.8389 49.737 28.1882L51.3652 29.6515C52.1139 30.3242 52.4324 31.2717 52.2626 32.2677C52.0929 33.2638 51.2407 33.9267 50.1752 33.9154L50.1784 33.9138Z" fill="#AAAAAA"/>
<path d="M109.397 20.0096C107.786 19.9708 107.136 18.9133 107.109 17.3853L108.469 17.112C108.491 17.9836 108.703 18.8228 109.47 18.8001C109.707 18.792 109.963 18.653 110.05 18.3716C110.249 17.7265 109.952 17.0926 109.46 16.6593L107.859 15.2461C107.274 14.7287 107.091 14.0334 107.104 13.2702C107.122 12.1707 107.875 11.3719 108.988 11.2959C109.617 11.2522 110.309 11.3008 110.781 11.7697C111.253 12.2386 111.413 12.9128 111.45 13.5968L110.099 13.862C110.113 13.482 110.073 13.1247 109.908 12.8013C109.775 12.5409 109.502 12.4391 109.243 12.465C109.009 12.4876 108.742 12.6105 108.643 12.8837C108.464 13.3769 108.621 13.9024 109.006 14.2484L110.637 15.7134C111.475 16.4653 111.826 17.581 111.484 18.6724C111.206 19.5633 110.356 20.0339 109.397 20.0112V20.0096Z" fill="#AAAAAA"/>
<path d="M94.6441 16.0223L93.0708 16.0207L93.0514 18.8067L95.1081 18.8213L95.1065 19.903H91.4813V11.3752L95.0709 11.3785L95.0693 12.4877L93.053 12.4926V14.9131L94.6441 14.9212V16.0223Z" fill="#AAAAAA"/>
<path d="M46.9898 16.0045L45.3874 16.0288L45.3858 18.8148L47.4183 18.818L47.4199 19.9014L43.819 19.903V11.3752L47.3924 11.3769L47.394 12.4861L45.389 12.4926L45.3858 14.9163L46.9833 14.9196L46.9898 16.0045Z" fill="#AAAAAA"/>
<path d="M95.4204 29.9246L93.8164 29.9376L93.818 32.7155L95.8521 32.722L95.8537 33.8021L92.2512 33.8037L92.2496 25.2792H95.8246V26.3868L93.8196 26.3884L93.8164 28.817L95.4204 28.8284V29.9246Z" fill="#AAAAAA"/>
<path d="M46.9541 29.928L45.3679 29.9393L45.3695 32.714L47.402 32.722L47.4004 33.8038L43.8091 33.8022V25.2744L47.3874 25.2809L47.381 26.3885L45.376 26.3901L45.3679 28.8139L46.9525 28.8204L46.9541 29.928Z" fill="#AAAAAA"/>
<path d="M101.583 18.818L101.578 19.9013L97.9833 19.8997L97.9849 11.3784L99.5501 11.3768V18.8099L101.583 18.818Z" fill="#AAAAAA"/>
<path d="M75.5662 32.7221V33.8038H71.9653V25.2793L73.5321 25.2712V32.7092L75.5662 32.7221Z" fill="#AAAAAA"/>
<path d="M71.5772 11.3672L70.004 11.3713L70.0263 19.9007L71.5996 19.8965L71.5772 11.3672Z" fill="#AAAAAA"/>
<path d="M54.5164 25.2615H52.969V33.8022H54.5164V25.2615Z" fill="#AAAAAA"/>
<path d="M75.3509 10.6654L74.5037 10.6703L75.1133 8.56985L76.6057 8.54236L75.3509 10.6654Z" fill="#AAAAAA"/>
</svg>
