<svg width="120" height="120" viewBox="0 0 120 120" fill="none" xmlns="http://www.w3.org/2000/svg">
<path d="M11.3751 15.867L8.1655 16.9957L8.16873 13.8329C9.28927 13.3834 10.3176 12.832 11.3298 12.1917C11.6904 11.9443 12.0154 11.705 12.3259 11.3849H15.6503V33.6663H11.3784L11.3751 15.867Z" fill="#F89C25"/>
<path d="M20.6984 15.867L17.4791 16.9973L17.4823 13.8378C18.6045 13.3802 19.6344 12.8369 20.6434 12.1934C21.0056 11.9443 21.329 11.7067 21.6378 11.3849H24.972V33.6647H20.6984L20.6968 15.867H20.6984Z" fill="#F89C25"/>
<path d="M59.7572 55.4191V106.636H44.2426V55.4191H59.7572ZM50.5988 62.304H46.8411V66.4418H50.5988V62.304ZM57.2283 62.3056H53.4705V66.4434H57.2283V62.3056ZM50.5988 70.9595H46.8411V75.0972H50.5988V70.9595ZM57.2283 70.9595H53.4705V75.0989H57.2283V70.9595ZM50.5988 79.6133H46.8411V83.7495H50.5988V79.6133ZM57.2283 79.6133H53.4705V83.7495H57.2283V79.6133ZM50.5988 88.2672H46.8411V92.405H50.5988V88.2672ZM57.2283 88.2672H53.4705V92.4066H57.2283V88.2672ZM46.8411 96.9211V101.072H50.5988V96.9211H46.8411ZM57.2283 96.9211H53.4705V101.072H57.2283V96.9211Z" fill="#F89C25"/>
<path d="M36.3423 98.7289H31.8327C31.6111 98.7418 31.4349 98.8906 31.4349 99.1283V106.615L26.4062 106.608C26.2494 106.608 26.1507 106.404 26.1507 106.243V94.2354C26.1847 94.0381 26.2833 93.9541 26.4854 93.9169H41.7413C41.9935 93.9169 42.1471 94.0624 42.1471 94.3098V106.243C42.1407 106.448 42.0113 106.61 41.814 106.61L36.7271 106.615V99.1202C36.7271 98.9084 36.5687 98.758 36.3407 98.7305L36.3423 98.7289Z" fill="#F89C25"/>
<path d="M41.8981 92.5521H26.5081C26.2478 92.5505 26.1669 92.1867 26.2656 91.9846L33.8021 82.0921C33.9024 81.9595 34.0059 81.911 34.1207 81.9029C34.271 81.8916 34.3858 81.9353 34.5039 82.0873L42.0712 91.873C42.1666 91.9959 42.2102 92.1155 42.194 92.2239C42.1795 92.3209 42.1261 92.5521 41.8998 92.5521H41.8981Z" fill="#F89C25"/>
<path d="M76.8985 106.712H62.1828C61.9192 106.699 61.7818 106.592 61.7818 106.309L61.7769 83.57L76.5056 64.8879C76.6479 64.7068 76.7433 64.6469 76.9438 64.6825C77.0829 64.7068 77.2672 64.8345 77.2672 65.0771V106.374C77.2672 106.586 77.1039 106.713 76.8985 106.713V106.712ZM75.1619 75.6114C75.3835 75.6114 75.5338 75.3705 75.5338 75.2056V70.6296C75.5338 70.4243 75.3705 70.2755 75.2315 70.2399C75.0795 70.1995 74.9226 70.248 74.8062 70.3919L71.1455 74.9436C71.0226 75.0972 71.0339 75.3123 71.1131 75.4271C71.1762 75.5193 71.312 75.6227 71.4818 75.6227L75.1619 75.6114ZM75.204 80.7387C75.3948 80.7161 75.5128 80.5932 75.5452 80.4056V77.6148C75.5144 77.4256 75.3964 77.3044 75.204 77.2736L70.7865 77.2785C70.5601 77.2785 70.4259 77.479 70.4259 77.686L70.4292 80.3313C70.4292 80.5382 70.5682 80.7339 70.7865 80.7339L75.2072 80.7371L75.204 80.7387ZM68.4727 85.8353C68.7039 85.8353 68.8235 85.6381 68.8235 85.4505V79.3223C68.8235 79.125 68.6845 78.986 68.547 78.9455C68.4533 78.9181 68.256 78.9019 68.1541 79.028L63.984 84.2329C63.5588 84.7633 63.6914 85.5912 63.8126 85.7108C63.8886 85.7868 64.0245 85.8418 64.1926 85.8402L68.4743 85.8321L68.4727 85.8353ZM75.2121 85.8337C75.419 85.7787 75.5452 85.6364 75.5452 85.4537V82.7373C75.5225 82.54 75.411 82.4026 75.2088 82.3686H70.7849C70.5779 82.3848 70.4308 82.5255 70.4308 82.734V85.4554C70.4308 85.6704 70.5909 85.8159 70.7978 85.8369L75.2137 85.8337H75.2121ZM68.4872 90.9238C68.699 90.8753 68.7864 90.7427 68.8138 90.5762L68.8106 87.7821C68.7702 87.5913 68.6473 87.4668 68.4533 87.4652H64.1118C63.8692 87.4652 63.7043 87.6123 63.7043 87.8614L63.7011 90.5746C63.7237 90.7638 63.8434 90.885 64.0358 90.9238H68.4888H68.4872ZM75.2363 90.9238C75.4384 90.8592 75.5177 90.733 75.5468 90.5746V87.8549C75.5468 87.6609 75.4093 87.4652 75.1991 87.4668L70.717 87.4717C70.5375 87.4717 70.4292 87.698 70.4292 87.8533V90.5762C70.4615 90.7718 70.5892 90.8899 70.7881 90.9222H75.2363V90.9238ZM68.4743 96.0124C68.6748 95.98 68.7734 95.8604 68.8122 95.6971V92.9014C68.7896 92.7009 68.6602 92.5731 68.4549 92.5472H64.1085C63.8983 92.5472 63.7043 92.6895 63.7043 92.903V95.6178C63.7043 95.8604 63.8741 96.014 64.1102 96.014L68.4727 96.0107L68.4743 96.0124ZM75.1975 96.0124C75.4077 95.9849 75.5452 95.8329 75.5452 95.6211L75.5484 92.979C75.5484 92.73 75.3883 92.5472 75.1296 92.5472H70.7849C70.5828 92.578 70.4583 92.7041 70.4275 92.903V95.6227C70.4275 95.8329 70.5779 96.0107 70.7946 96.0107L75.1975 96.014V96.0124ZM68.4888 101.109C68.7055 101.067 68.8106 100.918 68.8106 100.745V98.0238C68.8106 97.8072 68.6538 97.66 68.4436 97.639H64.1199C63.8935 97.6406 63.7043 97.7942 63.7043 98.0271V100.742C63.7043 100.963 63.8903 101.109 64.1085 101.109H68.4905H68.4888ZM75.1652 101.111C75.4093 101.083 75.5193 100.933 75.5452 100.742V98.0254C75.5452 97.8152 75.4013 97.6665 75.1943 97.639H70.793C70.5844 97.6616 70.4259 97.8088 70.4259 98.0254V100.745C70.4518 100.947 70.5763 101.077 70.7817 101.109H75.1636L75.1652 101.111Z" fill="#F89C25"/>
<path d="M94.8435 90.8025V106.767H79.0089V90.8025H94.8435ZM85.8728 96.0462C86.0862 95.9993 86.1751 95.8667 86.2075 95.6986V92.9773C86.1897 92.759 86.0474 92.6135 85.8291 92.5908H81.3502C81.1319 92.6135 80.9896 92.7574 80.9702 92.9773L80.9734 95.6986C81.0074 95.8991 81.1384 96.022 81.3405 96.0446H85.8728V96.0462ZM92.7755 96.0446C92.9711 95.9912 93.0924 95.8603 93.0924 95.7002L93.0956 92.9789C93.0956 92.7622 92.9469 92.6167 92.7351 92.5924H88.2577C88.0281 92.5941 87.8616 92.7655 87.8616 92.9902L87.8584 95.6873C87.8875 95.8959 88.0314 96.0284 88.2464 96.0462H92.7755V96.0446ZM85.8744 101.109C86.0991 101.067 86.1913 100.921 86.2091 100.743L86.2059 98.0221C86.2059 97.8135 86.0474 97.6712 85.842 97.6583H81.3405C81.1351 97.6712 80.9767 97.8152 80.9767 98.0237V100.745C80.9767 100.954 81.1367 101.098 81.3405 101.109H85.876H85.8744ZM92.7803 101.109C92.9954 101.049 93.0778 100.913 93.0956 100.745V98.0237C93.0778 97.8232 92.9517 97.6923 92.7464 97.6599H88.2448C88.0217 97.6761 87.881 97.8216 87.8584 98.0351V100.732C87.881 100.946 88.0233 101.091 88.2448 101.109H92.7787H92.7803Z" fill="#F89C25"/>
<path d="M94.8258 85.9226H79.0153V89.572H94.8258V85.9226Z" fill="#F89C25"/>
<path d="M49.192 29.5578C49.1856 29.1551 49.1985 28.7994 49.0837 28.476L47.9518 33.8022L47.0334 33.8055L45.8223 28.2982L45.6994 33.8038H44.511L44.65 25.2729H46.2492L47.4797 31.1084L48.7458 25.2712L50.3093 25.2793L50.4532 33.8038L49.2632 33.8006L49.1953 29.5594L49.192 29.5578Z" fill="#F89C25"/>
<path d="M79.4578 31.3978C79.4595 32.0624 79.2881 32.6445 78.9113 33.1198C78.5232 33.5419 77.9848 33.7698 77.4027 33.7763L74.7768 33.8038V25.2728L77.0664 25.2906C77.6048 25.2955 78.1222 25.3844 78.5815 25.6577C79.1587 26.0409 79.4465 26.6909 79.4481 27.4023L79.4578 31.3978ZM77.8732 31.553L77.8668 27.3231C77.8668 26.9609 77.6986 26.5971 77.3574 26.4871C77.0357 26.3837 76.7026 26.3837 76.342 26.4403V32.6784C76.764 32.7253 77.2006 32.7479 77.5272 32.5119C77.7924 32.3211 77.8716 31.9217 77.8716 31.553H77.8732Z" fill="#F89C25"/>
<path d="M69.1708 31.1164L69.0641 32.1335C68.8991 33.102 68.1343 33.765 67.1528 33.7763L64.4897 33.8054V25.2744L66.8214 25.2954C67.3905 25.3003 67.9435 25.4151 68.4011 25.7466C68.9282 26.1621 69.1465 26.7992 69.1514 27.4832L69.1692 31.118L69.1708 31.1164ZM67.57 31.629L67.5603 27.2487C67.5603 26.8687 67.3259 26.5389 66.975 26.4612C66.6613 26.3917 66.3638 26.3739 66.0436 26.4515V32.6751C66.4495 32.7269 66.8747 32.7447 67.2208 32.5199C67.4698 32.3582 67.5716 31.9782 67.57 31.6274V31.629Z" fill="#F89C25"/>
<path d="M43.143 33.3219C42.3362 34.1465 40.142 34.1756 39.4014 33.0907C39.0603 32.5894 38.9228 31.9766 38.9212 31.3573L38.9147 27.8631C38.9131 26.6148 39.3206 25.5121 40.5478 25.2663C41.096 25.1563 41.6393 25.1563 42.1858 25.2663C43.3662 25.5008 43.8335 26.589 43.8286 27.7871L43.8141 31.5109C43.8108 32.1674 43.6152 32.8384 43.1414 33.3219H43.143ZM42.2359 31.7745L42.2246 27.1824C42.2246 26.652 41.8592 26.3319 41.366 26.3351C40.9084 26.3383 40.5317 26.6213 40.5301 27.1258L40.5139 31.8052C40.5123 32.397 40.868 32.7624 41.4 32.7495C41.8948 32.7366 42.2359 32.3825 42.2343 31.7745H42.2359Z" fill="#F89C25"/>
<path d="M61.2008 33.7909L60.1708 33.799L58.1173 28.9482L58.072 33.8006L56.7526 33.8022V25.2874L57.8343 25.2793L59.8765 29.9377L59.9218 25.2761L61.1992 25.2712L61.2008 33.7909Z" fill="#F89C25"/>
<path d="M55.9929 25.2777L55.9815 31.4043C55.9815 31.8587 55.8894 32.2807 55.7406 32.6914C55.3105 33.8798 53.9216 34.082 52.7218 33.8103C51.6239 33.5629 51.2083 32.5022 51.2051 31.3897L51.1889 25.2712H52.7008L52.7105 31.2572C52.7105 32.0268 52.8657 32.6801 53.5173 32.7286C53.8084 32.7496 54.1172 32.6493 54.266 32.3712C54.4147 32.0931 54.4729 31.7503 54.4729 31.4108L54.4826 25.2745H55.9945L55.9929 25.2777Z" fill="#F89C25"/>
<path d="M36.9066 30.6022L38.4119 30.5973C38.4216 31.173 38.4427 31.7308 38.3359 32.2951C38.0627 33.7471 36.7109 34.1223 35.3187 33.8248C34.1755 33.5822 33.6953 32.515 33.6969 31.3541V27.7095C33.6986 27.171 33.8101 26.6649 34.0446 26.2009C34.5749 25.1531 36.0544 25.0011 37.1588 25.3326C38.3925 25.7029 38.4847 27.129 38.4136 28.387L36.9098 28.3837C36.8904 27.8437 36.9777 27.3133 36.8403 26.7975C36.7319 26.3868 36.2792 26.2947 35.9024 26.361C35.5257 26.4273 35.2864 26.7927 35.288 27.2487L35.2993 31.8796C35.2993 32.321 35.571 32.6686 35.9235 32.7269C36.3471 32.798 36.7675 32.6525 36.8564 32.1852L36.9049 30.5973L36.9066 30.6022Z" fill="#F89C25"/>
<path d="M72.5923 31.836L71.1355 31.8473L70.7814 33.8055L69.3051 33.8022L71.0336 25.289L72.6651 25.2712L74.4001 33.7974L72.9319 33.8022L72.5939 31.836H72.5923ZM72.4274 30.8076L71.8485 27.6578L71.2939 30.806H72.4258L72.4274 30.8076Z" fill="#F89C25"/>
<path d="M86.2683 33.9137C84.6368 33.8522 84.0272 32.7673 84.0159 31.291L85.3676 31.0307C85.3774 31.8133 85.5811 32.6088 86.202 32.6929C86.4672 32.7285 86.7695 32.6702 86.8956 32.3937C87.1673 31.7971 86.9393 31.0873 86.4558 30.6604L84.8939 29.2828C84.2568 28.7217 83.969 28.007 84.0062 27.1613C84.0434 26.3157 84.446 25.6139 85.2609 25.339C85.822 25.1499 86.4445 25.1224 87.0202 25.2938C87.9839 25.58 88.2814 26.5113 88.3638 27.4993L87.0105 27.7612C87.0008 27.3942 86.983 27.0158 86.7954 26.6859C86.6515 26.4321 86.3863 26.3399 86.1228 26.3723C85.8915 26.4014 85.6361 26.521 85.5374 26.8007C85.3693 27.2761 85.5132 27.7968 85.8867 28.1347L87.5554 29.6385C88.3557 30.3596 88.7002 31.4252 88.4172 32.4794C88.1601 33.4367 87.2789 33.9541 86.2683 33.9169V33.9137Z" fill="#F89C25"/>
<path d="M63.6135 25.2615H62.0854V33.8022H63.6135V25.2615Z" fill="#F89C25"/>
<path d="M83.3174 29.9312L81.7409 29.9296L81.7247 32.7058L83.7783 32.7188L83.7766 33.8021L80.1693 33.8005L80.1709 25.276H83.7201V26.3901L81.7377 26.403L81.7247 28.8106L83.319 28.8219L83.3174 29.9312Z" fill="#F89C25"/>
<path d="M68.1102 43.1352C68.7262 43.3454 69.1062 43.6898 69.2986 44.2477C69.4684 44.8411 69.4781 45.4668 69.3504 46.0797C69.1612 47.0207 68.3964 47.6837 67.4294 47.6918L64.5933 47.7144V39.1931L67.2111 39.2158C67.8692 39.2222 68.4934 39.4922 68.8701 40.0194C69.2533 40.7114 69.2663 41.5231 69.0512 42.2702C68.8863 42.6938 68.6001 42.9428 68.1118 43.1336L68.1102 43.1352ZM67.8143 41.2563C67.8143 40.7551 67.5669 40.3832 67.119 40.3525L66.1698 40.2878L66.1666 42.6275C66.6404 42.6825 67.14 42.7019 67.4893 42.4173C67.8094 42.1553 67.8159 41.68 67.8159 41.2547L67.8143 41.2563ZM67.8353 44.4886C67.638 43.8143 66.8845 43.6623 66.1569 43.8079L66.1618 46.5809C66.5191 46.631 66.8118 46.6133 67.1255 46.568C67.9533 46.4451 68.0843 45.3375 67.8353 44.4886Z" fill="#F89C25"/>
<path d="M43.0717 46.6407C42.551 47.8065 41.1799 47.9941 39.9882 47.7095C38.866 47.4427 38.4375 46.3238 38.4472 45.1693L38.4763 41.2531C38.4812 40.5497 38.79 39.8399 39.3754 39.4631C40.0124 39.0524 40.7837 39.0508 41.5162 39.1365C42.8162 39.2869 43.3579 40.3848 43.3563 41.6783V45.2485C43.3547 45.7417 43.2657 46.2074 43.0717 46.6407ZM41.7652 45.6641L41.7523 41.0833C41.7523 40.5578 41.3852 40.2457 40.9034 40.2441C40.4215 40.2425 40.0496 40.5513 40.0496 41.0833L40.0415 45.698C40.0415 46.2979 40.3973 46.6763 40.9389 46.6585C41.437 46.6423 41.7668 46.2737 41.7652 45.6641Z" fill="#F89C25"/>
<path d="M61.3112 47.6949L60.2828 47.7159L58.2244 42.8425L58.1856 47.7127L56.8597 47.7159L56.8581 39.1963L57.9512 39.2092L59.982 43.8466L60.0192 39.1963L61.3112 39.2011V47.6949Z" fill="#F89C25"/>
<path d="M80.0594 47.821C78.4683 47.7774 77.8474 46.6892 77.8021 45.2032L79.1652 44.9299C79.1927 45.7433 79.398 46.5647 80.061 46.6067C80.3165 46.6229 80.6188 46.5307 80.7255 46.2526C80.9471 45.6754 80.7449 44.9995 80.2825 44.592L78.7221 43.216C78.0689 42.6387 77.7762 41.9289 77.8021 41.0703C77.8344 40.008 78.5411 39.2092 79.6293 39.1122C80.2793 39.054 80.9939 39.1057 81.4871 39.5876C81.9803 40.0694 82.1242 40.7793 82.1468 41.4115L80.8145 41.6621C80.8015 41.2789 80.7773 40.8957 80.5849 40.5691C80.4393 40.3201 80.1645 40.2505 79.909 40.278C79.6858 40.3023 79.4352 40.4365 79.3382 40.7016C79.1571 41.198 79.3269 41.7139 79.7117 42.0615L81.3804 43.5652C82.2002 44.3042 82.5268 45.4312 82.1824 46.4919C81.8865 47.4006 81.0214 47.8469 80.0561 47.8194L80.0594 47.821Z" fill="#F89C25"/>
<path d="M46.2186 47.8227C45.208 47.8227 44.3753 47.3861 44.0536 46.445C43.9177 46.0473 43.832 45.6236 43.8547 45.1935L45.2032 44.9235C45.2258 45.7045 45.3908 46.5129 46.0683 46.6019C46.3318 46.6374 46.6326 46.5469 46.749 46.2672C47.0126 45.6366 46.7247 44.9413 46.2267 44.4998L44.6276 43.085C44.0422 42.5676 43.8401 41.895 43.8401 41.1334C43.8401 40.0468 44.5386 39.2302 45.6414 39.1154C46.3124 39.0443 47.0514 39.1025 47.5478 39.6135C48.0118 40.0905 48.1541 40.7696 48.1848 41.4083L46.8509 41.6686C46.8428 41.3096 46.8185 40.9377 46.6407 40.603C46.4628 40.2683 46.1022 40.2214 45.7998 40.3104C45.4538 40.4138 45.2824 40.7453 45.3067 41.1382C45.3342 41.5764 45.5719 41.916 45.8904 42.207L47.5494 43.7172C48.1557 44.2686 48.3724 45.0561 48.3401 45.8678C48.2932 47.0336 47.4103 47.8227 46.2186 47.8243V47.8227Z" fill="#F89C25"/>
<path d="M35.9701 47.818C35.2699 47.797 34.6377 47.645 34.2125 47.1227C33.7872 46.6004 33.6255 45.8922 33.619 45.2034L34.9676 44.9269C35.008 45.6853 35.1745 46.5261 35.8246 46.6053C36.0865 46.6376 36.4018 46.5681 36.5198 46.2884C36.7802 45.6723 36.5263 44.9657 36.0331 44.5308L34.3903 43.0804C33.8131 42.571 33.6142 41.8903 33.6142 41.14C33.6142 40.0292 34.3467 39.2062 35.4688 39.114C36.0994 39.0623 36.7899 39.1075 37.2717 39.57C37.7536 40.0324 37.9347 40.7536 37.9541 41.4165L36.6282 41.6672C36.6055 41.2759 36.5926 40.8797 36.3792 40.5434C36.2369 40.3186 35.9814 40.2637 35.7502 40.2814C35.5432 40.296 35.2958 40.3979 35.1859 40.6339C34.9466 41.1514 35.1277 41.7108 35.54 42.0811L37.2054 43.5816C37.87 44.1799 38.1578 44.9819 38.119 45.8728C38.0673 47.0257 37.1779 47.8552 35.9733 47.8196L35.9701 47.818Z" fill="#F89C25"/>
<path d="M55.9621 43.8305L54.3791 43.8386L54.3824 46.6165L56.4149 46.6262L56.41 47.7144H52.8139L52.8091 40.2102L52.8253 39.1947L56.3809 39.1931L56.3841 40.2862H54.3856L54.3807 42.7164L55.9605 42.7229L55.9621 43.8305Z" fill="#F89C25"/>
<path d="M77.1296 43.8305L75.5401 43.8402L75.5466 46.6133L77.5791 46.6262L77.5758 47.7144H73.9701L73.9684 39.1947L77.5338 39.1931L77.537 40.2845L75.553 40.2878L75.5433 42.7132L77.1279 42.7229L77.1296 43.8305Z" fill="#F89C25"/>
<path d="M51.197 47.7047L49.6318 47.7127L49.6285 40.3605L48.204 40.3524L48.2072 39.1947L52.5681 39.1979C52.6215 39.6103 52.6231 39.9482 52.5681 40.3476L51.2002 40.3638V47.7079L51.197 47.7047Z" fill="#F89C25"/>
<path d="M63.7201 39.1947H62.1856V47.7144H63.7201V39.1947Z" fill="#F89C25"/>
<path d="M73.6079 46.6228L73.6095 47.7094L70.0021 47.7159V39.1995H71.5592V46.6034L73.6079 46.6228Z" fill="#F89C25"/>
<path d="M51.6672 17.5843C51.6672 18.278 51.4505 18.8875 51.0075 19.3403C50.6016 19.696 50.0858 19.8755 49.5409 19.8803L46.9926 19.9046V11.3752L49.4649 11.3963C49.9435 11.4011 50.3947 11.5208 50.8037 11.7585C51.3826 12.153 51.6656 12.7917 51.6656 13.5112L51.6688 17.5843H51.6672ZM50.0874 17.6587L50.0761 13.3592C50.0761 12.9776 49.8708 12.651 49.5102 12.5637C49.1868 12.4861 48.8586 12.4537 48.5546 12.533L48.5578 18.7792C48.9782 18.8196 49.397 18.8342 49.7349 18.6094C50.0017 18.4316 50.0874 18.029 50.0858 17.6587H50.0874Z" fill="#F89C25"/>
<path d="M61.9593 17.7024C61.9593 18.3621 61.699 18.9361 61.2802 19.3646C60.876 19.701 60.3844 19.8724 59.8524 19.8788L57.2977 19.9031V11.377L59.7878 11.398C60.2842 11.4028 60.7482 11.5354 61.1686 11.7941C61.6537 12.1709 61.9545 12.7514 61.9545 13.3933L61.9593 17.7024ZM60.3828 17.7315V13.4353C60.3828 13.1055 60.2583 12.7433 59.9511 12.6171C59.6034 12.4732 59.2137 12.4603 58.8613 12.5363L58.8645 18.7793C59.2994 18.8278 59.7198 18.8327 60.0497 18.6047C60.2955 18.4349 60.3828 18.0727 60.3828 17.7331V17.7315Z" fill="#F89C25"/>
<path d="M46.2394 11.3769L46.2329 17.2254C46.2329 18.4478 45.9289 19.6168 44.7437 19.8982C43.5585 20.1795 42.1113 19.9758 41.6861 18.7825C41.5454 18.3863 41.4532 17.9789 41.4516 17.5342L41.4419 11.3785L42.9537 11.3737L42.9877 17.8996C42.9893 18.3087 43.2529 18.6741 43.5294 18.7728C43.911 18.9086 44.333 18.797 44.5222 18.4397C44.6903 18.1228 44.7146 17.7525 44.7146 17.379L44.7227 11.3737H46.2377L46.2394 11.3769Z" fill="#F89C25"/>
<path d="M36.9 18.0419L36.9097 16.6966L38.4135 16.6918C38.4297 17.2545 38.4377 17.7913 38.3504 18.3249C38.1887 19.3161 37.4692 19.9418 36.4715 19.992C35.7455 20.0275 34.9678 19.9725 34.4116 19.4487C33.9055 18.97 33.7082 18.2457 33.705 17.5423L33.6953 13.8961C33.6953 13.4514 33.7712 13.0359 33.9006 12.6284C34.2984 11.3623 35.7164 11.0939 36.9873 11.3785C38.3472 11.6825 38.4959 13.0747 38.4183 14.4798L36.9146 14.4863C36.8952 13.9543 36.9793 13.4272 36.8467 12.9065C36.74 12.4861 36.2937 12.3891 35.9024 12.4586C35.5353 12.5233 35.2879 12.9001 35.2896 13.3576L35.3057 17.9886C35.3073 18.493 35.6501 18.8326 36.0511 18.8455C36.5297 18.8617 36.8984 18.6014 36.9033 18.0419H36.9Z" fill="#F89C25"/>
<path d="M55.1132 17.9401H53.6547L53.299 19.9046L51.8195 19.8965L53.5431 11.3785L55.1795 11.3737L56.9096 19.8965L55.4463 19.9046L55.1148 17.9401H55.1132ZM54.9337 16.8357L54.3678 13.6778L53.8148 16.8761C54.2223 16.8987 54.5262 16.957 54.9337 16.8341V16.8357Z" fill="#F89C25"/>
<path d="M68.8863 20.0082C68.1166 20.0033 67.4504 19.7867 67.0316 19.1997C66.6565 18.6742 66.5336 18.0484 66.5191 17.3855L67.8838 17.1106C67.8838 17.8722 68.0972 18.7195 68.7375 18.7922C69.0092 18.823 69.3277 18.7276 69.4393 18.4333C69.677 17.8027 69.4005 17.1316 68.9073 16.6967L67.347 15.319C66.7358 14.779 66.4981 14.0789 66.5142 13.272C66.5369 12.1757 67.2823 11.3769 68.3947 11.2993C69.0237 11.2557 69.7142 11.3042 70.1895 11.7715C70.6649 12.2388 70.825 12.9147 70.8622 13.6002L69.5266 13.867C69.5072 13.4919 69.5007 13.0974 69.2905 12.7546C69.1515 12.5266 68.8927 12.4457 68.6518 12.47C68.4109 12.4943 68.1538 12.6139 68.0536 12.8904C67.8773 13.3771 68.0325 13.9075 68.4158 14.2502L70.0489 15.7152C70.901 16.48 71.2599 17.6377 70.8751 18.7421C70.5889 19.5667 69.7853 20.0179 68.8847 20.0114L68.8863 20.0082Z" fill="#F89C25"/>
<path d="M65.8513 16.0045L64.2457 16.0288V18.8148L66.2782 18.818L66.2798 19.9014L62.6789 19.903V11.3752L66.2523 11.3769L66.2426 12.4828L64.2489 12.4909L64.2457 14.9147L65.8497 14.9293L65.8513 16.0045Z" fill="#F89C25"/>
<path d="M78.0236 11.3897L76.2984 16.6982V19.9029L74.8189 19.9013V16.6901L73.0742 11.3833L74.5408 11.3784L75.5788 14.6543L76.5846 11.3784L78.0236 11.3897Z" fill="#F89C25"/>
<path d="M40.6414 11.377H39.0778V19.8998H40.6414V11.377Z" fill="#F89C25"/>
</svg>
