<svg width="120" height="120" viewBox="0 0 120 120" fill="none" xmlns="http://www.w3.org/2000/svg">
<path d="M90.615 32.7187C90.1186 33.8829 88.7603 34.0882 87.5573 33.8133C86.9138 33.6662 86.432 33.2377 86.2169 32.6184C86.0908 32.2546 85.9808 31.8682 85.9824 31.472L85.997 27.4669C86.0002 26.7683 86.2589 26.0714 86.7909 25.6413C87.5913 24.9962 89.5219 24.9816 90.2803 25.8337C90.6877 26.293 90.8818 26.9203 90.8834 27.5526L90.8931 31.4445C90.8931 31.8908 90.7847 32.3241 90.6166 32.7203L90.615 32.7187ZM89.3004 31.7744L89.2875 27.1774C89.2875 26.6358 88.8978 26.3204 88.3981 26.3382C87.9341 26.3544 87.5881 26.6681 87.5864 27.1774L87.5784 31.8116C87.5784 32.3888 87.9325 32.7526 88.4386 32.751C88.9447 32.7494 89.302 32.3953 89.3004 31.7744Z" fill="#AAAAAA"/>
<path d="M62.1194 45.4732C62.121 46.0763 61.8979 46.6422 61.5276 47.0869C61.0926 47.5089 60.5251 47.6932 59.9155 47.6965L57.4513 47.7126V39.1946L59.8395 39.2027C60.3294 39.2027 60.7838 39.3159 61.2139 39.5374C61.7653 39.8931 62.1048 40.4962 62.1065 41.1786L62.1194 45.4732ZM60.5332 45.4974L60.5283 41.1786C60.5283 40.7792 60.3003 40.438 59.909 40.3572C59.6245 40.299 59.348 40.2795 59.0181 40.3442V46.5824C59.4385 46.6438 59.8476 46.6406 60.1775 46.432C60.4556 46.2558 60.5332 45.8564 60.5332 45.4958V45.4974Z" fill="#AAAAAA"/>
<path d="M48.715 46.7071C48.1927 47.8018 46.8733 47.9748 45.7059 47.7226C44.5384 47.4703 44.1132 46.3498 44.1196 45.171L44.1423 41.3065C44.1455 40.663 44.3929 40.0178 44.8667 39.599C45.6574 38.9021 47.5427 38.9054 48.3075 39.6314C48.7926 40.0906 49.0141 40.7665 49.0157 41.4472L49.0254 45.3279C49.0254 45.8194 48.9187 46.2819 48.715 46.7087V46.7071ZM46.5677 46.6521C47.0754 46.657 47.4311 46.3142 47.4295 45.7644L47.4263 41.0818C47.4263 40.5547 47.0512 40.241 46.5677 40.2426C46.0842 40.2442 45.7253 40.5821 45.7253 41.1077L45.7301 45.8178C45.7301 46.3385 46.0939 46.6473 46.5677 46.6521Z" fill="#AAAAAA"/>
<path d="M53.4481 33.7892L52.4165 33.7973L50.3711 28.9497L50.3274 33.8038L49.0015 33.8022V25.2825L50.08 25.2776L52.1238 29.928L52.1643 25.2744L53.4481 25.2776V33.7892Z" fill="#AAAAAA"/>
<path d="M96.4717 33.7666C96.1402 33.8378 95.7942 33.7957 95.432 33.7957L93.3785 28.9433L93.3348 33.8038L92.0186 33.8006L92.0218 25.2664L93.0987 25.2744L95.1442 29.9506L95.1797 25.2744H96.47L96.4733 33.7666H96.4717Z" fill="#AAAAAA"/>
<path d="M76.3893 25.2712L76.3796 31.3623C76.3796 31.8506 76.2842 32.3033 76.1193 32.7399C75.6795 33.9073 74.2307 34.0949 73.0632 33.799C71.8958 33.5031 71.5967 32.4375 71.5951 31.2733L71.587 25.2777L73.1053 25.2745L73.115 31.4237C73.115 31.739 73.1635 32.0559 73.2961 32.326C73.4804 32.6995 73.8992 32.8175 74.2953 32.6817C74.5848 32.583 74.8354 32.216 74.837 31.794L74.8694 25.2729H76.3893V25.2712Z" fill="#AAAAAA"/>
<path d="M66.9621 11.377L66.9556 17.379C66.9556 18.4737 66.6225 19.5651 65.5909 19.8643C64.9296 20.0567 64.2181 20.0583 63.5552 19.8675C62.5397 19.5765 62.1759 18.5254 62.1743 17.4566L62.1646 11.3786H63.6829V17.3014C63.6829 18.0759 63.8123 18.7518 64.4623 18.8213C64.7744 18.8553 65.101 18.7389 65.2497 18.4397C65.3823 18.1697 65.4389 17.8576 65.4389 17.5375L65.447 11.377H66.9621Z" fill="#AAAAAA"/>
<path d="M80.6608 30.6038L82.1711 30.599L82.1015 32.2111C82.0773 32.7754 81.7377 33.296 81.251 33.5903C80.3908 34.1093 78.6607 34.0527 77.9799 33.1618C77.6323 32.7058 77.4544 32.1205 77.4528 31.5336L77.4464 27.6076C77.4464 27.205 77.5531 26.8121 77.6808 26.4467C78.0867 25.2841 79.3495 25.0545 80.5606 25.2404C81.3868 25.3682 81.9447 25.9567 82.0983 26.7814L82.1711 28.3886H80.6657C80.6495 27.8437 80.7304 27.3053 80.5735 26.7798C80.4506 26.3723 79.9866 26.285 79.605 26.3755C79.2735 26.4531 79.0374 26.8202 79.039 27.2503L79.0504 31.8893C79.0504 32.3081 79.2994 32.6428 79.5985 32.7107C80.0076 32.8045 80.4555 32.7058 80.5735 32.287C80.7239 31.7518 80.656 31.2231 80.6608 30.6054V30.6038Z" fill="#AAAAAA"/>
<path d="M83.6474 18.4041C83.822 17.8511 83.7299 17.3078 83.7412 16.7144L85.253 16.6917C85.2708 17.2674 85.2805 17.8527 85.1641 18.4283C84.9733 19.3823 84.2408 19.9596 83.2755 19.9968C82.577 20.0226 81.8558 19.9854 81.3044 19.5068C80.8323 19.0977 80.5574 18.4558 80.5542 17.8107L80.5316 13.7392C80.5283 13.2202 80.6593 12.7205 80.8873 12.2726C81.374 11.3154 82.6594 11.1489 83.7363 11.3558C85.1997 11.6356 85.3387 13.1118 85.2514 14.4895L83.7525 14.4846C83.7218 13.9607 83.8107 13.4223 83.6684 12.8935C83.5552 12.4747 83.0928 12.3794 82.7063 12.465C82.3199 12.5507 82.1194 12.9307 82.1194 13.3819L82.1307 17.9432C82.1307 18.341 82.3393 18.6984 82.6384 18.7905C83.0136 18.9069 83.5083 18.8406 83.6458 18.4025L83.6474 18.4041Z" fill="#AAAAAA"/>
<path d="M92.0455 17.9269L90.5887 17.9366L90.241 19.9028L88.7518 19.8996L90.482 11.3783L92.1296 11.3718L93.8517 19.8947L92.3835 19.9044L92.0455 17.9269ZM91.8741 16.8759L91.3082 13.6792L90.7487 16.8775H91.8725L91.8741 16.8759Z" fill="#AAAAAA"/>
<path d="M46.9543 17.948L45.4942 17.9335L45.145 19.9029L43.6558 19.8997L45.3859 11.3784L47.0303 11.3735L48.7572 19.8964L47.2874 19.9061L46.9527 17.9496L46.9543 17.948ZM46.7813 16.876L46.2154 13.6793L45.6575 16.8792H46.7813V16.876Z" fill="#AAAAAA"/>
<path d="M66.0018 45.7756L64.5417 45.7481L64.1876 47.7127H62.7049L64.4221 39.2011L66.073 39.1963L67.7966 47.7159L66.3285 47.7111L66.0018 45.7756ZM65.8191 44.6324L65.2467 41.5489L64.697 44.6987C65.1141 44.6955 65.4456 44.7877 65.8175 44.6324H65.8191Z" fill="#AAAAAA"/>
<path d="M41.2463 47.8195C40.4476 47.8114 39.7216 47.5867 39.3076 46.9221C38.981 46.3998 38.8646 45.7789 38.8581 45.1871L40.2341 44.8896C40.2244 45.4167 40.2956 45.9196 40.5915 46.3287C40.7758 46.5842 41.1089 46.6504 41.3935 46.5825C41.6781 46.5146 41.8608 46.2187 41.8673 45.8646C41.877 45.3149 41.6231 44.8249 41.214 44.4692L39.8396 43.2743C38.8581 42.4205 38.5089 40.9831 39.2543 39.8706C39.8978 38.9118 41.9303 38.7743 42.6822 39.7413C43.0541 40.2199 43.1818 40.8149 43.2061 41.4148L41.877 41.6687C41.843 40.899 41.6959 40.2328 41.0264 40.2781C40.7726 40.2943 40.488 40.4204 40.391 40.7098C40.2196 41.2208 40.4055 41.743 40.7985 42.0955L42.3895 43.5201C43.0363 44.0989 43.3597 44.8524 43.371 45.711C43.3872 46.9286 42.5156 47.8357 41.2463 47.8227V47.8195Z" fill="#AAAAAA"/>
<path d="M104.349 33.9186C103.502 33.9089 102.774 33.626 102.375 32.9064C102.105 32.4181 101.995 31.87 101.998 31.2943L103.36 31.0097C103.361 31.7649 103.563 32.617 104.208 32.6962C104.49 32.7302 104.808 32.6332 104.917 32.334C105.146 31.6969 104.87 31.0275 104.377 30.5942L102.773 29.181C102.176 28.6555 101.967 27.9473 101.995 27.1647C102.022 26.3093 102.469 25.5801 103.308 25.3197C103.798 25.1677 104.338 25.1451 104.844 25.2518C105.926 25.4798 106.238 26.4047 106.369 27.4897L104.981 27.7613C105.001 27.3571 104.957 26.9739 104.758 26.6489C104.618 26.4193 104.36 26.3449 104.126 26.3756C103.919 26.4031 103.657 26.4936 103.555 26.7362C103.337 27.2568 103.51 27.8163 103.921 28.1833L105.513 29.6062C106.209 30.2271 106.551 31.0663 106.498 31.9896C106.432 33.1425 105.546 33.9364 104.349 33.9219V33.9186Z" fill="#AAAAAA"/>
<path d="M72.4504 17.7282C72.5474 19.1026 71.5562 20.0712 70.232 20.0097C68.6312 19.9353 67.9974 18.9959 67.9424 17.3822L69.3119 17.1057C69.32 17.9045 69.5108 18.7388 70.2109 18.7938C70.4826 18.8148 70.7769 18.6968 70.8787 18.3928C71.0873 17.7622 70.8076 17.1122 70.3209 16.6804L68.6813 15.2284C68.1235 14.7337 67.9456 14.0723 67.9375 13.3512C67.9246 12.1676 68.7428 11.3235 69.9361 11.2831C70.5861 11.2605 71.2733 11.3429 71.7179 11.8717C72.1238 12.3551 72.2596 12.9841 72.2952 13.6002L70.945 13.8605C70.937 13.4999 70.9192 13.1216 70.7381 12.7852C70.5974 12.5233 70.3258 12.4327 70.0509 12.4635C69.7954 12.4926 69.5302 12.6543 69.4494 12.968C69.3232 13.4563 69.4979 13.9349 69.8665 14.2647L71.4188 15.6537C72.0219 16.1937 72.3906 16.8842 72.4504 17.7266V17.7282Z" fill="#AAAAAA"/>
<path d="M56.8499 33.9186C56.0043 33.9073 55.2734 33.6243 54.8773 32.9048C54.6072 32.4165 54.5038 31.8683 54.5021 31.2927L55.8652 31.0081C55.8685 31.7649 56.0593 32.6121 56.7093 32.693C56.9841 32.7286 57.3108 32.6332 57.4191 32.3373C57.6552 31.6937 57.3738 31.0275 56.879 30.5893L55.2395 29.139C54.6768 28.6409 54.5038 27.9715 54.4957 27.2439C54.4811 26.0538 55.3203 25.2211 56.5168 25.1871C57.1588 25.1694 57.8379 25.2567 58.2777 25.7773C58.6771 26.2511 58.7935 26.8461 58.8663 27.4929L57.4967 27.7581C57.4919 27.3183 57.4773 26.9205 57.2234 26.5955C56.9389 26.2301 56.2711 26.3093 56.0706 26.7346C55.8296 27.2455 56.0237 27.8211 56.4247 28.1785L57.9802 29.5658C58.6916 30.1997 59.0668 31.0534 59.0053 31.9993C58.9293 33.149 58.0465 33.9364 56.8532 33.9202L56.8499 33.9186Z" fill="#AAAAAA"/>
<path d="M70.7458 47.8244C69.1401 47.8147 68.44 46.7847 68.3963 45.2114L69.7627 44.9284C69.7885 45.711 69.9745 46.513 70.6002 46.5987C70.8606 46.6343 71.1807 46.5615 71.2971 46.2899C71.5688 45.6609 71.3068 44.9624 70.8072 44.521L69.1676 43.0689C68.5904 42.558 68.3931 41.8837 68.3947 41.1319C68.3963 40.0647 69.0738 39.2417 70.1556 39.1171C70.8104 39.0411 71.5413 39.0816 72.0522 39.5553C72.5632 40.0291 72.7136 40.7632 72.7508 41.4084L71.4055 41.659C71.3909 41.2677 71.3731 40.8651 71.1532 40.5336C71.0077 40.3121 70.7522 40.2587 70.5291 40.2797C70.3173 40.3007 70.0699 40.3897 69.9632 40.6306C69.7368 41.1399 69.9082 41.7043 70.314 42.0681L71.9439 43.5314C72.6829 44.1943 73.0192 45.1289 72.8753 46.1104C72.7184 47.1776 71.8437 47.8276 70.7425 47.8211L70.7458 47.8244Z" fill="#AAAAAA"/>
<path d="M41.974 16.066L40.6335 16.1129L40.6303 19.8998H39.0732V11.3752L41.9271 11.4027C42.742 11.4108 43.3791 11.9767 43.578 12.748C43.7591 13.4708 43.7817 14.2081 43.5327 14.9131C43.2999 15.5728 42.6887 15.9609 41.9707 16.066H41.974ZM42.1664 13.0407C42.0387 12.457 41.3385 12.4343 40.6303 12.5265L40.6351 14.9826C41.0184 15.0231 41.3385 15.002 41.6781 14.9244C42.286 14.787 42.3329 13.7974 42.168 13.0391L42.1664 13.0407Z" fill="#AAAAAA"/>
<path d="M100.879 29.9279L99.2913 29.9408L99.2945 32.7123L101.325 32.722V33.8021H97.7196L97.718 25.2776L101.317 25.2808L101.311 26.3868L99.3026 26.3917L99.2913 28.8122L100.879 28.8219V29.9279Z" fill="#AAAAAA"/>
<path d="M42.2198 29.928L40.6336 29.9393L40.6352 32.714L42.6677 32.722V33.8022H39.0764L39.0748 25.2744L42.6531 25.2809L42.6466 26.3901H40.6416L40.6336 28.8139L42.2198 28.8204V29.928Z" fill="#AAAAAA"/>
<path d="M53.1667 19.8981H49.299L49.3184 18.8633L51.5449 12.4796L49.4154 12.4667L49.4073 11.3752L53.1602 11.3801C53.1408 11.6614 53.2362 11.9363 53.1473 12.1869L50.814 18.8051L53.1602 18.8196L53.1667 19.8981Z" fill="#AAAAAA"/>
<path d="M69.6154 33.7747L68.0454 33.8038L68.0438 26.4548L66.6192 26.4386L66.6176 25.2793H70.985L70.9882 26.4386L69.6138 26.4548L69.6154 33.7747Z" fill="#AAAAAA"/>
<path d="M62.286 33.8022H60.7208V26.4516L59.2979 26.4387V25.2777L63.6733 25.2761L63.6668 26.4387L62.2876 26.4516L62.286 33.8022Z" fill="#AAAAAA"/>
<path d="M75.7325 19.895L74.1689 19.9063L74.1656 12.5541L72.7427 12.5379L72.7395 11.3786L77.1101 11.377L77.1117 12.5363L75.7325 12.5492V19.895Z" fill="#AAAAAA"/>
<path d="M53.7551 46.6244L53.7567 47.7142H50.1558V39.1978L51.721 39.1946L51.7226 46.6099L53.7551 46.6244Z" fill="#AAAAAA"/>
<path d="M59.7428 20.021L58.2617 20.084L58.2552 18.9764C58.5673 18.9732 58.8859 18.9813 59.1446 18.784C59.3095 18.6563 59.3952 18.3879 59.3952 18.1566L59.4017 11.3784H60.9669L60.9636 18.003C60.9636 18.991 60.6176 19.9854 59.7412 20.0226L59.7428 20.021Z" fill="#AAAAAA"/>
<path d="M87.9081 11.3784H86.3445V19.9013H87.9081V11.3784Z" fill="#AAAAAA"/>
<path d="M79.3708 11.3784H77.8056V19.9013H79.3708V11.3784Z" fill="#AAAAAA"/>
<path d="M47.706 25.2793H46.1424V33.8022H47.706V25.2793Z" fill="#AAAAAA"/>
<path d="M65.9257 25.2629H64.3783V33.8036H65.9257V25.2629Z" fill="#AAAAAA"/>
<path d="M56.1561 39.1929H54.6071V47.7141H56.1561V39.1929Z" fill="#AAAAAA"/>
<path d="M84.8264 25.2678H83.279V33.802H84.8264V25.2678Z" fill="#AAAAAA"/>
<path d="M54.0509 21.3421C53.9491 21.1707 53.9329 20.9912 53.8844 20.7891C54.2708 20.6711 54.5489 20.3832 54.5667 19.9305L53.8132 19.9062V18.4995H55.2426L55.2329 20.0243C55.2281 20.6985 54.7753 21.2321 54.0525 21.3421H54.0509Z" fill="#AAAAAA"/>
<path d="M47.0256 38.459L46.1702 38.4736L46.7814 36.3699L48.2674 36.3667L47.0256 38.459Z" fill="#AAAAAA"/>
<path d="M82.6758 89.3555L72.0395 89.3652C71.2586 89.3652 70.7654 88.56 70.7848 87.9019C70.8042 87.2438 71.3265 86.4984 72.1107 86.5L82.6402 86.5113C83.3921 86.5113 83.8723 87.2664 83.8869 87.9019C83.9014 88.5373 83.4648 89.3555 82.6758 89.3555Z" fill="#AAAAAA"/>
<path d="M82.6759 105.294L72.1108 105.279C71.3298 105.279 70.8059 104.569 70.7849 103.879C70.7639 103.189 71.2603 102.417 72.0396 102.417H82.6419C83.3906 102.417 83.8756 103.19 83.8853 103.793C83.8983 104.531 83.4617 105.113 82.6759 105.294Z" fill="#AAAAAA"/>
<path d="M32.7431 98.4815C32.2888 98.5866 31.8215 98.5786 31.393 98.4896C30.9176 98.3894 30.502 97.8622 30.5004 97.3691L30.4875 94.3017C30.6508 93.5224 31.2733 93.026 32.0559 93.1958C32.8515 93.0211 33.4998 93.5499 33.6324 94.3454L33.6227 97.3076C33.6211 97.8024 33.2622 98.3619 32.7447 98.4815H32.7431Z" fill="#AAAAAA"/>
<path d="M84.7404 56.4377C84.071 56.6819 83.4242 56.7498 82.7111 56.7239C82.6772 55.9494 82.7742 55.1733 83.083 54.4441C83.3984 53.7326 83.9352 53.2039 84.6612 52.9274C85.3274 52.6638 86.0146 52.5878 86.76 52.6007C86.8004 53.3041 86.7212 54.0285 86.4592 54.727C86.1666 55.5306 85.5715 56.1321 84.7404 56.4377Z" fill="#AAAAAA"/>
<path d="M77.0389 61.7043C76.3986 61.3502 75.9216 60.9281 75.5061 60.401C74.9935 59.7284 74.8205 58.907 75.0178 58.0775C75.1633 57.4372 75.4317 56.8648 75.8165 56.3247C76.3776 56.6465 76.8498 57.0135 77.2346 57.4938C77.7666 58.1066 77.9865 58.8649 77.8733 59.6782C77.773 60.4091 77.4561 61.0591 77.0373 61.7027L77.0389 61.7043Z" fill="#AAAAAA"/>
<path d="M80.1095 58.3912C79.4757 58.0742 78.9906 57.6296 78.5718 57.0992C78.0948 56.4864 77.9137 55.7426 78.0479 54.9697C78.1546 54.2566 78.4716 53.6325 78.8661 53.0181C80.2502 53.8088 81.2656 55.0295 80.8905 56.6238C80.7644 57.2528 80.4927 57.7945 80.1079 58.3912H80.1095Z" fill="#AAAAAA"/>
<path d="M83.2059 61.0219C82.6044 60.7875 82.1096 60.4689 81.6779 60.0534C82.5639 58.9781 83.7411 58.1696 85.1074 58.6434C85.7008 58.8487 86.2166 59.1689 86.6871 59.6152C86.2813 60.1552 85.7881 60.5756 85.1995 60.8942C84.5867 61.2079 83.8995 61.2386 83.2059 61.0203V61.0219Z" fill="#AAAAAA"/>
<path d="M83.8881 63.5475C82.8355 64.4449 81.4546 64.9526 80.2662 64.246C79.7164 63.9194 79.2669 63.499 78.9112 62.9557C80.1142 61.9387 81.5711 61.515 82.8339 62.4609C83.2494 62.773 83.5922 63.1207 83.8881 63.5475Z" fill="#AAAAAA"/>
<path d="M34.5101 97.7475L34.5004 94.0479L51.5899 94.423V89.1664C49.441 88.995 47.4473 88.5681 45.494 87.8405C44.4915 87.4281 43.607 86.9382 42.6902 86.3739L39.4741 84.3915C38.5282 83.8078 37.571 83.3567 36.5523 82.9816C39.2898 83.562 42.3717 83.6413 44.7389 82.0793L47.7771 80.0727C48.6373 79.5035 49.5655 79.1656 50.6229 79.0104C50.5922 78.8858 50.5001 78.8487 50.3739 78.8325C47.4634 78.4574 45.0073 76.8275 43.4938 74.3212C42.6191 72.8724 42.0483 71.3331 41.6505 69.6725L40.5106 64.9122C40.2438 63.7966 39.846 62.7682 39.2979 61.7705C38.7029 60.6872 37.8734 59.8739 36.6898 59.3548L39.3011 59.2125C44.3557 59.2287 48.5419 61.5619 52.0475 65.0739C52.9352 65.9633 53.7905 66.7879 54.8302 67.4945C57.3171 69.1842 60.0901 69.8423 62.9376 68.6894C64.2748 68.1477 65.3694 67.3215 66.4156 66.3384C67.4068 65.4086 68.398 64.5533 69.5104 63.7772C71.2357 62.5758 73.1841 61.8013 74.7655 63.3939L76.4099 65.0497C76.6929 63.8612 77.1747 62.8442 77.8813 61.8886L79.9316 59.5974C80.6608 58.7824 81.4289 58.0548 82.0094 57.1348L82.5575 57.4776C82.0126 58.3216 81.3626 59.0088 80.6899 59.7364L78.6025 61.9969C77.7778 63.0366 77.1812 64.1798 76.9677 65.5299C77.5676 66.0764 78.2225 66.5049 78.9113 66.9464C78.2419 66.9221 77.587 66.9043 76.8578 67.0321C76.8853 68.5584 77.2345 69.9668 77.7067 71.4334L77.0745 71.5207C76.6233 70.101 76.287 68.67 76.2401 67.1113C73.8034 67.5252 71.9213 68.5245 71.1128 70.9079C70.1523 73.7424 70.8929 75.998 70.3528 78.8357C69.5751 82.912 66.8651 85.6366 63.1364 87.2794C61.0538 88.1994 58.8887 88.7395 56.6121 89.0596L56.6072 94.533L65.6524 94.7448L71.7563 94.0673L71.7725 91.2199C71.7757 90.759 72.1072 90.4049 72.581 90.3823L82.0983 90.3871C82.5543 90.3871 82.889 90.7542 82.889 91.2037V100.588C82.889 100.983 82.6044 101.408 82.1791 101.408L72.4387 101.418C72.0199 101.314 71.7838 100.985 71.7709 100.571L71.7644 97.7458L65.5715 97.0619L34.5085 97.7539L34.5101 97.7475ZM55.1099 89.1987H53.1049V94.5006H55.1099V89.1987Z" fill="#AAAAAA"/>
<path d="M26.9605 19.9725C30.5614 20.7826 30.6633 26.0118 30.0893 29.1018C29.9227 30.0008 29.6317 30.8157 29.1903 31.6032C28.5904 32.6704 27.6315 33.3964 26.435 33.7181C25.2385 34.0399 23.9789 34.0561 22.75 33.8152C21.2511 33.5209 20.0578 32.6024 19.356 31.2426C18.761 30.0913 18.3956 28.8285 18.3956 27.4897V17.7703C18.3956 16.3975 18.7109 15.1088 19.2445 13.8896C19.8136 12.5928 20.8436 11.7051 22.2245 11.3639C23.6975 10.9985 25.2417 11.0373 26.7115 11.3995C29.4199 12.1789 30.0068 14.5768 29.9939 17.1558L25.9483 17.1526C25.9273 15.7539 25.9095 14.3973 24.5254 14.3876C23.0831 14.2712 22.805 15.6375 22.7241 17.075C22.6514 18.3847 22.6562 19.6314 22.6708 21.009C23.7347 19.8011 25.3694 19.6491 26.9589 19.9725H26.9605ZM25.4697 30.3161C26.2442 29.2861 26.1229 25.9859 25.9257 24.4725C25.8594 23.9583 25.5667 23.5185 25.1673 23.2549C24.2085 22.8264 23.1704 23.2565 22.6578 24.1475L22.6724 27.7581C22.6708 28.9562 22.9327 30.5263 24.0532 30.7543C24.5901 30.8626 25.1269 30.7721 25.4681 30.3161H25.4697Z" fill="#AAAAAA"/>
<path d="M11.7631 15.8688L8.55347 17.0023L8.5567 13.8347C9.62388 13.3997 10.6086 12.8871 11.5771 12.284C11.9911 12.0156 12.3565 11.7424 12.7025 11.385H16.0464V33.6664H11.7647L11.7615 15.8688H11.7631Z" fill="#AAAAAA"/>
</svg>
