<svg width="120" height="120" viewBox="0 0 120 120" fill="none" xmlns="http://www.w3.org/2000/svg">
<path d="M77.0437 33.7973L76.8917 28.3757L75.7162 33.7989L74.7946 33.7973L73.6029 28.3676L73.4622 33.8038L72.277 33.8005L72.4079 25.2793L74.0136 25.2744L75.2408 31.1067L76.5069 25.276L78.0769 25.2793L78.2144 33.8022L77.0437 33.7973Z" fill="#AAAAAA"/>
<path d="M83.1572 33.3946C82.3423 34.1206 80.3939 34.1126 79.6436 33.2798C79.22 32.8077 79.0244 32.1625 79.0244 31.5093V27.475C79.026 26.8315 79.2443 26.1912 79.6889 25.753C80.4489 25.0043 82.2712 25.0076 83.057 25.6091C83.5809 26.0101 83.8946 26.6989 83.8946 27.3877V31.6726C83.8946 32.3258 83.6229 32.9791 83.1572 33.393V33.3946ZM81.5128 32.7446C81.9462 32.7252 82.3067 32.439 82.3084 31.9636L82.3148 27.1759C82.3148 26.6326 81.9106 26.3189 81.4142 26.3383C80.9501 26.3561 80.6154 26.6746 80.6154 27.1823V31.8812C80.6154 32.4277 80.9808 32.7689 81.5128 32.7446Z" fill="#AAAAAA"/>
<path d="M60.8695 33.8054H59.8428L57.8103 29.0144L57.7553 33.807L56.4246 33.8037V25.2792L57.4966 25.2728L59.5356 29.8891L59.5808 25.2695L60.8728 25.2711L60.8695 33.8054Z" fill="#AAAAAA"/>
<path d="M55.351 32.6928C54.853 33.8813 53.4883 34.0915 52.2562 33.8085C51.1615 33.5563 50.7072 32.4778 50.7072 31.354V27.7094C50.7072 26.5355 51.1858 25.4893 52.337 25.2646C52.9466 25.1449 53.5756 25.1466 54.1739 25.318C55.2217 25.6187 55.6162 26.6843 55.6162 27.7854V31.278C55.6162 31.7776 55.5386 32.2449 55.351 32.6944V32.6928ZM53.1956 32.7462C53.6613 32.73 54.0025 32.4115 54.0025 31.9248V27.1386C54.0025 26.6341 53.6209 26.3366 53.1665 26.335C52.6636 26.3334 52.3047 26.6568 52.3047 27.1904V31.8746C52.3047 32.4147 52.6604 32.7672 53.194 32.7478L53.1956 32.7462Z" fill="#AAAAAA"/>
<path d="M71.4217 25.2711L71.412 31.2748C71.4103 32.4423 71.0417 33.5434 69.9098 33.8086C69.3083 33.9493 68.6907 33.9509 68.0956 33.8005C66.9767 33.5143 66.6242 32.4374 66.6242 31.2732V25.2711L68.1344 25.2776L68.1684 31.8198C68.17 32.2143 68.4174 32.5587 68.6793 32.6654C69.0609 32.8206 69.4943 32.7188 69.6899 32.355C69.85 32.0558 69.8937 31.7017 69.8937 31.3492V25.2711L71.4201 25.2695L71.4217 25.2711Z" fill="#AAAAAA"/>
<path d="M48.5323 32.1577L48.5792 30.6119L50.0894 30.599C50.0911 31.2409 50.1331 31.8408 49.9746 32.4423C49.6189 33.7876 48.3464 34.1013 47.0253 33.8361C45.824 33.5935 45.3631 32.5037 45.3648 31.2797V27.7871C45.3664 27.2697 45.4521 26.783 45.6542 26.3222C46.1296 25.2388 47.394 25.0464 48.5631 25.2614C50.0086 25.5266 50.1751 26.9738 50.0894 28.3902H48.5873C48.5647 27.8582 48.6455 27.323 48.5049 26.7927C48.3965 26.3836 47.9276 26.293 47.5492 26.369C47.2097 26.437 46.9639 26.7878 46.9655 27.2131L46.9768 31.9119C46.9768 32.4487 47.3568 32.7818 47.8532 32.743C48.1831 32.7172 48.5226 32.5635 48.5356 32.1593L48.5323 32.1577Z" fill="#AAAAAA"/>
<path d="M63.8395 33.9168C62.2678 33.8683 61.6469 32.7801 61.5935 31.3006L62.9728 30.9967C62.976 31.8569 63.1992 32.6928 63.9155 32.7058C64.1839 32.7106 64.4717 32.5715 64.559 32.2595C64.7369 31.6273 64.4442 30.9934 63.9624 30.5698L62.478 29.2665C61.8021 28.6731 61.5305 27.8792 61.6146 26.9899C61.7067 26.0132 62.3939 25.3115 63.3883 25.2112C64.0303 25.1466 64.7433 25.1789 65.2462 25.6413C65.7491 26.1038 65.9205 26.8395 65.9512 27.5024L64.6221 27.7628C64.5994 27.4087 64.5849 27.0448 64.4119 26.7118C64.2663 26.4336 63.985 26.3318 63.6939 26.3722C63.4466 26.4062 63.1895 26.5727 63.1118 26.8751C62.9906 27.3488 63.149 27.8274 63.5112 28.1525L65.1799 29.6562C66.0078 30.4016 66.3328 31.5399 65.9754 32.6087C65.6715 33.5142 64.8032 33.946 63.8411 33.9152L63.8395 33.9168Z" fill="#AAAAAA"/>
<path d="M42.839 25.2874L41.117 30.578V33.8038L39.6197 33.8022L39.6181 30.5764L37.8766 25.2809L39.3432 25.2712L40.3878 28.5472L41.3935 25.2745L42.839 25.2874Z" fill="#AAAAAA"/>
<path d="M82.6238 43.1384C83.3272 43.3648 83.7379 43.8224 83.8753 44.4853C83.9691 44.9914 83.9756 45.5056 83.8753 46.0149C83.7104 46.9835 82.9424 47.6852 81.9496 47.6933L79.1054 47.7159V39.1963L81.7248 39.2173C82.4023 39.2222 83.0362 39.5132 83.4129 40.0662C83.767 40.7534 83.7735 41.5506 83.5633 42.2814C83.3951 42.7018 83.1073 42.9444 82.6238 43.14V43.1384ZM81.762 40.3912C81.4241 40.2861 81.0732 40.2683 80.677 40.3265L80.6803 42.6323C81.1508 42.684 81.6537 42.7083 82.0029 42.4188C82.425 42.0664 82.5753 40.6451 81.762 40.3928V40.3912ZM82.3263 44.4336C82.121 43.7997 81.3836 43.6865 80.669 43.8094L80.6754 46.5825C81.0295 46.6342 81.319 46.6148 81.6294 46.5663C82.4993 46.4272 82.6044 45.2889 82.3263 44.4352V44.4336Z" fill="#AAAAAA"/>
<path d="M62.1875 47.2389C61.3822 48.0474 59.3756 48.0038 58.6399 47.2212C58.1726 46.7248 57.9786 46.023 57.9786 45.3277V41.5279C57.9786 40.8278 58.1678 40.1309 58.6625 39.6506C59.4532 38.8826 61.4518 38.8794 62.2247 39.6911C62.6337 40.1196 62.865 40.7437 62.865 41.3598L62.8682 45.4927C62.8682 46.1313 62.6451 46.7814 62.1875 47.2406V47.2389ZM61.2917 45.6689L61.2755 41.0687C61.2739 40.5303 60.8729 40.2198 60.3813 40.2457C59.9173 40.2683 59.581 40.5675 59.5793 41.0752L59.5664 45.7045C59.5664 46.2914 59.9076 46.6536 60.4202 46.6552C60.9327 46.6568 61.2917 46.2947 61.2885 45.6689H61.2917Z" fill="#AAAAAA"/>
<path d="M43.2401 47.6771L41.6749 47.7143L40.6708 43.8643C40.4428 43.798 40.2601 43.7948 39.9949 43.8611V47.7143H38.4249V39.1995L40.826 39.2092C41.2739 39.2108 41.6976 39.3013 42.0889 39.4905C43.1771 39.9691 43.2838 41.5133 42.9264 42.6258C42.7922 43.0445 42.4931 43.3259 42.0808 43.5345L43.2417 47.6787L43.2401 47.6771ZM41.3564 42.4624C41.7364 41.9515 41.7267 41.0347 41.3337 40.5625C41.0168 40.1809 40.4089 40.265 39.9965 40.3119L40.0078 42.7939C40.4654 42.8392 41.0443 42.8812 41.3564 42.4624Z" fill="#AAAAAA"/>
<path d="M68.1409 47.695L67.1141 47.7144L65.0558 42.8393L65.0153 47.7144L63.6895 47.716L63.6878 39.198L64.7874 39.2061L66.8134 43.8451L66.849 39.198L68.1409 39.2012V47.695Z" fill="#AAAAAA"/>
<path d="M76.7997 45.7724L75.3461 45.753L74.9968 47.7078L73.506 47.7127L75.2313 39.2043H76.8806L78.5978 47.7159H77.1377L76.7981 45.774L76.7997 45.7724ZM76.6235 44.6906L76.0705 41.6104L75.5013 44.6809L76.6219 44.6906H76.6235Z" fill="#AAAAAA"/>
<path d="M71.2133 47.8195C69.5624 47.8001 68.914 46.7458 68.8719 45.2L70.2399 44.9284C70.2528 45.7498 70.4646 46.5615 71.1356 46.6084C71.3944 46.6262 71.6919 46.5211 71.7937 46.2413C72.0201 45.614 71.7646 44.951 71.2779 44.5193L69.64 43.0657C69.0676 42.558 68.8687 41.8853 68.8703 41.1367C68.8719 40.0404 69.5899 39.2109 70.6975 39.1123C71.3507 39.054 72.0702 39.1074 72.5602 39.5909C73.0501 40.0743 73.1924 40.7777 73.2183 41.4115L71.8843 41.6638C71.8633 41.287 71.8422 40.9103 71.6595 40.5804C71.5189 40.325 71.2488 40.2619 70.9966 40.2829C70.7443 40.3039 70.4775 40.4543 70.387 40.7567C70.2431 41.2401 70.4161 41.7349 70.7864 42.068L72.4179 43.5346C73.2522 44.2848 73.6031 45.4086 73.2538 46.4952C72.9741 47.3651 72.1511 47.8324 71.2133 47.8211V47.8195Z" fill="#AAAAAA"/>
<path d="M94.9612 47.8226C93.3329 47.7757 92.6991 46.7134 92.6732 45.1983L94.0266 44.9267C94.0525 45.7351 94.2562 46.5824 94.9612 46.6099C95.2167 46.6196 95.4996 46.5048 95.5999 46.2202C95.8246 45.5848 95.5384 44.9299 95.0469 44.4966L93.4865 43.1189C92.8721 42.5773 92.6393 41.8642 92.67 41.0525C92.7039 40.1454 93.223 39.3967 94.1252 39.1784C94.599 39.0636 95.0986 39.0491 95.5821 39.1671C96.6008 39.4145 96.9791 40.3831 97.0115 41.4131L95.6759 41.6621C95.6662 41.2805 95.6452 40.8876 95.4366 40.548C95.2975 40.3216 95.0437 40.2602 94.8141 40.2764C94.6039 40.2925 94.35 40.3831 94.2417 40.6191C94.0024 41.1398 94.1851 41.709 94.5974 42.0792L96.2289 43.5442C97.0082 44.2443 97.3397 45.263 97.1085 46.2946C96.8773 47.3262 95.9977 47.8485 94.9628 47.8194L94.9612 47.8226Z" fill="#AAAAAA"/>
<path d="M50.1799 47.8211C48.5435 47.771 47.9404 46.7184 47.8951 45.2033L49.2485 44.9301C49.2938 45.7369 49.4652 46.5826 50.1799 46.6133C50.4289 46.6246 50.7183 46.5179 50.8218 46.2285C51.0239 45.6706 50.8331 45.0109 50.3852 44.6131L48.7085 43.1223C48.1102 42.5903 47.8871 41.9225 47.8903 41.1367C47.8951 40.1003 48.5419 39.2724 49.601 39.1317C50.2381 39.0476 50.9495 39.0719 51.4702 39.4988C52.0377 39.9644 52.2091 40.7163 52.235 41.4164L50.8946 41.6687C50.893 41.2839 50.8655 40.8909 50.6585 40.5514C50.5194 40.325 50.2656 40.2652 50.0311 40.283C49.7967 40.3008 49.5363 40.4269 49.4393 40.6856C49.2356 41.2273 49.4426 41.756 49.8549 42.123L51.4508 43.5492C52.2771 44.2881 52.6101 45.4038 52.2803 46.4758C52.0006 47.3813 51.1452 47.8551 50.1815 47.8244L50.1799 47.8211Z" fill="#AAAAAA"/>
<path d="M57.4999 42.5353C57.1619 43.8337 55.8668 43.984 54.5344 43.9113V47.7127H52.9676V39.1963L55.7229 39.2076C56.5459 39.2108 57.2185 39.704 57.4562 40.4785C57.6503 41.1544 57.6761 41.8545 57.4983 42.5353H57.4999ZM56.0608 40.8213C55.9201 40.2683 55.2636 40.2554 54.5376 40.3217V42.7907C54.8982 42.8441 55.2103 42.815 55.5369 42.7487C56.1999 42.6113 56.25 41.57 56.0608 40.8229V40.8213Z" fill="#AAAAAA"/>
<path d="M47.0931 43.8303L45.5037 43.84L45.5101 46.613L47.5426 46.6259L47.541 47.7141H43.9336L43.932 39.1945L47.5232 39.1929L47.5297 40.3069L45.5101 40.3118L45.5069 42.713L47.0931 42.7243V43.8303Z" fill="#AAAAAA"/>
<path d="M91.8677 43.8303L90.2831 43.8416L90.2896 46.6114L92.3189 46.6259L92.314 47.7141H88.7163L88.7147 39.1961L92.3059 39.1929L92.3124 40.3069L90.2896 40.3118L90.2864 42.713L91.8661 42.7243L91.8677 43.8303Z" fill="#AAAAAA"/>
<path d="M88.207 46.6196L88.2167 47.7142H84.6254V39.1994L86.1809 39.1946L86.1825 46.6099L88.207 46.6196Z" fill="#AAAAAA"/>
<path d="M59.3207 17.8361C59.2237 19.0068 58.4993 19.7862 57.361 19.8703L54.6591 19.9026V11.3765L57.3529 11.4104C58.4702 11.425 59.2301 12.1946 59.3207 13.3233V17.8361ZM57.749 17.6534L57.7442 13.4429C57.7442 13.1114 57.6261 12.7444 57.3125 12.615C56.9697 12.4744 56.5735 12.4728 56.2226 12.5326L56.2259 18.7788C56.6592 18.8225 57.0845 18.8289 57.4111 18.601C57.6811 18.4134 57.749 18.0172 57.749 17.6518V17.6534Z" fill="#AAAAAA"/>
<path d="M48.4002 19.9011L46.8108 19.9044L45.8083 16.0593C45.5706 15.9897 45.3846 15.9833 45.1275 16.0593V19.9011L43.5607 19.8995V11.375L45.7953 11.3815C46.3014 11.3815 46.7881 11.4655 47.2344 11.6774C47.7146 11.9102 48.0348 12.3161 48.148 12.8448C48.3679 13.8716 48.2579 15.3009 47.215 15.7019L48.4018 19.8979L48.4002 19.9011ZM46.4761 14.6719C46.8738 14.1723 46.8674 13.2345 46.4745 12.7607C46.1527 12.3727 45.5188 12.4309 45.1243 12.5101L45.1372 14.9986C45.5868 15.018 46.1543 15.0794 46.4761 14.6719Z" fill="#AAAAAA"/>
<path d="M53.6421 18.648C53.1942 19.927 51.8311 20.1954 50.5473 19.9157C49.9199 19.7799 49.4397 19.387 49.2068 18.7887C49.0629 18.4217 48.9433 18.0174 48.9465 17.6051L48.9691 13.4059C48.9724 12.7591 49.2667 12.1253 49.7534 11.734C50.5505 11.0921 52.4294 11.0985 53.178 11.8666C53.6518 12.3549 53.8442 13.0502 53.8458 13.739L53.8539 17.3836C53.8539 17.825 53.7844 18.2454 53.6421 18.648ZM52.258 17.8832L52.2645 13.5062C52.2645 13.2086 52.2063 12.8626 51.9944 12.6508C51.7018 12.3581 51.1278 12.3598 50.8189 12.6298C50.5942 12.827 50.536 13.165 50.536 13.456V17.88C50.5376 18.4653 50.8593 18.8615 51.4172 18.8469C51.899 18.834 52.2564 18.488 52.258 17.8816V17.8832Z" fill="#AAAAAA"/>
<path d="M82.9832 19.5261C82.1457 20.223 80.1229 20.2214 79.4049 19.2415C79.0524 18.7597 78.8907 18.1549 78.8907 17.5421L78.8859 13.7374C78.8859 12.6007 79.3839 11.595 80.5061 11.3621C81.0542 11.249 81.6201 11.2473 82.1667 11.3638C83.3438 11.6128 83.7965 12.6977 83.7917 13.8927L83.7723 17.6892C83.7691 18.3732 83.5249 19.0733 82.9832 19.5245V19.5261ZM82.199 17.8703L82.1909 13.3073C82.1909 12.7754 81.8514 12.4309 81.3372 12.4309C80.823 12.4309 80.4834 12.764 80.4834 13.296L80.4786 17.9059C80.4786 18.4993 80.8327 18.8648 81.3776 18.847C81.8675 18.8308 82.199 18.4702 82.199 17.8703Z" fill="#AAAAAA"/>
<path d="M89.0968 19.872L88.0571 19.8963L85.9988 14.9889L85.9616 19.9027H84.6438V11.3766L85.7271 11.3782L87.7726 16.0528L87.8033 11.375L89.0952 11.3815L89.0968 19.872Z" fill="#AAAAAA"/>
<path d="M64.8864 11.3831L64.8767 17.5356C64.8767 18.0223 64.7764 18.4669 64.5969 18.8954C64.1393 19.9869 62.7973 20.1631 61.6492 19.9173C60.5012 19.6716 60.0986 18.5316 60.097 17.3044L60.0889 11.3799H61.6056L61.6072 17.2284L61.6945 18.1484C61.7382 18.6173 62.1505 18.8712 62.5984 18.8291C63.0042 18.7919 63.3373 18.4055 63.3406 17.901L63.3745 11.3799L64.8864 11.3831Z" fill="#AAAAAA"/>
<path d="M68.8561 16.7061L70.3583 16.6899C70.4375 18.0885 70.3033 19.623 68.8351 19.9254C68.329 20.0305 67.8051 20.0321 67.2974 19.9286C66.0572 19.6764 65.6303 18.5655 65.6303 17.3092V14.0478C65.6303 12.8206 65.9715 11.6596 67.1761 11.3831C67.8553 11.2279 68.5877 11.2263 69.2458 11.4833C69.8603 11.7243 70.1933 12.3225 70.3033 12.9596L70.3664 14.486H68.861C68.8432 13.9589 68.9127 13.4188 68.7704 12.8917C68.6573 12.4697 68.1851 12.3791 67.8035 12.4664C67.4526 12.5473 67.2295 12.9095 67.2295 13.3444L67.2376 17.9301C67.2376 18.3618 67.4688 18.7353 67.8019 18.8097C68.1997 18.8986 68.6475 18.8 68.7656 18.3764C68.9127 17.8492 68.8497 17.3205 68.8561 16.7044V16.7061Z" fill="#AAAAAA"/>
<path d="M74.093 18.3991C74.2627 17.851 74.1787 17.3061 74.1916 16.7111L75.7002 16.6949C75.7131 17.3012 75.7228 17.8542 75.6113 18.4153C75.4269 19.3402 74.7462 19.9288 73.8019 19.9854C73.1212 20.0258 72.4097 20.0048 71.8406 19.5747C71.307 19.172 71.0078 18.4929 71.003 17.8073L70.9787 13.7375C70.9755 13.2961 71.0838 12.8724 71.2358 12.4779C71.674 11.3444 72.9902 11.1294 74.1867 11.3541C75.6258 11.6242 75.7827 13.0826 75.7002 14.4845H74.1997C74.177 13.9639 74.2498 13.427 74.1156 12.8967C74.0105 12.4779 73.5481 12.3793 73.1584 12.4617C72.7929 12.5377 72.565 12.9193 72.565 13.3705L72.5714 17.8947C72.5714 18.3118 72.7719 18.6967 73.0921 18.7921C73.4688 18.9069 73.9555 18.8406 74.093 18.3991Z" fill="#AAAAAA"/>
<path d="M41.3388 16.0642L39.9951 16.1159V19.8931L38.4218 19.8995V11.3799L41.2466 11.3993C42.1068 11.4058 42.7633 12.0073 42.9589 12.8319C43.0851 13.3946 43.0932 13.9702 42.9978 14.541C42.8587 15.3818 42.2087 15.938 41.3372 16.0658L41.3388 16.0642ZM41.2288 12.6298C40.8602 12.4341 40.3896 12.4697 39.9935 12.5279L39.9999 14.9808C40.4527 15.0099 40.9248 15.0471 41.2676 14.7981C41.7204 14.4699 41.7252 12.8933 41.2272 12.6298H41.2288Z" fill="#AAAAAA"/>
<path d="M78.0336 11.3687H76.4959V19.9093H78.0336V11.3687Z" fill="#AAAAAA"/>
<path d="M81.7668 10.6671L80.9244 10.6655L81.5388 8.56183L83.028 8.55859L81.7668 10.6671Z" fill="#AAAAAA"/>
<path d="M80.2068 95.0695C76.9099 95.2442 73.7504 94.5376 70.8156 93.1858C68.2641 92.0103 65.9858 90.5001 63.9808 88.529C61.2304 85.8239 59.13 82.6531 57.4031 79.2025C54.7707 73.9475 50.6201 66.5289 44.9575 64.3946C43.7432 63.937 42.5143 63.5457 41.203 63.426C38.7954 63.2061 36.3926 63.6977 34.2178 64.6986C32.043 65.6994 30.2046 67.5072 29.173 69.7677C27.8552 72.6555 27.6644 76.1659 28.0169 79.3011C28.2271 81.1736 28.8965 82.8309 29.9491 84.3702C30.8853 85.7398 32.0657 86.8118 33.5047 87.6591C35.8445 89.0367 38.514 89.5477 41.224 89.3116C43.1886 89.1402 45.0044 88.584 46.6796 87.4392L44.2348 85.2272C44.086 85.093 44.0569 84.92 44.1022 84.7422C44.1572 84.5287 44.3172 84.5239 44.5582 84.456L55.1701 81.4937C55.3545 81.442 55.466 81.463 55.576 81.5358C55.6973 81.615 55.7975 81.7686 55.7652 81.9691L53.9736 93.0338C53.938 93.2489 53.9186 93.3718 53.7505 93.4478C53.5823 93.5238 53.3996 93.5011 53.2427 93.3621L50.7915 91.1598C49.0096 92.4647 47.1533 93.5027 45.0529 94.08C42.7504 94.7122 40.4123 94.8965 38.0225 94.6734C33.6098 94.2611 29.5352 92.1962 26.6166 88.8751C25.6367 87.761 24.8751 86.5483 24.2106 85.2305C23.3892 83.6054 22.917 81.9093 22.689 80.0902C22.3818 77.6389 22.3996 75.2265 22.7505 72.7849C23.5751 67.048 26.6635 62.2214 31.9961 59.7685C35.2527 58.2712 38.8972 57.6988 42.461 58.1402L45.6027 58.884C49.5383 60.0078 52.6137 62.5286 55.2235 65.6202C57.8219 68.6989 60.0759 72.4841 61.8885 76.0947C63.6057 79.5162 65.4215 82.5544 68.269 85.1658C69.6595 86.4416 71.1795 87.3842 72.8837 88.1846C76.572 89.9196 80.6693 90.361 84.3672 88.4789C87.7418 86.7601 89.535 83.6087 90.1171 79.9172C90.6119 76.7723 90.4453 73.0905 89.1922 70.1476C88.1735 67.7578 86.3787 65.8741 84.0034 64.7649C81.7834 63.7284 79.3175 63.1948 76.842 63.4115C75.2962 63.5473 73.8409 64.0502 72.4488 64.6711C69.286 66.0778 66.7102 68.9883 64.6939 71.7452C64.5823 71.8972 64.4692 71.9796 64.3026 71.9748C64.17 71.9716 63.9938 71.915 63.9032 71.7581L61.4778 67.5282C61.3388 67.2857 61.4681 67.0738 61.6201 66.883C64.9607 62.7453 68.7444 59.6311 74.0317 58.4458L76.2033 58.0351C79.5843 57.791 82.975 58.3682 86.0634 59.7653C91.7971 62.3572 94.9436 67.5589 95.6033 73.7276C96.0205 77.6357 95.6599 81.7395 94.1368 85.3485C91.7502 91.0062 86.3949 94.7365 80.2101 95.0647L80.2068 95.0695Z" fill="#AAAAAA"/>
<path d="M23.3227 22.2846C24.6469 20.2538 26.0925 18.3458 25.5476 15.9333C25.3487 15.0504 24.613 14.5831 23.7495 14.7206C23.1335 14.8192 22.6274 15.1426 22.4156 15.7538C21.9838 16.7515 22.0501 17.893 22.0404 19.0152L17.8994 19.0119L17.9253 17.1476C17.9415 15.9899 18.2244 14.8904 18.7661 13.8749C19.4129 12.5959 20.5043 11.7001 21.9078 11.359C23.3113 11.0178 24.7811 11.021 26.1863 11.3848C29.4832 12.2386 30.345 15.7037 29.6692 18.8179C29.3409 19.9999 28.8591 21.0364 28.1767 22.0615L22.7018 30.295L29.3005 30.3079V33.6647H17.9027L17.9124 30.6394L23.3227 22.283V22.2846Z" fill="#AAAAAA"/>
<path d="M11.2799 15.8654L8.07031 16.994L8.07355 13.8313C9.21834 13.3623 10.2677 12.8093 11.2945 12.1545C11.6324 11.9087 11.9397 11.6823 12.2194 11.3816H15.5648V33.6646H11.2832V15.8654H11.2799Z" fill="#AAAAAA"/>
</svg>
