<svg width="120" height="120" viewBox="0 0 120 120" fill="none" xmlns="http://www.w3.org/2000/svg">
<path d="M60.4184 101.494C56.0219 104.501 50.188 104.416 45.887 101.266C41.5859 98.1159 39.7313 92.7541 41.2172 87.6106C36.9372 84.2571 35.2798 78.6479 37.0795 73.498C38.7417 68.7442 43.2497 65.2807 48.4773 65.1093C50.277 60.0644 55.0372 56.7109 60.3456 56.7061C65.6395 56.7012 70.4289 60.0386 72.2334 65.1077C77.4399 65.2775 81.9593 68.7232 83.6296 73.4786C85.4422 78.6382 83.7767 84.2506 79.5193 87.5993C80.9519 92.7008 79.0601 98.0383 74.8965 101.133C70.6763 104.27 64.8698 104.464 60.4184 101.495V101.494ZM60.3505 72.2966C62.21 68.5582 65.4875 66.0439 69.5396 65.2791C67.8547 61.4534 64.0032 59.07 59.8347 59.277C56.0478 59.4904 52.7072 61.7962 51.1711 65.2823C55.283 66.0423 58.5767 68.6569 60.3505 72.2966ZM51.7839 78.5655C48.7231 75.5855 47.3762 71.763 47.8596 67.711C42.9926 68.2623 39.2898 72.185 38.939 77.0003C38.7352 80.0611 39.9302 83.0137 42.2278 85.1092C44.2409 81.4598 47.6802 79.1621 51.7823 78.5671L51.7839 78.5655ZM78.5168 85.0769C82.8906 81.0604 82.8357 74.3711 78.6526 70.4064C77.0826 68.9237 75.0792 67.9567 72.8478 67.711C73.3442 71.7452 71.9811 75.5838 68.9866 78.4959C73.0985 79.0894 76.5183 81.4485 78.5168 85.0769ZM58.8678 79.209C59.7344 73.6322 55.8441 68.597 50.4435 67.774C49.5801 73.2732 53.4025 78.3973 58.8678 79.209ZM70.264 67.774C64.8068 68.6067 60.9795 73.7082 61.8462 79.2139C67.2936 78.3844 71.1403 73.2942 70.264 67.774ZM76.3889 86.5677C75.2635 84.38 73.5819 82.8132 71.4977 81.8576C68.6874 80.598 65.5231 80.6837 62.7727 82.1179C65.2547 87.1433 71.4104 89.2179 76.3889 86.5677ZM57.9008 82.1874C52.8333 79.5647 46.8377 81.704 44.3606 86.5952C49.3343 89.1839 55.4059 87.1611 57.9008 82.1874ZM60.4055 98.1838C64.4074 94.1722 64.2958 87.8014 60.3117 83.9224C56.3583 87.8726 56.3712 94.274 60.4055 98.1838ZM46.372 98.331C49.6156 101.444 54.4891 102.022 58.3406 99.7619C55.4916 96.7819 54.3048 92.8107 55 88.7473C51.3635 90.6844 47.2129 90.7944 43.5004 89.0432C42.7679 92.4469 43.8852 95.933 46.372 98.3293V98.331ZM77.2362 89.0352C73.535 90.7912 69.3455 90.7022 65.6977 88.7344C66.4334 92.7865 65.2579 96.7641 62.4735 99.7409C66.186 101.853 70.749 101.358 73.9409 98.6172C76.6493 96.2726 77.9703 92.6636 77.2362 89.0352Z" fill="#AAAAAA"/>
<path d="M55.7362 33.7732L54.1662 33.8071L53.1637 29.9685C52.9422 29.8909 52.7546 29.8861 52.4862 29.9637L52.491 33.8007L50.9 33.8055V25.281L53.4854 25.3069C54.1888 25.3133 54.8534 25.585 55.2609 26.1542C55.6424 26.8106 55.6473 27.5738 55.5293 28.3144C55.4355 28.8997 55.1363 29.3654 54.572 29.6322L55.7378 33.7732H55.7362ZM53.652 26.5147C53.3076 26.3498 52.9195 26.3401 52.4894 26.3805L52.4959 28.8949C52.9632 28.9531 53.4596 28.9337 53.7862 28.641C54.2389 28.2352 54.2373 26.7945 53.652 26.5147Z" fill="#AAAAAA"/>
<path d="M43.6316 32.7689C43.1239 33.8911 41.7883 34.0754 40.5983 33.8151C40.0016 33.6841 39.5327 33.2961 39.3015 32.7318C39.1527 32.3696 39.0234 31.9686 39.025 31.5611L39.0395 27.3748C39.0411 26.7475 39.2966 26.1152 39.7445 25.7078C40.5368 24.985 42.4852 24.9818 43.2452 25.7563C43.6947 26.2155 43.9211 26.8784 43.9227 27.5414L43.9275 31.5174C43.9275 31.9572 43.8047 32.3841 43.6316 32.7673V32.7689ZM42.3349 31.7729L42.3235 27.1824C42.3235 26.6391 41.9468 26.3222 41.4423 26.3384C40.9782 26.3529 40.629 26.6666 40.6274 27.1776L40.6193 31.8133C40.6193 32.3938 40.9669 32.7544 41.4827 32.7512C41.9985 32.7479 42.3365 32.3987 42.3349 31.7745V31.7729Z" fill="#AAAAAA"/>
<path d="M67.0371 33.7794L65.4574 33.8021L64.4517 29.957C64.201 29.9004 64.0183 29.8891 63.7725 29.9554V33.8021H62.217V25.2727L64.6926 25.2953C65.0612 25.2986 65.4234 25.3924 65.7549 25.5233C66.337 25.7578 66.7073 26.2283 66.8237 26.8476C66.9644 27.994 66.9159 29.1243 65.8746 29.632L67.0388 33.781L67.0371 33.7794ZM65.1211 28.5793C65.5318 28.0781 65.5204 27.116 65.1114 26.6487C64.7912 26.2833 64.2237 26.369 63.779 26.3738V28.8995C64.2237 28.9205 64.7912 28.982 65.1211 28.5777V28.5793Z" fill="#AAAAAA"/>
<path d="M47.435 30.4891L47.4285 29.4688L49.7682 29.4639L49.7747 33.7989H48.7091C48.7091 33.5532 48.7447 33.3672 48.5781 33.1328C48.2062 33.8183 47.553 33.993 46.8626 33.9202C46.1058 33.841 45.4769 33.461 45.2036 32.7269C45.0581 32.3372 44.9287 31.9087 44.9287 31.4705L44.9319 27.5947C44.9319 27.1598 45.0516 26.7345 45.2117 26.3481C45.6774 25.2146 46.9855 25.0335 48.1723 25.2615C49.5127 25.5186 49.7973 26.804 49.7068 28.1267L48.2127 28.1154C48.1949 27.619 48.2919 27.1113 48.0575 26.6795C47.823 26.2478 47.0825 26.2365 46.7688 26.5793C46.5699 26.7976 46.5117 27.1113 46.5133 27.4007L46.5343 31.8085C46.5376 32.3453 46.8496 32.7123 47.2991 32.7447C47.8198 32.7819 48.1868 32.5021 48.2839 31.9508C48.3663 31.4835 48.3502 30.9919 48.3324 30.5004L47.4366 30.4891H47.435Z" fill="#AAAAAA"/>
<path d="M59.6137 31.8909C59.1076 31.7858 58.6355 31.8457 58.131 31.8521L57.7898 33.8022H56.3006L58.0291 25.2744H59.6735L61.3923 33.7908L59.929 33.8054L59.6153 31.8909H59.6137ZM59.4132 30.7429L58.8618 27.6562L58.3008 30.772C58.7244 30.8027 59.0284 30.848 59.4132 30.7413V30.7429Z" fill="#AAAAAA"/>
<path d="M38.4494 32.7204L38.4429 33.8022H34.8275V25.2841L36.4185 25.2744L36.4153 32.7075L38.4494 32.7204Z" fill="#AAAAAA"/>
<path d="M91.7792 19.903H90.1929L89.1921 16.0644C88.9592 15.99 88.7684 15.9852 88.5129 16.0644L88.5097 19.903H86.9445V11.3801H89.1015C89.5947 11.3834 90.0684 11.4464 90.5115 11.6324C91.0596 11.8604 91.4348 12.3099 91.5463 12.9017C91.7404 13.9317 91.6288 15.3077 90.602 15.7054L91.7775 19.9046L91.7792 19.903ZM89.8599 14.6738C90.256 14.1693 90.2528 13.2396 89.8599 12.7642C89.5365 12.3745 88.9059 12.4279 88.5081 12.5104L88.5226 15.0005C88.9673 15.0118 89.5446 15.0765 89.8599 14.6738Z" fill="#AAAAAA"/>
<path d="M57.5261 19.8933L56.4848 19.9078L54.4248 15.0489L54.3812 19.903L53.0634 19.9013L53.0666 11.3704L54.1451 11.3768L56.1743 15.9948L56.2164 11.3752L57.5293 11.3768L57.5261 19.8933Z" fill="#AAAAAA"/>
<path d="M84.3204 17.9399L82.8797 17.9253L82.5256 19.9028L81.0331 19.8947L82.7649 11.3767H84.4093L86.133 19.9012H84.6599L84.322 17.9399H84.3204ZM84.1522 16.8468L83.6008 13.8215L83.0365 16.8662C83.486 16.9163 83.7722 16.9357 84.1522 16.8468Z" fill="#AAAAAA"/>
<path d="M37.6766 17.9399L36.2326 17.9286L35.8801 19.9028H34.3909L36.1194 11.3767H37.7639L39.4859 19.8947L38.0129 19.9045L37.6749 17.9415L37.6766 17.9399ZM37.5068 16.8468L36.9554 13.8215L36.3927 16.8662C36.8406 16.9147 37.1284 16.9357 37.5068 16.8468Z" fill="#AAAAAA"/>
<path d="M95.6245 17.9481L94.1676 17.9416L93.8232 19.9046L92.3243 19.8997L94.0593 11.3784L95.7021 11.3704L97.4387 19.8981L95.9592 19.903L95.6261 17.9465L95.6245 17.9481ZM95.4498 16.8744L94.8839 13.6955L94.3325 16.8793L95.4498 16.8744Z" fill="#AAAAAA"/>
<path d="M50.4471 17.9496L48.987 17.9367L48.6377 19.9045H47.1469L48.8803 11.3784L50.5247 11.3735L52.2484 19.8948L50.7786 19.9061L50.4487 17.9496H50.4471ZM50.2676 16.8776L49.7065 13.6955L49.1471 16.8776H50.2676Z" fill="#AAAAAA"/>
<path d="M66.0767 17.9416L64.6328 17.9303L64.2787 19.903L62.7863 19.8949L64.5115 11.3752L66.1576 11.3785L67.8812 19.9014H66.4131L66.0767 17.9433V17.9416ZM65.9086 16.8276L65.3362 13.8233L64.8026 16.8809C65.2327 16.8955 65.4849 16.9634 65.9086 16.8276Z" fill="#AAAAAA"/>
<path d="M79.4456 16.0529L78.0227 16.1143L78.0259 19.8899L76.4348 19.9044V11.3718L79.2903 11.3977C80.1699 11.4058 80.8264 12.0477 80.9978 12.8934C81.2727 14.3632 81.0011 15.7812 79.4456 16.0529ZM79.5636 13.123C79.4423 12.4616 78.7875 12.4261 78.0194 12.5296L78.0243 14.9792C78.3994 15.0261 78.6969 14.997 79.0138 14.9323C79.6444 14.803 79.7059 13.8943 79.5636 13.123Z" fill="#AAAAAA"/>
<path d="M72.9953 17.728C73.0907 19.1024 72.1011 20.0726 70.7752 20.0096C70.1155 19.9772 69.4687 19.8188 69.0499 19.2722C68.6311 18.7257 68.4824 18.0417 68.4905 17.3756L69.8616 17.1055C69.8552 17.9043 70.0621 18.7516 70.7526 18.792C70.9983 18.8065 71.2878 18.7225 71.3961 18.446C71.6387 17.8267 71.3864 17.1524 70.8997 16.7191L69.2213 15.2283C68.6441 14.7157 68.4646 14.0285 68.4824 13.2685C68.5034 12.3194 69.0629 11.5449 70.0169 11.3492C70.9709 11.1536 72.051 11.3266 72.507 12.2337C72.7252 12.667 72.8142 13.1246 72.8368 13.6016L71.4867 13.8603C71.4721 13.5014 71.4608 13.123 71.2813 12.7851C71.1406 12.5199 70.8674 12.4326 70.5957 12.4649C70.3241 12.4972 70.0735 12.6509 69.991 12.9678C69.8665 13.4529 70.0427 13.9347 70.4098 14.2646L71.9992 15.6907C72.5894 16.2211 72.9371 16.9034 72.9936 17.7264L72.9953 17.728Z" fill="#AAAAAA"/>
<path d="M62.3623 19.8996L58.4882 19.9028L58.493 18.8745L60.7438 12.4795L58.6175 12.4665L58.6143 11.3783L62.3543 11.3767L62.3591 12.1755L60.0081 18.8065L62.364 18.8211L62.3623 19.8996Z" fill="#AAAAAA"/>
<path d="M43.9002 18.8196V19.9013H40.309V11.3833L41.8645 11.3784L41.8661 18.8083L43.9002 18.8196Z" fill="#AAAAAA"/>
<path d="M46.2993 11.3737L44.7438 11.377L44.7616 19.9079L46.3171 19.9047L46.2993 11.3737Z" fill="#AAAAAA"/>
<path d="M23.7564 33.6663L19.5992 33.6695L24.2722 14.6559L18.2248 14.6478L18.2167 11.3881L28.4487 11.3865L28.4471 14.2097L23.7564 33.6663Z" fill="#AAAAAA"/>
<path d="M11.4432 15.8685L8.23035 17.0004L8.2352 13.8328C9.37676 13.3704 10.4213 12.8109 11.4464 12.1593C11.7908 11.9216 12.0965 11.6904 12.3762 11.3848L15.72 11.388V33.6662H11.4464V15.8669L11.4432 15.8685Z" fill="#AAAAAA"/>
<path d="M62.2779 43.1287C63.5666 43.6494 63.6636 44.7424 63.4793 46.0311C63.2965 47.0336 62.4881 47.6966 61.4662 47.7014L58.7028 47.7144V39.1753L61.2382 39.2012C61.8656 39.2076 62.4622 39.4211 62.8794 39.877C63.2691 40.3686 63.3289 40.9814 63.2868 41.5991C63.2788 42.2701 62.9926 42.8441 62.2779 43.1287ZM61.6602 42.3461C62.0192 41.9289 62.0499 41.0138 61.7039 40.616C61.3578 40.2182 60.7563 40.2958 60.2793 40.3201V42.6339C60.7402 42.6582 61.3077 42.7552 61.6602 42.3461ZM61.9448 44.4805C61.7394 43.803 61.0102 43.6963 60.2664 43.8046L60.2713 46.5841C60.6189 46.6326 60.9051 46.6165 61.2172 46.5679C62.0919 46.4321 62.2003 45.3213 61.9448 44.4821V44.4805Z" fill="#AAAAAA"/>
<path d="M43.0202 47.4087C42.1163 47.9924 40.8422 47.9763 39.9561 47.433C39.3692 47.074 39.0555 46.3238 39.0539 45.643L39.0425 41.2676C39.0425 40.6612 39.3013 40.0452 39.7136 39.6442C40.4865 38.8923 42.388 38.9004 43.1577 39.5827C43.6638 40.0306 43.9225 40.734 43.9209 41.4341L43.9128 45.4813C43.9128 46.1896 43.6638 46.9899 43.0202 47.4055V47.4087ZM41.4841 46.6488C41.9951 46.6439 42.3265 46.2914 42.3265 45.774V41.0752C42.3233 40.5367 41.9336 40.236 41.4437 40.2457C40.9861 40.2554 40.6271 40.5594 40.6271 41.0703L40.6336 45.8516C40.6336 46.3529 41.012 46.6536 41.4841 46.6488Z" fill="#AAAAAA"/>
<path d="M94.5956 47.4442C93.6852 47.9875 92.4483 47.9697 91.5767 47.4265C90.9381 47.0287 90.6696 46.217 90.668 45.4829L90.6583 41.4357C90.6583 40.7889 90.8669 40.1454 91.3003 39.691C92.0748 38.8777 94.041 38.8874 94.8236 39.6118C95.2569 40.0128 95.5399 40.645 95.5382 41.2691L95.5302 45.6446C95.5302 46.3221 95.2149 47.0756 94.5956 47.4442ZM93.163 46.6487C93.6028 46.6293 93.9488 46.3253 93.9488 45.8532L93.9537 41.0703C93.9537 40.5254 93.5494 40.223 93.0563 40.2456C92.6019 40.2666 92.2575 40.5706 92.2575 41.0751V45.7739C92.2559 46.3205 92.6181 46.673 93.163 46.6487Z" fill="#AAAAAA"/>
<path d="M56.6299 47.4378C55.7454 47.9811 54.5311 47.965 53.6596 47.4669C53.0419 47.1144 52.7072 46.3577 52.7056 45.6576L52.6959 41.253C52.6959 40.637 52.9691 39.9999 53.4073 39.6038C54.1915 38.8939 56.1238 38.8891 56.8934 39.662C57.3462 40.1163 57.5677 40.7841 57.5677 41.4438L57.5612 45.4813C57.5612 46.209 57.3025 47.0223 56.6299 47.4346V47.4378ZM55.1132 46.6504C55.6128 46.6585 55.9799 46.3222 55.9783 45.7756L55.9734 41.0849C55.9734 40.5481 55.5999 40.2392 55.1035 40.2473C54.6443 40.2538 54.2805 40.5578 54.2805 41.0703L54.2853 45.8581C54.2853 46.3674 54.6718 46.6455 55.1116 46.652L55.1132 46.6504Z" fill="#AAAAAA"/>
<path d="M74.7961 46.6423C75.7016 46.5679 75.5189 45.6317 75.5286 44.516L77.0404 44.508L76.9822 46.0441C76.9612 46.5793 76.6766 47.1694 76.1737 47.4605C75.3006 47.9666 74.1154 47.9763 73.2471 47.4314C72.6698 47.0692 72.3432 46.3416 72.3416 45.6576L72.3367 41.2692C72.3367 40.6855 72.5825 40.0824 72.9673 39.6814C73.6594 38.9635 75.2796 38.9166 76.1074 39.3871C76.6022 39.6685 76.8771 40.1794 76.9757 40.7405L77.0388 42.2895H75.5318C75.5189 41.7414 75.5835 41.211 75.4396 40.679C75.3297 40.2764 74.8527 40.2004 74.484 40.278C74.1445 40.3492 73.9052 40.713 73.9068 41.1399L73.9262 45.85C73.9278 46.3771 74.332 46.6795 74.7929 46.6407L74.7961 46.6423Z" fill="#AAAAAA"/>
<path d="M100.984 45.8597C100.927 46.9689 100.125 47.7515 99.0582 47.8162C98.3419 47.8599 97.6029 47.716 97.113 47.1678C96.6231 46.6197 96.4856 45.9034 96.4775 45.1887L97.8261 44.8879C97.8681 45.7401 98.046 46.5744 98.7639 46.6068C99.0178 46.6181 99.3056 46.5049 99.4042 46.2219C99.6257 45.5865 99.3428 44.9268 98.8528 44.495L97.2893 43.1158C96.2609 42.2103 96.2366 40.4899 96.9885 39.7121C97.4671 39.2157 98.122 39.0783 98.7962 39.0831C99.7114 39.0896 100.494 39.5795 100.677 40.4882L100.859 41.3954L99.4786 41.6638C99.4673 41.2886 99.4592 40.8893 99.2296 40.54C98.9887 40.1729 98.3112 40.1826 98.0864 40.5707C97.7743 41.1108 98.0056 41.7317 98.4357 42.1149L99.9928 43.5038C100.665 44.1037 101.031 44.9251 100.982 45.8581L100.984 45.8597Z" fill="#AAAAAA"/>
<path d="M49.3409 45.9485C49.2358 47.3132 48.0845 48.0004 46.6568 47.7788C45.3535 47.5751 44.8555 46.4497 44.8377 45.1901L46.2089 44.8926C46.2186 45.4133 46.2752 45.9145 46.5678 46.3187C46.7538 46.5758 47.0853 46.6518 47.3698 46.5839C47.6544 46.516 47.842 46.2201 47.8485 45.8644C47.8582 45.3146 47.6011 44.8215 47.1936 44.4657L45.7772 43.2304C44.8021 42.3799 44.4901 40.9117 45.2662 39.83C45.9259 38.9099 47.9487 38.766 48.6957 39.7798C49.045 40.2552 49.1744 40.8308 49.1857 41.4129L47.8582 41.6668C47.8129 40.8826 47.6932 40.2439 47.0093 40.2827C46.7878 40.2956 46.5387 40.3749 46.4223 40.6126C46.1782 41.1122 46.3334 41.683 46.7392 42.0484L48.4451 43.5877C49.1242 44.2022 49.4104 45.0349 49.3409 45.9485Z" fill="#AAAAAA"/>
<path d="M88.5776 39.1977L90.0102 39.1686L88.2736 47.7044L86.7488 47.7141L85.0154 39.167L86.4109 39.1718L87.5265 44.8473L88.5776 39.1977Z" fill="#AAAAAA"/>
<path d="M71.1146 43.832L69.5219 43.8368L69.5251 46.618L71.5916 46.6277L71.5883 47.7078L67.9664 47.7159L67.968 39.1736H71.5269L71.5382 40.3022L69.5251 40.3054V42.7195L71.1162 42.7244L71.1146 43.832Z" fill="#AAAAAA"/>
<path d="M80.5023 47.703L78.9177 47.7111L78.9144 40.3654L77.5045 40.3557L77.5012 39.1753L81.867 39.1785L81.875 40.3476L80.5071 40.3637L80.5023 47.703Z" fill="#AAAAAA"/>
<path d="M38.4523 46.626L38.4458 47.7142L34.8287 47.7126L34.8304 39.1687H36.415L36.4166 46.6082L38.4523 46.626Z" fill="#AAAAAA"/>
<path d="M63.9968 47.905V46.7635C64.3137 46.8007 64.6468 46.7829 64.8942 46.5808C65.0818 46.4271 65.0947 46.1684 65.1319 45.9275L65.1367 39.1784L66.7068 39.1687L66.6664 46.3301C66.6615 47.2631 66.0164 47.8711 65.1335 47.8856L63.9952 47.905H63.9968Z" fill="#AAAAAA"/>
<path d="M84.1277 39.1541H82.5836V47.7125H84.1277V39.1541Z" fill="#AAAAAA"/>
</svg>
