<svg width="80" height="80" viewBox="0 0 80 80" fill="none" xmlns="http://www.w3.org/2000/svg">
<path d="M40 80C62.0914 80 80 62.0914 80 40C80 17.9086 62.0914 0 40 0C17.9086 0 0 17.9086 0 40C0 62.0914 17.9086 80 40 80Z" fill="#F1992A"/>
<path d="M72.52 26.265C70.745 22.065 68.2 18.29 64.955 15.045C61.715 11.805 57.94 9.255 53.735 7.48C49.385 5.64 44.765 4.71 40 4.71C35.235 4.71 30.615 5.64 26.265 7.48C22.065 9.255 18.29 11.8 15.045 15.045C11.805 18.285 9.255 22.06 7.48 26.265C5.64 30.615 4.71 35.235 4.71 40C4.71 44.765 5.64 49.385 7.48 53.735C9.255 57.935 11.8 61.71 15.045 64.955C18.285 68.195 22.06 70.745 26.265 72.52C30.615 74.36 35.235 75.29 40 75.29C44.765 75.29 49.385 74.36 53.735 72.52C57.935 70.745 61.71 68.2 64.955 64.955C68.195 61.71 70.745 57.94 72.52 53.735C74.36 49.385 75.29 44.765 75.29 40C75.29 35.235 74.36 30.615 72.52 26.265ZM63.86 63.86C60.76 66.96 57.15 69.395 53.135 71.095C48.98 72.855 44.56 73.745 40.005 73.745C35.45 73.745 31.03 72.855 26.875 71.095C22.86 69.395 19.25 66.96 16.15 63.86C15.08 62.79 14.09 61.655 13.18 60.465C14.38 60.43 15.58 60.545 16.75 60.86C18.01 61.2 19.19 61.755 20.325 62.39C22.695 63.72 24.93 65.26 27.56 66.06C29.165 66.55 30.85 66.765 32.525 66.755C34.19 66.745 36.13 66.565 37.175 65.095C37.755 64.285 37.905 63.265 37.945 62.295C37.99 61.25 37.98 60.205 38.1 59.16C38.34 57.115 38.93 55.135 39.52 53.17C39.605 52.89 39.69 52.615 39.775 52.335C40.535 52.235 41.28 52.04 42.02 51.83C42.32 51.745 42.615 51.655 42.91 51.55C43.075 51.6 43.265 51.625 43.47 51.63C44.355 51.635 45.27 51.355 46.09 51.05C46.975 50.72 47.705 50.32 48.42 49.705C49.16 49.07 49.855 48.36 50.37 47.525C50.755 46.9 51.01 46.21 51.25 45.52C51.535 44.7 51.85 43.895 52.245 43.12C52.465 42.685 52.1 42.12 51.59 42.265C50.465 42.595 49.42 43.105 48.535 43.88C47.81 44.515 47.245 45.305 46.715 46.105C46.16 46.945 45.63 47.8 44.975 48.56C44.475 49.14 43.87 49.795 43.205 50.165C43.17 49.985 43.165 49.85 43.15 49.6C43.065 48.16 43.165 46.69 43.335 45.255C43.335 45.235 43.34 45.21 43.345 45.19C43.35 45.14 43.36 45.09 43.365 45.045C43.375 44.975 43.39 44.905 43.405 44.835C43.495 44.455 43.625 44.075 43.78 43.715C44.12 42.915 44.595 42.16 45.18 41.515C45.805 40.825 46.555 40.255 47.41 39.885C47.845 39.695 48.315 39.565 48.785 39.48C49.315 39.385 49.83 39.43 50.36 39.41C51.375 39.37 52.3 38.83 53.16 38.34C53.495 38.15 53.84 37.915 54.215 37.8C54.305 37.99 54.355 38.095 54.43 38.38C54.53 38.74 54.595 39.105 54.65 39.47C54.785 40.445 54.815 41.435 54.78 42.415C54.705 44.675 54.185 46.845 53.32 48.93C52.64 50.57 51.63 52.36 49.9 53.07C47.905 53.885 45.58 53.105 43.635 52.505C43.035 52.32 42.285 52.02 41.66 52.225C40.905 52.47 40.575 53.54 40.34 54.2C39.585 56.33 39.17 58.655 39.16 60.915C39.16 61.915 39.215 63.01 39.58 63.95C39.92 64.83 40.595 65.39 41.47 65.725C42.675 66.19 44.04 65.27 45.08 64.755C46.74 63.93 48.475 63.31 50.36 63.44C50.99 63.485 51.61 63.635 52.24 63.71C52.785 63.78 53.335 63.82 53.885 63.845C55.35 63.905 56.82 63.815 58.27 63.6C61.405 63.14 64.425 62 67.025 60.2C66.065 61.48 65.01 62.7 63.86 63.845V63.86ZM38.185 43.65C38.005 42.62 37.76 41.65 37.765 40.595C37.765 39.675 37.9 38.76 38.035 37.85C38.22 36.57 38.395 35.29 38.515 34C38.545 33.685 38.225 33.425 37.935 33.42C36.73 33.395 35.71 32.715 35.065 31.72C34.805 31.315 34.595 30.885 34.47 30.42C34.44 30.315 34.42 30.21 34.4 30.105C34.37 29.95 34.385 30.065 34.375 29.91C34.375 29.87 34.375 29.83 34.375 29.79C34.38 29.79 34.385 29.79 34.39 29.79C34.5 29.765 34.55 29.76 34.665 29.75C34.965 29.725 35.27 29.72 35.57 29.735C35.775 29.745 35.895 29.76 36.055 29.79C36.36 30.635 36.645 31.48 37.51 31.92C38.795 32.58 40.585 32.235 41.3 30.905C41.67 30.215 41.665 29.4 41.28 28.715C40.945 28.12 40.365 27.755 39.72 27.56C39.05 27.355 38.345 27.325 37.67 27.15C37.03 26.98 36.395 26.645 35.94 26.16C35.1 25.27 35.075 23.71 35.445 22.61C35.795 21.58 36.62 20.86 37.535 20.37C37.82 20.215 38.125 20.105 38.415 19.96C38.62 19.855 38.79 19.705 38.895 19.495C39.035 19.22 38.955 18.875 39.02 18.595C39.095 18.585 39.17 18.58 39.25 18.575C39.275 18.575 39.305 18.575 39.335 18.575C39.335 18.585 39.345 18.6 39.355 18.63C39.445 18.84 39.41 19.08 39.47 19.295C39.705 20.135 40.63 20.06 41.26 20.425C42.12 20.92 42.92 21.865 43.205 22.795C43.155 22.81 43.105 22.825 43.05 22.84C42.92 22.875 42.785 22.905 42.65 22.925C42.405 22.965 42.155 22.985 41.905 22.985C41.785 22.985 41.66 22.985 41.54 22.97C41.57 22.97 41.605 22.97 41.51 22.96C41.485 22.91 41.46 22.855 41.455 22.85C41.38 22.715 41.3 22.585 41.21 22.46C40.985 22.145 40.735 21.85 40.435 21.605C39.825 21.11 39.2 21.03 38.485 21.36C37.805 21.675 37.24 22.27 36.94 22.955C36.65 23.625 36.55 24.475 37.13 25.02C38.21 26.05 39.97 25.77 41.255 26.32C42.825 26.99 43.305 29.01 42.84 30.505C42.425 31.845 41.31 32.4 40.075 32.83C39.425 33.055 39.28 33.68 39.31 34.305C39.35 35.06 39.37 36.28 40.23 36.565C40.595 36.685 41.035 36.615 41.41 36.575C41.83 36.53 42.25 36.47 42.66 36.37C43.4 36.2 44.115 35.92 44.78 35.555C47.36 34.145 49.28 31.25 49.76 28.37C50.315 25.04 49.355 21.45 47.165 18.875C45.11 16.455 41.81 14.65 38.57 14.85C33.395 15.17 29.03 19.305 28.27 24.4C27.88 27.025 28.545 29.905 29.98 32.125C30.915 33.57 32.12 34.98 33.745 35.635C33.935 35.71 34.19 35.865 34.39 35.91C34.41 36 34.45 36.09 34.465 36.17C34.515 36.42 34.54 36.67 34.555 36.92C34.56 37.06 34.565 37.195 34.56 37.335C34.56 37.385 34.55 37.425 34.535 37.465C34.12 37.36 33.88 37.275 33.52 37.09C32.37 36.5 31.37 35.645 30.475 34.72C29.345 33.55 28.225 32.19 27.63 30.66C27.075 29.225 26.86 27.675 26.885 26.14C26.945 22.9 28.135 19.795 30.38 17.445C32.665 15.05 35.77 13.63 39.1 13.73C41.995 13.82 44.76 14.905 46.925 16.83C48.61 18.33 50.06 20.29 50.755 22.45C52.775 28.74 48.93 36.14 42.435 37.695C41.34 37.955 40.21 38.035 39.095 37.9C38.705 37.855 38.455 38.305 38.535 38.635C39.06 40.775 39.5 42.945 39.61 45.155C39.71 47.26 39.435 49.26 38.855 51.275C38.61 51.285 38.375 51.28 38.15 51.25C37.965 51.225 37.84 51.165 37.74 51.05C38.525 48.705 38.6 46.05 38.17 43.64L38.185 43.65ZM36.11 29.8C36.11 29.8 36.11 29.8 36.115 29.8C36.115 29.8 36.115 29.8 36.12 29.8C36.135 29.825 36.12 29.815 36.105 29.8H36.11ZM36.125 29.805C36.16 29.85 36.205 29.825 36.125 29.805V29.805ZM41.56 23.055C41.56 23.055 41.56 23.045 41.55 23.03C41.565 23.045 41.57 23.05 41.56 23.055ZM40.5 33.88C40.5 33.88 40.505 33.91 40.49 33.915C40.49 33.91 40.49 33.905 40.49 33.91C40.445 33.67 40.525 33.92 40.495 33.88H40.5ZM34.475 35.935C34.495 35.945 34.505 35.94 34.475 35.935V35.935ZM45.045 50.185C45.045 50.185 45.095 50.14 45.115 50.115C46.095 49.165 46.845 48.03 47.59 46.895C48.235 45.915 48.92 44.945 49.915 44.29C50.145 44.135 50.39 44 50.635 43.88C50.475 44.275 50.325 44.675 50.18 45.08C49.95 45.73 49.745 46.33 49.385 46.92C48.895 47.72 48.205 48.38 47.495 48.98C47.175 49.255 46.97 49.405 46.55 49.615C46.18 49.795 45.8 49.945 45.41 50.075C45.285 50.115 45.165 50.155 45.04 50.19L45.045 50.185ZM54.17 37.715C54.17 37.715 54.17 37.715 54.17 37.72C54.17 37.735 54.16 37.725 54.155 37.715C54.115 37.69 54.175 37.675 54.17 37.715ZM54.34 37.77C54.495 37.715 54.355 37.78 54.355 37.77C54.355 37.77 54.35 37.77 54.34 37.77ZM71.095 53.13C70.585 54.335 70.01 55.5 69.37 56.625C66.815 59.375 63.52 61.26 59.845 62.13C58.285 62.5 56.695 62.685 55.095 62.71C54.455 62.72 53.81 62.7 53.17 62.65C52.9 62.63 52.635 62.605 52.365 62.57C52.315 62.565 52.265 62.56 52.22 62.55C52.195 62.55 52.15 62.54 52.13 62.54C52.02 62.525 51.91 62.505 51.8 62.49C50.855 62.33 49.935 62.21 48.98 62.305C47.995 62.405 47.045 62.65 46.13 63.02C45.33 63.34 44.56 63.735 43.79 64.115C43.51 64.255 43.185 64.41 42.945 64.5C42.815 64.55 42.685 64.595 42.55 64.63C42.49 64.645 42.425 64.66 42.365 64.675C42.33 64.68 42.315 64.685 42.31 64.69C42.3 64.69 42.29 64.69 42.26 64.69C42.205 64.69 42.145 64.69 42.09 64.69C41.98 64.69 42.025 64.685 42.035 64.69C41.88 64.65 41.74 64.59 41.595 64.515C41.27 64.35 40.99 64.145 40.805 63.825C40.35 63.035 40.335 61.925 40.33 61.04C40.32 58.765 40.745 56.395 41.56 54.265C41.68 53.95 41.865 53.565 42.03 53.355C42.035 53.345 42.04 53.34 42.045 53.335C42.035 53.335 42.03 53.335 42.035 53.335C42.035 53.33 42.04 53.325 42.05 53.325C42.035 53.325 42.045 53.325 42.06 53.325C42.07 53.31 42.07 53.32 42.06 53.325C42.06 53.325 42.06 53.325 42.065 53.325H42.07C42.105 53.325 42.15 53.33 42.165 53.335C42.165 53.335 42.18 53.335 42.195 53.335C42.225 53.335 42.295 53.35 42.3 53.35C43.18 53.53 44.025 53.865 44.89 54.095C47.01 54.66 49.45 54.925 51.35 53.595C53.03 52.415 53.975 50.505 54.68 48.63C55.51 46.425 55.95 44.14 55.95 41.78C55.95 40.79 55.885 39.795 55.71 38.82C55.605 38.23 55.475 37.56 55.12 37.06C54.65 36.395 53.95 36.61 53.325 36.925C52.455 37.355 51.65 37.98 50.69 38.2C50.185 38.315 49.64 38.22 49.125 38.275C48.59 38.33 48.055 38.43 47.545 38.6C46.585 38.92 45.71 39.445 44.955 40.115C43.675 41.25 42.635 42.905 42.275 44.595C41.995 45.915 41.965 47.35 41.965 48.695C41.965 49.32 41.965 49.985 42.11 50.6C41.465 50.805 40.81 50.965 40.15 51.105C40.145 51.105 40.14 51.105 40.135 51.105C40.28 50.585 40.41 50.065 40.505 49.535C40.73 48.325 40.825 47.095 40.805 45.87C40.77 43.595 40.375 41.34 39.855 39.13C43.045 39.26 46.27 37.815 48.505 35.59C51.665 32.44 53.11 27.65 52.185 23.28C51.54 20.23 49.575 17.42 47.145 15.5C44 13.015 39.765 11.945 35.84 12.915C31.905 13.885 28.49 16.915 26.905 20.63C26.065 22.6 25.67 24.76 25.745 26.895C25.81 28.81 26.225 30.79 27.23 32.44C28.335 34.265 29.845 35.935 31.555 37.215C32.1 37.62 32.675 37.99 33.295 38.265C33.725 38.455 34.205 38.645 34.685 38.645C36.12 38.635 35.8 36.45 35.515 35.56C35.275 34.805 34.45 34.715 33.815 34.415C32.85 33.955 32.09 33.05 31.455 32.21C30.255 30.625 29.585 28.765 29.395 26.795C29.27 25.52 29.37 24.465 29.735 23.255C30.61 20.365 32.715 17.875 35.545 16.75C37.36 16.025 39.285 15.785 41.18 16.325C43.15 16.885 44.94 18.075 46.28 19.62C47.64 21.185 48.47 23.23 48.695 25.285C48.925 27.365 48.55 29.36 47.51 31.175C46.615 32.735 45.355 34.065 43.705 34.82C42.865 35.205 41.93 35.405 41.015 35.46C40.955 35.46 40.72 35.51 40.625 35.485C40.66 35.485 40.615 35.36 40.615 35.335C40.58 35.065 40.52 34.795 40.495 34.52C40.48 34.345 40.465 34.14 40.475 33.98C40.475 33.98 40.475 33.965 40.475 33.95C40.625 33.945 40.905 33.795 41.025 33.75C41.245 33.665 41.465 33.57 41.68 33.465C42.06 33.275 42.415 33.035 42.735 32.755C43.41 32.16 43.855 31.34 44.055 30.465C44.545 28.285 43.475 25.75 41.215 25.09C40.32 24.83 39.375 24.78 38.485 24.48C38.29 24.415 37.915 24.26 37.87 24.11C37.76 23.74 38.08 23.205 38.305 22.94C38.535 22.67 38.935 22.315 39.315 22.3C39.55 22.29 39.87 22.65 40.045 22.845C40.295 23.13 40.41 23.53 40.665 23.795C40.89 24.03 41.215 24.095 41.525 24.125C42.19 24.195 42.945 24.115 43.575 23.885C44.24 23.645 44.525 23.185 44.325 22.49C43.885 20.98 42.5 19.5 40.995 19.05C40.92 19.03 40.57 18.975 40.58 18.985C40.555 18.965 40.55 18.71 40.535 18.64C40.51 18.465 40.465 18.305 40.4 18.145C40.2 17.665 39.79 17.435 39.285 17.41C39.015 17.4 38.695 17.435 38.44 17.53C38.16 17.635 38 17.885 37.92 18.165C37.88 18.305 37.775 18.75 37.855 18.9C37.86 18.915 37.865 18.925 37.865 18.93C37.815 18.95 37.765 18.975 37.72 18.995C37.55 19.07 37.375 19.145 37.21 19.225C36.68 19.485 36.18 19.805 35.735 20.195C34.43 21.33 33.91 23.01 34.125 24.705C34.24 25.595 34.555 26.435 35.21 27.07C35.89 27.73 36.79 28.155 37.71 28.34C38.44 28.49 39.42 28.47 40.02 28.975C40.675 29.53 40.445 30.465 39.76 30.865C39.165 31.21 38.235 31.14 37.76 30.665C37.42 30.325 37.34 29.94 37.17 29.46C36.955 28.845 36.575 28.665 35.95 28.595C35.29 28.52 34.5 28.495 33.86 28.72C32.52 29.19 33.5 31.375 33.975 32.16C34.725 33.395 35.9 34.285 37.305 34.515C37.165 35.84 36.965 37.155 36.785 38.475C36.635 39.595 36.545 40.72 36.68 41.85C36.765 42.56 36.94 43.25 37.065 43.95C37.22 44.81 37.28 45.685 37.27 46.555C37.265 47.345 37.2 48.145 37.07 48.93C36.79 47.895 36.46 46.865 36 45.895C35.56 44.96 34.97 44.09 34.245 43.345C33.46 42.535 32.48 41.75 31.43 41.31C30.3 40.835 29.065 40.77 27.87 40.6C27.27 40.515 26.67 40.405 26.1 40.195C25.52 39.985 24.99 39.61 24.48 39.27C24.1 39.02 23.73 38.75 23.36 38.49C23.165 38.355 22.955 38.205 22.72 38.155C21.815 37.955 21.5 39.25 21.275 39.865C20.455 42.115 20.305 44.625 20.745 46.97C21.23 49.54 22.5 51.915 24.505 53.61C25.36 54.335 26.305 54.965 27.335 55.41C28.32 55.835 29.3 55.975 30.375 55.965C32.005 55.95 33.91 55.55 34.84 54.07C34.925 53.93 35 53.79 35.06 53.645C35.14 53.655 35.215 53.665 35.295 53.675C35.645 53.71 35.98 53.7 36.28 53.505C36.75 53.205 37.065 52.695 37.31 52.175C37.325 52.185 37.34 52.19 37.355 52.2C37.72 52.395 38.125 52.42 38.53 52.415C38.03 54.065 37.525 55.715 37.2 57.41C37.01 58.4 36.88 59.4 36.825 60.405C36.775 61.355 36.86 62.34 36.67 63.28C36.495 64.14 36.06 64.835 35.24 65.195C34.53 65.505 33.72 65.565 32.955 65.585C31.325 65.63 29.705 65.465 28.135 65.02C25.605 64.3 23.45 62.845 21.19 61.55C19.945 60.835 18.64 60.195 17.26 59.795C15.665 59.335 14 59.21 12.35 59.345C10.99 57.405 9.835 55.325 8.905 53.125C7.145 48.97 6.255 44.55 6.255 39.995C6.255 35.44 7.145 31.02 8.905 26.865C10.605 22.85 13.04 19.24 16.14 16.14C19.24 13.04 22.85 10.605 26.865 8.905C31.02 7.145 35.44 6.255 39.995 6.255C44.55 6.255 48.97 7.145 53.125 8.905C57.14 10.605 60.75 13.04 63.85 16.14C66.95 19.24 69.385 22.85 71.085 26.865C72.845 31.02 73.735 35.44 73.735 39.995C73.735 44.55 72.845 48.97 71.085 53.125L71.095 53.13ZM34.73 37.475C34.76 37.465 34.765 37.46 34.73 37.475V37.475ZM43.24 22.93C43.24 22.93 43.24 22.945 43.245 22.95C43.245 22.95 43.245 22.955 43.245 22.96C43.215 23.02 43.195 23.035 43.24 22.93ZM35.535 52.545C35.445 52.545 35.355 52.535 35.265 52.525C35.24 52.045 35.07 51.57 34.745 51.155C34.12 50.355 33.35 49.67 32.605 48.99C31.825 48.28 31.055 47.565 30.295 46.84C29.27 45.865 28.225 44.905 27.06 44.095C26.79 43.91 26.515 43.73 26.235 43.565C25.945 43.395 25.57 43.115 25.22 43.115C24.9 43.115 24.615 43.315 24.495 43.605C24.36 43.915 24.465 44.23 24.555 44.535C25.655 48.2 28.45 51.09 31.9 52.66C32.54 52.95 33.21 53.22 33.89 53.415C33.855 53.475 33.82 53.53 33.785 53.585C33.65 53.785 33.325 54.07 33.04 54.235C32.61 54.485 32.14 54.625 31.645 54.715C30.4 54.945 29.065 54.905 27.92 54.425C25.06 53.235 22.955 50.71 22.12 47.76C21.685 46.215 21.57 44.6 21.74 43.005C21.815 42.28 21.965 41.565 22.175 40.865C22.26 40.575 22.36 40.285 22.47 40C22.52 39.865 22.575 39.735 22.635 39.6C22.655 39.56 22.68 39.51 22.71 39.46C22.725 39.47 22.74 39.48 22.755 39.49C23.255 39.835 23.74 40.19 24.255 40.515C24.95 40.95 25.64 41.32 26.44 41.52C27.205 41.71 27.995 41.785 28.775 41.885C29.51 41.98 30.27 42.09 30.96 42.37C31.63 42.64 32.25 43.115 32.795 43.58C33.79 44.43 34.545 45.47 35.08 46.665C35.66 47.95 35.945 49.32 36.32 50.67C36.365 50.835 36.42 51.005 36.49 51.165C36.34 51.56 36.16 51.95 35.91 52.285C35.875 52.33 35.85 52.36 35.77 52.445C35.755 52.46 35.705 52.505 35.68 52.53C35.645 52.535 35.585 52.55 35.535 52.545ZM35.65 52.54C35.65 52.54 35.64 52.54 35.635 52.545C35.625 52.545 35.62 52.545 35.61 52.55C35.625 52.55 35.635 52.54 35.645 52.54H35.65ZM35.27 52.525C35.28 52.525 35.28 52.525 35.27 52.525V52.525ZM34.075 52.25C32.605 51.82 31.245 51.115 29.985 50.205C29.01 49.495 28.11 48.635 27.395 47.66C26.995 47.12 26.645 46.545 26.345 45.945C26.185 45.625 26.045 45.3 25.92 44.97C25.88 44.86 25.84 44.755 25.805 44.645C25.925 44.725 26.035 44.805 26.145 44.875C26.525 45.125 26.895 45.395 27.25 45.68C27.955 46.245 28.615 46.855 29.27 47.475C30.275 48.425 31.295 49.355 32.305 50.295C32.78 50.735 33.25 51.185 33.675 51.675C33.815 51.835 33.91 51.975 34.03 52.15C34.04 52.165 34.045 52.175 34.055 52.185C34.06 52.205 34.07 52.23 34.075 52.25ZM34.055 52.185C34.075 52.245 34.085 52.235 34.055 52.185V52.185ZM22.465 39.3C22.415 39.275 22.415 39.3 22.465 39.3V39.3Z" fill="white"/>
<path d="M42.055 53.33C42.055 53.33 42.055 53.33 42.0599 53.33H42.055Z" fill="white"/>
<path d="M54.17 37.715C54.17 37.715 54.155 37.7003 54.155 37.715C54.155 37.715 54.1651 37.7151 54.17 37.72V37.715Z" fill="white"/>
<path d="M42.06 53.325C42.0993 53.3299 42.0897 53.325 42.07 53.325C42.07 53.325 42.0649 53.325 42.06 53.325Z" fill="white"/>
<path d="M42.0548 53.325H42.045C42.045 53.325 42.0499 53.325 42.0548 53.325C42.0548 53.325 42.0499 53.3348 42.045 53.3397C42.045 53.3397 42.055 53.3398 42.0599 53.33L42.0548 53.325Z" fill="white"/>
</svg>
