<svg width="80" height="80" viewBox="0 0 80 80" fill="none" xmlns="http://www.w3.org/2000/svg">
<path d="M40 80C62.0914 80 80 62.0914 80 40C80 17.9086 62.0914 0 40 0C17.9086 0 0 17.9086 0 40C0 62.0914 17.9086 80 40 80Z" fill="#AAAAAA"/>
<path d="M72.52 26.265C70.745 22.065 68.2 18.29 64.955 15.045C61.715 11.805 57.94 9.255 53.735 7.48C49.385 5.64 44.765 4.71 40 4.71C35.235 4.71 30.615 5.64 26.265 7.48C22.065 9.255 18.29 11.8 15.045 15.045C11.8 18.29 9.255 22.06 7.48 26.265C5.64 30.615 4.71 35.235 4.71 40C4.71 44.765 5.64 49.385 7.48 53.735C9.255 57.935 11.8 61.71 15.045 64.955C18.285 68.195 22.06 70.745 26.265 72.52C30.615 74.36 35.235 75.29 40 75.29C44.765 75.29 49.385 74.36 53.735 72.52C57.935 70.745 61.71 68.2 64.955 64.955C68.195 61.71 70.745 57.94 72.52 53.735C74.36 49.385 75.29 44.765 75.29 40C75.29 35.235 74.36 30.615 72.52 26.265ZM63.86 63.86C60.76 66.96 57.15 69.395 53.135 71.095C48.98 72.855 44.56 73.745 40.005 73.745C35.45 73.745 31.03 72.855 26.875 71.095C22.86 69.395 19.25 66.96 16.15 63.86C15.08 62.79 14.09 61.66 13.185 60.47C13.29 60.48 13.405 60.455 13.52 60.385C14.955 59.515 16.5 58.85 18.18 58.665C20.31 58.425 22.475 58.75 24.565 59.15C25.285 59.285 26.005 59.425 26.72 59.585C27.535 60.645 28.45 61.635 29.465 62.5C33.19 65.675 38.465 66.57 43.22 65.97C44.47 65.81 45.705 65.555 46.89 65.125C48.255 64.63 49.56 63.96 50.865 63.33C53.12 62.245 55.34 61.095 57.545 59.92C59.125 59.08 60.7 58.22 62.33 57.47C63.52 56.925 64.8 56.44 66.135 56.205C66.67 56.11 67.27 56.06 67.9 56.06C68.49 56.06 69.075 56.115 69.62 56.195C68.085 59 66.16 61.565 63.87 63.855L63.86 63.86ZM47.31 27.34C47.33 28.06 47.44 28.78 47.545 29.49C47.825 31.44 48.17 33.385 48.355 35.345C48.54 37.285 48.59 39.205 48.085 41.1C47.62 42.845 46.92 44.55 45.66 45.88C44.245 47.37 42.34 48.285 40.435 48.98C39.39 49.36 38.515 49.9 37.785 50.755C37.09 51.565 36.51 52.555 36.31 53.615C36.115 54.645 36.29 55.635 36.995 56.43C37.795 57.33 38.87 58.005 40.075 58.18C42.58 58.545 44.935 57.02 46.725 55.44C50.405 52.195 52.285 47.575 52.835 42.775C53.1 40.48 53.05 38.155 52.695 35.87C52.34 33.585 51.6 31.37 50.68 29.25C51.61 30.635 52.39 32.13 53.115 33.63C53.995 35.455 54.79 37.325 55.43 39.25C57.12 44.315 57.09 49.87 54.4 54.59C53.295 56.525 51.91 58.33 50.165 59.735C48.52 61.06 46.56 61.915 44.51 62.375C43.355 62.635 42.185 62.78 41 62.72C39.745 62.66 38.505 62.405 37.3 62.07C34.905 61.405 32.635 60.39 30.32 59.5C29.36 59.13 28.38 58.83 27.395 58.575C27.12 58.2 26.855 57.82 26.6 57.43C24.23 53.795 22.625 49.41 23.015 45.025C23.235 42.56 23.925 40.175 24.965 37.935C26.03 35.645 27.355 33.485 28.555 31.265C29.805 28.96 31.265 26.82 32.82 24.71C34.365 22.62 36 20.565 37.36 18.345C37.89 17.48 38.38 16.535 39.13 15.835C39.375 15.61 39.765 15.34 40.06 15.355C40.12 15.355 40.255 15.43 40.355 15.51C40.545 15.655 40.71 15.845 40.87 16.03C41.53 16.805 42.075 17.705 42.68 18.525C43.49 19.625 44.3 20.73 45.08 21.855C46 23.18 46.89 24.545 47.705 25.955C47.68 25.975 47.66 25.99 47.635 26.015C47.29 26.345 47.285 26.9 47.3 27.34H47.31ZM49.51 35.245C49.32 33.29 48.985 31.355 48.7 29.415C48.605 28.76 48.505 28.115 48.48 27.44C48.48 27.4 48.48 27.36 48.48 27.315C49.875 29.935 50.97 32.705 51.5 35.63C52.28 39.95 51.875 44.665 50.16 48.72C49.265 50.83 47.98 52.71 46.3 54.27C44.74 55.72 42.48 57.435 40.195 57.025C39.205 56.85 38.095 56.185 37.595 55.285C37.195 54.57 37.435 53.63 37.75 52.93C38.16 52.035 38.81 51.195 39.625 50.635C40.05 50.345 40.5 50.185 40.98 50.01C41.535 49.8 42.09 49.575 42.63 49.325C44.355 48.535 45.96 47.46 47.125 45.95C48.26 44.48 48.905 42.71 49.34 40.915C49.79 39.06 49.7 37.12 49.515 35.24L49.51 35.245ZM71.095 53.13C70.81 53.805 70.5 54.47 70.175 55.12C70.155 55.12 70.14 55.11 70.12 55.11C68.765 54.885 67.415 54.84 66.055 55.05C64.735 55.255 63.475 55.71 62.255 56.24C60.75 56.895 59.295 57.675 57.845 58.445C55.83 59.515 53.82 60.58 51.775 61.59C49.41 62.76 47.02 64.07 44.415 64.6C42 65.095 39.45 65.09 37.03 64.66C34.845 64.27 32.74 63.54 30.945 62.21C30.12 61.6 29.37 60.895 28.675 60.13C29.645 60.455 30.6 60.845 31.55 61.225C33.985 62.205 36.45 63.21 39.055 63.66C43.705 64.46 48.64 62.945 52.025 59.65C55.87 55.905 58.005 50.59 57.77 45.23C57.565 40.555 55.695 36.055 53.58 31.945C52.72 30.27 51.78 28.58 50.555 27.14C50.165 26.685 49.72 26.215 49.175 25.945C49.12 25.92 49.065 25.895 49.005 25.87C48.18 24.4 47.27 22.975 46.315 21.59C45.505 20.41 44.665 19.255 43.815 18.105C43.155 17.21 42.55 16.27 41.86 15.405C41.245 14.63 40.465 13.955 39.42 14.325C38.395 14.685 37.695 15.665 37.13 16.535C36.505 17.495 35.93 18.48 35.28 19.42C34.49 20.56 33.66 21.675 32.83 22.785C31.195 24.98 29.515 27.175 28.17 29.57C26.88 31.87 25.545 34.17 24.37 36.53C23.24 38.8 22.38 41.18 22.02 43.695C21.685 46.04 21.76 48.315 22.335 50.615C22.91 52.915 23.865 55.14 25.075 57.175C25.28 57.52 25.495 57.86 25.715 58.195C24.955 58.04 24.185 57.9 23.415 57.78C21.445 57.47 19.44 57.28 17.455 57.605C15.835 57.87 14.32 58.54 12.925 59.39C12.76 59.49 12.68 59.63 12.655 59.775C11.165 57.715 9.91 55.495 8.91 53.135C7.15 48.98 6.26 44.56 6.26 40.005C6.26 35.45 7.15 31.03 8.91 26.875C10.61 22.86 13.045 19.25 16.145 16.15C19.245 13.05 22.855 10.615 26.87 8.915C31.025 7.155 35.445 6.265 40 6.265C44.555 6.265 48.975 7.155 53.13 8.915C57.145 10.615 60.755 13.05 63.855 16.15C66.955 19.25 69.39 22.86 71.09 26.875C72.85 31.03 73.74 35.45 73.74 40.005C73.74 44.56 72.85 48.98 71.09 53.135L71.095 53.13Z" fill="white"/>
</svg>
