<svg width="150" height="38" viewBox="0 0 150 38" fill="none" xmlns="http://www.w3.org/2000/svg">
<path d="M6.60957 2.97005C3.10986 2.97005 0 6.11289 0 10.0452V33.4034C0 34.0767 0.555227 34.6397 1.22268 34.6397C1.89014 34.6397 2.44536 34.0767 2.44536 33.4034V28.074H10.7797V33.4034C10.7797 34.0767 11.3349 34.6397 12.0024 34.6397C12.6698 34.6397 13.225 34.0767 13.225 33.4034V10.0452C13.225 6.11289 10.1152 2.96707 6.61548 2.96707M2.44536 25.6044V23.5251H10.7797V25.6044H2.44536ZM2.44536 21.0555V10.0481C2.44536 7.40875 4.27939 5.44262 6.61252 5.44262C8.94566 5.44262 10.7797 7.40875 10.7797 10.0481V21.0555H2.44536Z" fill="#F3147A"/>
<path d="M33.1099 3.5301C32.6639 3.5301 32.277 3.69991 32.0555 4.14675L27.3892 13.191L22.723 4.14675C22.5015 3.69693 22.1116 3.5301 21.6686 3.5301C21.0012 3.5301 20.446 4.09313 20.446 4.76638V33.4034C20.446 34.0767 21.0012 34.6397 21.6686 34.6397C22.3361 34.6397 22.8913 34.0767 22.8913 33.4034V19.6494L26.391 25.2648C26.7809 25.8815 28.0035 25.8815 28.3904 25.2648L31.8901 19.6494V33.4034C31.8901 34.0767 32.4454 34.6397 33.1128 34.6397C33.7803 34.6397 34.3355 34.0767 34.3355 33.4034V4.76638C34.3355 4.09313 33.7803 3.5301 33.1128 3.5301M31.8872 15.0439L27.3863 22.2322L22.8854 15.0439V9.76513L26.3851 16.45C26.7188 17.1232 28.0508 17.1232 28.3845 16.45L31.8842 9.76513V15.0439H31.8872Z" fill="#F3147A"/>
<path d="M48.4406 2.97005C44.6633 2.97005 41.5505 6.00267 41.5505 9.76513V28.2617C41.5505 32.0241 44.6604 35.0568 48.4406 35.0568C52.2209 35.0568 55.3278 32.0241 55.3278 28.2617V9.76513C55.3278 6.00267 52.218 2.97005 48.4406 2.97005ZM52.8854 28.2617C52.8854 30.6776 50.886 32.5872 48.4406 32.5872C45.9953 32.5872 43.9959 30.6776 43.9959 28.2617V9.76513C43.9959 7.34917 45.9953 5.43964 48.4406 5.43964C50.886 5.43964 52.8854 7.34917 52.8854 9.76513V28.2617Z" fill="#F3147A"/>
<path d="M77.5517 10.1018C77.5517 6.50611 74.6633 3.5301 71.2197 3.5301H63.7744C63.1069 3.5301 62.5517 4.09313 62.5517 4.76638V33.4034C62.5517 34.0767 63.1069 34.6397 63.7744 34.6397C64.4418 34.6397 64.997 34.0767 64.997 33.4034V21.2789H75.1063V33.4034C75.1063 34.0767 75.6616 34.6397 76.329 34.6397C76.9965 34.6397 77.5517 34.0767 77.5517 33.4034V20.4925C77.5517 18.3565 76.5505 16.5036 74.6633 15.3805C76.5535 14.1442 77.5517 12.2347 77.5517 10.1018ZM74.7165 18.8064H64.9941V16.6734H71.2168C72.8293 16.6734 74.1051 17.5165 74.7165 18.8064ZM71.2168 14.2008H64.9941V5.99969H71.2168C73.3284 5.99969 75.1063 7.85262 75.1063 10.0988C75.1063 12.3449 73.3284 14.1979 71.2168 14.1979" fill="#F3147A"/>
<path d="M91.3822 2.97005C87.8825 2.97005 84.7726 6.11587 84.7726 10.0481V33.4064C84.7726 34.0797 85.3278 34.6427 85.9953 34.6427C86.6627 34.6427 87.218 34.0797 87.218 33.4064V28.077H95.5523V33.4064C95.5523 34.0797 96.1075 34.6427 96.775 34.6427C97.4424 34.6427 97.9976 34.0797 97.9976 33.4064V10.0452C97.9976 6.11289 94.8878 2.96707 91.3881 2.96707M95.5493 25.6044H87.215V23.5251H95.5493V25.6044ZM95.5493 21.0555H87.215V10.0481C87.215 7.40875 89.049 5.44262 91.3822 5.44262C93.7153 5.44262 95.5493 7.40875 95.5493 10.0481V21.0555Z" fill="#F3147A"/>
<path d="M29.8346 6.40185V3.5301L27.3863 6.39887L24.9409 3.5301V6.40185L27.3863 11.0252L29.8346 6.40185Z" fill="#F3147A"/>
<path d="M107.38 17.9901C108.101 17.8382 108.689 17.3467 109.232 16.8462C110.118 16.0508 110.883 15.0945 111.477 14.034C111.486 14.0161 111.515 13.9536 111.512 14.0042C111.353 14.4779 111.196 14.9575 111.054 15.4401C110.774 16.3606 110.552 17.302 110.484 18.2701C110.219 20.6772 111.134 21.2372 112.245 18.9464C112.617 18.1629 112.924 17.3347 113.11 16.4768C113.24 15.6159 113.11 14.7371 112.989 13.8851C112.986 13.8553 113.004 13.8672 113.009 13.8881C113.107 14.1413 113.216 14.3855 113.337 14.6239C113.624 15.1958 113.972 15.7291 114.374 16.2146C115.168 17.2007 116.11 18.0378 117.106 18.7825C117.815 19.3009 118.411 20.0188 118.709 20.8887C118.718 20.9095 118.715 20.9214 118.692 20.9244C118.512 20.9453 118.331 20.9661 118.151 20.984C117.986 21.0019 117.82 21.0168 117.652 21.0317C117.608 21.0376 117.608 21.0376 117.593 20.9929C117.457 20.4478 116.999 20.0367 116.459 20.1856C116.19 20.2393 115.948 20.3912 115.75 20.5878C115.721 20.6176 115.697 20.6265 115.662 20.6116C115.027 20.3644 114.891 20.272 114.241 20.5878C114.082 20.6653 113.937 20.7606 113.807 20.8827C113.78 20.9066 113.76 20.9095 113.727 20.8976C113.116 20.7219 112.472 20.9066 111.858 20.984C110.644 21.1419 109.956 20.6712 109.138 19.995C109.064 19.9265 108.881 19.7477 108.869 19.9354C108.798 21.0585 109.117 21.696 109.761 22.2411C110.186 22.6016 111.155 22.965 111.725 22.8727C111.917 22.8578 112.112 22.8429 112.304 22.8429C112.445 22.8369 112.522 22.9859 112.602 23.0872C112.959 23.5698 113.636 23.6353 114.155 23.4536C114.427 23.3881 114.725 23.1557 114.994 23.3255C115.171 23.4625 115.387 23.4923 115.597 23.4447C116.382 23.3046 117.064 22.7505 117.472 22.0267C117.555 21.8956 117.623 21.7496 117.637 21.5917C117.64 21.553 117.658 21.547 117.69 21.547C118.066 21.5381 118.441 21.5262 118.813 21.4845C118.878 21.4815 118.878 21.4845 118.893 21.553C118.993 22.0356 119.073 22.5212 119.138 23.0097C119.203 23.3821 119.276 23.7962 119.539 24.0702C119.855 24.386 120.204 23.9332 120.301 23.6145C120.535 22.974 120.455 22.2739 120.363 21.6126C120.484 20.6474 120.57 19.6733 120.594 18.6991C120.594 18.6664 120.6 18.6485 120.635 18.6455C120.918 18.6157 121.14 18.3953 121.347 18.2046C121.846 17.725 122.188 17.0756 122.357 16.3844C122.425 16.0448 122.522 15.6814 122.442 15.3358C122.398 15.166 122.315 15.0022 122.286 14.8294C122.262 14.4987 122.404 14.18 122.466 13.8612C122.608 13.3369 122.596 12.7799 122.519 12.2466C122.46 11.8504 122.221 11.5436 122.02 11.2248C121.902 10.7422 121.923 10.4175 122.1 9.9677C122.437 9.11571 122.109 8.09987 121.961 7.73048C121.872 7.50706 121.217 5.94011 119.861 6.00564C119.776 6.01458 119.737 6.11289 119.784 6.19332C119.882 6.36908 120.109 6.53293 120.21 6.70869C120.543 7.28959 120.443 7.68282 120.354 8.41565C120.207 9.64895 119.841 10.5844 119.879 11.8236C119.897 12.482 119.908 12.7054 120.068 12.9824C120.083 13.0063 120.068 13.0331 120.05 13.0539C119.746 13.5484 119.519 14.2813 119.56 14.8741C119.607 15.2018 119.69 15.5205 119.755 15.8452C119.761 15.8721 119.755 15.8899 119.74 15.9108C119.176 16.7002 119.079 18.1033 120.068 18.5561C120.118 18.58 120.118 18.58 120.115 18.6336C120.059 19.1638 120.009 19.6971 119.965 20.2303C119.965 20.2363 119.956 20.2422 119.953 20.2482C119.947 20.2422 119.941 20.2393 119.938 20.2333C119.796 19.8907 119.634 19.5601 119.442 19.2473C118.878 18.3119 118.119 17.5403 117.253 16.9326C117.224 16.9147 117.247 16.8879 117.271 16.876C117.747 16.5394 117.564 15.5682 117.451 15.0588C117.206 13.9893 116.766 13.6468 115.916 13.1165C115.242 12.6875 114.525 12.333 113.786 12.053C113.742 12.0172 113.133 11.8862 113.355 11.8713C114.684 11.6538 116.421 11.3112 117.493 10.4116C118.163 9.78896 119.616 8.45735 119.829 7.56961C119.97 6.71762 118.467 6.75933 117.959 6.88147C117.283 7.02744 116.778 7.56366 116.237 7.98369C116.161 8.05221 116.069 8.09987 116.004 8.18329C116.172 7.96284 116.341 7.73346 116.5 7.50408C116.97 6.83976 117.493 5.79712 117.812 5.04343C117.974 4.57573 118.866 2.44575 118.21 2.25212C117.67 2.17168 117.194 2.55895 116.772 2.86877C115.617 3.75651 114.911 5.53199 114.262 6.82189C114.327 6.34823 114.377 6.22311 114.468 5.45751C114.539 5.00173 114.504 4.53402 114.51 4.07526C114.498 3.07134 114.415 2.05252 114.182 1.07839C114.014 0.476638 113.763 -0.425996 113.207 0.476638C112.75 1.22436 112.504 2.09423 112.301 2.95218C112.123 3.75353 112.076 4.16463 112.171 5.11791C112.227 5.9699 112.289 6.47335 112.253 7.46833C112.253 7.47429 112.25 7.48322 112.247 7.48918C112.247 7.48322 112.242 7.47727 112.239 7.47131C112.227 7.40875 112.221 7.34917 112.209 7.28661C112.023 6.09799 111.421 4.49232 110.924 3.41094C110.478 2.44873 110.018 1.42694 109.25 0.709C108.166 -0.134054 108.479 2.03763 108.532 2.63641C108.656 3.71182 109.087 5.24004 109.306 6.30056C109.409 6.75635 109.486 7.22703 109.69 7.65005C109.95 8.24882 110.281 8.80292 110.594 9.36892C110.602 9.37488 110.608 9.38084 110.614 9.3868C110.614 9.38978 110.614 9.39872 110.614 9.40467C110.611 9.40169 110.605 9.39872 110.602 9.39574C110.289 9.02038 109.953 8.64205 109.622 8.27564C109.082 7.68877 108.55 7.09595 107.947 6.58059C107.572 6.27673 107.141 6.06522 106.737 5.81499C106.149 5.47836 105.458 4.99279 104.843 4.70978C104.132 4.39699 103.331 4.09015 103.721 5.29962C104.087 6.44356 104.784 7.65005 105.526 8.56162C106.243 9.36595 107.144 9.95876 108.051 10.492C108.447 10.7273 108.872 10.912 109.282 11.1057C108.727 11.0014 108.175 10.8405 107.626 10.6946C107.097 10.5754 106.577 10.4026 106.034 10.3609C105.437 10.3162 104.841 10.3043 104.241 10.2835C103.789 10.2447 103.334 10.2358 102.885 10.2686C102.395 10.2865 102.073 10.4801 102.41 10.9984C103.154 12.056 104.38 13.0599 105.561 13.474C107.103 13.8821 108.754 13.6765 110.236 13.1076C110.266 13.1016 110.357 13.0599 110.325 13.0778C109.578 13.5336 108.81 13.9506 108.024 14.323C107.537 14.5583 107.026 14.7669 106.58 15.0886C106.113 15.4848 105.65 15.887 105.201 16.301C104.885 16.6317 104.07 17.3735 104.631 17.8173C105.399 18.2761 106.53 18.2016 107.366 17.9901" fill="#00C2FF"/>
<path d="M123.695 12.9616C124.185 13.7778 124.572 14.6775 124.849 15.6159C124.959 16.0299 125.074 16.447 125.121 16.876C125.168 17.0934 125.127 17.3258 125.18 17.5373C125.413 17.8739 125.467 15.8125 125.487 15.6457C125.52 15.1005 125.514 14.5524 125.473 14.0072C125.372 12.6339 125.1 11.0997 124.161 10.1256C123.901 9.87237 123.585 9.64597 123.234 9.69363C122.655 9.7979 122.298 10.492 122.534 11.1206C122.764 11.8445 123.299 12.3539 123.695 12.9586" fill="#00C2FF"/>
<path d="M123.73 14.4064C123.305 13.9804 122.581 14.1085 122.688 14.895C122.77 15.2018 123.015 15.3656 123.24 15.4937C123.503 15.6397 123.724 15.878 123.934 16.1163C124.182 16.4083 124.412 16.727 124.578 17.0964C124.649 17.2394 124.69 17.3943 124.752 17.5403C124.761 17.5641 124.776 17.585 124.802 17.579C124.858 17.5522 124.826 17.439 124.835 17.3794C124.631 16.3517 124.445 15.1452 123.73 14.4094" fill="#00C2FF"/>
<path d="M125.797 19.3188C125.543 18.9285 125.278 18.5323 124.923 18.2344C124.527 17.868 124.082 17.5701 123.585 17.3854C123.284 17.2722 122.971 17.1769 122.649 17.162C122.561 17.153 122.578 17.2484 122.599 17.3079C122.711 17.7369 122.877 18.151 123.089 18.5323C123.089 18.5323 123.361 19.1311 124.049 19.7299C124.064 19.7418 124.079 19.7537 124.093 19.7686C124.569 20.1737 125.236 20.5699 126.146 20.7755C127.053 20.5699 127.72 20.1737 128.196 19.7686C128.21 19.7567 128.225 19.7447 128.24 19.7299C128.928 19.1311 129.2 18.5323 129.2 18.5323C129.412 18.151 129.578 17.7369 129.69 17.3079C129.711 17.2484 129.725 17.153 129.64 17.162C129.318 17.1739 129.005 17.2722 128.703 17.3854C128.207 17.5701 127.761 17.868 127.366 18.2344C127.011 18.5323 126.745 18.9255 126.491 19.3188C126.53 18.9881 126.621 18.6634 126.627 18.3267C126.707 17.2007 126.548 16.0597 126.27 14.9724C126.217 14.7847 126.178 14.6477 126.146 14.5434C126.113 14.6477 126.075 14.7877 126.022 14.9724C125.744 16.0568 125.585 17.2007 125.664 18.3267C125.67 18.6634 125.762 18.9881 125.8 19.3188" fill="#00C2FF"/>
<path d="M116.093 24.0405C115.334 24.0405 114.719 24.6601 114.719 25.4257C114.719 26.1913 115.334 26.8109 116.093 26.8109C116.852 26.8109 117.466 26.1913 117.466 25.4257C117.466 24.6601 116.852 24.0405 116.093 24.0405Z" fill="#00C2FF"/>
<path d="M122.014 23.3046C121.539 23.3046 121.152 23.6919 121.152 24.1715C121.152 24.6511 121.539 25.0384 122.014 25.0384C122.49 25.0384 122.877 24.6511 122.877 24.1715C122.877 23.6919 122.49 23.3046 122.014 23.3046Z" fill="#00C2FF"/>
<path d="M122.038 18.3029C121.772 18.3029 121.553 18.5204 121.553 18.7885C121.553 19.0566 121.769 19.2741 122.038 19.2741C122.307 19.2741 122.522 19.0566 122.522 18.7885C122.522 18.5204 122.307 18.3029 122.038 18.3029Z" fill="#00C2FF"/>
<path d="M118.066 24.1745C118.432 24.1745 118.73 23.8736 118.73 23.5042C118.73 23.1348 118.432 22.834 118.066 22.834C117.699 22.834 117.401 23.1348 117.401 23.5042C117.401 23.8736 117.699 24.1745 118.066 24.1745Z" fill="#00C2FF"/>
<path d="M112.64 24.5767C112.64 24.9401 112.933 25.235 113.293 25.235C113.653 25.235 113.946 24.9401 113.946 24.5767C113.946 24.2132 113.653 23.9183 113.293 23.9183C112.933 23.9183 112.64 24.2132 112.64 24.5767Z" fill="#00C2FF"/>
<path d="M124.604 21.4875C124.604 21.7168 124.79 21.9045 125.018 21.9045C125.245 21.9045 125.431 21.7198 125.431 21.4875C125.431 21.2551 125.245 21.0704 125.018 21.0704C124.79 21.0704 124.604 21.2581 124.604 21.4875Z" fill="#00C2FF"/>
<path d="M122.874 27.94C122.874 28.1693 123.06 28.357 123.287 28.357C123.514 28.357 123.701 28.1693 123.701 27.94C123.701 27.7106 123.514 27.5229 123.287 27.5229C123.06 27.5229 122.874 27.7076 122.874 27.94Z" fill="#00C2FF"/>
<path d="M121.539 29.2716C121.539 29.072 121.376 28.9081 121.178 28.9081C120.981 28.9081 120.818 29.072 120.818 29.2716C120.818 29.4712 120.981 29.635 121.178 29.635C121.376 29.635 121.539 29.4712 121.539 29.2716Z" fill="#00C2FF"/>
<path d="M118.639 16.1819C119.017 16.1819 119.321 15.875 119.321 15.4937C119.321 15.1124 119.014 14.8056 118.639 14.8056C118.263 14.8056 117.956 15.1124 117.956 15.4937C117.956 15.875 118.26 16.1819 118.639 16.1819Z" fill="#00C2FF"/>
<path d="M120.679 28.0621C120.679 27.7076 120.396 27.4216 120.044 27.4216C119.693 27.4216 119.409 27.7076 119.409 28.0621C119.409 28.4166 119.693 28.7026 120.044 28.7026C120.396 28.7026 120.679 28.4166 120.679 28.0621Z" fill="#00C2FF"/>
<path d="M115.718 30.4393C115.307 30.4393 114.976 30.773 114.976 31.187C114.976 31.6011 115.307 31.9348 115.718 31.9348C116.128 31.9348 116.459 31.6011 116.459 31.187C116.459 30.773 116.128 30.4393 115.718 30.4393Z" fill="#00C2FF"/>
<path d="M122.803 25.6789C122.501 25.6789 122.256 25.9262 122.256 26.23C122.256 26.5339 122.501 26.7811 122.803 26.7811C123.104 26.7811 123.349 26.5339 123.349 26.23C123.349 25.9262 123.104 25.6789 122.803 25.6789Z" fill="#00C2FF"/>
<path d="M114.285 19.7626C114.867 19.7626 115.337 19.289 115.337 18.7021C115.337 18.1152 114.864 17.6416 114.285 17.6416C113.706 17.6416 113.234 18.1152 113.234 18.7021C113.234 19.289 113.706 19.7626 114.285 19.7626Z" fill="#00C2FF"/>
<path d="M119.209 12.3598C119.209 11.7759 118.739 11.2993 118.157 11.2993C117.575 11.2993 117.106 11.773 117.106 12.3598C117.106 12.9467 117.575 13.4204 118.157 13.4204C118.739 13.4204 119.209 12.9467 119.209 12.3598Z" fill="#00C2FF"/>
<path d="M109.805 18.5978C109.805 18.1987 109.483 17.8769 109.087 17.8769C108.692 17.8769 108.373 18.1987 108.373 18.5978C108.373 18.997 108.695 19.3188 109.087 19.3188C109.48 19.3188 109.805 18.997 109.805 18.5978Z" fill="#00C2FF"/>
<path d="M105.62 18.7438C105.213 18.7438 104.882 19.0775 104.882 19.4886C104.882 19.8997 105.213 20.2333 105.62 20.2333C106.028 20.2333 106.359 19.8997 106.359 19.4886C106.359 19.0775 106.028 18.7438 105.62 18.7438Z" fill="#00C2FF"/>
<path d="M105.375 14.8056C105.375 14.18 104.87 13.6706 104.25 13.6706C103.63 13.6706 103.125 14.177 103.125 14.8056C103.125 15.4341 103.63 15.9406 104.25 15.9406C104.87 15.9406 105.375 15.4341 105.375 14.8056Z" fill="#00C2FF"/>
<path d="M103.364 9.43744C103.934 9.43744 104.395 8.97272 104.395 8.40075C104.395 7.82879 103.934 7.36406 103.364 7.36406C102.794 7.36406 102.333 7.82879 102.333 8.40075C102.333 8.97272 102.794 9.43744 103.364 9.43744Z" fill="#00C2FF"/>
<path d="M111.403 1.94826C111.937 1.94826 112.372 1.51333 112.372 0.97413C112.372 0.434933 111.937 0 111.403 0C110.868 0 110.434 0.434933 110.434 0.97413C110.434 1.51333 110.868 1.94826 111.403 1.94826Z" fill="#00C2FF"/>
<path d="M115.8 2.69003C116.311 2.69003 116.725 2.27297 116.725 1.76058C116.725 1.2482 116.311 0.831138 115.8 0.831138C115.289 0.831138 114.876 1.2482 114.876 1.76058C114.876 2.27297 115.289 2.69003 115.8 2.69003Z" fill="#00C2FF"/>
<path d="M119.356 5.80903C119.885 5.80903 120.316 5.37708 120.316 4.84384C120.316 4.3106 119.885 3.87865 119.356 3.87865C118.828 3.87865 118.396 4.3106 118.396 4.84384C118.396 5.37708 118.828 5.80903 119.356 5.80903Z" fill="#00C2FF"/>
<path d="M106.645 4.61446C107.392 4.61446 107.998 4.00376 107.998 3.25306C107.998 2.50235 107.392 1.89166 106.645 1.89166C105.898 1.89166 105.292 2.50235 105.292 3.25306C105.292 4.00376 105.898 4.61446 106.645 4.61446Z" fill="#00C2FF"/>
<path d="M115.948 29.9031C115.981 29.9001 116.131 30.0252 116.084 29.8942C115.552 28.8575 114.935 27.8982 114.276 27.085C113.509 26.1257 112.679 25.375 111.843 24.8656C111.329 24.532 110.824 24.3771 110.313 24.0762C108.937 23.2808 107.992 21.4845 107.528 19.146C107.49 18.9583 107.46 18.7736 107.439 18.5889C107.437 18.5591 107.445 18.5114 107.422 18.4965C107.404 18.4876 107.392 18.5144 107.389 18.5234C107.389 18.5234 104.714 23.5579 109.321 24.8865C109.353 24.9014 109.353 24.9044 109.365 24.958C109.43 25.3184 109.581 25.5895 109.696 25.947C110.428 28.0114 111.837 28.926 113.033 29.2418C113.931 29.4592 114.663 29.632 115.552 29.8108C115.682 29.8316 115.815 29.8554 115.951 29.9031" fill="#00C2FF"/>
<path d="M149.386 10.2716C148.934 10.2388 148.479 10.2477 148.03 10.2865C147.434 10.3073 146.834 10.3192 146.237 10.3639C145.697 10.4056 145.174 10.5784 144.646 10.6976C144.096 10.8435 143.544 11.0044 142.989 11.1087C143.399 10.915 143.825 10.7303 144.22 10.495C145.127 9.96174 146.028 9.36892 146.745 8.5646C147.487 7.65303 148.184 6.44654 148.553 5.3026C148.943 4.09015 148.142 4.39997 147.431 4.71276C146.819 4.99577 146.125 5.48134 145.538 5.81797C145.133 6.07118 144.699 6.27971 144.327 6.58357C143.724 7.09596 143.193 7.69175 142.655 8.27861C142.324 8.64503 141.988 9.02336 141.675 9.39872C141.675 9.40169 141.666 9.40467 141.663 9.40765C141.663 9.40169 141.66 9.39276 141.663 9.38978C141.669 9.38084 141.677 9.37786 141.683 9.3719C141.996 8.80589 142.327 8.2518 142.587 7.65303C142.791 7.23299 142.865 6.76231 142.968 6.30354C143.187 5.24302 143.615 3.71778 143.742 2.63939C143.795 2.04061 144.108 -0.134054 143.024 0.711979C142.256 1.42992 141.796 2.44873 141.35 3.41392C140.854 4.4953 140.251 6.10097 140.068 7.28959C140.056 7.34917 140.047 7.41173 140.038 7.47131C140.038 7.47727 140.033 7.48322 140.03 7.48918C140.03 7.48322 140.024 7.47429 140.024 7.46833C139.991 6.47037 140.053 5.96692 140.109 5.11791C140.204 4.16165 140.157 3.75353 139.979 2.9492C139.776 2.09125 139.527 1.21841 139.073 0.473659C138.517 -0.428975 138.266 0.473659 138.098 1.07542C137.862 2.04955 137.782 3.06538 137.77 4.07228C137.776 4.53402 137.741 4.99875 137.812 5.45453C137.9 6.22013 137.95 6.34227 138.018 6.81891C137.369 5.52901 136.663 3.75353 135.508 2.86579C135.086 2.55597 134.61 2.1687 134.07 2.24914C133.414 2.44277 134.303 4.57275 134.468 5.04045C134.787 5.79414 135.31 6.83678 135.78 7.5011C135.939 7.73346 136.108 7.95986 136.276 8.18031C136.211 8.09987 136.119 8.04923 136.043 7.98072C135.502 7.56068 134.997 7.02446 134.321 6.87849C133.813 6.75933 132.31 6.71762 132.451 7.56664C132.667 8.4514 134.117 9.78598 134.787 10.4086C135.859 11.3053 137.596 11.6508 138.925 11.8683C139.146 11.8832 138.538 12.0143 138.494 12.05C137.755 12.33 137.038 12.6845 136.364 13.1135C135.514 13.6438 135.074 13.9864 134.829 15.0558C134.716 15.5652 134.533 16.5364 135.009 16.873C135.032 16.8849 135.056 16.9087 135.027 16.9296C134.158 17.5343 133.399 18.3089 132.838 19.2443C132.646 19.5571 132.484 19.8877 132.342 20.2303C132.342 20.2363 132.333 20.2393 132.327 20.2452C132.321 20.2393 132.315 20.2333 132.315 20.2273C132.271 19.6941 132.221 19.1609 132.165 18.6306C132.165 18.574 132.165 18.577 132.212 18.5532C133.201 18.1003 133.101 16.6972 132.54 15.9078C132.525 15.8899 132.519 15.8691 132.525 15.8423C132.59 15.5205 132.67 15.1988 132.72 14.8711C132.761 14.2753 132.531 13.5455 132.227 13.051C132.212 13.0271 132.194 13.0033 132.209 12.9795C132.372 12.7054 132.38 12.482 132.398 11.8206C132.434 10.5814 132.07 9.64895 131.923 8.41267C131.834 7.67686 131.734 7.28661 132.067 6.70571C132.168 6.53293 132.395 6.3661 132.493 6.19332C132.54 6.11587 132.504 6.01756 132.416 6.00564C131.06 5.93713 130.405 7.50706 130.316 7.73048C130.168 8.09987 129.841 9.11571 130.177 9.9677C130.354 10.4205 130.375 10.7422 130.257 11.2248C130.056 11.5406 129.817 11.8504 129.758 12.2437C129.681 12.7799 129.666 13.334 129.811 13.8583C129.876 14.177 130.015 14.4987 129.991 14.8294C129.962 15.0022 129.879 15.166 129.835 15.3358C129.755 15.6814 129.855 16.0448 129.92 16.3844C130.089 17.0786 130.431 17.725 130.927 18.2046C131.134 18.3953 131.356 18.6127 131.639 18.6455C131.675 18.6455 131.683 18.6664 131.68 18.6991C131.704 19.6733 131.79 20.6474 131.911 21.6126C131.822 22.2709 131.742 22.974 131.973 23.6115C132.07 23.9302 132.419 24.383 132.735 24.0673C133.001 23.7932 133.071 23.3791 133.136 23.0067C133.201 22.5182 133.281 22.0326 133.382 21.55C133.396 21.4785 133.396 21.4785 133.461 21.4815C133.833 21.5202 134.209 21.5351 134.584 21.5441C134.616 21.5441 134.634 21.55 134.637 21.5887C134.652 21.7466 134.719 21.8926 134.802 22.0237C135.21 22.7476 135.892 23.3017 136.678 23.4417C136.887 23.4893 137.103 23.4595 137.28 23.3225C137.549 23.1527 137.85 23.3851 138.119 23.4506C138.639 23.6353 139.315 23.5668 139.672 23.0842C139.752 22.9829 139.829 22.834 139.97 22.8399C140.162 22.8399 140.357 22.8548 140.549 22.8697C141.119 22.9621 142.088 22.5956 142.513 22.2382C143.157 21.693 143.476 21.0555 143.405 19.9324C143.393 19.7447 143.21 19.9265 143.136 19.992C142.318 20.6712 141.63 21.1389 140.416 20.981C139.802 20.9006 139.158 20.7189 138.547 20.8946C138.514 20.9066 138.494 20.9006 138.47 20.8797C138.337 20.7606 138.193 20.6623 138.036 20.5848C137.383 20.2691 137.25 20.3614 136.615 20.6087C136.58 20.6236 136.556 20.6146 136.527 20.5848C136.329 20.3852 136.087 20.2363 135.818 20.1827C135.278 20.0367 134.817 20.4448 134.684 20.99C134.669 21.0347 134.669 21.0347 134.625 21.0287C134.46 21.0138 134.294 20.9989 134.126 20.981C133.946 20.9632 133.766 20.9423 133.585 20.9214C133.562 20.9214 133.559 20.9066 133.568 20.8857C133.866 20.0158 134.462 19.2979 135.171 18.7796C136.167 18.0378 137.109 17.1977 137.903 16.2117C138.302 15.7261 138.653 15.1929 138.94 14.6209C139.061 14.3826 139.173 14.1383 139.268 13.8851C139.276 13.8642 139.294 13.8523 139.288 13.8821C139.17 14.7341 139.037 15.6159 139.167 16.4738C139.353 17.3318 139.66 18.1599 140.032 18.9434C141.143 21.2342 142.058 20.6742 141.793 18.2672C141.725 17.299 141.503 16.3576 141.223 15.4371C141.081 14.9545 140.924 14.4779 140.765 14.0042C140.762 13.9566 140.791 14.0161 140.8 14.034C141.397 15.0945 142.162 16.0508 143.045 16.8462C143.588 17.3467 144.176 17.8382 144.897 17.9901C145.732 18.2046 146.864 18.2761 147.631 17.8173C148.193 17.3735 147.38 16.6317 147.061 16.301C146.613 15.884 146.149 15.4848 145.682 15.0886C145.236 14.7698 144.728 14.5613 144.238 14.326C143.452 13.9536 142.685 13.5365 141.937 13.0807C141.905 13.0629 141.996 13.1046 142.026 13.1105C143.509 13.6795 145.159 13.8851 146.701 13.477C147.882 13.0659 149.108 12.059 149.852 11.0014C150.189 10.486 149.867 10.2894 149.377 10.2716" fill="#00C2FF"/>
<path d="M127.103 17.5433C127.159 17.3318 127.115 17.0994 127.162 16.8819C127.212 16.453 127.324 16.0329 127.434 15.6188C127.711 14.6805 128.098 13.7808 128.588 12.9646C128.981 12.3628 129.516 11.8504 129.749 11.1265C129.985 10.498 129.628 9.80088 129.049 9.69959C128.698 9.65193 128.382 9.87833 128.122 10.1315C127.183 11.1057 126.911 12.6369 126.81 14.0132C126.766 14.5583 126.763 15.1065 126.796 15.6516C126.813 15.8184 126.869 17.8799 127.103 17.5433Z" fill="#00C2FF"/>
<path d="M127.484 17.579C127.51 17.585 127.522 17.5641 127.534 17.5403C127.596 17.3943 127.634 17.2364 127.708 17.0964C127.877 16.727 128.104 16.4083 128.352 16.1163C128.562 15.878 128.783 15.6397 129.046 15.4937C129.271 15.3656 129.516 15.2018 129.598 14.895C129.702 14.1085 128.981 13.9804 128.556 14.4064C127.841 15.1422 127.655 16.3487 127.451 17.3765C127.46 17.436 127.428 17.5522 127.484 17.576" fill="#00C2FF"/>
<path d="M136.415 28.0055C136.406 27.8536 136.252 27.8774 136.155 27.9042C135.461 28.0532 134.779 28.2736 134.12 28.5536C132.038 29.4205 130.062 30.7998 128.568 32.5306C129.554 30.3351 130.821 28.3004 131.991 26.2151C132.008 26.1883 132.032 26.1317 132.058 26.1853C132.103 26.2568 132.144 26.3283 132.191 26.3968C132.437 26.7394 132.809 26.9479 133.181 27.0909C133.65 27.2816 133.978 27.0284 134.126 26.5458C134.2 26.1555 133.969 25.7712 133.751 25.4763C133.302 24.8775 132.404 24.7077 131.802 25.1308C130.709 25.9738 129.953 27.9489 129.365 29.2388C128.993 30.1653 128.597 31.0858 128.26 32.0301C128.29 30.8653 128.222 29.7273 128.089 28.6519C128.314 26.9509 128.6 25.2589 128.86 23.5638C128.981 22.8786 129.096 22.1905 129.226 21.5083C129.226 21.5023 129.232 21.4964 129.235 21.4904C129.241 21.4934 129.247 21.4964 129.253 21.5024C129.321 21.5828 129.386 21.6662 129.46 21.7436C129.849 22.125 130.419 22.3663 130.951 22.2948C131.208 22.2471 131.356 21.9909 131.385 21.7288C131.412 21.5083 131.438 21.2789 131.361 21.0704C131.184 20.5908 130.889 20.141 130.464 19.8848C130.041 19.6286 129.507 19.6941 129.099 19.9563C128.721 20.2124 128.535 20.6831 128.382 21.1151C127.924 22.5092 127.8 24.0017 127.664 25.4644C127.646 25.6223 127.637 25.7861 127.617 25.947C127.014 23.257 126.202 21.3921 126.143 21.2581C126.084 21.3921 125.272 23.257 124.669 25.947C124.652 25.7891 124.643 25.6253 124.625 25.4644C124.489 24.0017 124.365 22.5092 123.907 21.1151C123.754 20.6831 123.565 20.2154 123.19 19.9563C122.782 19.6941 122.247 19.6286 121.825 19.8848C121.403 20.141 121.105 20.5908 120.927 21.0704C120.851 21.2789 120.877 21.5113 120.904 21.7288C120.933 21.9909 121.081 22.2471 121.338 22.2948C121.869 22.3663 122.439 22.1279 122.829 21.7436C122.9 21.6662 122.965 21.5828 123.033 21.5024C123.039 21.4964 123.045 21.4964 123.051 21.4904C123.054 21.4964 123.06 21.5023 123.06 21.5083C123.19 22.1905 123.305 22.8786 123.426 23.5638C123.686 25.2589 123.975 26.9509 124.197 28.6519C124.067 29.7273 123.996 30.8653 124.025 32.0301C123.689 31.0858 123.293 30.1653 122.921 29.2388C122.33 27.9489 121.577 25.9738 120.484 25.1308C119.882 24.7077 118.984 24.8775 118.535 25.4763C118.317 25.7712 118.086 26.1555 118.16 26.5458C118.311 27.0284 118.636 27.2816 119.105 27.0909C119.477 26.9479 119.849 26.7394 120.095 26.3968C120.142 26.3283 120.183 26.2538 120.227 26.1853C120.251 26.1287 120.278 26.1883 120.295 26.2151C121.468 28.3004 122.732 30.3351 123.718 32.5306C122.224 30.7968 120.248 29.4205 118.166 28.5536C117.507 28.2736 116.825 28.0561 116.131 27.9042C116.031 27.8804 115.877 27.8565 115.871 28.0055C116.299 29.8882 117.224 31.6101 118.45 33.031H118.444C118.491 33.0847 118.541 33.1323 118.588 33.183C118.919 33.5524 119.268 33.9069 119.637 34.2316C119.92 34.4878 120.216 34.7291 120.517 34.9614C123.113 37.0318 125.517 37.8183 126.143 38C126.769 37.8183 129.173 37.0318 131.769 34.9614C132.07 34.7291 132.366 34.4878 132.649 34.2316C133.018 33.9098 133.367 33.5553 133.698 33.183C133.745 33.1323 133.795 33.0817 133.842 33.031H133.836C135.065 31.6101 135.986 29.8882 136.415 28.0055Z" fill="#00C2FF"/>
<path d="M136.193 26.8079C136.952 26.8079 137.566 26.1883 137.566 25.4227C137.566 24.6571 136.952 24.0405 136.193 24.0405C135.434 24.0405 134.82 24.6601 134.82 25.4227C134.82 26.1853 135.434 26.8079 136.193 26.8079Z" fill="#00C2FF"/>
<path d="M131.131 24.1745C131.131 23.6949 130.744 23.3076 130.269 23.3076C129.793 23.3076 129.406 23.6949 129.406 24.1745C129.406 24.6541 129.793 25.0414 130.269 25.0414C130.744 25.0414 131.131 24.6541 131.131 24.1745Z" fill="#00C2FF"/>
<path d="M130.729 18.7885C130.729 18.5204 130.514 18.3029 130.245 18.3029C129.976 18.3029 129.761 18.5204 129.761 18.7885C129.761 19.0566 129.976 19.2741 130.245 19.2741C130.514 19.2741 130.729 19.0566 130.729 18.7885Z" fill="#00C2FF"/>
<path d="M134.217 22.834C133.851 22.834 133.553 23.1348 133.553 23.5042C133.553 23.8736 133.851 24.1745 134.217 24.1745C134.584 24.1745 134.882 23.8736 134.882 23.5042C134.882 23.1348 134.584 22.834 134.217 22.834Z" fill="#00C2FF"/>
<path d="M139.643 24.5767C139.643 24.2132 139.35 23.9183 138.99 23.9183C138.63 23.9183 138.337 24.2132 138.337 24.5767C138.337 24.9401 138.63 25.235 138.99 25.235C139.35 25.235 139.643 24.9401 139.643 24.5767Z" fill="#00C2FF"/>
<path d="M126.852 21.4875C126.852 21.7168 127.038 21.9045 127.265 21.9045C127.493 21.9045 127.679 21.7198 127.679 21.4875C127.679 21.2551 127.493 21.0704 127.265 21.0704C127.038 21.0704 126.852 21.2581 126.852 21.4875Z" fill="#00C2FF"/>
<path d="M128.582 27.94C128.582 28.1693 128.768 28.357 128.996 28.357C129.223 28.357 129.409 28.1693 129.409 27.94C129.409 27.7106 129.223 27.5229 128.996 27.5229C128.768 27.5229 128.582 27.7076 128.582 27.94Z" fill="#00C2FF"/>
<path d="M130.747 29.2716C130.747 29.4712 130.91 29.635 131.107 29.635C131.305 29.635 131.468 29.4712 131.468 29.2716C131.468 29.072 131.305 28.9081 131.107 28.9081C130.91 28.9081 130.747 29.072 130.747 29.2716Z" fill="#00C2FF"/>
<path d="M133.644 16.1819C134.022 16.1819 134.327 15.875 134.327 15.4937C134.327 15.1124 134.02 14.8056 133.644 14.8056C133.269 14.8056 132.962 15.1124 132.962 15.4937C132.962 15.875 133.266 16.1819 133.644 16.1819Z" fill="#00C2FF"/>
<path d="M131.607 28.0621C131.607 28.4136 131.89 28.7026 132.242 28.7026C132.593 28.7026 132.877 28.4166 132.877 28.0621C132.877 27.7076 132.593 27.4216 132.242 27.4216C131.89 27.4216 131.607 27.7076 131.607 28.0621Z" fill="#00C2FF"/>
<path d="M136.565 30.4393C136.155 30.4393 135.824 30.773 135.824 31.187C135.824 31.6011 136.155 31.9348 136.565 31.9348C136.976 31.9348 137.307 31.6011 137.307 31.187C137.307 30.773 136.976 30.4393 136.565 30.4393Z" fill="#00C2FF"/>
<path d="M130.03 26.23C130.03 25.9262 129.784 25.6789 129.483 25.6789C129.182 25.6789 128.937 25.9262 128.937 26.23C128.937 26.5339 129.182 26.7811 129.483 26.7811C129.784 26.7811 130.03 26.5339 130.03 26.23Z" fill="#00C2FF"/>
<path d="M137.998 17.6416C137.416 17.6416 136.946 18.1152 136.946 18.7021C136.946 19.289 137.416 19.7626 137.998 19.7626C138.579 19.7626 139.049 19.289 139.049 18.7021C139.049 18.1152 138.579 17.6416 137.998 17.6416Z" fill="#00C2FF"/>
<path d="M134.129 13.4204C134.711 13.4204 135.18 12.9467 135.18 12.3598C135.18 11.773 134.711 11.2993 134.129 11.2993C133.547 11.2993 133.077 11.773 133.077 12.3598C133.077 12.9467 133.547 13.4204 134.129 13.4204Z" fill="#00C2FF"/>
<path d="M143.195 17.8769C142.8 17.8769 142.478 18.1987 142.478 18.5978C142.478 18.997 142.8 19.3188 143.195 19.3188C143.591 19.3188 143.913 18.997 143.913 18.5978C143.913 18.1987 143.591 17.8769 143.195 17.8769Z" fill="#00C2FF"/>
<path d="M146.663 18.7438C146.255 18.7438 145.924 19.0775 145.924 19.4886C145.924 19.8997 146.255 20.2333 146.663 20.2333C147.07 20.2333 147.401 19.8997 147.401 19.4886C147.401 19.0775 147.07 18.7438 146.663 18.7438Z" fill="#00C2FF"/>
<path d="M148.033 13.6736C147.413 13.6736 146.908 14.18 146.908 14.8086C146.908 15.4371 147.413 15.9436 148.033 15.9436C148.653 15.9436 149.158 15.4341 149.158 14.8086C149.158 14.183 148.653 13.6736 148.033 13.6736Z" fill="#00C2FF"/>
<path d="M147.888 8.40075C147.888 8.97272 148.349 9.43744 148.919 9.43744C149.489 9.43744 149.95 8.97272 149.95 8.40075C149.95 7.82879 149.489 7.36406 148.919 7.36406C148.349 7.36406 147.888 7.82879 147.888 8.40075Z" fill="#00C2FF"/>
<path d="M140.88 1.94826C141.415 1.94826 141.849 1.51333 141.849 0.97413C141.849 0.434933 141.415 0 140.88 0C140.346 0 139.911 0.434933 139.911 0.97413C139.911 1.51333 140.346 1.94826 140.88 1.94826Z" fill="#00C2FF"/>
<path d="M136.483 2.69003C136.993 2.69003 137.407 2.27297 137.407 1.76058C137.407 1.2482 136.993 0.831138 136.483 0.831138C135.972 0.831138 135.558 1.2482 135.558 1.76058C135.558 2.27297 135.972 2.69003 136.483 2.69003Z" fill="#00C2FF"/>
<path d="M132.93 5.80903C133.458 5.80903 133.89 5.37708 133.89 4.84384C133.89 4.3106 133.458 3.87865 132.93 3.87865C132.401 3.87865 131.97 4.3106 131.97 4.84384C131.97 5.37708 132.401 5.80903 132.93 5.80903Z" fill="#00C2FF"/>
<path d="M145.638 4.61446C146.385 4.61446 146.991 4.00376 146.991 3.25306C146.991 2.50235 146.385 1.89166 145.638 1.89166C144.891 1.89166 144.285 2.50235 144.285 3.25306C144.285 4.00376 144.891 4.61446 145.638 4.61446Z" fill="#00C2FF"/>
<path d="M144.897 18.5234C144.897 18.5234 144.879 18.4876 144.864 18.4995C144.843 18.5114 144.852 18.5621 144.849 18.5889C144.832 18.7706 144.799 18.9583 144.761 19.146C144.294 21.4875 143.349 23.2838 141.976 24.0792C141.465 24.3801 140.957 24.535 140.446 24.8686C139.613 25.378 138.78 26.1287 138.012 27.088C137.351 27.9012 136.737 28.8605 136.202 29.8942C136.155 30.0252 136.305 29.9001 136.338 29.9031C136.474 29.8525 136.607 29.8316 136.737 29.8108C137.626 29.635 138.361 29.4592 139.256 29.2418C140.455 28.926 141.861 28.0114 142.593 25.947C142.708 25.5895 142.859 25.3214 142.924 24.958C142.936 24.9044 142.936 24.9044 142.968 24.8865C147.575 23.5579 144.9 18.5234 144.9 18.5234H144.897Z" fill="#00C2FF"/>
</svg>
