<svg width="144" height="68" viewBox="0 0 144 68" fill="none" xmlns="http://www.w3.org/2000/svg">
<path d="M52.7564 39.3882C52.2332 39.8558 51.3668 40.1489 50.6976 40.3818C43.3006 42.9585 32.9907 40.8952 32.3661 31.7233C32.1204 28.1133 33.1985 25.9208 33.8755 22.6177C35.0639 16.8191 30.1397 15.5479 26.4133 12.4633C22.9716 9.61453 20.6995 5.69321 20.3401 1.21272C21.7754 2.81956 23.4581 4.08471 25.3497 5.13184C28.7055 6.98983 32.6586 8.02646 35.3236 10.9205L36.6023 12.7967C38.3513 6.49801 46.1411 5.52099 50.5299 1.60021L52.0867 0C52.4059 4.84039 50.3912 8.89805 46.9105 12.1388C44.5314 14.3539 40.0317 16.9521 38.9385 20.0201C38.037 22.5509 38.7937 26.5661 39.7509 29.0434C41.8893 34.5782 46.6303 38.8854 52.7564 39.3882Z" fill="#1575BB"/>
<path d="M99.765 28.4644C99.5098 28.5174 99.5873 28.4368 99.5159 28.3242C99.2162 27.8506 97.9609 24.3935 97.8946 23.8564C97.8227 23.2785 98.2333 22.1292 98.3169 21.4574C98.4735 20.2011 98.5141 18.5788 98.1013 17.3716C98.0561 17.2391 97.7703 16.4907 97.5402 16.6601C97.2677 16.861 96.8917 19.138 96.8655 19.579C96.622 23.7366 99.0663 30.5382 102.327 33.2661C105.057 35.5492 109.867 36.5554 113.057 34.7328C115.709 33.2176 116.544 30.0033 116.916 27.1876L123.496 27.7496C122.723 32.2968 120.461 37.034 116.256 39.3352C111.093 42.1603 103.921 40.8587 99.5967 37.0743C94.634 32.7318 91.5244 23.2409 93.3876 16.9069C95.0925 11.1099 100.999 11.8247 101.868 17.6128C102.417 21.2631 101.232 25.1552 99.765 28.4649V28.4644Z" fill="#DF1283"/>
<path d="M41.1706 21.9548L47.7441 22.286C47.3964 26.7477 48.9247 30.955 53.8473 31.7426C58.7382 32.5254 62.5036 30.4118 65.2125 26.5137C67.0813 23.8249 69.622 17.9738 68.4029 14.7856C68.3672 14.6928 68.3706 14.4731 68.1861 14.5642C67.4735 14.9169 66.9442 17.9181 66.8991 18.6964C66.7915 20.5665 67.2819 21.0346 66.4773 22.9125C66.294 23.3414 64.9707 25.9181 64.73 26.0373C64.5445 26.1289 64.55 25.9076 64.5144 25.8154C63.0908 22.1259 62.3548 10.9393 68.2965 10.8758C74.1195 10.8135 72.5873 20.6863 71.3319 24.0794C68.1706 32.6225 60.2899 39.1283 50.6664 36.4379C44.1325 34.6113 41.2101 28.2778 41.1706 21.9553V21.9548Z" fill="#0DAFDA"/>
<path d="M70.0248 28.0233C70.1285 27.9488 70.2299 28.0653 70.2973 28.1382C70.5486 28.4097 70.8823 29.1257 71.1581 29.4922C73.0731 32.0374 75.7631 33.8214 78.9318 34.4811C84.3809 35.6159 90.2563 34.4275 94.1415 30.3422L95.9595 33.7061C93.1792 36.4975 89.3905 38.4261 85.4362 38.9301C79.0187 39.7476 72.6357 38.1126 68.2954 33.2104C68.1026 32.9929 67.5036 32.3035 67.4 32.1025C67.3571 32.0186 67.3242 31.9706 67.4 31.8884C68.1226 31.0433 68.7996 30.1617 69.4013 29.2278C69.5507 28.9965 69.9697 28.0636 70.0248 28.0239V28.0233Z" fill="#F59C29"/>
<path d="M82.145 22.9732C86.828 22.6685 87.0821 29.9067 82.3327 29.9067C78.0013 29.9067 77.6274 23.2669 82.145 22.9732Z" fill="#F59C29"/>
<path d="M107.313 25.5118C112.263 24.6844 113.061 31.7156 108.595 32.2968C104.028 32.8919 103.211 26.1974 107.313 25.5118Z" fill="#DF1283"/>
<path d="M55.2921 21.984C60.1411 21.2803 60.7942 28.3027 56.3652 28.7834C51.715 29.2885 51.2114 22.5763 55.2921 21.984Z" fill="#0DAFDA"/>
<path d="M6.0832 57.2666C5.62187 57.7424 4.9059 58.274 3.45614 58.274C1.50715 58.274 0 56.8095 0 54.85C0 52.7883 1.67597 51.4635 3.51241 51.4635C4.80227 51.4635 5.64972 52.0702 6.06426 52.4433L5.29202 53.3574C5.01901 53.0869 4.40667 52.5923 3.53136 52.5923C2.29778 52.5923 1.36563 53.5997 1.36563 54.85C1.36563 56.1002 2.22256 57.1264 3.57872 57.1264C4.33201 57.1264 4.9722 56.7626 5.33046 56.4265L6.08376 57.266L6.0832 57.2666Z" fill="#1575BB"/>
<path d="M9.94441 51.4641C11.997 51.4641 13.4568 52.9942 13.4568 54.8693C13.4568 56.7444 11.997 58.2745 9.94441 58.2745C7.89178 58.2745 6.44147 56.7444 6.44147 54.8693C6.44147 52.9942 7.87284 51.4641 9.94441 51.4641ZM9.94441 57.1269C11.0649 57.1269 12.0912 56.2592 12.0912 54.8693C12.0912 53.4794 11.0649 52.5929 9.94441 52.5929C8.82393 52.5929 7.80709 53.4794 7.80709 54.8693C7.80709 56.2592 8.81446 57.1269 9.94441 57.1269Z" fill="#1575BB"/>
<path d="M14.4263 58.1437V51.5761L14.6146 51.5298L17.3548 54.0021L20.0665 51.5298L20.2549 51.5761V58.1437H19.0024V54.123L17.4016 55.6156H17.2885L15.6877 54.123V58.1437H14.4257H14.4263Z" fill="#1575BB"/>
<path d="M21.6679 51.5949H22.9393V58.1437H21.6679V51.5949Z" fill="#1575BB"/>
<path d="M28.4481 52.658H26.8V58.1437H25.5285V52.658H23.8804V51.5944H28.4475V52.658H28.4481Z" fill="#1575BB"/>
<path d="M33.3066 57.08V58.1437H29.3891V51.5949H33.203V52.6586H30.6606V53.974H32.7132V55.0377H30.6606V57.0806H33.3066V57.08ZM31.1409 49.8037H32.5912V49.9621L31.4897 51.1097H30.5481L31.1415 49.8037H31.1409Z" fill="#1575BB"/>
<path d="M40.5861 58.1437H36.8101V51.5949H38.0816V57.0806H40.5866V58.1442L40.5861 58.1437Z" fill="#1575BB"/>
<path d="M44.1642 51.4641C46.2169 51.4641 47.6766 52.9942 47.6766 54.8693C47.6766 56.7444 46.2169 58.2745 44.1642 58.2745C42.1116 58.2745 40.6613 56.7444 40.6613 54.8693C40.6613 52.9942 42.0927 51.4641 44.1642 51.4641ZM44.1642 57.1269C45.2847 57.1269 46.311 56.2592 46.311 54.8693C46.311 53.4794 45.2847 52.5929 44.1642 52.5929C43.0438 52.5929 42.0269 53.4794 42.0269 54.8693C42.0269 56.2592 43.0343 57.1269 44.1642 57.1269Z" fill="#1575BB"/>
<path d="M54.4563 57.2666C53.995 57.7424 53.279 58.274 51.8293 58.274C49.8803 58.274 48.3731 56.8095 48.3731 54.85C48.3731 52.7883 50.0491 51.4635 51.8855 51.4635C53.1754 51.4635 54.0228 52.0702 54.4374 52.4433L53.6651 53.3574C53.3921 53.0869 52.7798 52.5923 51.9045 52.5923C50.6709 52.5923 49.7387 53.5997 49.7387 54.85C49.7387 56.1002 50.5957 57.1264 51.9518 57.1264C52.7051 57.1264 53.3453 56.7626 53.703 56.4265L54.4563 57.266V57.2666Z" fill="#1575BB"/>
<path d="M54.711 58.1437L57.8467 51.5292H58.0729L61.1803 58.1437H59.7773L59.2876 57.08H56.6131L56.1234 58.1437H54.711ZM57.0555 56.0445H58.8351L57.9498 54.0016L57.0555 56.0445Z" fill="#1575BB"/>
<path d="M65.6532 58.1437H61.8773V51.5949H63.1488V57.0806H65.6538V58.1442L65.6532 58.1437Z" fill="#1575BB"/>
<path d="M68.8453 51.6319C73.252 50.9413 74.3635 53.2553 74.3635 54.8693C74.3635 56.4833 73.2241 58.7222 68.8453 58.1437V51.6319ZM70.1262 57.0243C71.4256 57.1457 73.0079 56.586 73.0079 54.8599C73.0079 53.4137 71.9064 52.4996 70.1262 52.6956V57.0243Z" fill="#1575BB"/>
<path d="M79.3262 57.08V58.1437H75.4088V51.5949H79.2226V52.6586H76.6802V53.974H78.7329V55.0377H76.6802V57.0806H79.3262V57.08Z" fill="#1575BB"/>
<path d="M86.4736 54.8787H88.7335V57.1551C87.8671 58.0322 86.9634 58.2745 85.9934 58.2745C83.8087 58.2745 82.3868 56.7632 82.3868 54.8505C82.3868 52.9379 84.0349 51.4641 85.8708 51.4641C87.208 51.4641 87.9802 52.0238 88.4511 52.4532C88.197 52.7519 87.924 53.0411 87.6599 53.3397C87.3584 53.0505 86.8219 52.5935 85.9271 52.5935C84.7219 52.5935 83.7613 53.5821 83.7613 54.8229C83.7613 56.2128 84.684 57.1457 86.0496 57.1457C86.5767 57.1457 87.208 56.9216 87.5 56.6793V55.933H86.4736V54.8787Z" fill="#1575BB"/>
<path d="M92.9424 51.4641C94.995 51.4641 96.4548 52.9942 96.4548 54.8693C96.4548 56.7444 94.995 58.2745 92.9424 58.2745C90.8898 58.2745 89.4395 56.7444 89.4395 54.8693C89.4395 52.9942 90.8708 51.4641 92.9424 51.4641ZM92.9424 57.1269C94.0629 57.1269 95.0892 56.2592 95.0892 54.8693C95.0892 53.4794 94.0629 52.5929 92.9424 52.5929C91.8219 52.5929 90.8051 53.4794 90.8051 54.8693C90.8051 56.2592 91.8125 57.1269 92.9424 57.1269Z" fill="#1575BB"/>
<path d="M97.4249 51.6507C97.8673 51.5761 98.376 51.511 98.8752 51.511C100.156 51.511 101.399 51.8935 101.399 53.2928C101.399 53.9083 101.012 54.3747 100.796 54.5243C101.295 54.6645 101.954 55.2424 101.954 56.1941C101.954 56.3994 101.926 56.6048 101.841 56.7819C101.605 57.7617 100.607 58.2375 98.9125 58.2375C98.4607 58.2375 97.9709 58.2 97.4249 58.1349V51.6507ZM98.7058 54.16H99.6006C99.8736 54.0761 100.137 53.7962 100.137 53.4137C100.137 52.7701 99.619 52.6023 99.1482 52.6023C98.9883 52.6023 98.8278 52.6211 98.7058 52.6398V54.1605V54.16ZM98.7058 57.0618C98.8752 57.0712 99.054 57.0899 99.224 57.0899C99.9867 57.0899 100.646 56.8195 100.646 56.1008C100.646 55.6901 100.335 55.2237 99.8363 55.1304H98.7064V57.0612L98.7058 57.0618Z" fill="#1575BB"/>
<path d="M106.747 57.08V58.1437H102.83V51.5949H106.644V52.6586H104.101V53.974H106.154V55.0377H104.101V57.0806H106.747V57.08Z" fill="#1575BB"/>
<path d="M111.249 55.6807L113.028 58.1437H111.475L110.081 56.1196C109.789 56.1665 109.544 56.1753 109.215 56.1477V58.1442H107.943V51.6512C110.759 51.1103 112.275 52.1176 112.275 53.7874C112.275 54.5149 111.87 55.2894 111.248 55.6813L111.249 55.6807ZM109.215 55.0183C110.345 55.1768 110.966 54.5613 110.966 53.8056C110.966 53.0969 110.392 52.509 109.215 52.705V55.0183Z" fill="#1575BB"/>
<path d="M118.744 51.5949V58.1437H117.492V55.5035L114.95 53.8056V58.1437H113.716V51.5855L113.885 51.5298L117.492 54.0115V51.5955H118.744V51.5949Z" fill="#1575BB"/>
<path d="M119.366 58.1437L122.502 51.5292H122.728L125.835 58.1437H124.432L123.942 57.08H121.268L120.778 58.1437H119.366ZM121.711 56.0445H123.49L122.605 54.0016L121.711 56.0445Z" fill="#1575BB"/>
<path d="M131.561 51.5949V58.1437H130.308V55.5035L127.766 53.8056V58.1437H126.532V51.5855L126.701 51.5298L130.308 54.0115V51.5955H131.561V51.5949Z" fill="#1575BB"/>
<path d="M132.54 58.1437L132.445 57.9665L135.412 52.658H132.775V51.5944H137.277L137.371 51.7715L134.414 57.08H137.201V58.1437H132.54Z" fill="#1575BB"/>
<path d="M137.531 58.1437L140.666 51.5292H140.893L144 58.1437H142.597L142.107 57.08H139.433L138.943 58.1437H137.531ZM141.655 56.0445L140.77 54.0016L139.875 56.0445H141.655Z" fill="#1575BB"/>
<path d="M6.35789 66.5085V67.904H5.63301V63.1364C7.42097 62.76 8.62279 63.5057 8.62279 64.73C8.62279 65.9543 7.60763 66.577 6.35845 66.5085H6.35789ZM6.35789 65.8655C7.35189 65.9477 7.87674 65.4211 7.87674 64.73C7.87674 64.1008 7.33127 63.567 6.35789 63.7177V65.8655Z" fill="#0DAFDA"/>
<path d="M8.464 67.904L10.7217 63.0476H10.8181L13.0479 67.904H12.2472L11.812 66.9258H9.70649L9.27134 67.904H8.46344H8.464ZM9.96224 66.3308H11.5502L10.7629 64.5043L9.96224 66.3308Z" fill="#0DAFDA"/>
<path d="M15.7758 66.0504L17.1219 67.904H16.2037L15.106 66.3032C14.8715 66.3512 14.6297 66.365 14.3399 66.3374V67.904H13.6151V63.1364C15.5 62.7672 16.5703 63.4715 16.5703 64.6616C16.5703 65.1815 16.3151 65.7219 15.7763 66.0504H15.7758ZM14.3399 65.6943C15.2648 65.797 15.8242 65.3389 15.8242 64.6682C15.8242 64.0527 15.32 63.567 14.3399 63.7243V65.6943Z" fill="#0DAFDA"/>
<path d="M17.3085 67.904L19.5662 63.0476H19.6626L21.8924 67.904H21.0917L20.6566 66.9258H18.551L18.1159 67.904H17.308H17.3085ZM18.8068 66.3308H20.3947L19.6074 64.5043L18.8068 66.3308Z" fill="#0DAFDA"/>
<path d="M26.8847 67.3023V67.904H24.1161V63.1022H26.795V63.711H24.841V64.8945H26.415V65.5034H24.841V67.3023H26.8847Z" fill="#0DAFDA"/>
<path d="M30.4339 67.904H27.8174V63.1022H28.5422V67.3017H30.4339V67.904Z" fill="#0DAFDA"/>
<path d="M35.6601 63.711H34.4104V67.904H33.6855V63.711H32.4497V63.1022H35.6601V63.711Z" fill="#0DAFDA"/>
<path d="M37.0625 63.1022V66.2005C37.0625 66.8502 37.4837 67.3702 38.1117 67.3702C38.7396 67.3702 39.1748 66.8502 39.1748 66.2005V63.1022H39.8996V66.2281C39.8996 67.1378 39.3196 67.9995 38.1044 67.9995C36.8892 67.9995 36.3298 67.1378 36.3298 66.2281V63.1022H37.0625Z" fill="#0DAFDA"/>
<path d="M43.1173 66.0504L44.4634 67.904H43.5452L42.4476 66.3032C42.213 66.3512 41.9712 66.365 41.6815 66.3374V67.904H40.9566V63.1364C42.8415 62.7672 43.9118 63.4715 43.9118 64.6616C43.9118 65.1815 43.6567 65.7219 43.1179 66.0504H43.1173ZM41.6809 65.6943C42.6058 65.797 43.1652 65.3389 43.1652 64.6682C43.1652 64.0527 42.661 63.567 41.6809 63.7243V65.6943Z" fill="#0DAFDA"/>
<path d="M45.0501 63.1022H45.775V67.904H45.0501V63.1022Z" fill="#0DAFDA"/>
<path d="M49.186 63.9092C48.8957 63.7585 48.5782 63.6564 48.2127 63.6564C47.7296 63.6564 47.4465 63.9302 47.4465 64.2581C47.4465 64.655 47.8538 64.8873 48.3235 65.1335C49.3041 65.6397 49.6145 66.1392 49.6006 66.7343C49.5799 67.5755 48.9242 68.0066 48.0611 67.9995C47.3568 67.9928 46.8392 67.7533 46.5835 67.5413L46.9078 66.9871C47.1769 67.1853 47.5362 67.3636 48.0054 67.3636C48.5715 67.3636 48.8751 67.0489 48.8751 66.7409C48.8751 66.2828 48.4472 66.0432 47.8811 65.7148C47.1562 65.2908 46.7144 64.9078 46.7144 64.2305C46.7144 63.6696 47.1908 63.0062 48.1781 63.0062C48.689 63.0062 49.186 63.1569 49.4345 63.307L49.186 63.9087V63.9092Z" fill="#0DAFDA"/>
<path d="M50.4497 67.904V63.0818L50.5673 63.0476L52.5073 64.942L54.4407 63.0476L54.5583 63.0818V67.904H53.8401V64.5799L52.5419 65.8726H52.4661L51.1679 64.5799V67.904H50.4497Z" fill="#0DAFDA"/>
<path d="M57.8718 63.0067C59.3494 63.0067 60.4197 64.1151 60.4197 65.51C60.4197 66.9049 59.3494 68 57.8718 68C56.3942 68 55.3311 66.8988 55.3311 65.51C55.3311 64.1212 56.3942 63.0067 57.8718 63.0067ZM57.8718 67.3569C58.8179 67.3569 59.6391 66.6184 59.6391 65.51C59.6391 64.4016 58.8173 63.6426 57.8718 63.6426C56.9263 63.6426 56.1111 64.4016 56.1111 65.51C56.1111 66.6184 56.919 67.3569 57.8718 67.3569Z" fill="#0DAFDA"/>
<path d="M65.1629 63.9092C64.8727 63.7585 64.5551 63.6564 64.1896 63.6564C63.7065 63.6564 63.4234 63.9302 63.4234 64.2581C63.4234 64.655 63.8307 64.8873 64.3004 65.1335C65.2811 65.6397 65.5914 66.1392 65.5775 66.7343C65.5569 67.5755 64.9011 68.0066 64.038 67.9995C63.3337 67.9928 62.8161 67.7533 62.5604 67.5413L62.8847 66.9871C63.1538 67.1853 63.5131 67.3636 63.9823 67.3636C64.5484 67.3636 64.852 67.0489 64.852 66.7409C64.852 66.2828 64.4241 66.0432 63.858 65.7148C63.1332 65.2908 62.6913 64.9078 62.6913 64.2305C62.6913 63.6696 63.1677 63.0062 64.155 63.0062C64.6659 63.0062 65.1629 63.1569 65.4114 63.307L65.1629 63.9087V63.9092Z" fill="#0DAFDA"/>
<path d="M68.6358 63.0067C70.1134 63.0067 71.1837 64.1151 71.1837 65.51C71.1837 66.9049 70.1134 68 68.6358 68C67.1582 68 66.0951 66.8988 66.0951 65.51C66.0951 64.1212 67.1582 63.0067 68.6358 63.0067ZM68.6358 67.3569C69.5819 67.3569 70.4031 66.6184 70.4031 65.51C70.4031 64.4016 69.5813 63.6426 68.6358 63.6426C67.6903 63.6426 66.8751 64.4016 66.8751 65.51C66.8751 66.6184 67.683 67.3569 68.6358 67.3569Z" fill="#0DAFDA"/>
<path d="M74.2699 63.9092C73.9796 63.7585 73.662 63.6564 73.2965 63.6564C72.8135 63.6564 72.5304 63.9302 72.5304 64.2581C72.5304 64.655 72.9377 64.8873 73.4074 65.1335C74.388 65.6397 74.6984 66.1392 74.6844 66.7343C74.6638 67.5755 74.008 68.0066 73.145 67.9995C72.4407 67.9928 71.9231 67.7533 71.6674 67.5413L71.9916 66.9871C72.2607 67.1853 72.6201 67.3636 73.0893 67.3636C73.6553 67.3636 73.959 67.0489 73.959 66.7409C73.959 66.2828 73.5311 66.0432 72.965 65.7148C72.2401 65.2908 71.7983 64.9078 71.7983 64.2305C71.7983 63.6696 72.2747 63.0062 73.262 63.0062C73.7729 63.0062 74.2699 63.1569 74.5184 63.307L74.2699 63.9087V63.9092Z" fill="#0DAFDA"/>
<path d="M78.3295 63.711H77.0797V67.904H76.3549V63.711H75.119V63.1022H78.3295V63.711Z" fill="#0DAFDA"/>
<path d="M81.8229 67.3023V67.904H79.0544V63.1022H81.7332V63.711H79.7792V64.8945H81.3532V65.5034H79.7792V67.3023H81.8229Z" fill="#0DAFDA"/>
<path d="M86.2697 63.1022V67.904H85.5655V65.8384L83.4599 64.3541V67.904H82.7556V63.0884L82.8526 63.0476L85.566 64.9834V63.1022H86.2703H86.2697Z" fill="#0DAFDA"/>
<path d="M87.3746 63.1022H88.0995V67.904H87.3746V63.1022Z" fill="#0DAFDA"/>
<path d="M89.2038 63.1298C89.4941 63.0818 89.825 63.0409 90.1566 63.0409C91.0402 63.0409 91.9033 63.3075 91.9033 64.2928C91.9033 64.7444 91.6269 65.0932 91.4269 65.2163C91.8966 65.319 92.3864 65.6949 92.3864 66.4268C92.3864 67.453 91.5645 67.9658 90.2736 67.9658C89.956 67.9658 89.5626 67.9454 89.2032 67.8973V63.1298H89.2038ZM89.9359 65.0309H90.6123C90.9299 64.99 91.1857 64.7024 91.1857 64.3536C91.1857 63.8065 90.716 63.6625 90.302 63.6625C90.1711 63.6625 90.0396 63.6691 89.9359 63.6901V65.0309ZM89.9359 67.2885C90.088 67.3089 90.2396 67.3161 90.3917 67.3161C91.0475 67.3161 91.6414 67.0699 91.6414 66.4268C91.6414 65.6949 91.0202 65.5856 90.6129 65.5856H89.9365V67.289L89.9359 67.2885Z" fill="#0DAFDA"/>
<path d="M95.6943 67.904H93.0778V63.1022H93.8027V67.3017H95.6943V67.904Z" fill="#0DAFDA"/>
<path d="M99.2362 67.3023V67.904H96.4677V63.1022H99.1465V63.711H97.1925V64.8945H98.7665V65.5034H97.1925V67.3023H99.2362Z" fill="#0DAFDA"/>
<path d="M104.594 67.3023V67.904H101.825V63.1022H104.504V63.711H102.55V64.8945H104.124V65.5034H102.55V67.3023H104.594Z" fill="#0DAFDA"/>
<path d="M109.04 63.1022V67.904H108.336V65.8384L106.23 64.3541V67.904H105.526V63.0884L105.623 63.0476L108.337 64.9834V63.1022H109.041H109.04Z" fill="#0DAFDA"/>
<path d="M114.108 63.9092C113.818 63.7585 113.5 63.6564 113.135 63.6564C112.652 63.6564 112.369 63.9302 112.369 64.2581C112.369 64.655 112.776 64.8873 113.246 65.1335C114.226 65.6397 114.537 66.1392 114.523 66.7343C114.502 67.5755 113.846 68.0066 112.983 67.9995C112.279 67.9928 111.761 67.7533 111.506 67.5413L111.83 66.9871C112.099 67.1853 112.458 67.3636 112.928 67.3636C113.494 67.3636 113.797 67.0489 113.797 66.7409C113.797 66.2828 113.369 66.0432 112.803 65.7148C112.078 65.2908 111.637 64.9078 111.637 64.2305C111.637 63.6696 112.113 63.0062 113.1 63.0062C113.611 63.0062 114.108 63.1569 114.357 63.307L114.108 63.9087V63.9092Z" fill="#0DAFDA"/>
<path d="M114.833 67.904L117.091 63.0476H117.187L119.418 67.904H118.617L118.182 66.9258H116.076L115.641 67.904H114.833ZM116.331 66.3308H117.919L117.132 64.5043L116.331 66.3308Z" fill="#0DAFDA"/>
<path d="M119.984 67.904V63.0818L120.101 63.0476L122.041 64.942L123.975 63.0476L124.092 63.0818V67.904H123.374V64.5799L122.076 65.8726H122L120.702 64.5799V67.904H119.984Z" fill="#0DAFDA"/>
<path d="M124.624 67.904L126.881 63.0476H126.978L129.208 67.904H128.408L127.972 66.9258H125.867L125.432 67.904H124.624ZM126.122 66.3308H127.71L126.923 64.5043L126.122 66.3308Z" fill="#0DAFDA"/>
<path d="M133.289 63.1022V67.904H132.585V65.8384L130.479 64.3541V67.904H129.775V63.0884L129.872 63.0476L132.585 64.9834V63.1022H133.289H133.289Z" fill="#0DAFDA"/>
<path d="M133.82 67.904L136.078 63.0476H136.174L138.405 67.904H137.604L137.169 66.9258H135.064L134.628 67.904H133.82ZM135.319 66.3308H136.907L136.119 64.5043L135.319 66.3308ZM137.135 61.8503V61.953L136.361 62.76H135.85L136.264 61.8503H137.135Z" fill="#0DAFDA"/>
</svg>
